<svg width="160" height="56" viewBox="0 0 160 56" fill="none" xmlns="http://www.w3.org/2000/svg">
<path d="M34.5323 23.7173C34.3608 23.8487 31.3332 25.5337 31.3332 29.2802C31.3332 33.6136 35.1857 35.1467 35.301 35.1846C35.2832 35.2781 34.689 37.2842 33.2698 39.3282C32.0044 41.127 30.6828 42.9229 28.6723 42.9229C26.6618 42.9229 26.1444 41.7695 23.8234 41.7695C21.5616 41.7695 20.7574 42.9609 18.9184 42.9609C17.0794 42.9609 15.7962 41.2964 14.3209 39.2523C12.6119 36.852 11.2312 33.123 11.2312 29.5838C11.2312 23.9072 14.9684 20.8965 18.6464 20.8965C20.6007 20.8965 22.2298 22.1638 23.4568 22.1638C24.6247 22.1638 26.4459 20.8206 28.6693 20.8206C29.5119 20.8206 32.5395 20.8965 34.5323 23.7173ZM27.6138 18.4173C28.5333 17.3398 29.1838 15.8447 29.1838 14.3496C29.1838 14.1423 29.166 13.9321 29.1276 13.7627C27.6315 13.8182 25.8517 14.7468 24.7784 15.9761C23.9358 16.9223 23.1493 18.4173 23.1493 19.9329C23.1493 20.1607 23.1877 20.3884 23.2055 20.4614C23.3001 20.4789 23.4538 20.4994 23.6076 20.4994C24.9499 20.4994 26.6381 19.6117 27.6138 18.4173Z" fill="black"/>
<path d="M44.5104 19.7871C44.4328 19.7871 44.3669 19.76 44.3126 19.7056C44.2582 19.6513 44.2311 19.5854 44.2311 19.5078V11.9307C44.2311 11.8454 44.2582 11.7755 44.3126 11.7212C44.3669 11.6669 44.4328 11.6397 44.5104 11.6397H47.3504C48.1341 11.6397 48.7781 11.76 49.2825 12.0006C49.7946 12.2411 50.1787 12.598 50.4347 13.0714C50.6985 13.5447 50.8343 14.1227 50.8421 14.8056C50.8576 15.147 50.8654 15.4496 50.8654 15.7134C50.8654 15.9772 50.8576 16.276 50.8421 16.6096C50.8266 17.3313 50.6947 17.9287 50.4464 18.4021C50.1981 18.8676 49.8217 19.2168 49.3174 19.4496C48.8208 19.6746 48.1845 19.7871 47.4086 19.7871H44.5104ZM45.8489 18.4486H47.3504C47.7849 18.4486 48.1379 18.3865 48.4095 18.2624C48.6811 18.1382 48.879 17.9404 49.0031 17.6688C49.135 17.3895 49.2049 17.0248 49.2126 16.5747C49.2204 16.3419 49.2243 16.1402 49.2243 15.9695C49.232 15.791 49.232 15.6164 49.2243 15.4457C49.2243 15.2673 49.2204 15.0655 49.2126 14.8405C49.1971 14.2042 49.038 13.7348 48.7354 13.4322C48.4328 13.1295 47.9517 12.9782 47.2922 12.9782H45.8489V18.4486ZM54.9522 19.9035C54.3314 19.9035 53.8076 19.7949 53.3809 19.5776C52.9619 19.3603 52.6399 19.0538 52.4148 18.6581C52.1976 18.2624 52.0734 17.8007 52.0424 17.2731C52.0346 17.1334 52.0307 16.9627 52.0307 16.7609C52.0307 16.5592 52.0346 16.3885 52.0424 16.2488C52.0734 15.7134 52.2014 15.2517 52.4265 14.8638C52.6593 14.468 52.9851 14.1615 53.4042 13.9443C53.8309 13.727 54.3469 13.6184 54.9522 13.6184C55.5574 13.6184 56.0695 13.727 56.4885 13.9443C56.9153 14.1615 57.2412 14.468 57.4662 14.8638C57.699 15.2517 57.8309 15.7134 57.8619 16.2488C57.8697 16.3885 57.8736 16.5592 57.8736 16.7609C57.8736 16.9627 57.8697 17.1334 57.8619 17.2731C57.8309 17.8007 57.7029 18.2624 57.4778 18.6581C57.2606 19.0538 56.9386 19.3603 56.5118 19.5776C56.0928 19.7949 55.5729 19.9035 54.9522 19.9035ZM54.9522 18.7512C55.3634 18.7512 55.6815 18.6232 55.9066 18.3671C56.1316 18.1033 56.2557 17.7192 56.279 17.2149C56.2868 17.0985 56.2906 16.9472 56.2906 16.7609C56.2906 16.5747 56.2868 16.4234 56.279 16.307C56.2557 15.8104 56.1316 15.4302 55.9066 15.1664C55.6815 14.9026 55.3634 14.7707 54.9522 14.7707C54.5409 14.7707 54.2228 14.9026 53.9977 15.1664C53.7727 15.4302 53.6486 15.8104 53.6253 16.307C53.6175 16.4234 53.6137 16.5747 53.6137 16.7609C53.6137 16.9472 53.6175 17.0985 53.6253 17.2149C53.6486 17.7192 53.7727 18.1033 53.9977 18.3671C54.2228 18.6232 54.5409 18.7512 54.9522 18.7512ZM60.6454 19.7871C60.5368 19.7871 60.4553 19.76 60.401 19.7056C60.3467 19.6513 60.3001 19.5815 60.2613 19.4961L58.5969 14.0956C58.5892 14.0568 58.5853 14.0219 58.5853 13.9908C58.5853 13.921 58.6086 13.8628 58.6551 13.8163C58.7094 13.7619 58.7676 13.7348 58.8297 13.7348H59.691C59.7841 13.7348 59.8578 13.7619 59.9121 13.8163C59.9664 13.8628 59.9975 13.9094 60.0052 13.9559L61.1459 17.8085L62.3563 13.9908C62.3719 13.9365 62.4068 13.8822 62.4611 13.8279C62.5154 13.7658 62.5969 13.7348 62.7055 13.7348H63.2875C63.3961 13.7348 63.4776 13.7658 63.5319 13.8279C63.5862 13.8822 63.6211 13.9365 63.6366 13.9908L64.8471 17.8085L65.9877 13.9559C65.9955 13.9094 66.0227 13.8628 66.0692 13.8163C66.1235 13.7619 66.1972 13.7348 66.2904 13.7348H67.1517C67.2215 13.7348 67.2797 13.7619 67.3262 13.8163C67.3806 13.8628 67.4077 13.921 67.4077 13.9908C67.4077 14.0219 67.4 14.0568 67.3844 14.0956L65.72 19.4961C65.6968 19.5815 65.6541 19.6513 65.592 19.7056C65.5377 19.76 65.4562 19.7871 65.3476 19.7871H64.591C64.4824 19.7871 64.3971 19.76 64.335 19.7056C64.2729 19.6513 64.2302 19.5815 64.207 19.4961L62.9965 15.8182L61.786 19.4961C61.755 19.5815 61.7084 19.6513 61.6464 19.7056C61.592 19.76 61.5067 19.7871 61.3903 19.7871H60.6454ZM68.8197 19.7871C68.7421 19.7871 68.6761 19.76 68.6218 19.7056C68.5675 19.6513 68.5403 19.5854 68.5403 19.5078V14.0141C68.5403 13.9365 68.5675 13.8706 68.6218 13.8163C68.6761 13.7619 68.7421 13.7348 68.8197 13.7348H69.7741C69.8517 13.7348 69.9176 13.7619 69.9719 13.8163C70.0263 13.8706 70.0534 13.9365 70.0534 14.0141V14.4913C70.2552 14.243 70.5112 14.0374 70.8216 13.8744C71.1397 13.7037 71.5316 13.6184 71.9972 13.6184C72.4705 13.6184 72.8817 13.727 73.2309 13.9443C73.5801 14.1538 73.8478 14.4525 74.034 14.8405C74.228 15.2285 74.325 15.694 74.325 16.2372V19.5078C74.325 19.5854 74.2978 19.6513 74.2435 19.7056C74.1892 19.76 74.1232 19.7871 74.0456 19.7871H73.0214C72.9438 19.7871 72.8778 19.76 72.8235 19.7056C72.7692 19.6513 72.7421 19.5854 72.7421 19.5078V16.307C72.7421 15.857 72.6295 15.5039 72.4045 15.2479C72.1873 14.9918 71.8691 14.8638 71.4501 14.8638C71.0466 14.8638 70.7246 14.9918 70.4841 15.2479C70.2435 15.5039 70.1233 15.857 70.1233 16.307V19.5078C70.1233 19.5854 70.0961 19.6513 70.0418 19.7056C69.9875 19.76 69.9215 19.7871 69.8439 19.7871H68.8197ZM76.0944 19.7871C76.0168 19.7871 75.9508 19.76 75.8965 19.7056C75.8422 19.6513 75.815 19.5854 75.815 19.5078V11.8027C75.815 11.7251 75.8422 11.6591 75.8965 11.6048C75.9508 11.5505 76.0168 11.5234 76.0944 11.5234H77.0604C77.138 11.5234 77.204 11.5505 77.2583 11.6048C77.3126 11.6591 77.3398 11.7251 77.3398 11.8027V19.5078C77.3398 19.5854 77.3126 19.6513 77.2583 19.7056C77.204 19.76 77.138 19.7871 77.0604 19.7871H76.0944ZM81.5607 19.9035C80.9399 19.9035 80.4162 19.7949 79.9894 19.5776C79.5704 19.3603 79.2484 19.0538 79.0233 18.6581C78.8061 18.2624 78.6819 17.8007 78.6509 17.2731C78.6431 17.1334 78.6393 16.9627 78.6393 16.7609C78.6393 16.5592 78.6431 16.3885 78.6509 16.2488C78.6819 15.7134 78.81 15.2517 79.035 14.8638C79.2678 14.468 79.5937 14.1615 80.0127 13.9443C80.4394 13.727 80.9554 13.6184 81.5607 13.6184C82.1659 13.6184 82.678 13.727 83.097 13.9443C83.5238 14.1615 83.8497 14.468 84.0747 14.8638C84.3075 15.2517 84.4394 15.7134 84.4704 16.2488C84.4782 16.3885 84.4821 16.5592 84.4821 16.7609C84.4821 16.9627 84.4782 17.1334 84.4704 17.2731C84.4394 17.8007 84.3114 18.2624 84.0863 18.6581C83.8691 19.0538 83.5471 19.3603 83.1203 19.5776C82.7013 19.7949 82.1814 19.9035 81.5607 19.9035ZM81.5607 18.7512C81.9719 18.7512 82.29 18.6232 82.5151 18.3671C82.7401 18.1033 82.8642 17.7192 82.8875 17.2149C82.8953 17.0985 82.8992 16.9472 82.8992 16.7609C82.8992 16.5747 82.8953 16.4234 82.8875 16.307C82.8642 15.8104 82.7401 15.4302 82.5151 15.1664C82.29 14.9026 81.9719 14.7707 81.5607 14.7707C81.1494 14.7707 80.8313 14.9026 80.6063 15.1664C80.3812 15.4302 80.2571 15.8104 80.2338 16.307C80.226 16.4234 80.2222 16.5747 80.2222 16.7609C80.2222 16.9472 80.226 17.0985 80.2338 17.2149C80.2571 17.7192 80.3812 18.1033 80.6063 18.3671C80.8313 18.6232 81.1494 18.7512 81.5607 18.7512ZM87.5292 19.9035C87.1257 19.9035 86.761 19.8259 86.4351 19.6707C86.1092 19.5078 85.8492 19.2944 85.6553 19.0306C85.469 18.759 85.3759 18.4564 85.3759 18.1227C85.3759 17.5796 85.5932 17.1489 86.0277 16.8308C86.47 16.5049 87.052 16.2876 87.7736 16.179L89.3681 15.9462V15.7018C89.3681 15.3759 89.2867 15.1237 89.1237 14.9452C88.9608 14.7668 88.6814 14.6775 88.2857 14.6775C88.0064 14.6775 87.7775 14.7357 87.599 14.8521C87.4283 14.9608 87.3003 15.1082 87.2149 15.2944C87.1528 15.3953 87.0636 15.4457 86.9472 15.4457H86.0277C85.9424 15.4457 85.8764 15.4224 85.8299 15.3759C85.7911 15.3293 85.7717 15.2673 85.7717 15.1897C85.7794 15.0655 85.8299 14.9142 85.923 14.7357C86.0161 14.5573 86.1635 14.3866 86.3652 14.2236C86.567 14.0529 86.8269 13.9094 87.1451 13.793C87.4632 13.6766 87.8473 13.6184 88.2973 13.6184C88.7862 13.6184 89.1974 13.6805 89.5311 13.8046C89.8725 13.921 90.1441 14.0801 90.3458 14.2818C90.5476 14.4836 90.695 14.7202 90.7881 14.9918C90.8812 15.2634 90.9278 15.5505 90.9278 15.8531V19.5078C90.9278 19.5854 90.9006 19.6513 90.8463 19.7056C90.792 19.76 90.726 19.7871 90.6484 19.7871H89.7057C89.6203 19.7871 89.5505 19.76 89.4962 19.7056C89.4496 19.6513 89.4263 19.5854 89.4263 19.5078V19.0538C89.3255 19.2013 89.1897 19.3409 89.019 19.4729C88.8483 19.597 88.6388 19.7018 88.3905 19.7871C88.1499 19.8647 87.8628 19.9035 87.5292 19.9035ZM87.9249 18.7978C88.1965 18.7978 88.4409 18.7396 88.6582 18.6232C88.8832 18.5068 89.0578 18.3283 89.1819 18.0878C89.3138 17.8395 89.3798 17.5291 89.3798 17.1567V16.9123L88.2159 17.0985C87.7581 17.1683 87.4166 17.2808 87.1916 17.436C86.9666 17.5912 86.8541 17.7813 86.8541 18.0063C86.8541 18.177 86.9045 18.3245 87.0054 18.4486C87.114 18.565 87.2498 18.6542 87.4128 18.7163C87.5757 18.7706 87.7464 18.7978 87.9249 18.7978ZM94.6673 19.9035C94.2638 19.9035 93.9069 19.8375 93.5965 19.7056C93.2939 19.566 93.0417 19.372 92.84 19.1237C92.6382 18.8754 92.483 18.5844 92.3744 18.2507C92.2658 17.9093 92.2037 17.5369 92.1882 17.1334C92.1804 16.9937 92.1765 16.8696 92.1765 16.7609C92.1765 16.6446 92.1804 16.5165 92.1882 16.3769C92.2037 15.9889 92.2619 15.6281 92.3627 15.2944C92.4714 14.9608 92.6266 14.6698 92.8283 14.4215C93.0378 14.1654 93.2939 13.9676 93.5965 13.8279C93.9069 13.6882 94.2638 13.6184 94.6673 13.6184C95.0863 13.6184 95.4393 13.6921 95.7264 13.8395C96.0213 13.9792 96.2657 14.1615 96.4597 14.3866V11.8027C96.4597 11.7251 96.483 11.6591 96.5295 11.6048C96.5839 11.5505 96.6537 11.5234 96.739 11.5234H97.7284C97.806 11.5234 97.8719 11.5505 97.9262 11.6048C97.9806 11.6591 98.0077 11.7251 98.0077 11.8027V19.5078C98.0077 19.5854 97.9806 19.6513 97.9262 19.7056C97.8719 19.76 97.806 19.7871 97.7284 19.7871H96.8089C96.7235 19.7871 96.6537 19.76 96.5994 19.7056C96.5528 19.6513 96.5295 19.5854 96.5295 19.5078V19.0771C96.3356 19.3177 96.0873 19.5155 95.7846 19.6707C95.4898 19.8259 95.1173 19.9035 94.6673 19.9035ZM95.0979 18.6581C95.4238 18.6581 95.6838 18.5844 95.8778 18.437C96.0717 18.2895 96.2153 18.1033 96.3084 17.8783C96.4015 17.6455 96.452 17.4089 96.4597 17.1683C96.4675 17.0286 96.4713 16.8812 96.4713 16.726C96.4713 16.5631 96.4675 16.4118 96.4597 16.2721C96.452 16.0393 96.3976 15.8182 96.2968 15.6087C96.1959 15.3914 96.0485 15.2129 95.8545 15.0733C95.6605 14.9336 95.4083 14.8638 95.0979 14.8638C94.772 14.8638 94.5121 14.9375 94.3181 15.0849C94.1319 15.2246 93.9961 15.4108 93.9107 15.6436C93.8254 15.8764 93.775 16.1324 93.7594 16.4118C93.7517 16.6446 93.7517 16.8773 93.7594 17.1101C93.775 17.3895 93.8254 17.6455 93.9107 17.8783C93.9961 18.1111 94.1319 18.3012 94.3181 18.4486C94.5121 18.5883 94.772 18.6581 95.0979 18.6581ZM104.896 19.9035C104.275 19.9035 103.751 19.7949 103.324 19.5776C102.905 19.3603 102.583 19.0538 102.358 18.6581C102.141 18.2624 102.017 17.8007 101.986 17.2731C101.978 17.1334 101.974 16.9627 101.974 16.7609C101.974 16.5592 101.978 16.3885 101.986 16.2488C102.017 15.7134 102.145 15.2517 102.37 14.8638C102.603 14.468 102.929 14.1615 103.348 13.9443C103.774 13.727 104.29 13.6184 104.896 13.6184C105.501 13.6184 106.013 13.727 106.432 13.9443C106.859 14.1615 107.185 14.468 107.41 14.8638C107.643 15.2517 107.774 15.7134 107.805 16.2488C107.813 16.3885 107.817 16.5592 107.817 16.7609C107.817 16.9627 107.813 17.1334 107.805 17.2731C107.774 17.8007 107.646 18.2624 107.421 18.6581C107.204 19.0538 106.882 19.3603 106.455 19.5776C106.036 19.7949 105.516 19.9035 104.896 19.9035ZM104.896 18.7512C105.307 18.7512 105.625 18.6232 105.85 18.3671C106.075 18.1033 106.199 17.7192 106.223 17.2149C106.23 17.0985 106.234 16.9472 106.234 16.7609C106.234 16.5747 106.23 16.4234 106.223 16.307C106.199 15.8104 106.075 15.4302 105.85 15.1664C105.625 14.9026 105.307 14.7707 104.896 14.7707C104.484 14.7707 104.166 14.9026 103.941 15.1664C103.716 15.4302 103.592 15.8104 103.569 16.307C103.561 16.4234 103.557 16.5747 103.557 16.7609C103.557 16.9472 103.561 17.0985 103.569 17.2149C103.592 17.7192 103.716 18.1033 103.941 18.3671C104.166 18.6232 104.484 18.7512 104.896 18.7512ZM109.386 19.7871C109.308 19.7871 109.242 19.76 109.188 19.7056C109.134 19.6513 109.107 19.5854 109.107 19.5078V14.0141C109.107 13.9365 109.134 13.8706 109.188 13.8163C109.242 13.7619 109.308 13.7348 109.386 13.7348H110.34C110.418 13.7348 110.484 13.7619 110.538 13.8163C110.593 13.8706 110.62 13.9365 110.62 14.0141V14.4913C110.822 14.243 111.078 14.0374 111.388 13.8744C111.706 13.7037 112.098 13.6184 112.563 13.6184C113.037 13.6184 113.448 13.727 113.797 13.9443C114.146 14.1538 114.414 14.4525 114.6 14.8405C114.794 15.2285 114.891 15.694 114.891 16.2372V19.5078C114.891 19.5854 114.864 19.6513 114.81 19.7056C114.756 19.76 114.69 19.7871 114.612 19.7871H113.588C113.51 19.7871 113.444 19.76 113.39 19.7056C113.336 19.6513 113.308 19.5854 113.308 19.5078V16.307C113.308 15.857 113.196 15.5039 112.971 15.2479C112.754 14.9918 112.435 14.8638 112.016 14.8638C111.613 14.8638 111.291 14.9918 111.05 15.2479C110.81 15.5039 110.69 15.857 110.69 16.307V19.5078C110.69 19.5854 110.662 19.6513 110.608 19.7056C110.554 19.76 110.488 19.7871 110.41 19.7871H109.386ZM121.526 19.7871C121.06 19.7871 120.669 19.7056 120.35 19.5427C120.032 19.3797 119.796 19.1392 119.64 18.8211C119.485 18.4952 119.408 18.0917 119.408 17.6106V14.9685H118.488C118.411 14.9685 118.345 14.9414 118.29 14.8871C118.236 14.8327 118.209 14.7668 118.209 14.6892V14.0141C118.209 13.9365 118.236 13.8706 118.29 13.8163C118.345 13.7619 118.411 13.7348 118.488 13.7348H119.408V11.8027C119.408 11.7251 119.431 11.6591 119.477 11.6048C119.532 11.5505 119.602 11.5234 119.687 11.5234H120.63C120.707 11.5234 120.773 11.5505 120.828 11.6048C120.882 11.6591 120.909 11.7251 120.909 11.8027V13.7348H122.364C122.442 13.7348 122.508 13.7619 122.562 13.8163C122.616 13.8706 122.643 13.9365 122.643 14.0141V14.6892C122.643 14.7668 122.616 14.8327 122.562 14.8871C122.508 14.9414 122.442 14.9685 122.364 14.9685H120.909V17.4942C120.909 17.8123 120.963 18.0606 121.072 18.2391C121.188 18.4176 121.386 18.5068 121.666 18.5068H122.469C122.546 18.5068 122.612 18.534 122.667 18.5883C122.721 18.6426 122.748 18.7086 122.748 18.7861V19.5078C122.748 19.5854 122.721 19.6513 122.667 19.7056C122.612 19.76 122.546 19.7871 122.469 19.7871H121.526ZM124.072 19.7871C123.994 19.7871 123.928 19.76 123.874 19.7056C123.819 19.6513 123.792 19.5854 123.792 19.5078V11.8027C123.792 11.7251 123.819 11.6591 123.874 11.6048C123.928 11.5505 123.994 11.5234 124.072 11.5234H125.107C125.193 11.5234 125.259 11.5505 125.305 11.6048C125.36 11.6591 125.387 11.7251 125.387 11.8027V14.4564C125.596 14.2081 125.852 14.0064 126.155 13.8512C126.458 13.696 126.83 13.6184 127.272 13.6184C127.746 13.6184 128.157 13.727 128.506 13.9443C128.863 14.1538 129.138 14.4525 129.332 14.8405C129.526 15.2285 129.623 15.694 129.623 16.2372V19.5078C129.623 19.5854 129.596 19.6513 129.542 19.7056C129.488 19.76 129.422 19.7871 129.344 19.7871H128.297C128.219 19.7871 128.153 19.76 128.099 19.7056C128.044 19.6513 128.017 19.5854 128.017 19.5078V16.307C128.017 15.857 127.905 15.5039 127.68 15.2479C127.462 14.9918 127.144 14.8638 126.725 14.8638C126.322 14.8638 125.996 14.9918 125.748 15.2479C125.507 15.5039 125.387 15.857 125.387 16.307V19.5078C125.387 19.5854 125.36 19.6513 125.305 19.7056C125.259 19.76 125.193 19.7871 125.107 19.7871H124.072ZM133.708 19.9035C132.846 19.9035 132.164 19.6552 131.659 19.1586C131.155 18.662 130.883 17.9559 130.844 17.0403C130.837 16.9627 130.833 16.8657 130.833 16.7493C130.833 16.6252 130.837 16.5282 130.844 16.4583C130.875 15.8764 131.007 15.372 131.24 14.9452C131.481 14.5185 131.81 14.1926 132.229 13.9676C132.648 13.7348 133.141 13.6184 133.708 13.6184C134.336 13.6184 134.864 13.7503 135.291 14.0141C135.717 14.2702 136.039 14.631 136.257 15.0966C136.474 15.5544 136.582 16.0859 136.582 16.6911V16.9355C136.582 17.0131 136.555 17.0791 136.501 17.1334C136.447 17.1877 136.377 17.2149 136.292 17.2149H132.427C132.427 17.2149 132.427 17.2265 132.427 17.2498C132.427 17.2731 132.427 17.2925 132.427 17.308C132.435 17.5796 132.486 17.8317 132.579 18.0645C132.68 18.2895 132.823 18.4719 133.009 18.6116C133.203 18.7512 133.432 18.8211 133.696 18.8211C133.913 18.8211 134.096 18.79 134.243 18.728C134.39 18.6581 134.511 18.5805 134.604 18.4952C134.697 18.4098 134.763 18.34 134.802 18.2857C134.872 18.1926 134.926 18.1382 134.965 18.1227C135.011 18.0994 135.077 18.0878 135.163 18.0878H136.163C136.241 18.0878 136.303 18.1111 136.35 18.1576C136.404 18.2042 136.427 18.2624 136.42 18.3322C136.412 18.4564 136.346 18.6077 136.222 18.7861C136.105 18.9646 135.935 19.1392 135.71 19.3099C135.485 19.4806 135.201 19.6242 134.86 19.7406C134.526 19.8492 134.142 19.9035 133.708 19.9035ZM132.427 16.2372H135V16.2023C135 15.8997 134.949 15.6358 134.848 15.4108C134.747 15.1858 134.6 15.0073 134.406 14.8754C134.212 14.7435 133.979 14.6775 133.708 14.6775C133.436 14.6775 133.203 14.7435 133.009 14.8754C132.815 15.0073 132.668 15.1858 132.567 15.4108C132.474 15.6358 132.427 15.8997 132.427 16.2023V16.2372Z" fill="black"/>
<path d="M44.1866 41.7344C44.0551 41.7344 43.9317 41.685 43.8166 41.5864C43.7179 41.4877 43.6686 41.3644 43.6686 41.2163C43.6686 41.1506 43.685 41.0766 43.7179 40.9943L49.663 25.0833C49.7123 24.9189 49.8028 24.7791 49.9343 24.664C50.0823 24.5324 50.2797 24.4666 50.5264 24.4666H53.2152C53.4619 24.4666 53.651 24.5324 53.7826 24.664C53.9141 24.7791 54.0128 24.9189 54.0786 25.0833L60.0236 40.9943C60.0401 41.0766 60.0483 41.1506 60.0483 41.2163C60.0483 41.3644 59.999 41.4877 59.9003 41.5864C59.8016 41.685 59.6865 41.7344 59.5549 41.7344H57.4088C57.1786 41.7344 57.0059 41.685 56.8908 41.5864C56.7921 41.4712 56.7263 41.3644 56.6934 41.2657L55.534 38.2562H48.2076L47.0481 41.2657C47.0153 41.3644 46.9413 41.4712 46.8261 41.5864C46.7275 41.685 46.563 41.7344 46.3328 41.7344H44.1866ZM49.0709 35.4193H54.6706L51.8585 27.7968L49.0709 35.4193ZM60.9452 46.4213C60.7808 46.4213 60.641 46.3638 60.5259 46.2487C60.4108 46.1335 60.3532 45.9938 60.3532 45.8293V29.4989C60.3532 29.3345 60.4108 29.1947 60.5259 29.0796C60.641 28.9644 60.7808 28.9069 60.9452 28.9069H62.894C63.0749 28.9069 63.2147 28.9644 63.3134 29.0796C63.4285 29.1947 63.4861 29.3345 63.4861 29.4989V30.4857C63.8808 29.9594 64.3988 29.5236 65.0402 29.1782C65.6815 28.8329 66.4791 28.6602 67.433 28.6602C68.3046 28.6602 69.0611 28.8 69.7025 29.0796C70.3438 29.3591 70.8783 29.7621 71.3059 30.2883C71.7335 30.7981 72.0624 31.4066 72.2926 32.1138C72.5229 32.8209 72.6544 33.6021 72.6873 34.4572C72.7038 34.7368 72.712 35.0246 72.712 35.3206C72.712 35.6167 72.7038 35.9127 72.6873 36.2087C72.6709 37.031 72.5475 37.7957 72.3173 38.5028C72.0871 39.1935 71.7499 39.802 71.3059 40.3283C70.8783 40.8381 70.3438 41.241 69.7025 41.537C69.0611 41.833 68.3046 41.9811 67.433 41.9811C66.5449 41.9811 65.7884 41.8248 65.1635 41.5124C64.5386 41.1835 64.0288 40.7559 63.6341 40.2296V45.8293C63.6341 45.9938 63.5765 46.1335 63.4614 46.2487C63.3627 46.3638 63.2229 46.4213 63.042 46.4213H60.9452ZM66.5203 39.3416C67.2274 39.3416 67.7783 39.1935 68.173 38.8975C68.5677 38.5851 68.8473 38.1821 69.0117 37.6888C69.1926 37.1954 69.2995 36.6527 69.3324 36.0607C69.3653 35.5673 69.3653 35.074 69.3324 34.5806C69.2995 33.9885 69.1926 33.4458 69.0117 32.9525C68.8473 32.4591 68.5677 32.0644 68.173 31.7684C67.7783 31.4559 67.2274 31.2997 66.5203 31.2997C65.846 31.2997 65.2951 31.4559 64.8675 31.7684C64.4563 32.0809 64.1521 32.4838 63.9548 32.9772C63.7739 33.4541 63.667 33.9474 63.6341 34.4572C63.6176 34.7533 63.6094 35.0657 63.6094 35.3946C63.6094 35.7235 63.6176 36.0442 63.6341 36.3567C63.6505 36.8501 63.7656 37.327 63.9794 37.7875C64.1932 38.2315 64.5057 38.6015 64.9168 38.8975C65.328 39.1935 65.8624 39.3416 66.5203 39.3416ZM74.3711 46.4213C74.2067 46.4213 74.0669 46.3638 73.9518 46.2487C73.8366 46.1335 73.7791 45.9938 73.7791 45.8293V29.4989C73.7791 29.3345 73.8366 29.1947 73.9518 29.0796C74.0669 28.9644 74.2067 28.9069 74.3711 28.9069H76.3199C76.5008 28.9069 76.6406 28.9644 76.7393 29.0796C76.8544 29.1947 76.9119 29.3345 76.9119 29.4989V30.4857C77.3066 29.9594 77.8247 29.5236 78.466 29.1782C79.1074 28.8329 79.905 28.6602 80.8589 28.6602C81.7305 28.6602 82.487 28.8 83.1283 29.0796C83.7697 29.3591 84.3042 29.7621 84.7318 30.2883C85.1594 30.7981 85.4883 31.4066 85.7185 32.1138C85.9487 32.8209 86.0803 33.6021 86.1132 34.4572C86.1296 34.7368 86.1379 35.0246 86.1379 35.3206C86.1379 35.6167 86.1296 35.9127 86.1132 36.2087C86.0967 37.031 85.9734 37.7957 85.7432 38.5028C85.5129 39.1935 85.1758 39.802 84.7318 40.3283C84.3042 40.8381 83.7697 41.241 83.1283 41.537C82.487 41.833 81.7305 41.9811 80.8589 41.9811C79.9708 41.9811 79.2143 41.8248 78.5894 41.5124C77.9645 41.1835 77.4546 40.7559 77.0599 40.2296V45.8293C77.0599 45.9938 77.0024 46.1335 76.8873 46.2487C76.7886 46.3638 76.6488 46.4213 76.4679 46.4213H74.3711ZM79.9461 39.3416C80.6533 39.3416 81.2042 39.1935 81.5989 38.8975C81.9936 38.5851 82.2732 38.1821 82.4376 37.6888C82.6185 37.1954 82.7254 36.6527 82.7583 36.0607C82.7912 35.5673 82.7912 35.074 82.7583 34.5806C82.7254 33.9885 82.6185 33.4458 82.4376 32.9525C82.2732 32.4591 81.9936 32.0644 81.5989 31.7684C81.2042 31.4559 80.6533 31.2997 79.9461 31.2997C79.2719 31.2997 78.7209 31.4559 78.2934 31.7684C77.8822 32.0809 77.578 32.4838 77.3806 32.9772C77.1997 33.4541 77.0928 33.9474 77.0599 34.4572C77.0435 34.7533 77.0353 35.0657 77.0353 35.3946C77.0353 35.7235 77.0435 36.0442 77.0599 36.3567C77.0764 36.8501 77.1915 37.327 77.4053 37.7875C77.6191 38.2315 77.9316 38.6015 78.3427 38.8975C78.7538 39.1935 79.2883 39.3416 79.9461 39.3416ZM97.381 41.9811C95.8516 41.9811 94.5688 41.759 93.5327 41.315C92.5131 40.8545 91.732 40.2625 91.1893 39.5389C90.663 38.7989 90.3834 38.0259 90.3505 37.2201C90.3505 37.0721 90.3999 36.9487 90.4985 36.8501C90.5972 36.7514 90.7206 36.7021 90.8686 36.7021H93.064C93.2778 36.7021 93.4341 36.7514 93.5327 36.8501C93.6479 36.9323 93.7465 37.0392 93.8288 37.1708C93.9274 37.4832 94.1166 37.7957 94.3961 38.1081C94.6757 38.4042 95.0539 38.6508 95.5309 38.8482C96.0242 39.0455 96.6409 39.1442 97.381 39.1442C98.5651 39.1442 99.4449 38.9469 100.02 38.5522C100.613 38.1575 100.909 37.623 100.909 36.9487C100.909 36.4718 100.752 36.0936 100.44 35.814C100.127 35.518 99.6422 35.2549 98.9844 35.0246C98.343 34.7779 97.4879 34.523 96.4189 34.2599C95.1855 33.9639 94.1494 33.6103 93.3107 33.1992C92.4885 32.7716 91.8635 32.2371 91.4359 31.5957C91.0248 30.9544 90.8192 30.1403 90.8192 29.1536C90.8192 28.1997 91.0741 27.3528 91.584 26.6127C92.1102 25.8727 92.8503 25.2889 93.8041 24.8613C94.7744 24.4337 95.9256 24.2199 97.2576 24.2199C98.3266 24.2199 99.2722 24.3679 100.094 24.664C100.917 24.9435 101.599 25.3218 102.142 25.7987C102.685 26.2592 103.096 26.7608 103.375 27.3035C103.671 27.8297 103.828 28.3477 103.844 28.8576C103.844 28.9891 103.795 29.1125 103.696 29.2276C103.614 29.3263 103.49 29.3756 103.326 29.3756H101.032C100.9 29.3756 100.769 29.3427 100.637 29.2769C100.506 29.2111 100.399 29.0878 100.317 28.9069C100.218 28.3971 99.8971 27.9613 99.3544 27.5995C98.8117 27.2377 98.1128 27.0568 97.2576 27.0568C96.3696 27.0568 95.6542 27.2212 95.1115 27.5501C94.5688 27.879 94.2975 28.3889 94.2975 29.0796C94.2975 29.54 94.429 29.9265 94.6921 30.239C94.9717 30.535 95.4075 30.7981 95.9996 31.0284C96.608 31.2586 97.4057 31.5053 98.3924 31.7684C99.7903 32.0809 100.933 32.4427 101.821 32.8538C102.709 33.2649 103.359 33.7912 103.77 34.4326C104.181 35.0575 104.387 35.8551 104.387 36.8254C104.387 37.9108 104.091 38.84 103.499 39.6129C102.923 40.3694 102.109 40.9532 101.057 41.3644C100.004 41.7755 98.7789 41.9811 97.381 41.9811ZM110.988 41.7344C110.001 41.7344 109.171 41.5617 108.497 41.2163C107.822 40.871 107.321 40.3612 106.992 39.6869C106.663 38.9962 106.498 38.141 106.498 37.1214V31.5217H104.55C104.385 31.5217 104.245 31.4642 104.13 31.349C104.015 31.2339 103.958 31.0941 103.958 30.9297V29.4989C103.958 29.3345 104.015 29.1947 104.13 29.0796C104.245 28.9644 104.385 28.9069 104.55 28.9069H106.498V24.812C106.498 24.6475 106.548 24.5077 106.646 24.3926C106.762 24.2775 106.91 24.2199 107.09 24.2199H109.089C109.253 24.2199 109.393 24.2775 109.508 24.3926C109.623 24.5077 109.681 24.6475 109.681 24.812V28.9069H112.764C112.929 28.9069 113.068 28.9644 113.183 29.0796C113.299 29.1947 113.356 29.3345 113.356 29.4989V30.9297C113.356 31.0941 113.299 31.2339 113.183 31.349C113.068 31.4642 112.929 31.5217 112.764 31.5217H109.681V36.8747C109.681 37.549 109.796 38.0753 110.026 38.4535C110.273 38.8317 110.692 39.0209 111.284 39.0209H112.986C113.151 39.0209 113.29 39.0784 113.406 39.1935C113.521 39.3087 113.578 39.4485 113.578 39.6129V41.1423C113.578 41.3068 113.521 41.4466 113.406 41.5617C113.29 41.6768 113.151 41.7344 112.986 41.7344H110.988ZM119.713 41.9811C118.398 41.9811 117.288 41.7508 116.383 41.2903C115.495 40.8299 114.813 40.1803 114.336 39.3416C113.875 38.5028 113.612 37.5243 113.546 36.406C113.53 36.11 113.522 35.7482 113.522 35.3206C113.522 34.8931 113.53 34.5312 113.546 34.2352C113.612 33.1005 113.884 32.122 114.36 31.2997C114.854 30.461 115.545 29.8114 116.433 29.3509C117.337 28.8904 118.431 28.6602 119.713 28.6602C120.996 28.6602 122.082 28.8904 122.97 29.3509C123.874 29.8114 124.565 30.461 125.042 31.2997C125.535 32.122 125.815 33.1005 125.881 34.2352C125.897 34.5312 125.905 34.8931 125.905 35.3206C125.905 35.7482 125.897 36.11 125.881 36.406C125.815 37.5243 125.543 38.5028 125.066 39.3416C124.606 40.1803 123.923 40.8299 123.019 41.2903C122.131 41.7508 121.029 41.9811 119.713 41.9811ZM119.713 39.5389C120.585 39.5389 121.259 39.2676 121.736 38.7248C122.213 38.1657 122.476 37.3517 122.526 36.2827C122.542 36.036 122.55 35.7153 122.55 35.3206C122.55 34.9259 122.542 34.6053 122.526 34.3586C122.476 33.3061 122.213 32.5002 121.736 31.9411C121.259 31.3819 120.585 31.1024 119.713 31.1024C118.842 31.1024 118.168 31.3819 117.691 31.9411C117.214 32.5002 116.951 33.3061 116.901 34.3586C116.885 34.6053 116.877 34.9259 116.877 35.3206C116.877 35.7153 116.885 36.036 116.901 36.2827C116.951 37.3517 117.214 38.1657 117.691 38.7248C118.168 39.2676 118.842 39.5389 119.713 39.5389ZM127.504 41.7344C127.339 41.7344 127.199 41.6768 127.084 41.5617C126.969 41.4466 126.912 41.3068 126.912 41.1423V29.5236C126.912 29.3427 126.969 29.1947 127.084 29.0796C127.199 28.9644 127.339 28.9069 127.504 28.9069H129.502C129.666 28.9069 129.806 28.9644 129.921 29.0796C130.053 29.1947 130.118 29.3427 130.118 29.5236V30.535C130.497 30.0087 130.982 29.6058 131.574 29.3263C132.182 29.0467 132.881 28.9069 133.671 28.9069H134.682C134.863 28.9069 135.003 28.9644 135.101 29.0796C135.217 29.1947 135.274 29.3345 135.274 29.4989V31.275C135.274 31.4395 135.217 31.5793 135.101 31.6944C135.003 31.8095 134.863 31.8671 134.682 31.8671H132.758C131.969 31.8671 131.352 32.0891 130.908 32.5331C130.48 32.9772 130.266 33.5856 130.266 34.3586V41.1423C130.266 41.3068 130.209 41.4466 130.094 41.5617C129.979 41.6768 129.831 41.7344 129.65 41.7344H127.504ZM140.828 41.9811C139.003 41.9811 137.556 41.4548 136.487 40.4023C135.418 39.3498 134.842 37.8532 134.76 35.9127C134.743 35.7482 134.735 35.5426 134.735 35.296C134.735 35.0328 134.743 34.8273 134.76 34.6793C134.826 33.4458 135.105 32.3769 135.599 31.4724C136.108 30.5679 136.807 29.8772 137.695 29.4003C138.583 28.9069 139.628 28.6602 140.828 28.6602C142.16 28.6602 143.279 28.9398 144.183 29.4989C145.088 30.0416 145.77 30.8063 146.231 31.7931C146.691 32.7634 146.921 33.8899 146.921 35.1726V35.6907C146.921 35.8551 146.864 35.9949 146.749 36.11C146.634 36.2251 146.486 36.2827 146.305 36.2827H138.115C138.115 36.2827 138.115 36.3074 138.115 36.3567C138.115 36.406 138.115 36.4471 138.115 36.48C138.131 37.0556 138.238 37.5901 138.435 38.0835C138.649 38.5604 138.954 38.9469 139.348 39.2429C139.759 39.5389 140.244 39.6869 140.804 39.6869C141.264 39.6869 141.651 39.6211 141.963 39.4896C142.276 39.3416 142.53 39.1771 142.728 38.9962C142.925 38.8153 143.065 38.6673 143.147 38.5522C143.295 38.3548 143.41 38.2397 143.492 38.2068C143.591 38.1575 143.731 38.1328 143.912 38.1328H146.033C146.198 38.1328 146.329 38.1821 146.428 38.2808C146.543 38.3795 146.592 38.5028 146.576 38.6508C146.56 38.914 146.42 39.2347 146.157 39.6129C145.91 39.9912 145.548 40.3612 145.071 40.723C144.594 41.0848 143.994 41.389 143.27 41.6357C142.563 41.8659 141.749 41.9811 140.828 41.9811ZM138.115 34.2106H143.566V34.1366C143.566 33.4952 143.46 32.936 143.246 32.4591C143.032 31.9822 142.72 31.604 142.308 31.3244C141.897 31.0448 141.404 30.905 140.828 30.905C140.253 30.905 139.759 31.0448 139.348 31.3244C138.937 31.604 138.625 31.9822 138.411 32.4591C138.213 32.936 138.115 33.4952 138.115 34.1366V34.2106Z" fill="black"/>
</svg>
