<svg width="112" height="111" viewBox="0 0 112 111" fill="none" xmlns="http://www.w3.org/2000/svg">
<mask id="mask0_23_3378" style="mask-type:luminance" maskUnits="userSpaceOnUse" x="0" y="0" width="112" height="111">
<path d="M111.134 55.5279C111.134 86.0871 86.3601 110.861 55.8008 110.861C25.2415 110.861 0.467529 86.0871 0.467529 55.5279C0.467529 24.9686 25.2415 0.194611 55.8008 0.194611C86.3601 0.194611 111.134 24.9686 111.134 55.5279Z" fill="white"/>
</mask>
<g mask="url(#mask0_23_3378)">
<path d="M111.134 55.5279C111.134 86.0871 86.3601 110.861 55.8008 110.861C25.2415 110.861 0.467529 86.0871 0.467529 55.5279C0.467529 24.9686 25.2415 0.194611 55.8008 0.194611C86.3601 0.194611 111.134 24.9686 111.134 55.5279Z" fill="#FFE4CF"/>
<path d="M46.6926 60.6579C47.6541 60.301 48.4586 60.0824 49.3609 59.8743C50.2456 59.6755 51.1432 59.522 52.0722 59.4441C53.908 59.3081 55.9357 59.3569 57.8971 60.3475C58.8609 60.8393 59.7399 61.5997 60.341 62.4961C60.9526 63.3936 61.292 64.3784 61.4757 65.3213C61.5804 65.769 61.6164 66.3294 61.6292 66.8537L61.5525 67.6534C61.5129 67.9164 61.4304 68.1699 61.3653 68.4255C61.0479 69.4338 60.484 70.2848 59.8538 70.9848C58.5586 72.3612 57.0402 73.246 55.509 73.9772C53.9743 74.7084 52.3931 75.2493 50.806 75.7234C47.625 76.6504 44.3928 77.2713 41.1432 77.6582C44.3184 76.8875 47.4378 75.8888 50.4084 74.6212C51.8885 73.9794 53.3383 73.2773 54.6672 72.4336C55.9926 71.6033 57.2262 70.6232 58.0471 69.4941C58.4412 68.9278 58.7121 68.3374 58.8133 67.7651C58.9295 67.1746 58.8412 66.6735 58.6342 66.0317C58.218 64.7249 57.4611 63.8971 56.431 63.5425C54.3115 62.7972 51.0409 63.725 48.6098 64.9342L48.5551 64.9621C47.3948 65.5399 45.9845 65.0656 45.4078 63.9052C44.83 62.7437 45.3032 61.3346 46.4635 60.7567L46.6926 60.6579Z" fill="#CF4D2A"/>
<path d="M36.7901 50.7553C37.1459 49.7926 37.3656 48.9881 37.5726 48.0858C37.7726 47.2022 37.9249 46.3035 38.004 45.3757C38.1388 43.5398 38.09 41.511 37.0994 39.5496C36.6088 38.5869 35.8484 37.7068 34.9508 37.1057C34.0544 36.4953 33.0685 36.1558 32.1267 35.9721C31.6791 35.8675 31.1187 35.8303 30.5955 35.8186L29.7944 35.8954C29.5317 35.9349 29.277 36.0174 29.0213 36.0825C28.0144 36.3988 27.1633 36.9638 26.4623 37.594C25.0868 38.8892 24.202 40.4076 23.4719 41.9389C22.7383 43.4724 22.1976 45.0548 21.7233 46.6418C20.7978 49.8229 20.1769 53.0551 19.7886 56.3047C20.5606 53.1295 21.5593 50.01 22.8255 47.0394C23.4684 45.5594 24.1695 44.1084 25.0136 42.7806C25.8449 41.4552 26.8238 40.2216 27.9539 39.4008C28.5201 39.0066 29.1108 38.7357 29.6828 38.6334C30.2734 38.5172 30.7734 38.6055 31.4163 38.8136C32.722 39.2299 33.5498 39.9868 33.9056 41.0169C34.6509 43.1364 33.7231 46.407 32.5127 48.8381L32.486 48.8916C31.9081 50.0531 32.3813 51.4622 33.5428 52.04C34.7043 52.6179 36.1135 52.1447 36.6913 50.9844L36.7901 50.7553Z" fill="#CF4D2A"/>
<path d="M43.7358 80.9463C25.5751 73.0693 18.2515 58.0805 16.4506 53.7275C17.1144 53.331 17.7992 52.9881 18.5061 52.6904C19.0363 52.4683 19.5781 52.2474 20.0909 51.9882L26.9784 48.5258C28.4585 51.9382 34.4346 63.7031 48.9655 70.3697L45.4368 77.3888C45.1938 77.8866 44.9787 78.3989 44.7683 78.9085C44.4753 79.6092 44.1335 80.2942 43.7358 80.9463Z" fill="#CF4D2A"/>
<path d="M26.9785 48.5262L46.4089 38.7715L58.6761 51.0387L48.9655 70.3701C34.4346 63.7035 28.4586 51.9386 26.9785 48.5262Z" fill="#E75F2C"/>
<path d="M41.3489 84.0174C34.495 90.8716 22.6871 90.175 14.9763 82.4656C7.26672 74.7547 6.5761 62.9526 13.4311 56.0987C14.3589 55.1709 15.3693 54.3803 16.4506 53.728C18.2515 58.081 25.5751 73.0698 43.7358 80.9468C43.6091 81.1621 43.4766 81.3828 43.3312 81.5922C42.758 82.4537 42.1011 83.2667 41.3489 84.0174Z" fill="#E75F2C"/>
<path d="M58.6772 51.0388C57.8959 51.8201 54.5172 49.7064 51.1292 46.3184C47.7412 42.9304 45.6275 39.5517 46.4088 38.7693C47.1901 37.988 50.57 40.1028 53.9568 43.4897C57.3448 46.8776 59.4585 50.2575 58.6772 51.0388Z" fill="#CF4D2A"/>
<path d="M25.8217 68.1694C21.4524 63.3839 18.7876 58.7135 17.354 55.7371C17.6877 55.4709 18.033 55.2093 18.3888 54.9546C21.7209 52.5735 25.2996 51.2655 28.2528 51.1283C29.4177 53.2839 31.2594 56.201 33.9638 59.26C32.8604 61.9841 30.4816 64.9058 27.1855 67.2614C26.7343 67.5836 26.2797 67.8855 25.8217 68.1694Z" fill="#D5603C"/>
<path d="M33.9637 59.2598C31.2593 56.2008 29.4177 53.2837 28.2527 51.1281C28.4248 51.12 28.5957 51.1153 28.7642 51.1153C30.971 51.1153 32.7812 51.8083 33.8009 53.236C34.9147 54.7928 34.8961 56.9554 33.9637 59.2598Z" fill="#EB6F3D"/>
<path d="M16.811 71.1016C14.6043 71.1016 12.794 70.409 11.7732 68.9811C9.48624 65.7815 11.9778 60.0286 17.354 55.7372C18.7875 58.7137 21.4523 63.3841 25.8216 68.1696C22.6999 70.0984 19.4677 71.1016 16.811 71.1016Z" fill="#EB6F3D"/>
<path d="M38.3296 52.7173C37.2983 52.7173 36.3449 52.2987 35.7636 51.4849C34.7137 50.0164 35.273 47.8178 37.0123 46.5761C37.7866 46.0227 38.6656 45.7518 39.4946 45.7518C40.5247 45.7518 41.4792 46.1703 42.0605 46.9842C43.1104 48.4515 42.5512 50.6501 40.813 51.8918C40.0375 52.4464 39.1585 52.7173 38.3296 52.7173Z" fill="#EB6F3D"/>
<path d="M52.7244 35.9648C52.829 35.8346 52.9395 35.7055 53.0499 35.5777L53.0255 35.2498L52.6976 35.2742C52.586 35.4044 52.4732 35.5358 52.3628 35.6718L52.3965 35.9985L52.7244 35.9648Z" fill="#3B3E3A"/>
<path d="M53.7267 34.8302C53.9569 34.586 54.1929 34.3465 54.4347 34.1128L54.4394 33.7838L54.1115 33.7791C53.865 34.0174 53.6232 34.2616 53.3883 34.5116L53.3976 34.8395L53.7267 34.8302ZM55.173 33.4257C55.4241 33.2024 55.6799 32.9838 55.9404 32.7711L55.9729 32.4432L55.645 32.4118C55.38 32.6292 55.1195 32.8513 54.8637 33.0792L54.8451 33.407L55.173 33.4257ZM56.7333 32.1479C57.0019 31.9456 57.2739 31.7479 57.5506 31.5561C57.6564 31.4829 57.6832 31.3387 57.6099 31.2329C57.5367 31.1271 57.3913 31.1015 57.2867 31.1747C57.0042 31.3701 56.7263 31.5701 56.4531 31.7758L56.4077 32.1014L56.7333 32.1479ZM58.3912 30.9969C58.6749 30.8166 58.9621 30.6411 59.2528 30.4713C59.3644 30.4062 59.4016 30.2644 59.3365 30.1528C59.2714 30.0423 59.1295 30.0051 59.0191 30.0702C58.7226 30.2435 58.4308 30.4213 58.1424 30.605C58.0331 30.6748 58.0017 30.8178 58.0703 30.9259C58.1401 31.0341 58.2831 31.0666 58.3912 30.9969ZM60.1341 29.9784C60.4305 29.8191 60.7305 29.6656 61.0328 29.518C61.1491 29.461 61.1967 29.3215 61.1398 29.2064C61.084 29.0913 60.9444 29.0436 60.8293 29.1006C60.5212 29.2505 60.2166 29.4063 59.9143 29.568C59.8015 29.6284 59.7585 29.7691 59.8201 29.883C59.8806 29.9958 60.0213 30.0388 60.1341 29.9784ZM61.949 29.0913C62.2559 28.9541 62.5663 28.8227 62.8791 28.6971C62.9989 28.6495 63.0558 28.5146 63.0081 28.3948C62.9605 28.2762 62.8256 28.2181 62.7059 28.2658C62.3885 28.3937 62.0734 28.5274 61.7594 28.6657C61.6432 28.718 61.5897 28.8552 61.642 28.9727C61.6943 29.0901 61.8315 29.1424 61.949 29.0913ZM63.8232 28.3379C64.1406 28.2239 64.4591 28.1158 64.78 28.0123C64.9021 27.9739 64.9696 27.8426 64.9312 27.7205C64.8917 27.5984 64.7603 27.531 64.6382 27.5705C64.3126 27.674 63.9883 27.7844 63.6662 27.9007C63.5453 27.9437 63.4825 28.0774 63.5255 28.1983C63.5697 28.3193 63.7023 28.3809 63.8232 28.3379ZM65.7485 27.7216C66.0729 27.631 66.3985 27.5461 66.7252 27.4659C66.8507 27.4356 66.9275 27.3101 66.8973 27.1857C66.867 27.0613 66.7414 26.9845 66.6159 27.0147C66.2834 27.095 65.952 27.1822 65.6218 27.274C65.4986 27.3089 65.4265 27.438 65.4614 27.5612C65.4962 27.6844 65.6241 27.7565 65.7485 27.7216ZM67.7123 27.2461C68.0425 27.1787 68.3738 27.1171 68.7052 27.0624C68.8319 27.0415 68.918 26.9217 68.897 26.795C68.8761 26.6683 68.7563 26.5822 68.6296 26.6043C68.2913 26.6601 67.9553 26.7218 67.6193 26.7904C67.4937 26.8159 67.4123 26.9392 67.4379 27.0647C67.4635 27.1903 67.5867 27.2717 67.7123 27.2461ZM69.7051 26.9148C70.0399 26.8717 70.3747 26.8357 70.7096 26.8043C70.8375 26.7927 70.9317 26.6799 70.92 26.552C70.9084 26.4241 70.7956 26.3299 70.6678 26.3416C70.3271 26.373 69.9864 26.4102 69.6458 26.4543C69.519 26.4706 69.4284 26.5869 69.4446 26.7136C69.4621 26.8415 69.5783 26.931 69.7051 26.9148ZM71.7176 26.7334C72.0548 26.7148 72.3908 26.7043 72.7268 26.6997C72.8559 26.6973 72.9582 26.5927 72.9559 26.4636C72.9547 26.3358 72.8489 26.2334 72.721 26.2346C72.3792 26.2393 72.0362 26.2509 71.6932 26.2683C71.5653 26.2753 71.4665 26.3846 71.4735 26.5125C71.4804 26.6415 71.5897 26.7392 71.7176 26.7334ZM73.7372 26.7066C74.0732 26.7148 74.4092 26.7311 74.7452 26.7531C74.8731 26.7613 74.9835 26.6648 74.9928 26.5369C75.001 26.409 74.9045 26.2974 74.7754 26.2892C74.4348 26.266 74.0918 26.2509 73.7488 26.2416C73.6209 26.2381 73.5139 26.3392 73.5104 26.4671C73.507 26.5962 73.6081 26.7032 73.7372 26.7055V26.7066ZM75.7497 26.8415C76.0846 26.8776 76.4183 26.9206 76.7508 26.9717C76.8775 26.9903 76.9961 26.9031 77.0147 26.7764C77.0345 26.6497 76.9473 26.5311 76.8205 26.5113C76.4822 26.4602 76.1415 26.416 75.8009 26.3788C75.673 26.3648 75.5579 26.4567 75.5439 26.5846C75.53 26.7125 75.6218 26.8276 75.7497 26.8415ZM77.7437 27.145C78.0774 27.2112 78.4041 27.2845 78.725 27.3647C78.8494 27.3961 78.9761 27.3205 79.0075 27.1961C79.0377 27.0717 78.9622 26.945 78.8378 26.9136C78.5099 26.8322 78.175 26.7566 77.8344 26.6892C77.7076 26.6636 77.5856 26.7462 77.56 26.8717C77.5356 26.9973 77.6169 27.1194 77.7437 27.145ZM79.6946 27.6344C80.019 27.7333 80.3364 27.8402 80.6469 27.9542C80.7678 27.9984 80.9003 27.9356 80.9445 27.8158C80.9887 27.6949 80.927 27.5612 80.8073 27.517C80.4887 27.4008 80.1632 27.2915 79.8295 27.1891C79.7074 27.1519 79.5772 27.2205 79.54 27.3438C79.5028 27.4659 79.5714 27.5961 79.6946 27.6344ZM81.5793 28.3262C81.8897 28.4599 82.1932 28.6018 82.4885 28.7506C82.6036 28.8087 82.7431 28.7622 82.8012 28.6483C82.8594 28.5332 82.8129 28.3937 82.6978 28.3355C82.3943 28.1832 82.0827 28.0367 81.7642 27.8995C81.6467 27.8484 81.5096 27.9019 81.4584 28.0204C81.4072 28.1379 81.4619 28.2751 81.5793 28.3262ZM83.371 29.2296C83.6616 29.3994 83.9453 29.5772 84.222 29.7609C84.3278 29.833 84.4731 29.804 84.5441 29.697C84.615 29.59 84.5871 29.4459 84.4801 29.3749C84.1965 29.1854 83.9046 29.0029 83.6047 28.8285C83.4942 28.7634 83.3512 28.8006 83.2873 28.9122C83.2221 29.0227 83.2593 29.1657 83.371 29.2296ZM85.0382 30.3446C85.3044 30.5481 85.5649 30.7597 85.816 30.9771L86.1439 30.9538L86.1206 30.626C85.8614 30.4016 85.5951 30.1842 85.3196 29.9749L84.994 30.0191L85.0382 30.3446ZM86.5566 31.6584C86.7961 31.8921 87.0275 32.1339 87.2531 32.3816L87.5809 32.3979L87.5972 32.0688C87.3658 31.8142 87.1275 31.5666 86.881 31.3259L86.552 31.3294L86.5566 31.6584ZM87.9053 33.1443C88.1158 33.4047 88.3181 33.671 88.5146 33.943L88.839 33.9954L88.8913 33.671C88.6913 33.3919 88.4832 33.1199 88.2681 32.8525L87.9402 32.8176L87.9053 33.1443ZM89.0796 34.7732C89.2598 35.0545 89.4342 35.3417 89.6016 35.6335C89.6656 35.7452 89.8074 35.7835 89.9191 35.7196C90.0307 35.6556 90.069 35.5138 90.0051 35.4022C89.833 35.1034 89.6551 34.8104 89.4703 34.522C89.4005 34.4139 89.2575 34.3825 89.1494 34.4523C89.0412 34.5209 89.0098 34.665 89.0796 34.7732ZM90.0818 36.5183C90.2341 36.8171 90.3806 37.1194 90.5213 37.4264C90.5748 37.5426 90.7131 37.5938 90.8294 37.5403C90.9457 37.488 90.9968 37.3496 90.9445 37.2334C90.8003 36.9194 90.6515 36.6113 90.4957 36.3067C90.4376 36.1928 90.2969 36.1474 90.183 36.2056C90.069 36.2649 90.0237 36.4044 90.0818 36.5183ZM90.9213 38.3518C91.048 38.6623 91.1678 38.9773 91.2829 39.2948C91.327 39.4157 91.4596 39.4773 91.5805 39.4343C91.7014 39.3901 91.7642 39.2576 91.72 39.1366C91.6038 38.8134 91.4805 38.4925 91.3514 38.1774C91.3038 38.0577 91.1678 38.0007 91.0492 38.0496C90.9294 38.0972 90.8724 38.2332 90.9213 38.3518ZM91.6095 40.2505C91.7119 40.5702 91.8084 40.8934 91.9002 41.219C91.9351 41.3422 92.0641 41.4143 92.1874 41.3794C92.3106 41.3445 92.3827 41.2155 92.3478 41.0922C92.2548 40.762 92.156 40.4342 92.0514 40.1086C92.013 39.9865 91.8816 39.9191 91.7595 39.9586C91.6375 39.9982 91.57 40.1284 91.6095 40.2505ZM92.1595 42.1956C92.2397 42.5223 92.3153 42.8513 92.3862 43.1815C92.4141 43.3071 92.5374 43.3873 92.6629 43.3606C92.7885 43.3338 92.8687 43.2094 92.8408 43.0839C92.7687 42.749 92.692 42.4153 92.6106 42.084C92.5792 41.9596 92.4537 41.884 92.3293 41.9142C92.2048 41.9456 92.1281 42.0712 92.1595 42.1956ZM92.585 44.1744C92.6455 44.5058 92.7025 44.8383 92.7548 45.1732C92.7745 45.2999 92.8931 45.3859 93.0199 45.3662C93.1466 45.3464 93.2338 45.2278 93.214 45.1011C93.1605 44.7628 93.1036 44.4256 93.042 44.0896C93.0187 43.964 92.8978 43.8803 92.771 43.9035C92.6455 43.9268 92.5618 44.0477 92.585 44.1744ZM92.8978 46.1731C92.9408 46.5067 92.9803 46.8416 93.0152 47.1776C93.028 47.3055 93.1431 47.3973 93.2698 47.3846C93.3977 47.3706 93.4907 47.2566 93.4768 47.1288C93.4419 46.7893 93.4024 46.4509 93.3582 46.1138C93.3419 45.9859 93.2256 45.8963 93.0978 45.9126C92.971 45.9289 92.8815 46.0463 92.8978 46.1731ZM93.1082 48.1856C93.1361 48.5216 93.1594 48.8576 93.1791 49.196C93.1861 49.3239 93.2966 49.4215 93.4245 49.4146C93.5524 49.4064 93.65 49.2971 93.643 49.1681C93.6233 48.8274 93.5989 48.4867 93.5721 48.1472C93.5617 48.0194 93.4489 47.924 93.321 47.9345C93.1931 47.945 93.0978 48.0577 93.1082 48.1856ZM93.2268 50.2086C93.2408 50.5493 93.2547 50.8888 93.2687 51.2283C93.2745 51.3562 93.3826 51.455 93.5117 51.4504C93.6396 51.4446 93.7384 51.3364 93.7337 51.2074C93.7186 50.8702 93.7047 50.5307 93.6919 50.19C93.6861 50.0622 93.5779 49.9622 93.45 49.968C93.3222 49.9726 93.2222 50.0807 93.2268 50.2086ZM93.3152 52.2468C93.3303 52.5874 93.3466 52.9269 93.364 53.2653C93.3698 53.3932 93.4791 53.492 93.6082 53.4862C93.7361 53.4792 93.8349 53.3699 93.8279 53.242C93.8116 52.9037 93.7954 52.5654 93.7791 52.2247C93.7733 52.0968 93.664 51.998 93.5361 52.0038C93.4082 52.0096 93.3082 52.1189 93.3152 52.2468ZM93.4175 54.2838C93.4361 54.6244 93.4547 54.9639 93.4745 55.3023C93.4826 55.4302 93.5919 55.5278 93.721 55.5208C93.8488 55.5127 93.9465 55.4034 93.9384 55.2744C93.9186 54.9372 93.9 54.5989 93.8814 54.2582C93.8744 54.1303 93.7651 54.0326 93.6372 54.0396C93.5082 54.0466 93.4105 54.1559 93.4175 54.2838ZM93.5372 56.3208C93.5582 56.6614 93.5803 57.0009 93.6035 57.3381C93.6128 57.466 93.7233 57.5625 93.8512 57.5543C93.979 57.545 94.0767 57.4346 94.0674 57.3067C94.0442 56.9695 94.0221 56.6312 94.0011 56.2905C93.993 56.1626 93.8826 56.065 93.7547 56.0731C93.6256 56.0812 93.5291 56.1917 93.5372 56.3208ZM93.6756 58.3554C93.7012 58.6961 93.7268 59.0356 93.7535 59.3727C93.764 59.5006 93.8756 59.596 94.0035 59.5867C94.1314 59.5762 94.2267 59.4646 94.2162 59.3367C94.1907 58.9995 94.1639 58.6612 94.1395 58.3217C94.1302 58.1938 94.0186 58.0973 93.8907 58.1066C93.7628 58.1159 93.6663 58.2275 93.6756 58.3554ZM93.8372 60.3901C93.8651 60.7307 93.8954 61.0691 93.9267 61.4062C93.9384 61.5341 94.0511 61.6283 94.179 61.6167C94.3069 61.605 94.4011 61.4923 94.3895 61.3644C94.3581 61.0284 94.329 60.69 94.3 60.3505C94.2895 60.2226 94.1767 60.1273 94.0488 60.1389C93.9209 60.1494 93.8256 60.2622 93.8372 60.3901ZM94.0221 62.4224C94.0558 62.763 94.0895 63.1014 94.1256 63.4374C94.1383 63.5653 94.2534 63.6583 94.3813 63.6443C94.5081 63.6316 94.6011 63.5164 94.5883 63.3897C94.5522 63.0537 94.5185 62.7165 94.4848 62.377C94.472 62.2491 94.3592 62.1561 94.2313 62.1689C94.1035 62.1805 94.0093 62.2945 94.0221 62.4224ZM94.236 64.4524C94.2744 64.793 94.3139 65.1314 94.3546 65.4662C94.3709 65.5941 94.486 65.6848 94.6139 65.6697C94.7406 65.6534 94.8324 65.5383 94.8162 65.4104C94.7755 65.0767 94.7359 64.7396 94.6976 64.4001C94.6836 64.2733 94.5685 64.1815 94.4406 64.1954C94.3139 64.2094 94.222 64.3245 94.236 64.4524ZM94.4825 66.4801C94.5267 66.8196 94.572 67.1567 94.6197 67.4916C94.6371 67.6184 94.7546 67.7066 94.8813 67.6894C95.0092 67.6716 95.0975 67.5545 95.0801 67.4265C95.0336 67.094 94.9871 66.7579 94.9429 66.4196C94.9266 66.2917 94.8104 66.2022 94.6825 66.2185C94.5557 66.2359 94.4662 66.3522 94.4825 66.4801ZM94.7662 68.5018C94.8173 68.8415 94.8696 69.1785 94.9243 69.511C94.9441 69.6377 95.0638 69.724 95.1905 69.704C95.3173 69.6831 95.4033 69.5632 95.3824 69.4365C95.3289 69.1054 95.2766 68.7707 95.2254 68.4332C95.2068 68.3065 95.0882 68.2185 94.9615 68.238C94.8348 68.2566 94.7476 68.3751 94.7662 68.5018ZM95.0929 70.5193C95.1522 70.8576 95.2126 71.1936 95.2754 71.5247C95.2987 71.6505 95.4208 71.7341 95.5463 71.7096C95.673 71.6865 95.7556 71.5657 95.7324 71.4389C95.6707 71.1097 95.6103 70.7763 95.551 70.4388C95.5289 70.3135 95.4091 70.2286 95.2824 70.2503C95.1557 70.2727 95.0708 70.3925 95.0929 70.5193ZM95.4708 72.528C95.5394 72.8654 95.6103 73.1992 95.6823 73.5281C95.7091 73.6539 95.8335 73.7338 95.9591 73.7061C96.0835 73.678 96.1637 73.5549 96.1358 73.4295C96.0649 73.1025 95.9951 72.7715 95.9265 72.4353C95.9009 72.3095 95.7788 72.2283 95.6521 72.2537C95.5265 72.2795 95.4452 72.4027 95.4708 72.528ZM95.9091 74.5259C95.9881 74.8615 96.0707 75.193 96.1544 75.5195C96.1858 75.644 96.3125 75.7185 96.4369 75.6872C96.5613 75.6545 96.6357 75.5278 96.6044 75.4033C96.5218 75.0804 96.4404 74.7525 96.3613 74.4187C96.3323 74.2942 96.2067 74.2165 96.0812 74.2465C95.9568 74.2756 95.88 74.4014 95.9091 74.5259ZM96.4195 76.5078C96.5125 76.8417 96.6078 77.1696 96.7055 77.4915C96.7427 77.6137 96.8729 77.6837 96.9962 77.6464C97.1182 77.6092 97.188 77.4788 97.1508 77.3566C97.0531 77.0369 96.9589 76.7126 96.8671 76.3834C96.8322 76.2594 96.7043 76.1872 96.5799 76.2221C96.4567 76.2566 96.3846 76.3848 96.4195 76.5078ZM97.0159 78.4685C97.1264 78.7973 97.238 79.1206 97.3543 79.4368C97.3984 79.5566 97.5321 79.6193 97.6519 79.5752C97.7728 79.5307 97.8344 79.3972 97.7903 79.2764C97.6763 78.9648 97.5659 78.646 97.4577 78.3218C97.417 78.1996 97.2856 78.1333 97.1636 78.1741C97.0415 78.2146 96.9764 78.3463 97.0159 78.4685ZM97.7217 80.3946C97.8519 80.7166 97.9856 81.0331 98.1228 81.3401C98.1751 81.4573 98.3135 81.5095 98.4297 81.4573C98.5471 81.4051 98.5995 81.2679 98.5471 81.1503C98.4123 80.8482 98.2809 80.539 98.153 80.2202C98.1053 80.1017 97.9693 80.0435 97.8507 80.0925C97.731 80.1403 97.674 80.2751 97.7217 80.3946ZM98.5623 82.2703C98.718 82.5827 98.8785 82.8866 99.0436 83.1804C99.1064 83.2921 99.2482 83.3317 99.3598 83.269C99.4726 83.2063 99.5122 83.0641 99.4494 82.9524C99.2878 82.6653 99.1308 82.3689 98.9785 82.0618C98.9204 81.9469 98.7808 81.9005 98.6657 81.9587C98.5518 82.0155 98.5053 82.1549 98.5623 82.2703ZM99.5726 84.0651C99.7621 84.3607 99.9563 84.6442 100.156 84.9175L100.481 84.9675L100.531 84.6419C100.338 84.3781 100.148 84.1024 99.9644 83.8139C99.8958 83.7059 99.7517 83.6745 99.6435 83.7445C99.5354 83.813 99.504 83.9561 99.5726 84.0651ZM100.799 85.7278C101.028 85.9953 101.264 86.2488 101.507 86.4858L101.836 86.4826L101.833 86.1547C101.599 85.9253 101.372 85.6824 101.151 85.4258L100.825 85.4013L100.799 85.7278Z" fill="#3B3E3A"/>
<path d="M102.34 87.2205C102.477 87.3286 102.616 87.4335 102.759 87.5334C102.864 87.6065 103.009 87.5798 103.083 87.4753C103.156 87.3695 103.13 87.2251 103.025 87.1519C102.891 87.058 102.758 86.9589 102.627 86.8553L102.301 86.8939L102.34 87.2205Z" fill="#3B3E3A"/>
<path d="M56.552 39.7722C56.552 39.7722 56.6171 39.7176 56.7543 39.6164C56.8915 39.5164 57.0984 39.3723 57.3693 39.2002C57.4786 39.1316 57.5112 38.9886 57.4426 38.8805C57.374 38.7712 57.231 38.7386 57.1217 38.8072C56.559 39.1618 56.2613 39.4095 56.2544 39.4141L56.2241 39.742L56.552 39.7722ZM58.2436 38.6933C58.5157 38.548 58.8192 38.3968 59.1517 38.2445C59.2691 38.191 59.3203 38.0527 59.2668 37.9364C59.2133 37.8201 59.0761 37.7678 58.9587 37.8213C58.6169 37.9771 58.3053 38.134 58.0251 38.2829C57.9123 38.3433 57.8693 38.4852 57.9297 38.5979C57.9902 38.7107 58.1309 38.7537 58.2436 38.6933ZM60.0853 37.8515C60.3864 37.7353 60.705 37.6225 61.041 37.5155C61.1643 37.476 61.2317 37.3458 61.1922 37.2225C61.1526 37.1004 61.0224 37.033 60.9003 37.0725C60.555 37.183 60.2272 37.2992 59.9191 37.4178C59.7993 37.4643 59.7388 37.5992 59.7853 37.719C59.8318 37.8387 59.9656 37.898 60.0853 37.8515ZM62.0153 37.2341C62.3327 37.1528 62.6618 37.0772 63.0036 37.0086C63.1292 36.9842 63.2117 36.8621 63.1861 36.7354C63.1617 36.6098 63.0396 36.5284 62.9129 36.5528C62.5629 36.6226 62.2246 36.7005 61.8991 36.7842C61.7747 36.8156 61.7002 36.9423 61.7328 37.0667C61.7642 37.1911 61.8909 37.2667 62.0153 37.2341ZM64.0035 36.84C64.329 36.7947 64.665 36.7563 65.0103 36.7272C65.1382 36.7156 65.2336 36.604 65.2219 36.4761C65.2115 36.3482 65.0987 36.2529 64.9708 36.2633C64.6174 36.2936 64.2732 36.3331 63.9383 36.3796C63.8116 36.397 63.7221 36.5145 63.7407 36.6424C63.7581 36.7691 63.8756 36.8574 64.0035 36.84ZM66.023 36.6691C66.209 36.6633 66.3985 36.661 66.5904 36.661C66.738 36.661 66.8869 36.6621 67.0368 36.6656C67.1647 36.6691 67.2717 36.5668 67.2752 36.4389C67.2775 36.3098 67.1763 36.204 67.0473 36.2005C66.8938 36.1971 66.7415 36.1959 66.5904 36.1959C66.3939 36.1959 66.1997 36.1982 66.009 36.204C65.88 36.2075 65.78 36.3157 65.7835 36.4436C65.787 36.5714 65.894 36.6726 66.023 36.6691ZM68.0507 36.7156C68.3809 36.7412 68.7169 36.7749 69.0599 36.8179C69.1878 36.8342 69.304 36.7435 69.3191 36.6168C69.3354 36.4889 69.2459 36.3726 69.118 36.3563C68.768 36.3122 68.4239 36.2773 68.0856 36.2517C67.9577 36.2424 67.846 36.3389 67.8356 36.4668C67.8263 36.5947 67.9216 36.7063 68.0507 36.7156ZM70.0633 36.9702C70.3911 37.0272 70.7225 37.0946 71.0596 37.1702C71.184 37.1981 71.3085 37.1202 71.3375 36.9946C71.3654 36.8691 71.2864 36.7447 71.162 36.7168C70.8178 36.6389 70.4783 36.5714 70.1446 36.5121C70.0179 36.4901 69.897 36.5738 69.8749 36.7005C69.8528 36.8272 69.9377 36.9481 70.0633 36.9702ZM72.0456 37.4167C72.3665 37.5039 72.6909 37.6004 73.0199 37.7062C73.142 37.7457 73.2722 37.6783 73.3117 37.5562C73.3512 37.433 73.2838 37.3027 73.1617 37.2632C72.8269 37.1562 72.4955 37.0574 72.1676 36.9679C72.0444 36.9342 71.9165 37.0074 71.8828 37.1307C71.8479 37.2551 71.9212 37.383 72.0456 37.4167ZM73.9814 38.0364C74.2942 38.1515 74.6104 38.2747 74.929 38.4061C75.0476 38.4549 75.1836 38.398 75.2324 38.2794C75.2813 38.1608 75.2254 38.0259 75.1069 37.9759C74.7813 37.8422 74.4604 37.7178 74.1418 37.6004C74.0209 37.5562 73.8872 37.6178 73.8431 37.7387C73.7989 37.8585 73.8605 37.9922 73.9814 38.0364ZM75.8626 38.8119C75.9847 38.8677 76.1056 38.9235 76.2277 38.9816C76.4067 39.0665 76.5811 39.1595 76.7509 39.2618C76.8613 39.3281 77.0032 39.2921 77.0694 39.1828C77.1357 39.0723 77.0996 38.9293 76.9904 38.863C76.8078 38.7537 76.6195 38.6526 76.4265 38.5619C76.3032 38.5026 76.1788 38.4456 76.0567 38.3887C75.9393 38.3352 75.801 38.3875 75.7486 38.5038C75.6952 38.6212 75.7463 38.7584 75.8626 38.8119ZM77.5484 39.8304C77.7961 40.0385 78.0321 40.2675 78.2565 40.5163L78.5855 40.5326L78.6018 40.2047C78.3635 39.9408 78.1123 39.6967 77.8461 39.4746L77.5194 39.5037L77.5484 39.8304ZM78.8762 41.293C79.0634 41.5592 79.2413 41.8406 79.4099 42.1394C79.4738 42.251 79.6156 42.2894 79.7273 42.2266C79.8389 42.1627 79.8784 42.0208 79.8145 41.9092C79.6389 41.5988 79.4529 41.3046 79.2552 41.0256C79.182 40.9209 79.0367 40.8954 78.932 40.9698C78.8274 41.043 78.8018 41.1884 78.8762 41.293ZM79.8691 43.0335C80.0075 43.3311 80.1389 43.6416 80.2633 43.9636C80.3098 44.0834 80.4446 44.1438 80.5644 44.0973C80.6841 44.0508 80.7434 43.916 80.6969 43.7962C80.569 43.4648 80.4342 43.1451 80.2912 42.8382C80.2365 42.7219 80.0993 42.6707 79.9819 42.7254C79.8656 42.7789 79.8156 42.9172 79.8691 43.0335ZM80.6027 44.9193C80.7051 45.2344 80.8016 45.56 80.8934 45.8936C80.9271 46.0169 81.055 46.0901 81.1794 46.0552C81.3027 46.0215 81.3759 45.8936 81.341 45.7704C81.248 45.4297 81.1492 45.0984 81.0446 44.7763C81.005 44.6542 80.8736 44.5868 80.7516 44.6263C80.6295 44.6659 80.562 44.7972 80.6027 44.9193ZM81.1445 46.8807C81.2201 47.2051 81.2934 47.5376 81.3608 47.8771C81.3864 48.0027 81.5085 48.0841 81.6352 48.0585C81.7608 48.0341 81.8421 47.9109 81.8166 47.7853C81.748 47.4411 81.6747 47.104 81.5968 46.7738C81.5678 46.6494 81.4422 46.5715 81.3178 46.6005C81.1922 46.6296 81.1155 46.7552 81.1445 46.8807ZM81.548 48.8805C81.605 49.2107 81.6596 49.5479 81.7096 49.8897C81.7282 50.0164 81.8468 50.1048 81.9735 50.085C82.1003 50.0664 82.1886 49.949 82.17 49.8211C82.1188 49.4758 82.0642 49.1363 82.0061 48.8014C81.984 48.6747 81.8642 48.5898 81.7375 48.6119C81.6108 48.634 81.5259 48.7538 81.548 48.8805ZM81.8491 50.9035C81.8921 51.2372 81.9317 51.5756 81.97 51.9197C81.984 52.0476 82.0991 52.1394 82.2258 52.1255C82.3537 52.1115 82.4456 51.9964 82.4316 51.8685C82.3944 51.5232 82.3537 51.1814 82.3107 50.8442C82.2944 50.7175 82.1781 50.6268 82.0502 50.6431C81.9235 50.6594 81.8328 50.7757 81.8491 50.9035ZM82.0735 52.9382C82.1049 53.2742 82.1351 53.6149 82.163 53.959C82.1735 54.0869 82.2851 54.1822 82.413 54.1718C82.5409 54.1613 82.6362 54.0497 82.6258 53.9218C82.5979 53.5753 82.5676 53.2335 82.5363 52.8952C82.5246 52.7673 82.4107 52.6731 82.2828 52.6847C82.1549 52.6975 82.0619 52.8103 82.0735 52.9382ZM82.2386 54.981C82.2619 55.3193 82.284 55.66 82.3037 56.0041C82.3119 56.132 82.4211 56.2309 82.549 56.2227C82.6781 56.2157 82.7758 56.1053 82.7676 55.9774C82.7479 55.6321 82.7258 55.2891 82.7025 54.9496C82.6932 54.8217 82.5827 54.724 82.4548 54.7333C82.327 54.7426 82.2305 54.8531 82.2386 54.981ZM82.3595 57.0284C82.3758 57.3679 82.3921 57.7086 82.406 58.0527C82.4107 58.1818 82.52 58.2806 82.6479 58.276C82.7758 58.2701 82.8757 58.162 82.8699 58.0341C82.856 57.6888 82.8409 57.3458 82.8234 57.0052C82.8176 56.8773 82.7083 56.7785 82.5804 56.7843C82.4514 56.7912 82.3526 56.9005 82.3595 57.0284ZM82.4456 59.0782C82.4572 59.4189 82.4677 59.7607 82.4781 60.1048C82.4816 60.2327 82.5886 60.3339 82.7164 60.3304C82.8455 60.3257 82.9467 60.2188 82.942 60.0909C82.9327 59.7456 82.9211 59.4026 82.9095 59.0619C82.9048 58.934 82.7978 58.834 82.6688 58.8387C82.5409 58.8422 82.4409 58.9503 82.4456 59.0782ZM82.5049 61.1303C82.513 61.471 82.5211 61.8128 82.5269 62.1569C82.5304 62.2848 82.6362 62.3871 82.7641 62.3848C82.8932 62.3825 82.9943 62.2755 82.992 62.1476C82.985 61.8035 82.9781 61.4605 82.9699 61.1198C82.9664 60.9908 82.8606 60.8896 82.7316 60.8931C82.6037 60.8954 82.5014 61.0024 82.5049 61.1303ZM82.5455 63.1836C82.5514 63.5242 82.5572 63.8672 82.5618 64.2102C82.563 64.3392 82.6688 64.4415 82.7967 64.4392C82.9246 64.4381 83.0281 64.3323 83.0257 64.2044C83.0211 63.8602 83.0164 63.5172 83.0106 63.1754C83.0083 63.0475 82.9025 62.9452 82.7746 62.9475C82.6467 62.9499 82.5444 63.0557 82.5455 63.1836ZM82.5734 65.2368C82.5781 65.5786 82.5816 65.9205 82.5851 66.2646C82.5862 66.3925 82.6909 66.496 82.8188 66.4948C82.9478 66.4936 83.0501 66.3878 83.049 66.2599C83.0467 65.9158 83.0432 65.574 83.0385 65.2322C83.0373 65.1043 82.9315 65.0008 82.8036 65.002C82.6758 65.0043 82.5723 65.1089 82.5734 65.238V65.2368ZM82.5944 67.2924C82.5967 67.6331 82.6002 67.976 82.6025 68.3189C82.6037 68.4478 82.7083 68.5505 82.8374 68.5491C82.9653 68.5491 83.0687 68.4433 83.0676 68.3156C83.0641 67.9723 83.0618 67.6294 83.0583 67.2877C83.0583 67.1598 82.9525 67.0564 82.8246 67.0575C82.6955 67.0587 82.5932 67.1633 82.5944 67.2912V67.2924ZM82.6107 69.3467C82.6141 69.6872 82.6165 70.0293 82.62 70.3712C82.6211 70.4989 82.7258 70.6024 82.8537 70.6016C82.9827 70.6002 83.0862 70.4944 83.085 70.3662C83.0815 70.0248 83.0792 69.6841 83.0757 69.3434C83.0746 69.2145 82.9699 69.1109 82.842 69.1118C82.713 69.1132 82.6095 69.219 82.6107 69.3467ZM82.6292 71.3967C82.6327 71.7383 82.6362 72.0802 82.6397 72.4232C82.642 72.5512 82.7467 72.6548 82.8757 72.6534C83.0036 72.6511 83.1059 72.5462 83.1048 72.4173C83.1013 72.0757 83.0978 71.7338 83.0943 71.3917C83.0931 71.2628 82.9873 71.1606 82.8595 71.1615C82.7316 71.1629 82.6281 71.2673 82.6292 71.3967ZM82.6525 73.4523C82.6572 73.7951 82.663 74.1381 82.6688 74.4823C82.67 74.6099 82.7758 74.7126 82.9048 74.7103C83.0327 74.7076 83.135 74.6023 83.1327 74.4741C83.128 74.1313 83.1222 73.7884 83.1176 73.4451C83.1164 73.3174 83.0106 73.2148 82.8827 73.2161C82.7537 73.2184 82.6514 73.3233 82.6525 73.4523ZM82.6862 75.5138C82.6932 75.8567 82.7002 76.1981 82.7083 76.5415C82.7107 76.6691 82.8176 76.7718 82.9455 76.7682C83.0745 76.7659 83.1757 76.6587 83.1734 76.5311C83.1653 76.1891 83.1583 75.8471 83.1513 75.5043C83.149 75.3761 83.0432 75.2739 82.9141 75.2763C82.7862 75.2785 82.6839 75.3843 82.6862 75.5138ZM82.7339 77.5702C82.7432 77.9131 82.7537 78.2551 82.7641 78.598C82.7688 78.726 82.8757 78.8269 83.0036 78.8224C83.1327 78.8191 83.2327 78.7111 83.2292 78.583C83.2176 78.241 83.2083 77.8995 83.199 77.5575C83.1955 77.4285 83.0885 77.3272 82.9606 77.3308C82.8316 77.334 82.7304 77.4412 82.7339 77.5702ZM82.8002 79.6258C82.8129 79.9686 82.8269 80.312 82.8409 80.6536C82.8467 80.7825 82.9548 80.8816 83.0839 80.8769C83.2118 80.8711 83.3106 80.7616 83.3059 80.634C83.2908 80.2934 83.2768 79.9514 83.2641 79.6084C83.2594 79.4804 83.1513 79.3804 83.0234 79.385C82.8955 79.39 82.7955 79.4981 82.8002 79.6258ZM82.8885 81.6826C82.906 82.0255 82.9246 82.3685 82.9432 82.709C82.9513 82.8385 83.0606 82.9361 83.1885 82.9289C83.3164 82.9207 83.4152 82.8117 83.4071 82.6837C83.3885 82.343 83.3699 82.001 83.3536 81.6595C83.3466 81.5306 83.2373 81.4315 83.1094 81.4384C82.9815 81.4442 82.8827 81.5537 82.8885 81.6826ZM83.0059 83.7368C83.028 84.0811 83.0525 84.423 83.0769 84.7637C83.0862 84.8927 83.1978 84.9881 83.3257 84.9785C83.4536 84.9695 83.5501 84.8577 83.5408 84.7301C83.5152 84.3903 83.4919 84.0498 83.4698 83.7068C83.4617 83.5788 83.3513 83.4825 83.2234 83.4907C83.0943 83.4988 82.9978 83.6092 83.0059 83.7368ZM83.1571 85.7901C83.1862 86.1343 83.2164 86.4764 83.2478 86.8169C83.2606 86.9446 83.3734 87.0377 83.5012 87.0263C83.6291 87.0146 83.7233 86.9005 83.7105 86.7729C83.6791 86.4345 83.6489 86.0935 83.621 85.7519C83.6105 85.6239 83.4978 85.5299 83.3699 85.5403C83.242 85.5508 83.1466 85.6625 83.1571 85.7901ZM83.3501 87.8411C83.3862 88.1854 83.4234 88.526 83.4641 88.8657C83.4792 88.9933 83.5943 89.0841 83.7222 89.0691C83.8489 89.0538 83.9407 88.9388 83.9256 88.8108C83.8861 88.4737 83.8477 88.134 83.8117 87.7935C83.7989 87.6658 83.6849 87.5727 83.557 87.5867C83.4292 87.5995 83.3362 87.7144 83.3501 87.8411ZM83.5908 89.8884C83.6361 90.2305 83.6826 90.5711 83.7314 90.9095C83.75 91.0361 83.8686 91.1247 83.9954 91.1061C84.1221 91.0875 84.2105 90.9689 84.1919 90.8422C84.1431 90.5062 84.0965 90.1678 84.0512 89.8281C84.0349 89.7004 83.9186 89.611 83.7907 89.6268C83.664 89.6446 83.5745 89.7609 83.5908 89.8884ZM83.8896 91.9281C83.9442 92.2697 84.0024 92.608 84.0628 92.9442C84.0861 93.0708 84.207 93.1544 84.3326 93.1326C84.4593 93.1094 84.543 92.9881 84.5209 92.8628C84.4604 92.529 84.4023 92.193 84.3477 91.8537C84.3267 91.727 84.2081 91.6407 84.0814 91.6615C83.9547 91.6824 83.8687 91.8014 83.8884 91.9281H83.8896ZM84.2558 93.9578C84.3232 94.2975 84.3942 94.6345 84.4686 94.9683C84.4965 95.0927 84.6209 95.1718 84.7453 95.1449C84.8709 95.1173 84.9499 94.9929 84.922 94.8671C84.8488 94.5369 84.779 94.2035 84.7116 93.8674C84.686 93.7407 84.5639 93.659 84.4384 93.6849C84.3116 93.7102 84.2302 93.8324 84.2558 93.9578ZM84.7034 95.9729C84.7872 96.3099 84.8732 96.6437 84.9627 96.9725C84.9964 97.0969 85.1243 97.1691 85.2487 97.1355C85.372 97.1019 85.4452 96.9739 85.4115 96.8508C85.322 96.5251 85.2371 96.1949 85.1545 95.8625C85.1243 95.7367 84.9988 95.6614 84.8732 95.6913C84.7488 95.7227 84.6732 95.8485 84.7034 95.9729ZM85.2487 97.9658C85.3499 98.2982 85.4545 98.627 85.5638 98.9505C85.6045 99.0725 85.7359 99.1375 85.858 99.0971C85.9789 99.0549 86.0451 98.9236 86.0033 98.8014C85.8963 98.4831 85.7929 98.1597 85.694 97.8309C85.6557 97.7073 85.5266 97.6387 85.4034 97.6761C85.2813 97.7133 85.2115 97.8422 85.2487 97.9658ZM85.9091 99.9246C86.0312 100.252 86.1579 100.572 86.2905 100.887C86.3393 101.006 86.4753 101.062 86.5939 101.012C86.7125 100.963 86.7683 100.827 86.7195 100.709C86.5893 100.398 86.4649 100.083 86.3451 99.762C86.2998 99.6421 86.1661 99.5808 86.0452 99.6257C85.9254 99.6712 85.8649 99.8051 85.9091 99.9246ZM86.709 101.835C86.8567 102.151 87.009 102.461 87.1683 102.764C87.2276 102.878 87.3682 102.922 87.4822 102.862C87.595 102.802 87.6392 102.661 87.5799 102.549C87.4241 102.251 87.2741 101.948 87.1299 101.639C87.0753 101.521 86.9369 101.471 86.8206 101.526C86.7044 101.581 86.6544 101.719 86.709 101.835ZM87.6717 103.672L87.7508 103.805C87.817 103.915 87.96 103.95 88.0693 103.885C88.1798 103.819 88.2158 103.675 88.1495 103.565L88.0728 103.436C88.0077 103.325 87.8647 103.288 87.7543 103.354C87.6438 103.418 87.6066 103.562 87.6717 103.672Z" fill="#3B3E3A"/>
<path d="M61.6978 46.2837C61.6978 46.2837 61.7862 46.2558 61.9548 46.2163C62.1234 46.1779 62.3687 46.1291 62.6663 46.0895C62.793 46.0733 62.8825 45.957 62.8663 45.8291C62.85 45.7024 62.7326 45.6129 62.6058 45.6291C61.9757 45.7117 61.5699 45.8361 61.5606 45.8396C61.4374 45.8768 61.3688 46.007 61.4071 46.1302C61.4443 46.2523 61.5746 46.3209 61.6978 46.2837ZM63.6604 46.0244H63.6685C63.979 46.0244 64.3103 46.0442 64.6498 46.093C64.7777 46.1116 64.8951 46.0244 64.9137 45.8977C64.9323 45.7698 64.8451 45.6524 64.7172 45.6338C64.3522 45.5803 63.9987 45.5594 63.6685 45.5594H63.6592C63.5313 45.5594 63.4267 45.664 63.4278 45.7919C63.4278 45.9198 63.5313 46.0244 63.6604 46.0244ZM65.6102 46.3186C65.9113 46.4186 66.2124 46.5476 66.5042 46.7151C66.6147 46.779 66.7577 46.7406 66.8205 46.629C66.8844 46.5174 66.8461 46.3756 66.7344 46.3116C66.4135 46.1279 66.0845 45.9861 65.7555 45.8768C65.6334 45.8361 65.502 45.9024 65.4625 46.0244C65.4218 46.1465 65.4881 46.2779 65.6102 46.3186ZM67.2937 47.2859C67.5239 47.4929 67.7436 47.7324 67.9494 48.0103L68.2738 48.0591L68.3226 47.7335C68.0994 47.4313 67.8576 47.1685 67.6041 46.9406L67.2763 46.958L67.2937 47.2859ZM68.461 48.8497C68.5994 49.1287 68.7261 49.4334 68.8377 49.7682C68.8784 49.8891 69.0098 49.9554 69.1319 49.9147C69.2528 49.874 69.319 49.7426 69.2784 49.6205C69.1598 49.2671 69.026 48.9415 68.876 48.6427C68.8191 48.5276 68.6796 48.4811 68.5645 48.5381C68.4505 48.5962 68.4029 48.7358 68.461 48.8497ZM69.0981 50.732C69.1632 51.0425 69.219 51.3727 69.2609 51.7238C69.2772 51.8505 69.3923 51.9424 69.5202 51.9261C69.6469 51.911 69.7376 51.7947 69.7225 51.668C69.6783 51.3029 69.6213 50.9599 69.5527 50.6355C69.526 50.51 69.4016 50.4297 69.276 50.4565C69.1505 50.4832 69.0714 50.6065 69.0981 50.732ZM69.3458 52.7295C69.3586 52.9969 69.3656 53.2759 69.3656 53.5654L69.3644 53.7271V53.741C69.3632 53.8701 69.4667 53.9747 69.5946 53.9759C69.7236 53.977 69.8283 53.8747 69.8294 53.7457V53.7305L69.8306 53.5654C69.8306 53.269 69.8236 52.9818 69.8097 52.7062C69.8039 52.5784 69.6946 52.4795 69.5667 52.4853C69.4376 52.4911 69.3388 52.6004 69.3458 52.7295ZM69.333 54.7583C69.3156 55.085 69.2923 55.4245 69.2644 55.7768C69.2539 55.9047 69.3493 56.0163 69.4772 56.0268C69.6051 56.0373 69.7167 55.9419 69.7271 55.814C69.7562 55.4583 69.7795 55.1141 69.7969 54.7828C69.8039 54.6537 69.705 54.5444 69.5771 54.5386C69.4481 54.5316 69.3388 54.6304 69.333 54.7583ZM69.1702 56.7941C69.1353 57.1243 69.0981 57.4638 69.0563 57.8115C69.0412 57.9394 69.1318 58.0545 69.2586 58.0707C69.3865 58.0859 69.5027 57.994 69.5178 57.8673C69.5597 57.5162 69.5981 57.1743 69.6318 56.8418C69.6457 56.7151 69.5527 56.6 69.4248 56.5872C69.297 56.5744 69.183 56.6674 69.1702 56.7941ZM68.9272 58.8288C68.883 59.159 68.8365 59.4985 68.7877 59.8438C68.7691 59.9705 68.8575 60.088 68.9854 60.1066C69.1121 60.1252 69.2295 60.0368 69.2481 59.9089C69.297 59.5624 69.3446 59.2218 69.3888 58.8893C69.4051 58.7625 69.3156 58.6451 69.1888 58.6288C69.0609 58.6114 68.9447 58.7009 68.9272 58.8288ZM68.6389 60.8588C68.5889 61.1913 68.5377 61.5285 68.4842 61.8727C68.4645 61.9994 68.5505 62.118 68.6772 62.1377C68.8051 62.1575 68.9237 62.0715 68.9435 61.9447C68.997 61.5994 69.0493 61.2611 69.0993 60.9274C69.1179 60.8007 69.0307 60.6821 68.904 60.6635C68.7761 60.6437 68.6587 60.7321 68.6389 60.8588ZM68.3238 62.8865C68.2703 63.219 68.2157 63.5573 68.1599 63.9003C68.1389 64.0271 68.225 64.1456 68.3517 64.1666C68.4784 64.1875 68.5982 64.1015 68.6179 63.9747C68.6749 63.6318 68.7296 63.2934 68.7831 62.9597C68.8028 62.833 68.7168 62.7144 68.59 62.6935C68.4633 62.6737 68.3435 62.7598 68.3238 62.8865ZM67.9924 64.913C67.9378 65.2467 67.882 65.5839 67.8239 65.9257C67.8029 66.0524 67.889 66.1722 68.0157 66.1931C68.1424 66.2152 68.2622 66.1291 68.2831 66.0024C68.3401 65.6606 68.3959 65.3234 68.4517 64.9886C68.4726 64.8618 68.3866 64.7421 68.2599 64.7212C68.1331 64.7002 68.0134 64.7863 67.9924 64.913ZM67.6553 66.9395C67.5994 67.2732 67.5425 67.6114 67.4855 67.9521C67.4646 68.0787 67.5495 68.1987 67.6762 68.2195C67.8029 68.2404 67.9227 68.1555 67.9436 68.0288C68.0006 67.6882 68.0576 67.3499 68.1134 67.0163C68.1343 66.8895 68.0494 66.7698 67.9227 66.7477C67.7959 66.7268 67.6762 66.8128 67.6553 66.9395ZM67.3158 68.9662C67.26 69.3009 67.2042 69.6379 67.1472 69.9785C67.1263 70.1052 67.2123 70.2251 67.339 70.246C67.4657 70.2669 67.5855 70.181 67.6064 70.0552C67.6622 69.7147 67.7192 69.3763 67.775 69.0416C67.7959 68.9149 67.7099 68.795 67.5832 68.7741C67.4565 68.7532 67.3367 68.8394 67.3158 68.9662ZM66.9809 70.9927C66.9251 71.3288 66.8705 71.6667 66.8158 72.0077C66.7949 72.1344 66.8809 72.253 67.0077 72.2738C67.1344 72.2947 67.2542 72.2085 67.2739 72.0817C67.3297 71.7411 67.3844 71.4027 67.439 71.068C67.4599 70.9414 67.3739 70.8214 67.2472 70.8006C67.1205 70.7811 67.0019 70.8659 66.9809 70.9927ZM66.6531 73.0214C66.5984 73.3584 66.5449 73.6968 66.4926 74.0373C66.4728 74.1641 66.5589 74.2826 66.6856 74.3026C66.8123 74.3226 66.9321 74.2354 66.9519 74.1087C67.0042 73.769 67.0577 73.4306 67.1111 73.0945C67.1321 72.9678 67.0449 72.8493 66.9181 72.8284C66.7914 72.8084 66.6728 72.8947 66.6531 73.0214ZM66.3345 75.0524C66.2833 75.3899 66.2322 75.7282 66.181 76.0688C66.1624 76.1965 66.2496 76.314 66.3763 76.3336C66.5031 76.3523 66.6217 76.2651 66.6403 76.1384C66.6914 75.7977 66.7426 75.4594 66.7949 75.1232C66.8135 74.9965 66.7263 74.878 66.5996 74.8585C66.4729 74.8385 66.3543 74.9257 66.3345 75.0524ZM66.031 77.0862C65.9822 77.4232 65.9334 77.7628 65.8845 78.1035C65.8671 78.2312 65.9555 78.3487 66.0822 78.366C66.2089 78.3846 66.3264 78.2965 66.345 78.1685C66.3926 77.8292 66.4415 77.4909 66.4903 77.1534C66.5089 77.0258 66.4217 76.9082 66.2938 76.8896C66.1671 76.871 66.0496 76.9594 66.031 77.0862ZM65.7427 79.1218C65.6962 79.4601 65.6508 79.7998 65.6055 80.1413C65.5881 80.268 65.6776 80.3843 65.8055 80.4021C65.9322 80.4184 66.0496 80.3285 66.0659 80.2018C66.1113 79.8611 66.1566 79.5228 66.2031 79.1844C66.2205 79.0577 66.1322 78.9405 66.0043 78.9228C65.8776 78.9056 65.7601 78.995 65.7427 79.1218ZM65.473 81.1609C65.43 81.4993 65.3869 81.8399 65.3462 82.1809C65.33 82.3086 65.4206 82.4239 65.5485 82.4399C65.6753 82.4553 65.7915 82.3645 65.8078 82.2378C65.8485 81.8971 65.8915 81.5574 65.9345 81.2191C65.9508 81.0914 65.8601 80.9751 65.7334 80.9589C65.6055 80.9439 65.4892 81.0333 65.473 81.1609ZM65.2241 83.2015C65.1846 83.5413 65.1462 83.8818 65.1079 84.2239C65.0939 84.3514 65.1858 84.4668 65.3137 84.4805C65.4416 84.4945 65.5567 84.4028 65.5706 84.2747C65.6078 83.9341 65.6462 83.5949 65.6857 83.2564C65.7008 83.1284 65.609 83.0135 65.4823 82.9981C65.3544 82.9831 65.2393 83.0748 65.2241 83.2015ZM64.9986 85.2466C64.9626 85.5863 64.9288 85.9278 64.8951 86.2698C64.8823 86.3979 64.9753 86.5119 65.1032 86.5232C65.2311 86.5359 65.3451 86.4434 65.3579 86.3152C65.3904 85.9746 65.4253 85.634 65.4602 85.2943C65.4741 85.1667 65.3811 85.0527 65.2532 85.0399C65.1265 85.0259 65.0114 85.119 64.9986 85.2466ZM64.7975 87.294C64.7672 87.6351 64.737 87.9756 64.7079 88.3185C64.6975 88.4462 64.7917 88.5593 64.9195 88.5698C65.0474 88.5801 65.1602 88.4857 65.1707 88.3568C65.1997 88.0161 65.23 87.6754 65.2614 87.3362C65.273 87.2082 65.1788 87.0955 65.0509 87.0836C64.923 87.0719 64.8091 87.1663 64.7975 87.294ZM64.6254 89.3441C64.5986 89.6846 64.5742 90.0253 64.5498 90.3673C64.5417 90.4949 64.6382 90.6052 64.7661 90.6148C64.894 90.623 65.0056 90.5263 65.0137 90.3986C65.0381 90.0589 65.0625 89.7184 65.0881 89.3799C65.0986 89.251 65.0032 89.1392 64.8753 89.1302C64.7463 89.1197 64.6347 89.216 64.6254 89.3441ZM64.4835 91.39C64.4615 91.7307 64.4417 92.0727 64.4243 92.4156C64.4173 92.5436 64.5149 92.6531 64.644 92.6599C64.7719 92.6667 64.8812 92.5681 64.8882 92.4401C64.9068 92.0995 64.9265 91.7588 64.9474 91.4191C64.9544 91.2915 64.8579 91.1807 64.7289 91.173C64.601 91.1648 64.4905 91.2625 64.4835 91.39ZM64.3731 93.4411C64.358 93.783 64.344 94.1246 64.3312 94.4679C64.3266 94.5956 64.4266 94.7036 64.5545 94.7086C64.6835 94.7131 64.7905 94.6133 64.7951 94.4839C64.8079 94.1432 64.8219 93.8025 64.837 93.462C64.8428 93.3329 64.744 93.2249 64.6161 93.219C64.487 93.2131 64.3789 93.3121 64.3731 93.4411ZM64.2987 95.4943C64.2882 95.8372 64.2812 96.1793 64.2743 96.5221C64.2719 96.6511 64.3742 96.757 64.5033 96.7592C64.6312 96.762 64.737 96.6593 64.7393 96.5317C64.7451 96.1897 64.7533 95.8477 64.7626 95.5071C64.7661 95.3795 64.6649 95.2723 64.537 95.2691C64.408 95.2654 64.3022 95.3668 64.2987 95.4943ZM64.2615 97.5513C64.258 97.8396 64.2568 98.1281 64.2568 98.415L64.258 98.5799C64.258 98.7094 64.3614 98.8124 64.4905 98.8124C64.6184 98.8124 64.7219 98.708 64.7219 98.5799V98.415C64.7219 98.1289 64.723 97.842 64.7254 97.5558C64.7265 97.4268 64.6242 97.3219 64.4952 97.321C64.3673 97.3196 64.2615 97.4232 64.2615 97.5513ZM64.265 99.61C64.2684 99.9534 64.2743 100.296 64.2824 100.639C64.2859 100.767 64.3917 100.869 64.5196 100.866C64.6486 100.863 64.7498 100.757 64.7475 100.629C64.7393 100.287 64.7335 99.9451 64.7289 99.6046C64.7277 99.4755 64.6219 99.373 64.494 99.3742C64.3661 99.3766 64.2626 99.481 64.265 99.61ZM64.3115 101.668C64.3231 102.011 64.337 102.354 64.3522 102.697C64.358 102.825 64.4673 102.924 64.5952 102.918C64.7242 102.912 64.823 102.804 64.8172 102.675C64.8009 102.334 64.7882 101.994 64.7765 101.652C64.7719 101.524 64.6638 101.423 64.5359 101.427C64.408 101.432 64.3068 101.539 64.3115 101.668ZM64.4056 103.725C64.4254 104.068 64.4475 104.41 64.4719 104.752C64.48 104.881 64.5917 104.977 64.7195 104.968C64.8474 104.959 64.9439 104.848 64.9346 104.72C64.9114 104.38 64.8893 104.039 64.8695 103.698C64.8626 103.57 64.7521 103.473 64.6242 103.479C64.4963 103.487 64.3987 103.597 64.4056 103.725ZM64.5498 105.779C64.5789 106.121 64.6091 106.464 64.6428 106.805C64.6544 106.932 64.7684 107.027 64.8963 107.014C65.0242 107.001 65.1172 106.888 65.1056 106.761C65.0718 106.421 65.0416 106.081 65.0137 105.741C65.0032 105.613 64.8905 105.518 64.7626 105.528C64.6347 105.539 64.5393 105.651 64.5498 105.779ZM64.7486 107.83C64.7858 108.171 64.8265 108.513 64.8695 108.854C64.8846 108.98 65.0009 109.071 65.1288 109.054C65.2555 109.038 65.3462 108.922 65.3299 108.796C65.2881 108.457 65.2486 108.119 65.2102 107.779C65.1963 107.651 65.0811 107.559 64.9544 107.573C64.8265 107.587 64.7347 107.702 64.7486 107.83ZM65.0044 109.874C65.0521 110.215 65.1021 110.554 65.1555 110.894C65.1753 111.02 65.2939 111.108 65.4206 111.088C65.5474 111.068 65.6346 110.949 65.6148 110.822C65.5625 110.486 65.5125 110.147 65.4648 109.81C65.4474 109.682 65.33 109.594 65.2021 109.612C65.0753 109.63 64.987 109.747 65.0044 109.874ZM65.3218 111.91C65.3427 112.032 65.3637 112.153 65.3858 112.275C65.4079 112.401 65.5288 112.486 65.6555 112.463C65.7811 112.44 65.8659 112.319 65.8427 112.193C65.8218 112.073 65.8008 111.952 65.7799 111.832C65.7578 111.705 65.638 111.62 65.5113 111.643C65.3846 111.664 65.2997 111.784 65.3218 111.91Z" fill="#3B3E3A"/>
</g>
</svg>
