<svg width="111" height="112" viewBox="0 0 111 112" fill="none" xmlns="http://www.w3.org/2000/svg">
<path d="M110.667 55.8635C110.667 86.4232 85.8938 111.196 55.3333 111.196C24.7738 111.196 0 86.4232 0 55.8635C0 25.3027 24.7738 0.529625 55.3333 0.529625C85.8938 0.529625 110.667 25.3027 110.667 55.8635Z" fill="#FFE4CF"/>
<path d="M101.433 36.3193C101.072 35.6241 100.755 34.9067 100.338 34.2265C99.4726 32.8813 98.6599 31.4826 97.5461 30.2374C96.5031 28.941 95.3486 27.7377 94.0615 26.6681C91.5083 24.5055 88.4726 22.8324 85.152 21.8755C81.8466 20.8908 78.2388 20.6861 74.7508 21.2872C71.2783 21.85 67.8789 23.3684 65.2146 25.3264C64.5384 25.7984 63.9404 26.3437 63.3167 26.8518C62.7286 27.4017 62.145 27.9458 61.6177 28.5458C60.5332 29.7073 59.5835 30.9815 58.7601 32.3349C58.3749 32.9627 58.0235 33.6173 57.7047 34.2893C59.8129 36.9274 62.4775 39.1179 65.3042 41.063C65.9074 40.5898 66.5318 40.148 67.1949 39.7562C68.8048 38.8098 70.4771 38.0075 72.1151 37.5599C72.3197 37.5064 72.5232 37.4564 72.7162 37.3937C72.9092 37.3483 73.0929 37.3262 73.2754 37.289C73.6335 37.2007 74.0021 37.1762 74.3544 37.1297C74.7078 37.0809 75.0694 37.089 75.4135 37.06C75.567 37.0727 75.7158 37.0693 75.8647 37.0669C76.0623 37.0635 76.2588 37.0599 76.4611 37.0925C77.8458 37.1785 79.2108 37.4029 80.6083 37.8041C82.0024 38.1854 83.4394 38.6923 84.8428 39.4248C85.5694 39.755 86.2438 40.1991 86.8821 40.684C87.582 41.1025 88.1633 41.735 88.8121 42.314C89.9643 43.6209 91.1374 45.1068 91.8595 46.9054C94.9893 53.9233 95.0405 63.3618 90.5375 69.9936L90.1073 70.611L89.8922 70.9237C89.8201 71.0307 89.7457 71.1412 89.6946 71.19L89.3562 71.6027C89.2179 71.7248 89.0818 71.8539 88.9446 71.9899C88.3517 72.4852 87.6076 72.9038 86.7937 73.1886C85.152 73.7932 83.2883 73.7211 81.7989 73.0421C81.0409 72.7015 80.3909 72.148 79.8852 71.397C79.3492 70.6714 79.055 69.875 79.0643 69.0693C79.0504 68.2682 79.3782 67.4462 80.0526 66.8474C80.7107 66.2277 81.721 65.901 82.8069 65.858L82.8558 65.8557C83.2057 65.8417 83.5185 65.5953 83.601 65.236C83.6987 64.8058 83.4301 64.3779 83.0011 64.2803C81.671 63.9757 80.1014 63.9989 78.7027 64.7476C77.2982 65.4487 76.1623 66.8591 75.7484 68.4717C75.3054 70.0866 75.5461 71.8178 76.1425 73.2537C76.6902 74.7082 77.6691 76.1046 78.9492 77.13C80.2177 78.1741 81.7257 78.8845 83.2801 79.2694C84.837 79.667 86.4438 79.7484 88.0308 79.5565C89.619 79.3658 91.2002 78.9136 92.7094 78.1474L93.8197 77.5044C94.179 77.2591 94.5289 76.9905 94.8801 76.7231C95.0719 76.5836 95.1986 76.4615 95.3288 76.3394L95.7288 75.9697L96.5276 75.2186L97.3205 74.4547C97.5693 74.1885 97.7891 73.9013 98.0251 73.6223L99.4098 71.9178L100.592 70.0866C100.784 69.7774 100.993 69.4727 101.17 69.1553L101.66 68.188C101.979 67.5392 102.316 66.8881 102.604 66.2243L103.362 64.1954C103.636 63.5187 103.819 62.8258 104.001 62.1294C104.181 61.4341 104.389 60.7353 104.537 60.0307C105.615 54.3848 105.566 48.4692 103.871 42.7268C103.657 42.0094 103.459 41.2851 103.218 40.57L102.387 38.4365C102.126 37.7192 101.79 37.0169 101.433 36.3193Z" fill="#3B3E3A"/>
<path d="M63.3167 26.8513C65.9036 27.0478 68.446 28.2547 70.3012 30.1626C71.2218 31.1171 71.9987 32.2333 72.4719 33.4703C73.0149 34.6807 73.2021 36.005 73.2753 37.2886C72.88 36.0515 72.4917 34.8446 71.8813 33.7482C71.3168 32.6332 70.5697 31.6264 69.7022 30.7463C68.8471 29.851 67.8529 29.0871 66.777 28.4407C65.6924 27.8117 64.5448 27.2583 63.3167 26.8513Z" fill="#4C554C"/>
<path d="M79.8304 20.9495C81.3628 21.7866 82.715 22.9434 83.8754 24.2758C85.0334 25.6094 85.9414 27.2174 86.3356 28.9928C86.3925 29.4427 86.5321 29.8857 86.5146 30.3415C86.5042 30.7973 86.51 31.2542 86.4832 31.7064C86.2844 32.5935 86.1321 33.4935 85.6775 34.2806C85.3589 35.1258 84.7497 35.7955 84.2625 36.5257C83.6812 37.1849 83.0266 37.7767 82.3953 38.3662C82.8917 37.643 83.4766 37.0058 83.9323 36.2827C84.3346 35.5293 84.8636 34.848 85.0857 34.0283C85.2031 33.626 85.4275 33.2574 85.474 32.8424L85.6961 31.6216L85.6984 30.3868C85.7124 29.974 85.5705 29.5741 85.5182 29.1672C85.1787 27.5499 84.3672 26.0466 83.3743 24.6758C82.8894 23.9782 82.3151 23.3387 81.7175 22.7248C81.1338 22.0924 80.4967 21.5087 79.8304 20.9495Z" fill="#4C554C"/>
<path d="M97.0635 29.6577C97.8169 31.0238 98.2482 32.562 98.4238 34.1363C98.6017 35.7117 98.411 37.358 97.7924 38.8567C97.1611 40.3379 96.1322 41.6925 94.7788 42.5517C94.1626 43.0679 93.3964 43.3283 92.7104 43.705C91.9733 43.9771 91.2164 44.1864 90.4711 44.3887C91.1559 44.0073 91.8722 43.7236 92.5302 43.3376C93.1534 42.8993 93.8603 42.5877 94.387 42.0424C95.5694 41.1169 96.4589 39.8869 97.0204 38.5358C97.5994 37.1837 97.8041 35.6815 97.7855 34.177C97.7727 33.4224 97.7041 32.6621 97.5657 31.911C97.4646 31.1517 97.2774 30.4053 97.0635 29.6577Z" fill="#4C554C"/>
<path d="M104.757 46.5439C104.998 47.8251 104.7 49.1994 104.077 50.3795C103.457 51.5759 102.477 52.5502 101.394 53.3106C100.311 54.0919 99.0807 54.6011 97.8425 55.0116C97.21 55.1743 96.5799 55.3441 95.9439 55.4639C95.2951 55.5371 94.6568 55.6371 94.0127 55.6836C94.6219 55.4511 95.2358 55.272 95.8404 55.0662L97.6216 54.3965C98.7691 53.878 99.919 53.3641 100.914 52.6258C101.93 51.9305 102.841 51.0771 103.516 50.0482C104.173 49.0192 104.67 47.8356 104.757 46.5439Z" fill="#4C554C"/>
<path d="M102.807 65.6804C102.366 66.6279 101.692 67.479 100.856 68.1545C100.025 68.8347 98.9877 69.3137 97.8867 69.4567C96.7938 69.5718 95.6485 69.4288 94.6882 68.9265C94.1801 68.7382 93.7673 68.3778 93.3197 68.1045C92.9221 67.7534 92.5338 67.3988 92.1757 67.0244C92.6547 67.2523 93.0814 67.5325 93.5371 67.7569C94.0138 67.9336 94.4463 68.201 94.9277 68.3185C95.8578 68.6638 96.8391 68.7335 97.7785 68.6277C98.7261 68.5208 99.6388 68.1464 100.478 67.6255C101.307 67.0883 102.1 66.4442 102.807 65.6804Z" fill="#4C554C"/>
<path d="M89.634 79.2681C88.4632 78.8821 87.5122 77.9415 86.9634 76.8137C86.696 76.2463 86.5158 75.6278 86.4972 75.0011C86.4402 74.3779 86.582 73.7547 86.7936 73.1885C86.9936 74.3953 87.2168 75.4627 87.7168 76.4509C88.1842 77.4508 88.8504 78.3426 89.634 79.2681Z" fill="#4C554C"/>
<path d="M76.1425 73.2549C76.1622 72.4387 76.5424 71.705 77.1121 71.1284C77.4098 70.854 77.7574 70.6087 78.1655 70.4877C78.5689 70.3587 79.0189 70.3819 79.3851 70.5505C78.6399 70.8737 78.1864 71.2493 77.6935 71.7295C77.2005 72.1945 76.754 72.727 76.1425 73.2549Z" fill="#4C554C"/>
<path d="M9.23367 36.3193C9.59432 35.6241 9.9122 34.9067 10.3282 34.2265C11.1947 32.8813 12.0078 31.4826 13.1218 30.2374C14.1641 28.941 15.3181 27.7377 16.6061 26.6681C19.1585 24.5055 22.1942 22.8324 25.5146 21.8755C28.8205 20.8908 32.4288 20.6861 35.9164 21.2872C39.3885 21.85 42.7884 23.3684 45.4521 25.3264C46.1283 25.7984 46.7265 26.3437 47.35 26.8518C47.9387 27.4017 48.5217 27.9458 49.0495 28.5458C50.134 29.7073 51.0837 30.9815 51.9067 32.3349C52.2923 32.9627 52.6437 33.6173 52.9627 34.2893C50.8544 36.9274 48.1889 39.1179 45.363 41.063C44.7595 40.5898 44.1355 40.148 43.4719 39.7562C41.8624 38.8098 40.1896 38.0075 38.5514 37.5599C38.3471 37.5064 38.1445 37.4564 37.9501 37.3937C37.758 37.3483 37.5746 37.3262 37.392 37.289C37.0342 37.2007 36.6649 37.1762 36.312 37.1297C35.9595 37.0809 35.5976 37.089 35.2538 37.06C35.0998 37.0727 34.9509 37.0693 34.8023 37.0669C34.6043 37.0635 34.4086 37.0599 34.206 37.0925C32.8212 37.1785 31.4556 37.4029 30.0585 37.8041C28.6642 38.1854 27.2278 38.6923 25.824 39.4248C25.0978 39.755 24.4228 40.1991 23.7843 40.684C23.0858 41.1025 22.5035 41.735 21.8554 42.314C20.7028 43.6209 19.5296 45.1068 18.808 46.9054C15.6774 53.9233 15.6269 63.3618 20.13 69.9936L20.5597 70.611L20.775 70.9237C20.8476 71.0307 20.9212 71.1412 20.9725 71.19L21.3104 71.6027C21.449 71.7248 21.5856 71.8539 21.7223 71.9899C22.316 72.4852 23.0589 72.9038 23.8723 73.1886C25.5146 73.7932 27.3786 73.7211 28.8686 73.0421C29.6262 72.7015 30.2762 72.148 30.782 71.397C31.3171 70.6714 31.6118 69.875 31.6028 69.0693C31.6168 68.2682 31.289 67.4462 30.615 66.8474C29.9564 66.2277 28.9468 65.901 27.8604 65.858L27.8118 65.8557C27.4603 65.8417 27.1487 65.5953 27.066 65.236C26.9676 64.8058 27.2364 64.3779 27.666 64.2803C28.9958 63.9757 30.5664 63.9989 31.9638 64.7476C33.369 65.4487 34.5044 66.8591 34.9181 68.4717C35.3624 70.0866 35.1216 71.8178 34.5235 73.2537C33.9772 74.7082 32.9984 76.1046 31.7176 77.13C30.4501 78.1741 28.9413 78.8845 27.3876 79.2694C25.8298 79.667 24.2234 79.7484 22.6366 79.5565C21.0483 79.3658 19.467 78.9136 17.9577 78.1474L16.8469 77.5044C16.489 77.2591 16.1384 76.9905 15.7877 76.7231C15.5956 76.5836 15.4685 76.4615 15.3377 76.3394L14.939 75.9697L14.14 75.2186L13.3471 74.4547C13.0973 74.1885 12.8784 73.9013 12.6427 73.6223L11.2566 71.9178L10.0744 70.0866C9.8822 69.7774 9.67292 69.4727 9.49666 69.1553L9.00799 68.188C8.68779 67.5392 8.35074 66.8881 8.06333 66.2243L7.3048 64.1954C7.03146 63.5187 6.84846 62.8258 6.66534 62.1294C6.4864 61.4341 6.27747 60.7353 6.12993 60.0307C5.05133 54.3848 5.10074 48.4692 6.79614 42.7268C7.01007 42.0094 7.20725 41.2851 7.44932 40.57L8.279 38.4365C8.5406 37.7192 8.87766 37.0169 9.23367 36.3193Z" fill="#3B3E3A"/>
<path d="M47.3505 26.8513C46.1225 27.2583 44.9747 27.8117 43.8902 28.4407C42.8143 29.0871 41.8193 29.851 40.9645 30.7463C40.0975 31.6264 39.35 32.6332 38.7863 33.7482C38.1755 34.8446 37.7876 36.0515 37.3916 37.2886C37.4652 36.005 37.6518 34.6807 38.195 33.4703C38.6687 32.2333 39.4449 31.1171 40.3659 30.1626C42.2212 28.2547 44.7636 27.0478 47.3505 26.8513Z" fill="#4C554C"/>
<path d="M30.8366 20.9495C30.1699 21.5087 29.5322 22.0924 28.95 22.7248C28.3524 23.3387 27.7778 23.9782 27.2927 24.6758C26.2999 26.0466 25.4884 27.5499 25.1491 29.1672C25.0969 29.5741 24.9542 29.974 24.9692 30.3868L24.9716 31.6216L25.1932 32.8424C25.239 33.2574 25.4638 33.626 25.5806 34.0283C25.8026 34.848 26.3327 35.5293 26.7346 36.2827C27.1906 37.0058 27.7751 37.643 28.2714 38.3662C27.6402 37.7767 26.9858 37.1849 26.4044 36.5257C25.9175 35.7955 25.3076 35.1258 24.9883 34.2806C24.5351 33.4935 24.3815 32.5935 24.1835 31.7064C24.1568 31.2542 24.1627 30.7973 24.1527 30.3415C24.1344 29.8857 24.2743 29.4427 24.3312 28.9928C24.7253 27.2174 25.6332 25.6094 26.7914 24.2758C27.9526 22.9434 29.3042 21.7866 30.8366 20.9495Z" fill="#4C554C"/>
<path d="M13.6037 29.6577C13.3897 30.4053 13.2022 31.1517 13.1018 31.911C12.9628 32.6621 12.8943 33.4224 12.882 34.177C12.8625 35.6815 13.0673 37.1837 13.6463 38.5358C14.2081 39.8869 15.0979 41.1169 16.2806 42.0424C16.8064 42.5877 17.5136 42.8993 18.1371 43.3376C18.7948 43.7236 19.5106 44.0073 20.1958 44.3887C19.451 44.1864 18.6931 43.9771 17.9564 43.705C17.2706 43.3283 16.5039 43.0679 15.8877 42.5517C14.5352 41.6925 13.5055 40.3379 12.8743 38.8567C12.2552 37.358 12.065 35.7117 12.2425 34.1363C12.4197 32.562 12.8493 31.0238 13.6037 29.6577Z" fill="#4C554C"/>
<path d="M5.91012 46.5439C5.99825 47.8356 6.49425 49.0192 7.15045 50.0482C7.82678 51.0771 8.73691 51.9305 9.75378 52.6258C10.7488 53.3641 11.8978 53.878 13.0451 54.3965L14.8273 55.0662C15.4313 55.272 16.0453 55.4511 16.654 55.6836C16.0103 55.6371 15.3718 55.5371 14.7237 55.4639C14.0869 55.3441 13.4574 55.1743 12.8248 55.0116C11.5867 54.6011 10.3564 54.0919 9.27325 53.3106C8.19011 52.5502 7.20952 51.5759 6.59051 50.3795C5.96732 49.1994 5.66945 47.8251 5.91012 46.5439Z" fill="#4C554C"/>
<path d="M7.85986 65.6804C8.567 66.4442 9.35993 67.0883 10.1897 67.6255C11.0286 68.1464 11.9409 68.5208 12.8884 68.6277C13.8281 68.7335 14.8095 68.6638 15.7387 68.3185C16.2211 68.201 16.653 67.9336 17.1298 67.7569C17.5853 67.5325 18.0132 67.2523 18.4909 67.0244C18.1326 67.3988 17.7443 67.7534 17.3469 68.1045C16.8996 68.3778 16.4863 68.7382 15.979 68.9265C15.0184 69.4288 13.8726 69.5718 12.7793 69.4567C11.6789 69.3137 10.6425 68.8347 9.8114 68.1545C8.97532 67.479 8.30086 66.6279 7.85986 65.6804Z" fill="#4C554C"/>
<path d="M21.0333 79.2681C21.8173 78.3426 22.4831 77.4508 22.9504 76.4509C23.45 75.4627 23.673 74.3953 23.8723 73.1885C24.0853 73.7547 24.2266 74.3779 24.1698 75.0011C24.1512 75.6278 23.9709 76.2463 23.7039 76.8137C23.1552 77.9415 22.2038 78.8821 21.0333 79.2681Z" fill="#4C554C"/>
<path d="M34.5239 73.2549C33.9131 72.727 33.4661 72.1945 32.9729 71.7295C32.4807 71.2493 32.0273 70.8737 31.2816 70.5505C31.6481 70.3819 32.0978 70.3587 32.5015 70.4877C32.9089 70.6087 33.2563 70.854 33.5552 71.1284C34.1251 71.705 34.5044 72.4387 34.5239 73.2549Z" fill="#4C554C"/>
<path d="M69.184 70.4224C69.0692 70.6549 68.9624 70.8933 68.8662 71.1386C67.4973 74.6138 67.8361 78.5285 66.3365 81.9804C64.4044 86.4288 60.5508 90.7783 55.3333 90.7783C50.7427 90.7783 47.2369 87.6368 45.1595 83.7779C44.1031 81.8153 43.376 79.6725 42.9228 77.4937C42.4437 75.1881 42.8379 72.4547 41.8991 70.1782C40.731 67.3437 37.5809 65.9078 36.1076 63.2208C34.226 59.7898 33.0511 56.1948 33.0511 52.2441C33.0511 51.5163 33.0847 50.7966 33.16 50.0862C33.3022 48.7061 33.5698 47.3586 33.9626 46.0715C34.281 45.0263 34.6743 44.0217 35.142 43.0521C36.1462 40.9604 37.4842 39.0455 39.082 37.3806C39.2237 37.2388 39.3662 37.0958 39.5084 36.9632C41.7919 34.7123 44.5524 32.9648 47.6552 31.8522C50.0468 30.9988 52.632 30.5313 55.3333 30.5313C58.0265 30.5313 60.6117 30.9988 63.0119 31.8522C66.0984 32.9648 68.8752 34.7123 71.1506 36.9539C71.2923 37.0876 71.4349 37.2388 71.5767 37.3806C73.1823 39.0455 74.5206 40.9686 75.5332 43.0684C76.0018 44.0473 76.3948 45.067 76.7122 46.1297C77.1052 47.426 77.3726 48.7724 77.5074 50.1536C77.583 50.8396 77.6156 51.5418 77.6156 52.2441C77.6156 56.0495 76.5796 59.8154 74.6368 63.0883C73.0777 65.7171 70.5397 67.6738 69.184 70.4224Z" fill="#F4BC8A"/>
<path d="M66.7906 68.6147C66.6884 68.8228 66.593 69.0356 66.5067 69.2542C65.2841 72.3573 65.5871 75.8534 64.2477 78.9368C62.5223 82.9073 59.0812 86.793 54.4222 86.793C50.3226 86.793 47.192 83.9875 45.3367 80.5413C44.3933 78.788 43.744 76.8743 43.3397 74.9291C42.9114 72.87 43.263 70.4285 42.425 68.3961C41.3813 65.865 38.5692 64.5826 37.2529 62.1828C35.5735 59.1192 34.5239 55.9091 34.5239 52.3815C34.5239 51.7316 34.5539 51.0887 34.6207 50.4539C34.7479 49.2215 34.9867 48.0193 35.3383 46.8694C35.6216 45.9358 35.9732 45.0382 36.3914 44.172C37.287 42.3047 38.4829 40.5945 39.9094 39.1086C40.0361 38.9807 40.1633 38.854 40.2904 38.7354C42.3292 36.7251 44.794 35.1648 47.5648 34.1707C49.7012 33.4092 52.0097 32.9906 54.4222 32.9906C56.8271 32.9906 59.1356 33.4092 61.2793 34.1707C64.0356 35.1648 66.5154 36.7251 68.5464 38.7272C68.6735 38.847 68.8007 38.9807 68.9274 39.1086C70.3621 40.5945 71.5569 42.3129 72.4603 44.1871C72.8788 45.0614 73.23 45.9729 73.5137 46.9217C73.8648 48.0785 74.1031 49.2807 74.2229 50.5132C74.2903 51.1259 74.3206 51.7537 74.3206 52.3815C74.3206 55.7789 73.3951 59.1425 71.6604 62.0654C70.2673 64.4117 68.0013 66.1603 66.7906 68.6147Z" fill="#F7D0AC"/>
<path d="M59.5835 80.2291C59.1625 81.0674 57.76 80.6942 57.3394 81.9568C56.918 83.2206 55.3288 83.1253 55.3288 83.1253C55.3288 83.1253 53.7406 83.2206 53.3196 81.9568C52.8982 80.6942 51.4956 81.0674 51.0751 80.2291C50.6577 79.3874 51.0751 79.3874 51.0751 79.3874L55.3288 79.6222L59.5835 79.3874C59.5835 79.3874 60.004 79.3874 59.5835 80.2291Z" fill="#3B3E3A"/>
<path d="M63.6363 86.5176C62.2385 86.9885 60.7738 87.3071 59.2751 87.3303C58.5284 87.3385 57.764 87.2792 57.0328 87.028C56.3034 86.7885 55.6077 86.3583 55.1035 85.7259L55.0512 85.5886L55.0495 85.5677L55.0459 85.4968L55.5604 85.6561C55.0554 86.2886 54.36 86.7199 53.6302 86.9594C52.8986 87.2094 52.1333 87.2687 51.3871 87.2606C49.8878 87.2373 48.4232 86.9176 47.0257 86.4455C48.4481 86.8269 49.926 87.0478 51.3812 86.9757C52.1051 86.9385 52.8318 86.8315 53.4844 86.5583C54.1384 86.2944 54.7097 85.877 55.0994 85.3224C55.1866 85.1934 55.3614 85.1596 55.49 85.2468L55.6144 85.4817L55.614 85.5515L55.5604 85.3945C55.951 85.9491 56.5228 86.3677 57.1768 86.6304C57.8299 86.9036 58.557 87.0106 59.2809 87.0478C60.7365 87.1199 62.2135 86.8978 63.6363 86.5176Z" fill="#3B3E3A"/>
<path d="M55.3319 85.5586C55.0967 85.1528 55.0812 84.7471 55.0481 84.3413C55.0808 83.9355 55.0948 83.5297 55.3319 83.124C55.5686 83.5297 55.5832 83.9355 55.6163 84.3413C55.5822 84.7471 55.5668 85.1528 55.3319 85.5586Z" fill="#3B3E3A"/>
<path d="M62.5206 60.6272C62.5206 60.6272 66.2324 54.993 72.0173 59.7355C72.0173 59.7355 67.5686 64.0432 62.5206 60.6272Z" fill="white"/>
<path d="M65.6266 59.31C65.4935 60.1239 66.0444 60.8912 66.8578 61.0249C67.6717 61.1586 68.4393 60.6075 68.5723 59.7948C68.7063 58.9798 68.1545 58.2124 67.3411 58.0787C66.5276 57.9462 65.7601 58.4961 65.6266 59.31Z" fill="#3B3E3A"/>
<path d="M67.5118 59.4355C67.47 59.6948 67.7048 59.9483 68.0378 60.0018C68.3702 60.0564 68.674 59.8913 68.7168 59.6332C68.7594 59.3751 68.5236 59.1216 68.1908 59.067C67.8588 59.0123 67.5544 59.1774 67.5118 59.4355Z" fill="white"/>
<path d="M72.7696 59.9154C71.8523 59.391 70.8818 58.9713 69.8903 58.662C68.8962 58.3527 67.8579 58.2295 66.8847 58.3027C65.8809 58.4202 64.934 58.8655 64.0752 59.4387C63.23 60.0351 62.457 60.7606 61.8043 61.5873L61.7644 61.5942L61.7562 61.557C62.3034 60.642 63.022 59.8305 63.8608 59.1503C64.7014 58.4748 65.7079 57.9632 66.8075 57.7819C67.9383 57.5168 69.0278 57.9342 70.0184 58.2969C71.0193 58.6934 71.9465 59.2398 72.801 59.8677L72.808 59.9072L72.7696 59.9154Z" fill="#3B3E3A"/>
<path d="M48.1462 60.6272C48.1462 60.6272 44.4348 54.993 38.6505 59.7355C38.6505 59.7355 43.0982 64.0432 48.1462 60.6272Z" fill="white"/>
<path d="M45.0407 59.31C45.1737 60.1239 44.6228 60.8912 43.8089 61.0249C42.9955 61.1586 42.2276 60.6075 42.094 59.7948C41.9605 58.9798 42.5119 58.2124 43.3258 58.0787C44.1396 57.9462 44.9071 58.4961 45.0407 59.31Z" fill="#3B3E3A"/>
<path d="M43.1544 59.4355C43.1971 59.6948 42.9624 59.9483 42.6295 60.0018C42.2965 60.0564 41.9932 59.8913 41.9505 59.6332C41.9078 59.3751 42.1435 59.1216 42.4754 59.067C42.8084 59.0123 43.1127 59.1774 43.1544 59.4355Z" fill="white"/>
<path d="M48.8629 61.5876C48.2335 60.7702 47.4659 60.068 46.6407 59.482C45.8095 58.8937 44.8594 58.5286 43.9016 58.3461C42.9529 58.1007 41.9396 58.3414 40.9773 58.6402C40.0117 58.9611 39.083 59.4157 38.1764 59.9157L38.1378 59.904L38.145 59.868C38.973 59.2401 39.8709 58.6925 40.8451 58.2844C41.8088 57.874 42.8988 57.6182 43.9997 57.7822C45.0943 57.9321 46.0366 58.5472 46.8609 59.189C47.6798 59.861 48.3643 60.6702 48.9106 61.5573L48.9015 61.5957L48.8629 61.5876Z" fill="#3B3E3A"/>
<path d="M75.1287 43.0668C75.1287 43.0668 79.1526 39.4451 85.5671 39.5648C91.9827 39.6857 92.8291 39.5625 92.8291 39.5625C92.8291 39.5625 89.9178 53.7842 77.2122 52.2425L75.1287 43.0668Z" fill="#F4BC8A"/>
<path d="M75.7856 45.96C75.7856 45.96 77.7923 43.6801 83.98 42.8325C90.1666 41.9849 91.4978 40.7745 91.4978 40.7745C91.4978 40.7745 89.1841 47.6133 84.7195 49.6713C80.256 51.7292 77.4528 51.2653 77.4528 51.2653L75.7856 45.96Z" fill="#CB8E63"/>
<path d="M35.5376 43.0668C35.5376 43.0668 31.5152 39.4451 25.0996 39.5648C18.6844 39.6857 17.837 39.5625 17.837 39.5625C17.837 39.5625 20.75 53.7842 33.4553 52.2425L35.5376 43.0668Z" fill="#F4BC8A"/>
<path d="M34.8808 45.96C34.8808 45.96 32.8748 43.6801 26.6877 42.8325C20.5002 41.9849 19.1689 40.7745 19.1689 40.7745C19.1689 40.7745 21.483 47.6133 25.9465 49.6713C30.411 51.7292 33.2131 51.2653 33.2131 51.2653L34.8808 45.96Z" fill="#CB8E63"/>
<path d="M51.3707 80.2412C50.5587 79.6436 49.9206 78.8356 49.485 77.9264C49.0244 77.0451 48.6884 76.0242 48.87 75.0278L48.9033 75.0325C48.8228 76.0254 49.2221 76.966 49.7184 77.795C50.2507 78.6158 50.843 79.3832 51.3948 80.218L51.3707 80.2412Z" fill="#3B3E3A"/>
<path d="M59.2319 80.218C59.8024 79.3983 60.3737 78.6239 60.8982 77.8008C61.3811 76.9578 61.7303 76.0219 61.7635 75.0302H61.7971C61.8621 76.0289 61.58 77.0288 61.134 77.9264C60.7093 78.8379 60.0831 79.6634 59.2551 80.2412L59.2319 80.218Z" fill="#3B3E3A"/>
<path d="M42.2729 38.8553C38.4194 42.1643 37.0269 46.8638 39.1619 49.3496C41.2975 51.8365 46.1524 51.1703 50.0065 47.8602C53.8596 44.5512 55.2526 39.8529 53.1171 37.3659C50.9817 34.879 46.1266 35.5464 42.2729 38.8553Z" fill="#FAE0C8"/>
<path d="M101.55 60.1074L101.48 59.9865V59.9784C101.766 57.6786 101.813 55.3812 101.676 53.1058C102.297 52.6396 102.876 52.1001 103.361 51.4851C103.349 51.9408 103.326 52.3966 103.29 52.8512C103.12 55.3114 102.675 57.7844 101.704 60.047L101.55 60.1074ZM101.604 52.1153C101.427 50.0051 101.096 47.9169 100.655 45.8671C100.162 43.5813 99.5505 41.3269 98.6785 39.1783C98.5238 38.7226 98.339 38.283 98.1401 37.8494C98.4773 36.6379 98.5633 35.3659 98.4238 34.137C98.4227 34.1218 98.4215 34.1079 98.4192 34.094C98.6192 34.3835 98.8191 34.6741 99.0238 34.9613C99.6365 36.0507 100.313 37.1227 100.798 38.2784C101.344 39.4131 101.722 40.6061 102.134 41.7873C102.447 42.9953 102.768 44.2045 102.941 45.4381C103.185 47.0402 103.341 48.6552 103.366 50.2689C102.873 50.9665 102.271 51.5793 101.604 52.1153ZM97.5786 36.6867C97.4681 36.4623 97.3577 36.2368 97.2495 36.0101C96.6287 35.0404 96.0752 34.0102 95.3195 33.1359C94.6498 32.1849 93.7813 31.4233 92.9756 30.592C92.0536 29.9037 91.1979 29.1189 90.1584 28.5597C88.6412 27.6063 87.0053 26.8343 85.2939 26.289C85.0009 25.7634 84.666 25.2635 84.2998 24.7927C84.7881 24.895 85.2811 24.9822 85.7566 25.1298L87.5355 25.6867C88.6795 26.1646 89.8434 26.6157 90.9142 27.2517C92.0361 27.79 93.0244 28.5911 94.0627 29.3038C94.9835 30.156 95.9729 30.9559 96.7519 31.9488C97.1065 32.3197 97.4263 32.7151 97.7297 33.1231C97.7623 33.4743 97.7797 33.8265 97.7855 34.1777C97.796 35.0229 97.7355 35.8682 97.5786 36.6867ZM69.7241 26.9587L69.5715 26.8982L69.6265 26.7494C72.7673 25.1658 76.296 24.352 79.8514 24.352C81.0118 24.352 82.1756 24.438 83.3301 24.6136C83.3452 24.6345 83.3603 24.6555 83.3743 24.6764C83.6812 25.0984 83.9696 25.5344 84.2335 25.9821C84.0568 25.9367 83.88 25.8937 83.7022 25.853C81.9779 25.4239 80.1874 25.2089 78.3888 25.2089C75.4414 25.2089 72.472 25.7879 69.7349 26.954L69.7241 26.9587Z" fill="#535952"/>
<path d="M85.2938 26.2886C84.9439 26.177 84.5892 26.0747 84.2335 25.9817C83.9695 25.534 83.6812 25.098 83.3743 24.676C83.3603 24.6551 83.3452 24.6341 83.3301 24.6132C83.5359 24.6434 83.7405 24.6783 83.9451 24.7143C84.0625 24.7422 84.1811 24.7679 84.2997 24.7923C84.666 25.2631 85.0008 25.763 85.2938 26.2886Z" fill="#626D62"/>
<path d="M98.1401 37.8491C97.9599 37.4585 97.7692 37.0725 97.5786 36.6865C97.7355 35.8679 97.796 35.0227 97.7855 34.1774C97.7797 33.8263 97.7623 33.474 97.7297 33.1229C97.9669 33.4403 98.1936 33.767 98.4192 34.0937C98.4215 34.1077 98.4226 34.1216 98.4238 34.1367C98.5633 35.3656 98.4773 36.6376 98.1401 37.8491Z" fill="#626D62"/>
<path d="M101.676 53.106C101.656 52.7758 101.632 52.4445 101.604 52.1154C102.271 51.5794 102.873 50.9667 103.366 50.2691C103.373 50.6748 103.371 51.0794 103.36 51.4852C102.876 52.1003 102.297 52.6397 101.676 53.106Z" fill="#626D62"/>
<path d="M9.11973 58.4971L8.99847 58.4273C8.0824 56.295 7.63408 53.9732 7.4434 51.6536C7.88986 52.1885 8.4076 52.664 8.96033 53.0826C8.92301 54.8335 9.0016 56.5961 9.22053 58.3599L9.22146 58.368L9.11973 58.4971ZM8.99521 52.0606C8.38028 51.5583 7.82301 50.9897 7.35841 50.3491C7.26307 48.1714 7.43061 45.9833 7.76081 43.8184C7.93428 42.5848 8.25448 41.3769 8.56839 40.1689C8.97986 38.9864 9.35726 37.7935 9.90407 36.6599C10.3882 35.5031 11.0649 34.4322 11.6781 33.3417C12.0181 32.8638 12.3438 32.3766 12.6826 31.9011C12.4719 32.6278 12.3279 33.3788 12.2425 34.1369C12.1431 35.0217 12.1594 35.9309 12.3025 36.8215C12.2021 37.0645 12.1081 37.3087 12.0231 37.5587C11.1511 39.7073 10.5399 41.9628 10.0466 44.2474C9.49713 46.803 9.1188 49.4167 8.99521 52.0606ZM12.9242 35.4705C12.8893 35.0415 12.8765 34.6101 12.882 34.1776C12.8943 33.423 12.9628 32.6627 13.1019 31.9116C13.135 31.664 13.1767 31.4163 13.2263 31.1698C13.4538 30.8791 13.6923 30.5978 13.9493 30.3292C14.7282 29.3374 15.7179 28.5363 16.6394 27.6841C17.6771 26.9726 18.6653 26.1703 19.7872 25.632C20.8577 24.996 22.0225 24.5449 23.1666 24.0671L24.9442 23.5114C25.5364 23.3276 26.1545 23.2369 26.7563 23.0962C27.2168 23.0137 27.6792 22.9451 28.1429 22.8904C27.6674 23.3241 27.2164 23.7892 26.7913 24.2763C26.7895 24.2787 26.7877 24.281 26.7854 24.2833C24.5722 24.8193 22.4631 25.7344 20.5434 26.9412C19.5042 27.4993 18.6486 28.2841 17.7257 28.9735C16.9201 29.8049 16.0517 30.5652 15.3817 31.5163C14.626 32.3917 14.0723 33.4207 13.4524 34.3915C13.2794 34.7531 13.1005 35.1112 12.9242 35.4705ZM40.978 25.3402L40.9668 25.3356C38.23 24.1683 35.2606 23.5892 32.3121 23.5892C30.7748 23.5892 29.2438 23.7473 27.7536 24.0601C28.0993 23.6287 28.4744 23.2172 28.8605 22.8172C29.5236 22.7614 30.1876 22.7323 30.8511 22.7323C34.4063 22.7323 37.9343 23.5462 41.0757 25.1298L41.1266 25.2855L40.978 25.3402Z" fill="#535952"/>
<path d="M26.7854 24.2837C26.7877 24.2814 26.7895 24.279 26.7913 24.2767C27.2164 23.7896 27.6674 23.3245 28.1429 22.8908C28.3819 22.8629 28.6211 22.8385 28.8605 22.8176C28.4744 23.2175 28.0993 23.6291 27.7537 24.0605C27.5007 24.114 27.2495 24.1709 26.9993 24.2337C26.9281 24.25 26.8567 24.2663 26.7854 24.2837Z" fill="#626D62"/>
<path d="M12.3025 36.8213C12.1594 35.9307 12.1431 35.0214 12.2425 34.1367C12.3279 33.3786 12.4719 32.6275 12.6826 31.9009C12.8589 31.6532 13.0387 31.4079 13.2263 31.1695C13.1767 31.416 13.135 31.6637 13.1019 31.9114C12.9628 32.6624 12.8943 33.4228 12.882 34.1774C12.8765 34.6099 12.8893 35.0412 12.9242 35.4703C12.7062 35.9156 12.4927 36.3632 12.3025 36.8213Z" fill="#626D62"/>
<path d="M8.96032 53.0825C8.40759 52.664 7.88985 52.1884 7.44339 51.6536C7.43199 51.5129 7.42107 51.3722 7.41153 51.2316C7.38886 50.9374 7.37119 50.6432 7.3584 50.3491C7.823 50.9897 8.38027 51.5583 8.9952 52.0605C8.97939 52.4 8.96753 52.7407 8.96032 53.0825Z" fill="#626D62"/>
</svg>
