<svg width="112" height="112" viewBox="0 0 112 112" fill="none" xmlns="http://www.w3.org/2000/svg">
<path d="M111.265 55.8635C111.265 86.4232 86.4916 111.196 55.9319 111.196C25.3711 111.196 0.598022 86.4232 0.598022 55.8635C0.598022 25.3027 25.3711 0.529625 55.9319 0.529625C86.4916 0.529625 111.265 25.3027 111.265 55.8635Z" fill="#FFE4CF"/>
<path d="M38.7524 62.9116C38.7524 62.9116 26.9675 53.2696 26.2885 51.686C25.6095 50.1036 30.4835 51.243 35.0144 52.9336C39.5465 54.6229 41.6463 60.9199 41.6463 60.9199L38.7524 62.9116Z" fill="#CF4D2A"/>
<path d="M26.2883 51.685C26.2883 51.685 20.7517 46.1134 21.0749 43.1998C21.3993 40.2861 24.4583 40.7744 25.7605 42.2394C27.0638 43.7044 30.3147 51.4582 29.2113 51.857C28.1079 52.2558 26.2883 51.685 26.2883 51.685Z" fill="#CF4D2A"/>
<path d="M21.5482 41.8657C21.5482 41.8657 17.344 33.1027 18.2671 33.1562C19.1903 33.2097 23.9909 37.3046 24.7002 41.4588L21.5482 41.8657Z" fill="#CF4D2A"/>
<path d="M20.9531 41.7187C20.9531 41.7187 14.4735 37.2134 16.221 27.5097C17.9685 17.806 27.1932 13.8041 27.1932 13.8041L26.0653 27.7469L30.3254 21.201C30.3254 21.201 33.1565 27.9945 31.0137 33.4602C28.8709 38.9271 23.6145 43.2046 23.6145 43.2046L20.9531 41.7187Z" fill="#CF4D2A"/>
<path d="M73.1116 62.9116C73.1116 62.9116 84.8953 53.2696 85.5743 51.686C86.2533 50.1036 81.3805 51.243 76.8496 52.9336C72.3163 54.6229 70.2166 60.9199 70.2166 60.9199L73.1116 62.9116Z" fill="#CF4D2A"/>
<path d="M85.5743 51.685C85.5743 51.685 91.1109 46.1134 90.7877 43.1998C90.4645 40.2861 87.4055 40.7744 86.1022 42.2394C84.7988 43.7044 81.548 51.4582 82.6513 51.857C83.7547 52.2558 85.5743 51.685 85.5743 51.685Z" fill="#CF4D2A"/>
<path d="M90.3146 41.8657C90.3146 41.8657 94.5199 33.1027 93.5968 33.1562C92.6736 33.2097 87.8718 37.3046 87.1637 41.4588L90.3146 41.8657Z" fill="#CF4D2A"/>
<path d="M90.9109 41.7187C90.9109 41.7187 97.3893 37.2134 95.6418 27.5097C93.8943 17.806 84.6709 13.8041 84.6709 13.8041L85.7987 27.7469L81.5375 21.201C81.5375 21.201 78.7064 27.9945 80.8492 33.4602C82.9931 38.9271 88.2496 43.2046 88.2496 43.2046L90.9109 41.7187Z" fill="#CF4D2A"/>
<path d="M41.9833 84.2662C41.9833 84.2662 34.0679 90.0051 33.5737 90.9946C33.0784 91.984 36.2455 91.4364 39.2138 90.5226C42.1821 89.6087 43.7657 85.6509 43.7657 85.6509L41.9833 84.2662Z" fill="#CF4D2A"/>
<path d="M33.5739 90.9946C33.5739 90.9946 29.815 94.3594 29.9138 96.2395C30.0114 98.1195 31.9903 97.9207 32.8809 97.0312C33.7715 96.1406 36.1457 91.2911 35.4528 90.9946C34.761 90.6981 33.5739 90.9946 33.5739 90.9946Z" fill="#CF4D2A"/>
<path d="M30.1659 97.1125C30.1659 97.1125 27.1418 102.571 27.7359 102.571C28.3289 102.571 31.5611 100.127 32.1715 97.4904L30.1659 97.1125Z" fill="#CF4D2A"/>
<path d="M41.2545 80.0734C41.2545 80.0734 31.9159 82.9743 31.1311 83.7533C30.3463 84.5334 33.5204 85.0287 36.6247 85.1136C39.7302 85.1985 42.4974 81.9558 42.4974 81.9558L41.2545 80.0734Z" fill="#CF4D2A"/>
<path d="M31.131 83.7542C31.131 83.7542 26.4919 85.7377 25.9839 87.5503C25.4746 89.3629 27.4128 89.8093 28.5417 89.2512C29.6707 88.692 33.4726 84.8598 32.9122 84.3564C32.3507 83.8541 31.131 83.7542 31.131 83.7542Z" fill="#CF4D2A"/>
<path d="M25.9444 88.4577C25.9444 88.4577 21.3297 92.6608 21.8924 92.8515C22.4552 93.0421 26.2989 91.7609 27.7221 89.4588L25.9444 88.4577Z" fill="#CF4D2A"/>
<path d="M38.6511 75.1433C38.6511 75.1433 30.0601 77.8128 29.3369 78.5302C28.6126 79.2464 31.5355 79.7022 34.3922 79.7812C37.2489 79.8591 39.7963 76.8757 39.7963 76.8757L38.6511 75.1433Z" fill="#CF4D2A"/>
<path d="M29.3369 78.5302C29.3369 78.5302 25.0687 80.3556 24.599 82.0228C24.1316 83.6913 25.9152 84.1017 26.9534 83.5878C27.9917 83.0739 31.4913 79.5475 30.9751 79.0836C30.4589 78.6209 29.3369 78.5302 29.3369 78.5302Z" fill="#CF4D2A"/>
<path d="M24.5631 82.8584C24.5631 82.8584 20.3182 86.7254 20.8356 86.901C21.3518 87.0754 24.8899 85.8976 26.199 83.7792L24.5631 82.8584Z" fill="#CF4D2A"/>
<path d="M37.7478 72.4539C37.7478 72.4539 28.7615 71.9912 27.836 72.4144C26.9105 72.8365 29.494 74.2747 32.1483 75.335C34.8027 76.3954 38.2233 74.4747 38.2233 74.4747L37.7478 72.4539Z" fill="#CF4D2A"/>
<path d="M27.836 72.4141C27.836 72.4141 23.2004 72.6524 22.1842 74.0557C21.1692 75.4591 22.7016 76.4602 23.8539 76.3369C25.0061 76.2125 29.5079 74.1127 29.1835 73.5C28.858 72.8872 27.836 72.4141 27.836 72.4141Z" fill="#CF4D2A"/>
<path d="M21.8621 74.827C21.8621 74.827 16.5417 76.9895 16.9661 77.3325C17.3917 77.6755 21.118 77.7917 23.0794 76.257L21.8621 74.827Z" fill="#CF4D2A"/>
<path d="M69.8794 83.7808C69.8794 83.7808 77.7949 89.5197 78.2902 90.5092C78.7843 91.4986 75.6184 90.951 72.6489 90.0383C69.6818 89.1233 68.097 85.1667 68.097 85.1667L69.8794 83.7808Z" fill="#CF4D2A"/>
<path d="M78.2901 90.5088C78.2901 90.5088 82.0479 93.8736 81.9502 95.7536C81.8525 97.6337 79.8725 97.436 78.9831 96.5454C78.0925 95.6548 75.7171 90.8053 76.4101 90.5088C77.103 90.2123 78.2901 90.5088 78.2901 90.5088Z" fill="#CF4D2A"/>
<path d="M81.698 96.627C81.698 96.627 84.7209 102.087 84.1291 102.087C83.535 102.087 80.3028 99.6418 79.6924 97.0049L81.698 96.627Z" fill="#CF4D2A"/>
<path d="M70.6096 79.5871C70.6096 79.5871 79.947 82.4879 80.7329 83.2681C81.5177 84.0459 78.3425 84.5423 75.2382 84.6272C72.1338 84.7133 69.3655 81.4694 69.3655 81.4694L70.6096 79.5871Z" fill="#CF4D2A"/>
<path d="M80.733 83.269C80.733 83.269 85.3709 85.2513 85.8802 87.0639C86.3894 88.8765 84.4513 89.323 83.3211 88.7649C82.1922 88.2057 78.3903 84.3735 78.9507 83.8701C79.5134 83.3678 80.733 83.269 80.733 83.269Z" fill="#CF4D2A"/>
<path d="M85.9197 87.9726C85.9197 87.9726 90.5331 92.1745 89.9715 92.3651C89.4088 92.5558 85.565 91.2746 84.1407 88.9725L85.9197 87.9726Z" fill="#CF4D2A"/>
<path d="M73.2116 74.657C73.2116 74.657 81.8037 77.3265 82.5269 78.0439C83.2501 78.7601 80.3283 79.2158 77.4716 79.2949C74.6149 79.3728 72.0675 76.3894 72.0675 76.3894L73.2116 74.657Z" fill="#CF4D2A"/>
<path d="M82.527 78.0438C82.527 78.0438 86.7952 79.8692 87.2637 81.5365C87.7323 83.205 85.9487 83.6154 84.9093 83.1015C83.871 82.5876 80.3713 79.0612 80.8876 78.5973C81.405 78.1345 82.527 78.0438 82.527 78.0438Z" fill="#CF4D2A"/>
<path d="M87.2997 82.373C87.2997 82.373 91.5458 86.2412 91.0284 86.4156C90.511 86.59 86.973 85.4122 85.6638 83.2938L87.2997 82.373Z" fill="#CF4D2A"/>
<path d="M74.115 71.9675C74.115 71.9675 83.1013 71.5047 84.028 71.9279C84.9523 72.3511 82.3688 73.7882 79.7156 74.8486C77.06 75.9089 73.6406 73.9893 73.6406 73.9893L74.115 71.9675Z" fill="#CF4D2A"/>
<path d="M84.0279 71.9282C84.0279 71.9282 88.6635 72.1666 89.6785 73.5699C90.6947 74.9733 89.1635 75.9743 88.0101 75.8511C86.8579 75.7278 82.356 73.6269 82.6804 73.0142C83.0048 72.4014 84.0279 71.9282 84.0279 71.9282Z" fill="#CF4D2A"/>
<path d="M90.0018 74.3406C90.0018 74.3406 95.321 76.5032 94.8967 76.8462C94.4723 77.1891 90.7448 77.3054 88.7833 75.7707L90.0018 74.3406Z" fill="#CF4D2A"/>
<path d="M80.5621 67.6479C79.1401 71.6219 76.8136 74.9018 74.4906 78.3584C72.3175 81.5907 70.763 85.424 67.4901 87.7552C62.6673 91.1897 55.2379 90.8897 49.7245 89.7247C42.3276 88.1621 39.7743 81.4325 36.1061 75.6052C34.3749 72.8555 31.9263 70 30.9764 66.8596C29.4707 61.8787 34.2842 57.3966 36.9897 53.6935L37.2769 53.3017C38.6279 52.9494 39.979 52.6459 41.3463 52.3669L41.33 52.2308C41.33 51.4949 41.9299 50.9031 42.6647 50.9031C43.2809 50.9031 43.7925 51.3193 43.9437 51.8867C51.8661 50.5752 59.942 50.5752 67.8633 51.8867C68.0156 51.3193 68.5284 50.9031 69.1434 50.9031C69.8794 50.9031 70.4782 51.4949 70.4782 52.2308L70.4631 52.3669C71.8292 52.6378 73.1802 52.9494 74.5313 53.3017L74.8196 53.6935C77.2356 57.0025 81.5178 60.5765 81.1504 65.0644C81.0794 65.9213 80.8713 66.7852 80.5621 67.6479Z" fill="#CF4D2A"/>
<path d="M77.1496 67.0939C75.8568 70.7075 73.7407 73.6886 71.6304 76.8313C69.6527 79.7717 68.2389 83.2562 65.2636 85.3758C60.878 88.4987 54.1229 88.2255 49.1095 87.1663C42.3857 85.7455 40.0639 79.6264 36.7282 74.3281C35.1539 71.8283 32.9285 69.232 32.0647 66.3765C30.695 61.8479 35.0725 57.7727 37.5316 54.4056L37.7932 54.0499C39.0221 53.7301 40.2499 53.4534 41.494 53.1988L41.4788 53.0755C41.4788 52.407 42.0241 51.8687 42.6927 51.8687C43.2519 51.8687 43.7181 52.2465 43.8553 52.7628C51.0581 51.571 58.4004 51.571 65.6043 52.7628C65.7415 52.2465 66.2066 51.8687 66.767 51.8687C67.4355 51.8687 67.9808 52.407 67.9808 53.0755L67.9657 53.1988C69.2086 53.4464 70.4375 53.7301 71.6665 54.0499L71.9269 54.4056C74.1244 57.4146 78.0182 60.6655 77.6845 64.7442C77.6205 65.5243 77.431 66.3091 77.1496 67.0939Z" fill="#EF6800"/>
<path d="M45.5016 55.4327C47.7781 57.1035 47.5083 61.3391 44.9005 64.8922C42.2914 68.4454 38.3325 69.9719 36.056 68.3012C33.7795 66.6304 34.0481 62.3948 36.656 58.8417C39.2662 55.2886 43.2251 53.762 45.5016 55.4327Z" fill="#EA6D3E"/>
<path d="M63.0069 82.952C63.0069 83.4182 61.878 83.7949 60.484 83.7949C59.0899 83.7949 57.9609 83.4182 57.9609 82.952C57.9609 82.4869 59.0899 82.109 60.484 82.109C61.878 82.109 63.0069 82.4869 63.0069 82.952Z" fill="#CF4D2A"/>
<path d="M43.7761 79.2313C43.7761 79.6975 42.6472 80.0742 41.2543 80.0742C39.8603 80.0742 38.7313 79.6975 38.7313 79.2313C38.7313 78.7662 39.8603 78.3883 41.2543 78.3883C42.6472 78.3883 43.7761 78.7662 43.7761 79.2313Z" fill="#CF4D2A"/>
<path d="M59.4444 78.5306C59.4444 78.805 58.7805 79.0259 57.9608 79.0259C57.1411 79.0259 56.4761 78.805 56.4761 78.5306C56.4761 78.2562 57.1411 78.0341 57.9608 78.0341C58.7805 78.0341 59.4444 78.2562 59.4444 78.5306Z" fill="#CF4D2A"/>
<path d="M73.5522 58.0221C73.5522 58.2965 72.8883 58.5186 72.0675 58.5186C71.2478 58.5186 70.5828 58.2965 70.5828 58.0221C70.5828 57.7489 71.2478 57.5268 72.0675 57.5268C72.8883 57.5268 73.5522 57.7489 73.5522 58.0221Z" fill="#CF4D2A"/>
<path d="M71.7001 74.3409C71.7001 74.6142 71.0362 74.8374 70.2165 74.8374C69.3969 74.8374 68.7318 74.6142 68.7318 74.3409C68.7318 74.0677 69.3969 73.8456 70.2165 73.8456C71.0362 73.8456 71.7001 74.0677 71.7001 74.3409Z" fill="#CF4D2A"/>
<path d="M24.5573 18.0448C23.283 19.1168 22.1273 20.3294 21.1286 21.6375C20.1229 22.9362 19.2648 24.3651 18.8521 25.8964C18.6544 26.6486 18.5858 27.445 18.5684 28.2659C18.5381 29.0763 18.5254 29.8878 18.5416 30.7005C18.544 32.3294 18.6602 33.9653 18.8311 35.6419L18.7823 35.7104L18.7207 35.6791C17.9312 34.1548 17.5464 32.4608 17.3813 30.7551C17.3138 29.9006 17.3173 29.0367 17.4208 28.181C17.5138 27.3369 17.6626 26.466 17.9626 25.6219C18.5463 23.95 19.5567 22.5304 20.6821 21.2654C21.832 20.0179 23.1086 18.9099 24.4887 17.9518L24.5701 17.9657L24.5573 18.0448Z" fill="#EF6800"/>
<path d="M87.1858 17.9517C88.5659 18.9098 89.8425 20.0178 90.9936 21.2654C92.1179 22.5303 93.1295 23.9499 93.712 25.6219C94.0119 26.466 94.1607 27.3368 94.2537 28.1809C94.3572 29.0367 94.3607 29.9005 94.2944 30.7551C94.1282 32.4607 93.7434 34.1547 92.9539 35.679L92.8748 35.7046L92.8446 35.6418C93.0144 33.9652 93.1306 32.3293 93.133 30.7004C93.1492 29.8877 93.1364 29.0762 93.1062 28.2658C93.0888 27.445 93.0201 26.6485 92.8225 25.8963C92.4097 24.3651 91.5517 22.9361 90.5471 21.6374C89.5472 20.3294 88.3915 19.1167 87.1173 18.0447L87.1068 17.9633L87.1858 17.9517Z" fill="#EF6800"/>
</svg>
