<svg width="112" height="111" viewBox="0 0 112 111" fill="none" xmlns="http://www.w3.org/2000/svg">
<path d="M111.267 55.5279C111.267 86.0871 86.4931 110.861 55.9338 110.861C25.3745 110.861 0.600586 86.0871 0.600586 55.5279C0.600586 24.9686 25.3745 0.194611 55.9338 0.194611C86.4931 0.194611 111.267 24.9686 111.267 55.5279Z" fill="#FFE4CF"/>
<path d="M60.7589 41.1376C60.7589 41.1376 59.4253 29.5075 71.1414 21.813C82.8587 14.1185 102.36 22.678 101.209 39.4529C101.209 39.4529 91.3821 29.5273 82.8598 30.6562C74.3376 31.7828 74.5666 52.2271 74.5666 52.2271L60.7589 41.1376Z" fill="#F4BC8A"/>
<path d="M62.004 33.005C63.3713 32.8086 64.7804 32.9341 66.1361 33.2446C67.4987 33.5469 68.8137 34.0782 70.0264 34.7839C71.2309 35.5013 72.361 36.3651 73.2725 37.4278C74.2305 38.4463 74.9479 39.6613 75.5071 40.9111C74.5828 39.8833 73.7225 38.8602 72.7063 37.9952C71.7285 37.0999 70.6484 36.3314 69.5102 35.6722C67.2406 34.327 64.6979 33.4794 62.004 33.005Z" fill="#CB8E63"/>
<path d="M71.1414 21.8126C72.4063 21.7917 73.6655 22.0533 74.87 22.4683C76.0769 22.8846 77.2209 23.5089 78.2452 24.3088C79.273 25.1041 80.1055 26.1598 80.6903 27.3132C81.3204 28.4572 81.5111 29.7768 81.5367 31.0186C81.0868 29.8373 80.7008 28.6886 79.9939 27.7119C79.3207 26.7365 78.5556 25.8238 77.6023 25.1099C75.7408 23.6264 73.5109 22.6195 71.1414 21.8126Z" fill="#CB8E63"/>
<path d="M90.5753 21.4466C91.209 22.1768 91.6705 23.0348 92.0298 23.9336C92.3891 24.8335 92.6181 25.7927 92.6972 26.7786C92.7495 27.7645 92.6425 28.776 92.2995 29.7155C91.9542 30.6572 91.3276 31.4699 90.5753 32.0605C91.0171 31.1967 91.3799 30.3758 91.5601 29.498C91.7194 28.6226 91.7729 27.7378 91.7124 26.8449C91.5833 25.0532 91.1101 23.2825 90.5753 21.4466Z" fill="#CB8E63"/>
<path d="M51.1088 41.1376C51.1088 41.1376 52.4435 29.5075 40.7262 21.813C29.0101 14.1185 9.5077 22.678 10.6587 39.4529C10.6587 39.4529 20.4878 29.5273 29.009 30.6562C37.5301 31.7828 37.3022 52.2271 37.3022 52.2271L51.1088 41.1376Z" fill="#F4BC8A"/>
<path d="M49.8635 33.005C47.1696 33.4794 44.6281 34.327 42.3586 35.6722C41.2203 36.3314 40.1402 37.0999 39.1624 37.9952C38.1462 38.8602 37.2859 39.8833 36.3616 40.9111C36.9196 39.6613 37.6382 38.4463 38.595 37.4278C39.5077 36.3651 40.6378 35.5013 41.8423 34.7839C43.055 34.0782 44.37 33.5469 45.7326 33.2446C47.0883 32.9341 48.4962 32.8086 49.8635 33.005Z" fill="#CB8E63"/>
<path d="M40.7261 21.8126C38.3566 22.6195 36.1278 23.6264 34.2664 25.1099C33.313 25.8238 32.548 26.7365 31.8737 27.7119C31.1679 28.6886 30.7819 29.8373 30.3308 31.0186C30.3576 29.7768 30.5482 28.4572 31.1784 27.3132C31.7632 26.1598 32.5957 25.1041 33.6235 24.3088C34.6466 23.5089 35.7918 22.8846 36.9987 22.4683C38.2032 22.0533 39.4623 21.7917 40.7261 21.8126Z" fill="#CB8E63"/>
<path d="M21.2936 21.4466C20.7587 23.2825 20.2855 25.0532 20.1553 26.8449C20.0949 27.7378 20.1484 28.6226 20.3088 29.498C20.489 30.3758 20.8518 31.1967 21.2936 32.0605C20.5413 31.4699 19.9147 30.6572 19.5682 29.7155C19.2264 28.7772 19.1194 27.7645 19.1706 26.7786C19.2508 25.7927 19.4798 24.8335 19.8379 23.9336C20.1972 23.0348 20.6588 22.1768 21.2936 21.4466Z" fill="#CB8E63"/>
<path d="M67.2418 84.2646L60.9135 88.2586C57.8836 90.1696 53.984 90.1696 50.9553 88.2586L44.6258 84.2646C44.6258 84.2646 44.0549 89.6197 45.8826 93.3788C47.7103 97.1388 49.5124 101.098 49.5124 101.098L50.2705 98.2284C50.2705 98.2284 50.9588 102.383 55.9338 106.045C60.91 102.383 61.5971 98.2284 61.5971 98.2284L62.3563 101.098C62.3563 101.098 64.1585 97.1388 65.9862 93.3788C67.8138 89.6197 67.2418 84.2646 67.2418 84.2646Z" fill="#CB8E63"/>
<path d="M66.0083 93.3325C66.0153 93.3183 66.0211 93.3043 66.0281 93.2916C66.0211 93.3057 66.0153 93.3183 66.0083 93.3325ZM66.0386 93.2685C66.6641 91.9373 66.9977 90.4176 67.1675 89.0107C67.1675 89.0093 67.1675 89.0093 67.1675 89.0084C66.9989 90.4149 66.6652 91.9345 66.0386 93.2685ZM45.8292 93.2671C45.2188 91.9686 44.8875 90.4917 44.7142 89.1151C44.7142 89.1151 44.7142 89.1151 44.7142 89.1165C44.8875 90.4931 45.22 91.9695 45.8292 93.2671Z" fill="#EA9F7B"/>
<path d="M55.9339 106.045C50.9589 102.383 50.2706 98.2284 50.2706 98.2284L49.5125 101.098C49.5125 101.098 47.7104 97.1388 45.8827 93.3788C45.8792 93.3719 45.8757 93.3661 45.8734 93.3588C45.8723 93.3566 45.8711 93.3543 45.8699 93.3533C45.8676 93.3474 45.8653 93.3429 45.8629 93.3371C45.8618 93.3357 45.8606 93.3347 45.8606 93.3333C45.8536 93.3183 45.8467 93.3043 45.8397 93.2902C45.8397 93.2902 45.8397 93.2902 45.8397 93.2893C45.8362 93.2821 45.8339 93.2766 45.8304 93.2694C45.8304 93.2685 45.8292 93.2685 45.8292 93.2671C45.22 91.9695 44.8875 90.4931 44.7142 89.1165C45.0188 89.8894 45.3665 90.6451 45.7606 91.3755C46.1176 92.0394 46.5175 92.6821 46.957 93.2916C48.3568 96.2342 49.5125 98.7725 49.5125 98.7725L50.1183 96.4784C50.2427 96.5666 50.3694 96.6514 50.4973 96.7355C50.9647 98.1316 52.3157 101.057 55.9339 103.721C59.6486 100.987 60.9729 97.9782 61.4065 96.6283C61.5147 96.5552 61.6228 96.4784 61.7298 96.4017L62.3564 98.7725C62.3564 98.7725 63.6272 95.9807 65.1166 92.8592C65.8398 91.8173 66.4501 90.7024 66.9373 89.5792C67.0198 89.3908 67.0954 89.2014 67.1675 89.0107C66.9977 90.4176 66.6641 91.9373 66.0386 93.2685C66.0351 93.2752 66.0328 93.2821 66.0293 93.2893C66.0293 93.2893 66.0281 93.2902 66.0281 93.2916C66.0211 93.3043 66.0153 93.3183 66.0083 93.3325C66.0072 93.3347 66.0072 93.3357 66.006 93.3379C66.0037 93.3429 66.0014 93.3483 65.9979 93.3533C65.9979 93.3557 65.9967 93.3566 65.9955 93.3588C65.9921 93.3647 65.9897 93.3719 65.9862 93.3788C64.1585 97.1388 62.3564 101.098 62.3564 101.098L61.5972 98.2284C61.5972 98.2284 60.9101 102.383 55.9339 106.045Z" fill="#D77849"/>
<path d="M69.7846 78.0195C69.6695 78.252 69.5637 78.4918 69.466 78.7358C68.0976 82.2124 68.4371 86.1268 66.9372 89.5789C65.0049 94.027 61.1518 98.3765 55.9338 98.3765C51.3437 98.3765 47.8382 95.2351 45.7606 91.3752C44.7037 89.4135 43.9771 87.2699 43.5236 85.0909C43.0446 82.7864 43.4387 80.0519 42.5005 77.7757C41.332 74.9421 38.1824 73.5051 36.7081 70.8192C34.8269 67.3883 33.6515 63.7934 33.6515 59.8415C33.6515 59.1137 33.6852 58.3952 33.7608 57.6848C33.9026 56.3035 34.17 54.9572 34.563 53.6701C34.8816 52.6237 35.2746 51.6203 35.7431 50.6495C36.7465 48.5591 38.0847 46.6441 39.6822 44.9792C39.8252 44.8362 39.967 44.6944 40.1089 44.5607C42.3923 42.3109 45.1525 40.5623 48.2556 39.4496C50.6484 38.5974 53.233 38.1277 55.9338 38.1277C58.6277 38.1277 61.2123 38.5974 63.6132 39.4496C66.6989 40.5623 69.4765 42.3109 71.7507 44.5525C71.8937 44.6862 72.0355 44.8362 72.1773 44.9792C73.783 46.6441 75.1224 48.5672 76.1339 50.667C76.6024 51.6448 76.9954 52.6656 77.3128 53.7271C77.7058 55.0246 77.9744 56.371 78.1081 57.751C78.1825 58.437 78.2162 59.1404 78.2162 59.8415C78.2162 63.6481 77.1803 67.4139 75.2375 70.6856C73.6783 73.3144 71.1402 75.2714 69.7846 78.0195Z" fill="#CB8E63"/>
<path d="M55.9304 94.9536C51.7634 94.9536 48.5824 92.1015 46.6965 88.5993C45.7374 86.8172 45.077 84.8735 44.6665 82.8942C44.2317 80.8028 44.5887 78.3216 43.7376 76.2543C42.6761 73.6837 39.8171 72.3794 38.48 69.94C36.7733 66.8264 35.7059 63.564 35.7059 59.9772C35.7059 59.3168 35.7362 58.6646 35.8048 58.0193C35.9338 56.7671 36.1768 55.544 36.5337 54.3755C36.8221 53.4268 37.179 52.5152 37.6046 51.6351C38.5149 49.7365 39.7299 47.9983 41.1797 46.4869C41.3088 46.359 41.4378 46.2288 41.5669 46.1078C43.6399 44.065 46.1454 42.4792 48.9614 41.47C51.1321 40.6945 53.4783 40.269 55.9304 40.269C58.3755 40.269 60.7205 40.6945 62.8994 41.47C65.7014 42.4792 68.222 44.065 70.2869 46.0997C70.4159 46.2206 70.545 46.359 70.6741 46.4869C72.132 47.9983 73.3458 49.7446 74.2643 51.6491C74.6899 52.5373 75.0468 53.464 75.3351 54.4278C75.6921 55.6056 75.9351 56.8264 76.056 58.0797C76.1246 58.7029 76.1548 59.3401 76.1548 59.9772C76.1548 63.4315 75.2142 66.8508 73.4516 69.8202C72.0355 72.2058 69.7323 73.9812 68.5022 76.4778C68.3976 76.688 68.3011 76.9042 68.2139 77.1263C66.971 80.2805 67.2791 83.8347 65.9176 86.9685C64.1643 91.0051 60.6659 94.9536 55.9304 94.9536ZM52.5203 42.285C50.3136 42.285 47.3209 43.5232 44.577 45.7625C40.4008 49.1714 38.3812 53.607 40.0659 55.6707C40.6426 56.3788 41.5809 56.7148 42.7319 56.7148C44.9398 56.7148 47.9325 55.4765 50.6763 53.2373C54.8526 49.8295 56.8721 45.3928 55.1874 43.3291C54.6096 42.6222 53.6713 42.285 52.5203 42.285Z" fill="#DCA174"/>
<path d="M60.1846 87.8288C59.7637 88.6658 58.3604 88.2939 57.9395 89.5564C57.5186 90.8189 55.9304 90.725 55.9304 90.725C55.9304 90.725 54.3411 90.8189 53.9202 89.5564C53.4993 88.2939 52.0971 88.6658 51.6762 87.8288C51.2588 86.9859 51.6762 86.9859 51.6762 86.9859L55.9304 87.2206L60.1846 86.9859C60.1846 86.9859 60.6055 86.9859 60.1846 87.8288Z" fill="#3B3E3A"/>
<path d="M64.2363 94.1156C62.84 94.5866 61.3739 94.9063 59.8752 94.9295C59.1288 94.9376 58.3649 94.8781 57.6336 94.6269C56.9034 94.3877 56.2082 93.9562 55.7047 93.3239L55.6524 93.1877L55.6513 93.1655L55.6466 93.0959L56.1617 93.2553C55.6559 93.8876 54.9606 94.3191 54.2305 94.5583C53.4992 94.8087 52.7341 94.8677 51.9877 94.8585C50.4891 94.8363 49.0241 94.5166 47.6266 94.0447C49.0485 94.4249 50.5263 94.6469 51.9819 94.5747C52.7051 94.5366 53.4329 94.4294 54.0852 94.1564C54.7386 93.8935 55.3106 93.4747 55.7001 92.9203C55.7873 92.7912 55.9628 92.7585 56.0919 92.8448L56.2151 93.0797L56.214 93.1505L56.1617 92.9937C56.5523 93.5483 57.1232 93.9667 57.7778 94.2283C58.43 94.5025 59.1578 94.6097 59.881 94.6469C61.3367 94.7179 62.8144 94.4971 64.2363 94.1156Z" fill="#3B3E3A"/>
<path d="M55.9326 93.1582C55.6978 92.7527 55.6815 92.3457 55.6489 91.9411C55.6815 91.535 55.6954 91.1281 55.9326 90.7235C56.1698 91.1281 56.1837 91.535 56.2163 91.9411C56.1837 92.3457 56.1675 92.7527 55.9326 93.1582Z" fill="#3B3E3A"/>
<path d="M63.1213 68.2279C63.1213 68.2279 66.8325 62.5925 72.6168 67.3361C72.6168 67.3361 68.1696 71.6437 63.1213 68.2279Z" fill="white"/>
<path d="M66.2268 66.9089C66.0943 67.7228 66.6454 68.4903 67.4581 68.6238C68.2719 68.7564 69.0405 68.2064 69.173 67.3914C69.3067 66.5787 68.7556 65.8114 67.9418 65.6777C67.1279 65.544 66.3605 66.0951 66.2268 66.9089Z" fill="#3B3E3A"/>
<path d="M68.1126 67.0347C68.0708 67.2928 68.3056 67.5462 68.6381 67.6008C68.9707 67.6558 69.2741 67.4904 69.3171 67.2323C69.3601 66.973 69.1241 66.7196 68.7916 66.6649C68.4591 66.6115 68.1556 66.7754 68.1126 67.0347Z" fill="white"/>
<path d="M73.3703 67.5134C72.4529 66.9903 71.4833 66.5706 70.4903 66.2613C69.4963 65.9521 68.4592 65.8288 67.4849 65.9009C66.4815 66.0183 65.5351 66.4648 64.6759 67.038C63.8306 67.6333 63.0575 68.3586 62.4052 69.1852L62.3657 69.1924L62.3575 69.1552C62.904 68.24 63.6225 67.4298 64.462 66.7496C65.3026 66.0741 66.3094 65.5626 67.4081 65.38C68.5394 65.1149 69.6288 65.5335 70.6194 65.8951C71.6193 66.2915 72.5471 66.838 73.4017 67.4658L73.4086 67.5065L73.3703 67.5134Z" fill="#3B3E3A"/>
<path d="M48.7476 68.2279C48.7476 68.2279 45.0352 62.5925 39.251 67.3361C39.251 67.3361 43.6993 71.6437 48.7476 68.2279Z" fill="white"/>
<path d="M45.6408 66.9089C45.7745 67.7228 45.2234 68.4903 44.4096 68.6238C43.5957 68.7564 42.8284 68.2064 42.6958 67.3914C42.5609 66.5787 43.1132 65.8114 43.9271 65.6777C44.7398 65.544 45.5083 66.0951 45.6408 66.9089Z" fill="#3B3E3A"/>
<path d="M43.7561 67.0347C43.7979 67.2928 43.5631 67.5462 43.2306 67.6008C42.8969 67.6558 42.5934 67.4904 42.5516 67.2323C42.5086 66.973 42.7446 66.7196 43.0771 66.6649C43.4085 66.6115 43.7131 66.7754 43.7561 67.0347Z" fill="white"/>
<path d="M49.4636 69.1852C48.8334 68.369 48.066 67.6669 47.2417 67.081C46.4104 66.4927 45.4594 66.1277 44.5025 65.944C43.5538 65.6986 42.5411 65.9381 41.5784 66.2393C40.6122 66.5602 39.6833 67.0136 38.7764 67.5134L38.738 67.5031L38.7462 67.4659C39.574 66.838 40.4716 66.2904 41.4459 65.8835C42.4085 65.4731 43.4991 65.2173 44.6002 65.3812C45.6954 65.5312 46.6383 66.1451 47.4615 66.7881C48.28 67.4589 48.9648 68.2682 49.5112 69.1552L49.5019 69.1934L49.4636 69.1852Z" fill="#3B3E3A"/>
<path d="M75.7305 50.6671C75.7305 50.6671 79.7533 47.0431 86.1677 47.1652C92.5832 47.2861 93.4308 47.1617 93.4308 47.1617C93.4308 47.1617 90.5172 61.3833 77.8128 59.8416L75.7305 50.6671Z" fill="#CB8E63"/>
<path d="M76.3873 53.5606C76.3873 53.5606 78.3929 51.2806 84.5794 50.433C90.7671 49.5855 92.0983 48.3751 92.0983 48.3751C92.0983 48.3751 89.7847 55.2139 85.3212 57.2706C80.8566 59.3297 78.0546 58.8646 78.0546 58.8646L76.3873 53.5606Z" fill="#F4BC8A"/>
<path d="M36.1383 50.6671C36.1383 50.6671 32.1155 47.0431 25.7 47.1652C19.2856 47.2861 18.438 47.1617 18.438 47.1617C18.438 47.1617 21.3505 61.3833 34.056 59.8416L36.1383 50.6671Z" fill="#CB8E63"/>
<path d="M35.4816 53.5606C35.4816 53.5606 33.476 51.2806 27.2883 50.433C21.1006 49.5855 19.7694 48.3751 19.7694 48.3751C19.7694 48.3751 22.0843 55.2139 26.5477 57.2706C31.0123 59.3297 33.8143 58.8646 33.8143 58.8646L35.4816 53.5606Z" fill="#F4BC8A"/>
<path d="M51.9727 87.8394C51.16 87.243 50.5217 86.4338 50.0869 85.5245C49.6253 84.6434 49.2893 83.6234 49.4707 82.6261L49.5044 82.6319C49.4242 83.6247 49.823 84.5653 50.3194 85.3942C50.8519 86.2154 51.4437 86.9814 51.996 87.8172L51.9727 87.8394Z" fill="#3B3E3A"/>
<path d="M59.8335 87.8163C60.4032 86.9979 60.9752 86.2236 61.4984 85.4002C61.9809 84.5572 62.3309 83.6203 62.3646 82.6298L62.3972 82.6284C62.4634 83.6271 62.1809 84.628 61.7344 85.526C61.3101 86.4361 60.6834 87.2618 59.8556 87.8408L59.8335 87.8163Z" fill="#3B3E3A"/>
<path d="M42.7318 56.7153C41.5808 56.7153 40.6425 56.3793 40.0658 55.6713C38.3811 53.6075 40.4007 49.172 44.577 45.7631C47.3208 43.5238 50.3135 42.2856 52.5202 42.2856C53.6713 42.2856 54.6095 42.6227 55.1874 43.3296C56.8721 45.3934 54.8525 49.8301 50.6763 53.2378C47.9324 55.4771 44.9397 56.7153 42.7318 56.7153Z" fill="#E6AB7C"/>
<path d="M64.3991 35.6592L64.0747 35.5313C64.2747 34.8907 64.5037 34.2617 64.7595 33.642C65.0025 33.7129 65.2443 33.7873 65.4838 33.8652C65.1037 34.4512 64.7421 35.0499 64.3991 35.6592ZM65.9292 33.199C65.6269 33.1339 65.3234 33.0792 65.0188 33.035C65.7513 31.3794 66.6651 29.797 67.7022 28.2763C69.2102 26.1335 71.0786 24.164 73.3585 22.6548C74.4561 23.1222 75.5025 23.6582 76.4721 24.2942C75.9943 24.4546 75.5211 24.6453 75.0549 24.8755C72.8505 25.9463 70.8321 27.5299 69.0509 29.3831C67.9091 30.5458 66.8663 31.8317 65.9292 33.199ZM77.7406 23.9361C76.8512 23.314 75.8827 22.8176 74.87 22.4688C74.5979 22.3746 74.3236 22.2898 74.0468 22.213C75.1397 21.527 76.3059 20.9167 77.5488 20.4551C78.8068 20.004 80.1485 19.754 81.4844 19.754C81.6192 19.754 81.7529 19.7563 81.8866 19.7621C83.3493 19.8644 84.7956 20.0842 86.1269 20.6271C87.4686 21.1073 88.7033 21.8328 89.7869 22.7443L89.6637 23.0699C88.4487 23.0629 87.2942 23.0397 86.1827 23.0397C84.7282 23.0397 83.3481 23.0804 81.9994 23.2489C80.5868 23.4536 79.1509 23.6036 77.7406 23.9361Z" fill="#F7D5B0"/>
<path d="M65.4839 33.8652C65.2443 33.7873 65.0025 33.7129 64.7595 33.642C64.8432 33.4385 64.9293 33.2362 65.0188 33.0351C65.3234 33.0793 65.6269 33.1339 65.9292 33.199C65.778 33.4188 65.6292 33.6408 65.4839 33.8652Z" fill="#DFB893"/>
<path d="M76.4721 24.2944C75.5025 23.6585 74.4561 23.1225 73.3585 22.6551C73.4643 22.5853 73.5713 22.5167 73.6783 22.4481C73.8003 22.3691 73.9236 22.29 74.0468 22.2133C74.3235 22.29 74.5979 22.3749 74.87 22.469C75.8827 22.8178 76.8511 23.3143 77.7406 23.9363C77.315 24.0375 76.8918 24.1538 76.4721 24.2944Z" fill="#DFB893"/>
<path d="M48.0638 35.6592C47.6906 34.9965 47.2953 34.3454 46.8779 33.7106C47.1302 33.6338 47.386 33.5617 47.6418 33.4931C47.922 34.1605 48.172 34.8395 48.3882 35.5313L48.0638 35.6592ZM46.464 33.0967C45.5444 31.7666 44.5259 30.5179 43.4132 29.3831C41.6308 27.5299 39.6125 25.9463 37.4081 24.8755C36.8128 24.5814 36.2059 24.3523 35.592 24.1686C36.614 23.5187 37.7173 22.9757 38.8719 22.5037C41.2588 24.0314 43.2016 26.0603 44.7607 28.2763C45.7827 29.775 46.6861 31.3352 47.4139 32.9653C47.0965 32.9967 46.7791 33.0409 46.464 33.0967ZM34.2724 23.8361C33.0086 23.571 31.7273 23.4326 30.4635 23.2489C29.1148 23.0804 27.7348 23.0397 26.2803 23.0397C25.1688 23.0397 24.0142 23.0629 22.7993 23.0699L22.676 22.7443C23.7596 21.8328 24.9944 21.1073 26.3372 20.6271C27.6673 20.0842 29.1137 19.8644 30.5763 19.7621C30.71 19.7563 30.8437 19.754 30.9786 19.754C32.3145 19.754 33.6562 20.004 34.9153 20.4551C36.0919 20.8922 37.2 21.4631 38.2417 22.1037C37.822 22.2049 37.4069 22.3281 36.9988 22.4688C36.0408 22.799 35.1223 23.2606 34.2724 23.8361Z" fill="#F7D5B0"/>
<path d="M46.8779 33.7109C46.7419 33.5051 46.6035 33.2994 46.464 33.097C46.7791 33.0412 47.0965 32.9971 47.4139 32.9657C47.4918 33.1412 47.5685 33.3168 47.6418 33.4935C47.386 33.5621 47.1302 33.6342 46.8779 33.7109Z" fill="#DFB893"/>
<path d="M35.592 24.1685C35.1548 24.0371 34.7153 23.929 34.2723 23.8359C35.1222 23.2604 36.0407 22.7988 36.9988 22.4686C37.4069 22.328 37.8219 22.2047 38.2417 22.1036C38.4242 22.2164 38.6056 22.3315 38.7834 22.4477C38.8125 22.4663 38.8427 22.4849 38.8718 22.5035C37.7173 22.9756 36.6139 23.5185 35.592 24.1685Z" fill="#DFB893"/>
</svg>
