<svg width="20" height="21" viewBox="0 0 20 21" fill="none" xmlns="http://www.w3.org/2000/svg">
<path d="M10 18.8615L9.16669 16.3615H3.33335C2.87502 16.3615 2.48266 16.1983 2.15627 15.8719C1.82988 15.5455 1.66669 15.1532 1.66669 14.6948V3.86149C1.66669 3.40316 1.82988 3.0108 2.15627 2.68441C2.48266 2.35802 2.87502 2.19482 3.33335 2.19482H8.33335L9.06252 4.69482H16.6667C17.1528 4.69482 17.5521 4.85107 17.8646 5.16357C18.1771 5.47607 18.3334 5.87538 18.3334 6.36149V17.1948C18.3334 17.6532 18.1771 18.0455 17.8646 18.3719C17.5521 18.6983 17.1528 18.8615 16.6667 18.8615H10ZM5.95835 12.6948C6.91669 12.6948 7.70488 12.3858 8.32294 11.7677C8.94099 11.1497 9.25002 10.3476 9.25002 9.36149C9.25002 9.25038 9.24655 9.14969 9.2396 9.05941C9.23266 8.96913 9.2153 8.87538 9.18752 8.77816H5.89585V10.0698H7.75002C7.63891 10.4587 7.4271 10.7608 7.1146 10.9761C6.8021 11.1914 6.42363 11.299 5.97919 11.299C5.43752 11.299 4.97224 11.1045 4.58335 10.7157C4.19446 10.3268 4.00002 9.8476 4.00002 9.27816C4.00002 8.70871 4.19446 8.22955 4.58335 7.84066C4.97224 7.45177 5.43752 7.25732 5.97919 7.25732C6.22919 7.25732 6.4653 7.30246 6.68752 7.39274C6.90974 7.48302 7.11113 7.61844 7.29169 7.79899L8.31252 6.81982C8.02085 6.51427 7.67016 6.27816 7.26044 6.11149C6.85072 5.94482 6.41669 5.86149 5.95835 5.86149C5.0278 5.86149 4.23266 6.19135 3.57294 6.85107C2.91321 7.5108 2.58335 8.31982 2.58335 9.27816C2.58335 10.2365 2.91321 11.0455 3.57294 11.7052C4.23266 12.365 5.0278 12.6948 5.95835 12.6948ZM11.5417 13.1115L12 12.674C11.8056 12.4379 11.6285 12.2087 11.4688 11.9865C11.309 11.7643 11.1528 11.5282 11 11.2782L11.5417 13.1115ZM12.5834 12.049C12.9722 11.5907 13.2674 11.1532 13.4688 10.7365C13.6702 10.3198 13.8056 9.99344 13.875 9.75732H10.5625L10.8125 10.6323H11.6459C11.757 10.8407 11.8889 11.0664 12.0417 11.3094C12.1945 11.5525 12.375 11.799 12.5834 12.049ZM10.8334 18.0282H16.6667C16.9167 18.0282 17.1181 17.9483 17.2709 17.7886C17.4236 17.6289 17.5 17.4309 17.5 17.1948V6.36149C17.5 6.11149 17.4236 5.9101 17.2709 5.75732C17.1181 5.60455 16.9167 5.52816 16.6667 5.52816H9.31252L10.2917 8.90316H11.9375V8.02816H12.7917V8.90316H15.8334V9.75732H14.7709C14.632 10.2851 14.4236 10.799 14.1459 11.299C13.8681 11.799 13.5417 12.2643 13.1667 12.6948L15.4375 14.924L14.8334 15.5282L12.5834 13.2782L11.8334 14.049L12.5 16.3615L10.8334 18.0282Z" fill="#1D1B20"/>
</svg>
