<svg width="112" height="112" viewBox="0 0 112 112" fill="none" xmlns="http://www.w3.org/2000/svg">
<path d="M111.131 55.863C111.131 86.4235 86.3577 111.196 55.7973 111.196C25.2378 111.196 0.463989 86.4235 0.463989 55.863C0.463989 25.3036 25.2378 0.529625 55.7973 0.529625C86.3577 0.529625 111.131 25.3036 111.131 55.863Z" fill="#FFE4CF"/>
<path d="M93.7963 41.1151L91.8896 39.8443C91.8896 39.8443 99.4922 51.4558 93.5661 65.5484C93.1045 66.6471 91.5373 66.8878 90.7118 65.9832L88.3806 63.4905C88.3806 63.4905 89.7886 76.6797 82.1383 86.5507C81.1663 87.8098 79.041 87.168 79.041 85.6136V85.202C79.041 85.202 70.6616 98.5517 55.8944 99.4888H55.7005C40.9329 98.5517 32.5412 85.202 32.5412 85.202V85.6136C32.5412 87.168 30.4284 87.8098 29.4447 86.5507C21.8056 76.6797 23.2018 63.4905 23.2018 63.4905L20.8827 65.9832C20.0443 66.8878 18.4902 66.6471 18.0165 65.5484C12.1024 51.4558 19.7047 39.8443 19.7047 39.8443L17.798 41.1151C16.5718 41.9266 14.8954 40.9546 15.1262 39.5478C17.6763 23.7961 31.1446 16.3144 40.6658 12.9508C45.4623 11.2475 50.5634 10.4464 55.7005 10.4348H55.8944C61.0192 10.4464 66.1318 11.2475 70.9292 12.9508C80.4501 16.3144 93.9056 23.7961 96.4681 39.5478C96.6995 40.9546 95.0229 41.9266 93.7963 41.1151Z" fill="#EF6800"/>
<path d="M17.7981 41.1153L17.978 40.9956C20.4963 39.6992 22.3516 37.9878 22.3516 37.9878L17.8245 39.04C16.7786 39.2469 15.8752 39.0423 15.3842 38.3261C15.3007 38.7354 15.1945 39.1272 15.1263 39.5481C14.8951 40.9549 16.5709 41.9269 17.7981 41.1153Z" fill="#CF4D2A"/>
<path d="M23.2019 61.1634L20.8829 63.6573C20.0445 64.5618 18.4899 64.3212 18.0167 63.2225C16.5474 59.7217 15.9134 56.3744 15.789 53.3189C15.6387 56.965 16.1646 61.1355 18.0167 65.5478C18.4899 66.6465 20.0445 66.8872 20.8829 65.9826L23.1033 63.5957C23.1074 62.0784 23.2019 61.1634 23.2019 61.1634Z" fill="#CF4D2A"/>
<path d="M82.1384 84.2254C81.1664 85.4845 79.0411 84.8427 79.0411 83.2883V82.8767C79.0411 82.8767 70.6617 96.2252 55.8945 97.1634H55.7005C40.933 96.2252 32.5413 82.8767 32.5413 82.8767V83.2883C32.5413 84.8427 30.4285 85.4845 29.4448 84.2254C24.3145 77.5959 23.2608 69.4758 23.1214 64.8531C23.0001 68.469 23.2817 78.5876 29.4448 86.5507C30.4285 87.8098 32.5413 87.168 32.5413 85.6136V85.202C32.5413 85.202 40.933 98.5517 55.7005 99.4888H55.8945C70.6617 98.5517 79.0411 85.202 79.0411 85.202V85.6136C79.0411 87.168 81.1664 87.8098 82.1384 86.5507C88.2959 78.6051 88.5854 68.5167 88.4633 64.8787C88.3238 69.5061 87.2669 77.6087 82.1384 84.2254Z" fill="#CF4D2A"/>
<path d="M93.566 63.2225C93.1044 64.3212 91.5383 64.5618 90.7116 63.6573L88.3805 61.1634C88.3805 61.1634 88.4758 62.0784 88.4816 63.5968L90.7116 65.9826C91.5383 66.8872 93.1044 66.6465 93.566 65.5478C95.4228 61.1308 95.9518 56.958 95.8018 53.3084C95.6762 56.3662 95.0391 59.7182 93.566 63.2225Z" fill="#CF4D2A"/>
<path d="M96.2099 38.3273C95.9146 38.7563 95.6739 38.9539 95.1682 39.0725C94.3485 39.2644 93.4869 39.176 92.687 38.9098L90.1443 38.0622C90.1443 38.0622 90.7756 39.04 93.616 40.9956L93.7962 41.1153C95.0228 41.9269 96.6994 40.9549 96.468 39.5481C96.3994 39.1272 96.2936 38.7365 96.2099 38.3273Z" fill="#CF4D2A"/>
<path d="M54.4774 101.28L54.3843 101.293V101.28H54.4774Z" fill="#EF6800"/>
<path d="M54.5704 101.28V101.293L54.4774 101.28H54.5704Z" fill="#EF6800"/>
<path d="M69.3943 73.8699C69.3943 81.0714 63.3122 86.9092 55.7971 86.9092C48.2898 86.9092 42.1998 81.0714 42.1998 73.8699C42.1998 73.6479 42.1998 73.4258 42.2148 73.2119C42.238 72.7061 42.2457 72.2004 42.238 71.6946C43.2494 73.5339 45.4553 76.644 48.8952 77.0731C53.8206 77.6928 55.7971 75.8383 55.7971 75.8383C55.7971 75.8383 57.7814 77.6928 62.7068 77.0731C66.1467 76.644 68.3453 73.5339 69.3562 71.6946C69.3485 72.2004 69.3562 72.698 69.3795 73.2037C69.3943 73.4258 69.3943 73.6479 69.3943 73.8699Z" fill="#CB8E63"/>
<path d="M60.7689 77.2012C57.2541 77.2012 55.7971 75.8397 55.7971 75.8397C55.7971 75.8397 54.3466 77.2012 50.8331 77.2012C50.2459 77.2012 49.6005 77.1628 48.8952 77.0744C48.3043 77 47.7502 76.8477 47.232 76.6361C46.9473 75.7955 46.7933 74.8991 46.7933 73.9678C46.7933 73.8201 46.7933 73.6737 46.8033 73.5318C46.8183 73.197 46.8238 72.8621 46.8183 72.5273C47.4881 73.7446 48.9493 75.8036 51.2269 76.0873C51.6942 76.1466 52.1225 76.1722 52.5112 76.1722C54.837 76.1722 55.7971 75.2711 55.7971 75.2711C55.7971 75.2711 56.7613 76.1722 59.0876 76.1722C59.4773 76.1722 59.9046 76.1466 60.3724 76.0873C62.6501 75.8036 64.1066 73.7446 64.7756 72.5273C64.7706 72.8621 64.7756 73.1911 64.791 73.526C64.801 73.6736 64.801 73.8201 64.801 73.9678C64.801 74.9003 64.647 75.7978 64.3622 76.6384C63.8464 76.8489 63.2949 77.0012 62.7068 77.0744C62.0015 77.1628 61.3566 77.2012 60.7689 77.2012Z" fill="#ED814F"/>
<path d="M55.7969 82.6011C51.7967 82.6011 48.404 80.0979 47.2318 76.6355C47.75 76.8471 48.3041 76.9994 48.895 77.0738C49.6003 77.1621 50.2457 77.2005 50.8329 77.2005C54.3464 77.2005 55.7969 75.8391 55.7969 75.8391C55.7969 75.8391 57.2539 77.2005 60.7687 77.2005C61.3565 77.2005 62.0013 77.1621 62.7067 77.0738C63.2947 77.0005 63.8462 76.8482 64.3621 76.6378C63.1894 80.099 59.8 82.6011 55.7969 82.6011Z" fill="#DCA174"/>
<path d="M81.1953 45.3976C81.1953 48.7821 80.3385 51.984 78.8177 54.8546C76.8295 58.6077 75.4785 62.6421 74.9693 66.7649C74.6205 69.5867 73.502 72.2887 71.4677 74.2745C69.9076 75.7988 67.9062 77.0812 65.4518 77.3858C58.5653 78.2532 55.7917 75.6628 55.7917 75.6628C55.7917 75.6628 53.0286 78.2532 46.1425 77.3858C43.69 77.0812 41.6858 75.8 40.1235 74.278C38.0843 72.2899 36.9638 69.5832 36.6146 66.7591C36.104 62.6328 34.7543 58.6065 32.7664 54.8546C31.2458 51.984 30.3998 48.7821 30.3998 45.3976C30.3998 33.0385 41.7625 23.0152 55.7917 23.0152C69.8213 23.0152 81.1953 33.0385 81.1953 45.3976Z" fill="#F4BC8A"/>
<path d="M77.0284 45.5355C77.0284 48.5282 76.2704 51.3593 74.9263 53.8974C73.1684 57.2168 71.9732 60.7838 71.5237 64.4299C71.2149 66.925 70.2257 69.3131 68.4272 71.0699C67.0479 72.4174 65.2775 73.5521 63.108 73.8219C57.0185 74.5892 54.566 72.2965 54.566 72.2965C54.566 72.2965 52.1226 74.5892 46.0336 73.8219C43.8649 73.5521 42.0928 72.4186 40.7112 71.0722C38.9081 69.3154 37.9167 66.9227 37.6084 64.4241C37.1574 60.7768 35.9633 57.2156 34.2057 53.8974C32.861 51.3593 32.1134 48.5282 32.1134 45.5355C32.1134 34.6077 42.1605 25.7436 54.566 25.7436C66.9711 25.7436 77.0284 34.6077 77.0284 45.5355Z" fill="#F7D0AC"/>
<path d="M62.612 64.4999C63.1921 65.4707 62.6062 66.7508 61.4399 66.9717C59.492 67.3414 58.4415 68.6494 57.9092 69.6505C57.3978 70.612 56.7693 71.5166 55.9722 72.2909L55.7892 72.4688L55.6016 72.2862C54.8173 71.5189 54.1915 70.6317 53.6923 69.6795C53.17 68.6855 52.1354 67.374 50.2089 66.9845C49.0221 66.745 48.3794 65.5044 48.9676 64.5115C49.2609 64.0151 49.6933 63.6151 50.3287 63.5267C50.9682 63.4395 51.788 63.6058 52.5964 63.8674C54.671 64.5394 56.9082 64.5406 58.9829 63.8686C59.7949 63.607 60.6169 63.4384 61.2573 63.5267C61.8882 63.6139 62.3182 64.0093 62.612 64.4999Z" fill="#3B3E3A"/>
<path d="M68.9943 76.0432C68.0878 76.7838 67.0096 77.3477 65.8474 77.6523C64.677 77.9627 63.5084 77.9999 62.3199 78.0325C61.1344 78.0453 59.9364 77.9255 58.7688 77.6256C57.5933 77.3105 56.477 76.9047 55.4316 76.0362H56.1537C55.0714 76.9396 53.9033 77.3431 52.6825 77.6616C51.4676 77.9627 50.2218 78.0674 48.9924 78.0348C48.3784 78.0104 47.763 77.9871 47.1567 77.9046C46.5522 77.8558 45.9299 77.736 45.3377 77.5454C44.1473 77.1803 43.0519 76.5629 42.1344 75.7711C43.2472 76.2536 44.3767 76.6071 45.5171 76.8071C46.6502 76.9756 47.8356 77.078 49.0001 77.0861C50.1664 77.0826 51.3291 76.9652 52.4413 76.685C53.5295 76.4129 54.6685 75.9432 55.4316 75.2968C55.6432 75.1165 55.9493 75.1224 56.1537 75.2968C56.8862 75.9165 57.9757 76.3827 59.0213 76.6536C60.089 76.9326 61.2058 77.057 62.3266 77.0803C63.444 77.1105 64.5912 76.9919 65.6888 76.8745C66.7916 76.7234 67.8929 76.442 68.9943 76.0432Z" fill="#3B3E3A"/>
<path d="M56.3101 75.6662V72.291C56.3101 72.005 56.0781 71.7736 55.7924 71.7736C55.5067 71.7736 55.2751 72.005 55.2751 72.291V75.6662C55.2751 75.9522 55.5067 76.1836 55.7924 76.1836C56.0781 76.1836 56.3101 75.9522 56.3101 75.6662Z" fill="#3B3E3A"/>
<path d="M65.5822 50.605C65.5822 50.605 68.1891 43.5477 75.6704 47.2356C75.6704 47.2356 71.9277 53.0385 65.5822 50.605Z" fill="white"/>
<path d="M68.6225 48.389C68.6828 49.3075 69.4759 50.0017 70.3932 49.94C71.3102 49.8796 72.0046 49.0878 71.9441 48.1704C71.8834 47.2519 71.0908 46.5579 70.1735 46.6195C69.256 46.6799 68.5616 47.4717 68.6225 48.389Z" fill="#3B3E3A"/>
<path d="M70.7021 48.0472C70.7212 48.339 71.0409 48.5553 71.4155 48.5308C71.7907 48.5064 72.0789 48.2495 72.0603 47.9577C72.0406 47.667 71.7212 47.4507 71.3456 47.4751C70.9714 47.5007 70.6826 47.7565 70.7021 48.0472Z" fill="white"/>
<path d="M62.2585 65.5768L63.5017 58.6461L64.1393 55.1849C64.3713 54.0397 64.5021 52.8642 64.8883 51.7144C65.6331 49.46 67.1913 47.2881 69.5397 46.3894C70.7369 45.9673 71.9777 46.0103 73.1532 46.1743C74.3356 46.3522 75.4785 46.7021 76.5551 47.18L76.5714 47.223L76.533 47.2404C75.4053 46.9195 74.2542 46.7033 73.1044 46.6138C71.9638 46.5428 70.7793 46.5533 69.7701 46.98C67.7131 47.8427 66.1449 49.7448 65.3679 51.8806C64.9731 52.9503 64.8069 54.1199 64.5435 55.2651L63.8128 58.7078L62.3204 65.5884L62.2826 65.6128L62.2585 65.5768Z" fill="#3B3E3A"/>
<path d="M46.0035 50.605C46.0035 50.605 43.3966 43.5477 35.9155 47.2356C35.9155 47.2356 39.6579 53.0385 46.0035 50.605Z" fill="white"/>
<path d="M42.9634 48.389C42.903 49.3075 42.1101 50.0017 41.1926 49.94C40.2756 49.8796 39.5808 49.0878 39.6416 48.1704C39.7026 47.2519 40.495 46.5579 41.4125 46.6195C42.3298 46.6799 43.0243 47.4717 42.9634 48.389Z" fill="#3B3E3A"/>
<path d="M40.8839 48.0472C40.8644 48.339 40.5451 48.5553 40.1704 48.5308C39.7947 48.5064 39.5069 48.2495 39.5259 47.9577C39.5455 47.667 39.8647 47.4507 40.2399 47.4751C40.6145 47.5007 40.903 47.7565 40.8839 48.0472Z" fill="white"/>
<path d="M49.2654 65.5884L47.773 58.7078L47.0421 55.2651C46.7788 54.1199 46.6125 52.9503 46.2179 51.8806C45.4408 49.7448 43.8721 47.8427 41.8156 46.98C40.8065 46.5533 39.622 46.5428 38.4812 46.6138C37.3317 46.7033 36.1804 46.9195 35.0521 47.2404L35.0131 47.2183L35.0309 47.18C36.1077 46.7021 37.2504 46.3522 38.4321 46.1743C39.6075 46.0103 40.8487 45.9673 42.0459 46.3894C44.3944 47.2881 45.9526 49.46 46.6975 51.7144C47.0835 52.8642 47.2143 54.0397 47.4464 55.1849L48.084 58.6461L49.3271 65.5768L49.3016 65.6128L49.2654 65.5884Z" fill="#3B3E3A"/>
<path d="M37.0466 40.9805C38.5176 43.1756 43.4086 42.4757 47.9702 39.4179C52.5318 36.359 55.0374 32.1013 53.5664 29.9074C52.0953 27.7123 47.2054 28.4122 42.6432 31.4711C38.0811 34.5289 35.5754 38.7866 37.0466 40.9805Z" fill="#FAE0C8"/>
<path d="M72.3324 28.6784C72.3324 28.6784 75.4611 24.4824 80.9826 26.9484C86.503 29.4144 85.7681 36.7996 79.8176 39.04C79.8176 39.04 74.1868 34.7242 72.3324 28.6784Z" fill="#F4BC8A"/>
<path d="M75.0282 30.3874C75.0282 30.3874 76.7966 28.0167 79.916 29.4096C83.0343 30.8025 82.6192 34.9753 79.258 36.2402C79.258 36.2402 76.0769 33.8021 75.0282 30.3874Z" fill="#CB8E63"/>
<path d="M39.2629 28.6784C39.2629 28.6784 36.1328 24.4824 30.6125 26.9484C25.092 29.4144 25.8265 36.7996 31.7774 39.04C31.7774 39.04 37.4077 34.7242 39.2629 28.6784Z" fill="#F4BC8A"/>
<path d="M36.5661 30.3874C36.5661 30.3874 34.7975 28.0167 31.6783 29.4096C28.5596 30.8025 28.9751 34.9753 32.3369 36.2402C32.3369 36.2402 35.5178 33.8021 36.5661 30.3874Z" fill="#CB8E63"/>
<path d="M88.3224 62.8525C87.9282 61.9759 87.7027 61.0911 87.5201 60.1982C87.3271 59.3088 87.3585 58.3903 87.2841 57.4822L86.8597 52.0235L86.9737 52.0038C87.4399 53.7745 87.8515 55.558 88.2049 57.3543C88.3805 58.2519 88.6502 59.1413 88.6735 60.061C88.7037 60.9795 88.6816 61.9062 88.4386 62.8444L88.3224 62.8525Z" fill="#CF4D2A"/>
<path d="M78.9839 85.1952C78.7409 84.3756 78.67 83.5814 78.6351 82.7885C78.5909 81.9967 78.7711 81.2154 78.8316 80.4272C78.9501 78.8494 79.0455 77.2694 78.9839 75.6754L79.099 75.6568C79.4954 77.2182 79.6745 78.832 79.7617 80.4376C79.8024 81.241 79.9233 82.0514 79.7954 82.8513C79.6745 83.6477 79.4943 84.443 79.099 85.208L78.9839 85.1952Z" fill="#CF4D2A"/>
<path d="M23.1443 62.2221C22.9008 61.2839 22.8785 60.3561 22.9085 59.4387C22.9326 58.5191 23.2015 57.6308 23.3768 56.7332C23.731 54.9369 24.1434 53.1534 24.6089 51.3827L24.7234 51.4012L24.2982 56.8611C24.2233 57.768 24.2551 58.6865 24.063 59.5771C23.8795 60.4688 23.6538 61.3536 23.2605 62.2314L23.1443 62.2221Z" fill="#CF4D2A"/>
<path d="M32.4835 84.5859C32.0884 83.8209 31.9077 83.0268 31.7864 82.2281C31.6587 81.4305 31.78 80.6201 31.8205 79.8155C31.9077 78.2087 32.0871 76.5961 32.484 75.0358L32.5989 75.0533C32.5371 76.6473 32.632 78.2285 32.7506 79.8039C32.8109 80.5933 32.9908 81.3747 32.9472 82.1664C32.9127 82.9582 32.8419 83.7535 32.5993 84.5743L32.4835 84.5859Z" fill="#CF4D2A"/>
</svg>
