<svg width="111" height="111" viewBox="0 0 111 111" fill="none" xmlns="http://www.w3.org/2000/svg">
<path d="M110.667 55.528C110.667 86.0885 85.8927 110.861 55.3333 110.861C24.774 110.861 0 86.0885 0 55.528C0 24.9687 24.774 0.194664 55.3333 0.194664C85.8927 0.194664 110.667 24.9687 110.667 55.528Z" fill="#FFE4CF"/>
<path d="M55.0439 24.3455V98.2139C55.0439 98.3732 55.1729 98.5034 55.3334 98.5034C55.4938 98.5034 55.6241 98.3732 55.6241 98.2139V24.3455C55.6241 24.185 55.4938 24.0548 55.3334 24.0548C55.1729 24.0548 55.0439 24.185 55.0439 24.3455Z" fill="#3B3E3A"/>
<path d="M69.9247 98.3732H66.9367C66.7495 96.6513 65.988 95.3584 65.0764 95.3584H45.5903C44.6776 95.3584 43.9183 96.6513 43.7311 98.3732H40.7419C39.1665 98.3732 37.8876 99.651 37.8876 101.228H72.7779C72.7779 99.651 71.5001 98.3732 69.9247 98.3732Z" fill="#3B3E3A"/>
<path d="M91.9141 24.7534H18.7526C17.9271 24.7534 17.2585 24.0849 17.2585 23.2594V23.0978C17.2585 22.2734 17.9271 21.6038 18.7526 21.6038H91.9141C92.7385 21.6038 93.407 22.2734 93.407 23.0978V23.2594C93.407 24.0849 92.7385 24.7534 91.9141 24.7534Z" fill="#3B3E3A"/>
<path d="M86.4764 24.7539V73.5228C86.4764 73.6833 86.6055 73.8135 86.7659 73.8135C86.9264 73.8135 87.0566 73.6833 87.0566 73.5228V24.7539C87.0566 24.5934 86.9264 24.4632 86.7659 24.4632C86.6055 24.4632 86.4764 24.5934 86.4764 24.7539Z" fill="#3B3E3A"/>
<path d="M23.6102 24.7539V73.5228C23.6102 73.6833 23.7404 73.8135 23.9008 73.8135C24.0613 73.8135 24.1915 73.6833 24.1915 73.5228V24.7539C24.1915 24.5934 24.0613 24.4632 23.9008 24.4632C23.7404 24.4632 23.6102 24.5934 23.6102 24.7539Z" fill="#3B3E3A"/>
<path d="M39.5317 73.4144L24.1706 35.1733C24.1264 35.064 24.0195 34.9919 23.9009 34.9919C23.7823 34.9919 23.6753 35.064 23.6311 35.1733L8.26776 73.4144C8.20846 73.5632 8.28054 73.7318 8.42936 73.7922C8.57818 73.8515 8.74676 73.7795 8.80722 73.6306L23.9009 36.0604L38.9934 73.6306C39.0538 73.7795 39.2224 73.8515 39.3712 73.7922C39.52 73.7318 39.5921 73.5632 39.5317 73.4144Z" fill="#3B3E3A"/>
<path d="M102.398 73.4144L87.0357 35.1733C86.9915 35.064 86.8845 34.9919 86.7659 34.9919C86.6485 34.9919 86.5415 35.064 86.4973 35.1733L71.1339 73.4144C71.0735 73.5632 71.1456 73.7318 71.2944 73.7922C71.4432 73.8515 71.613 73.7795 71.6722 73.6306L86.7659 36.0604L101.86 73.6306C101.919 73.7795 102.087 73.8515 102.236 73.7922C102.385 73.7318 102.457 73.5632 102.398 73.4144Z" fill="#3B3E3A"/>
<path d="M25.5298 35.2816C25.5298 36.1826 24.8008 36.9116 23.9009 36.9116C23.001 36.9116 22.2708 36.1826 22.2708 35.2816C22.2708 34.3817 23.001 33.6515 23.9009 33.6515C24.8008 33.6515 25.5298 34.3817 25.5298 35.2816Z" fill="#CB8E63"/>
<path d="M88.396 35.2816C88.396 36.1826 87.667 36.9116 86.7659 36.9116C85.866 36.9116 85.1359 36.1826 85.1359 35.2816C85.1359 34.3817 85.866 33.6515 86.7659 33.6515C87.667 33.6515 88.396 34.3817 88.396 35.2816Z" fill="#CB8E63"/>
<path d="M8.53741 73.5225C10.4872 79.2765 16.6249 83.4795 23.9008 83.4795C31.1756 83.4795 37.3133 79.2765 39.263 73.5225H8.53741Z" fill="#CB8E63"/>
<path d="M23.7647 83.4783C23.7589 83.4783 23.7531 83.4783 23.7485 83.4783C23.7543 83.4783 23.7589 83.4783 23.7647 83.4783ZM23.5729 83.476C23.5717 83.476 23.5694 83.476 23.5682 83.476C23.5706 83.476 23.5717 83.476 23.5729 83.476Z" fill="#EA9F7B"/>
<path d="M23.9009 83.4795C23.8858 83.4795 23.8706 83.4795 23.8555 83.4795C23.8509 83.4795 23.8451 83.4795 23.8404 83.4795C23.83 83.4795 23.8207 83.4795 23.8102 83.4783C23.8044 83.4783 23.7997 83.4783 23.7939 83.4783C23.7846 83.4783 23.7741 83.4783 23.7648 83.4783C23.759 83.4783 23.7544 83.4783 23.7486 83.4783C23.7381 83.4783 23.7288 83.4783 23.7183 83.4783C23.7137 83.4783 23.7079 83.4783 23.7032 83.4783C23.6928 83.4783 23.6823 83.4783 23.6719 83.4772C23.6672 83.4772 23.6625 83.4772 23.6579 83.4772C23.6463 83.4772 23.6358 83.4772 23.6242 83.4772C23.6207 83.4772 23.6172 83.4772 23.6137 83.4772C23.5998 83.4772 23.5858 83.476 23.573 83.476C23.5718 83.476 23.5707 83.476 23.5684 83.476C19.6525 83.4074 16.0855 82.118 13.3451 80.0334C15.896 81.5204 18.9631 82.397 22.2708 82.397C29.0805 82.397 34.8938 78.7138 37.2075 73.5225H39.2631C39.2317 73.6143 39.2003 73.705 39.1666 73.7969C37.118 79.4102 31.0594 83.4795 23.9009 83.4795Z" fill="#D77849"/>
<path d="M18.8525 81.3638C18.0038 81.3638 17.0062 81.1347 16.0168 80.6673C13.8298 79.6326 12.5149 77.8258 13.0799 76.6294C13.3904 75.9748 14.1984 75.6388 15.2262 75.6388C16.0761 75.6388 17.0737 75.869 18.0631 76.3364C20.2501 77.37 21.5639 79.1768 20.9988 80.3732C20.6896 81.0278 19.8803 81.3638 18.8525 81.3638Z" fill="#E2AF86"/>
<path d="M71.4025 73.5225C73.3534 79.2765 79.4899 83.4795 86.7659 83.4795C94.0406 83.4795 100.178 79.2765 102.128 73.5225H71.4025Z" fill="#CB8E63"/>
<path d="M86.7659 83.4795C86.266 83.4795 85.7718 83.4551 85.2823 83.4167C91.8956 82.8889 97.345 78.8812 99.1599 73.5225H102.128C102.098 73.6143 102.065 73.7062 102.032 73.7969C99.983 79.4102 93.9256 83.4795 86.7659 83.4795Z" fill="#D77849"/>
<path d="M81.3398 80.9321C80.491 80.9321 79.4923 80.7031 78.5029 80.2357C76.3159 79.2021 75.0021 77.3942 75.5683 76.1989C75.8764 75.5432 76.6856 75.2084 77.7123 75.2084C78.5622 75.2084 79.5598 75.4374 80.5503 75.9048C82.7361 76.9384 84.0511 78.7452 83.4861 79.9415C83.1768 80.5961 82.3676 80.9321 81.3398 80.9321Z" fill="#E2AF86"/>
<path d="M42.7521 13.4503C44.3485 18.1625 49.3746 21.604 55.3333 21.604C61.2908 21.604 66.317 18.1625 67.9133 13.4503H42.7521Z" fill="#CB8E63"/>
<path d="M55.3334 21.604C54.923 21.604 54.5184 21.5842 54.1172 21.5529C59.5341 21.1203 63.9964 17.8381 65.4834 13.4503H67.9134C66.3171 18.1625 61.2909 21.604 55.3334 21.604Z" fill="#D77849"/>
<path d="M50.8896 19.5181C50.1944 19.5181 49.377 19.3309 48.5666 18.9472C46.7761 18.1008 45.6995 16.6207 46.1611 15.6417C46.4157 15.1058 47.0784 14.8302 47.919 14.8302C48.6155 14.8302 49.4328 15.0186 50.242 15.4011C52.0325 16.2475 53.1103 17.7276 52.6476 18.7077C52.3941 19.2437 51.7314 19.5181 50.8896 19.5181Z" fill="#E2AF86"/>
<path d="M43.7312 98.6641H66.9368C67.0961 98.6641 67.2263 98.5338 67.2263 98.3734C67.2263 98.213 67.0961 98.0839 66.9368 98.0839H43.7312C43.5708 98.0839 43.4406 98.213 43.4406 98.3734C43.4406 98.5338 43.5708 98.6641 43.7312 98.6641Z" fill="#4C554C"/>
</svg>
