<svg width="265" height="62" viewBox="0 0 265 62" fill="none" xmlns="http://www.w3.org/2000/svg">
<path d="M73.9736 32.9547C73.5926 32.9547 73.0212 32.9547 72.4497 32.9547C71.8147 32.9547 71.1798 32.9547 70.4178 32.9547C69.7193 32.9547 68.9574 32.9547 68.1319 32.9547C67.37 32.9547 66.5445 32.9547 65.846 32.9547C65.0841 32.9547 64.3856 32.9547 63.6872 32.9547C62.9887 32.9547 62.4172 32.9547 61.9092 32.9547V37.5265C61.9092 38.4154 61.9092 39.1774 61.9092 39.8123C61.9092 40.4473 61.9092 41.0188 61.9727 41.5268C61.9727 41.9712 62.0362 42.4157 62.0997 42.7332C62.0997 43.0507 62.2267 43.3047 62.2902 43.5586H58.6074C58.6074 43.3047 58.7344 42.9872 58.7979 42.6697C58.7979 42.3522 58.9249 41.9712 58.9249 41.4633C58.9249 41.0188 58.9884 40.4473 58.9884 39.7488C58.9884 39.1139 58.9884 38.3519 58.9884 37.463V27.4305C58.9884 26.5415 58.9884 25.7796 58.9884 25.1446C58.9884 24.5096 58.9884 23.9382 58.9249 23.4302C58.9249 22.9222 58.8614 22.5413 58.7979 22.2238C58.7979 21.9063 58.6709 21.6523 58.6074 21.3983H62.2902C62.2902 21.6523 62.1632 21.9698 62.0997 22.2873C62.0997 22.6048 61.9727 22.9857 61.9727 23.4937C61.9727 24.0017 61.9092 24.5097 61.9092 25.2081C61.9092 25.9066 61.9092 26.605 61.9092 27.494V31.4308C62.4172 31.4308 63.0522 31.4308 63.7506 31.4308C64.4491 31.4308 65.1476 31.4308 65.9095 31.4308C66.6715 31.4308 67.4335 31.4308 68.1954 31.4308C68.9574 31.4308 69.7193 31.4308 70.4178 31.4308C71.1163 31.4308 71.8147 31.4308 72.4497 31.4308C73.0847 31.4308 73.5926 31.4308 74.0371 31.4308V27.621C74.0371 26.732 74.0371 25.9701 74.0371 25.3351C74.0371 24.7001 74.0371 24.1287 73.9736 23.6207C73.9736 23.1127 73.9101 22.7317 73.8466 22.4143C73.8466 22.0968 73.7196 21.8428 73.6561 21.5888H77.3389C77.3389 21.8428 77.2119 22.1603 77.1484 22.4778C77.1484 22.7952 77.0214 23.1762 77.0214 23.6842C77.0214 24.1922 76.9579 24.7001 76.9579 25.3986C76.9579 26.0336 76.9579 26.7955 76.9579 27.6845V37.717C76.9579 38.6059 76.9579 39.3679 76.9579 40.0028C76.9579 40.6378 76.958 41.2093 77.0214 41.7172C77.0214 42.1617 77.0849 42.6062 77.1484 42.9237C77.1484 43.2412 77.2754 43.4951 77.3389 43.7491H73.6561C73.6561 43.4951 73.7831 43.1777 73.8466 42.8602C73.8466 42.5427 73.9736 42.1617 73.9736 41.6537C73.9736 41.2093 74.0371 40.6378 74.0371 39.9393C74.0371 39.3044 74.0371 38.5424 74.0371 37.6535V33.0817L73.9736 32.9547Z" fill="black"/>
<path d="M108.452 37.6535C108.452 38.5424 108.452 39.3044 108.452 39.9394C108.452 40.5743 108.452 41.1458 108.516 41.6538C108.516 42.0983 108.579 42.5427 108.643 42.8602C108.643 43.1777 108.77 43.4317 108.833 43.6857H105.151C105.151 43.4317 105.277 43.1142 105.341 42.7967C105.341 42.4792 105.468 42.0983 105.468 41.5903C105.468 41.1458 105.531 40.5743 105.531 39.8759C105.531 39.2409 105.531 38.479 105.531 37.59V27.5575C105.531 26.6686 105.531 25.9066 105.531 25.2716C105.531 24.6367 105.531 24.0652 105.468 23.5572C105.468 23.0493 105.404 22.6683 105.341 22.3508C105.341 22.0333 105.214 21.7793 105.151 21.5253C105.341 21.5253 105.595 21.5253 105.785 21.5253C105.976 21.5253 106.23 21.5253 106.42 21.5253C106.611 21.5253 106.928 21.5253 107.182 21.5253C107.563 21.5253 108.135 21.5253 108.833 21.3984C109.532 21.2714 110.421 21.2714 111.437 21.2714C112.453 21.2714 113.342 21.3984 114.167 21.6523C114.992 21.9063 115.754 22.2873 116.326 22.8588C116.961 23.3668 117.405 24.0017 117.786 24.7637C118.104 25.5256 118.294 26.3511 118.294 27.3035C118.294 28.256 118.167 28.764 117.977 29.3989C117.786 30.0339 117.532 30.6054 117.151 31.1133C116.834 31.6213 116.389 32.0658 115.881 32.5103C115.373 32.8912 114.865 33.2087 114.231 33.5262L119.628 41.1458C119.882 41.5268 120.136 41.8443 120.39 42.1618C120.644 42.4157 120.834 42.6697 121.025 42.8602C121.215 43.0507 121.469 43.2412 121.66 43.3682C121.85 43.4952 122.041 43.6222 122.231 43.6857H117.786C117.786 43.4952 117.659 43.2412 117.469 42.9237C117.278 42.6062 117.088 42.2887 116.897 41.9713L111.437 34.2882C110.929 34.2882 110.421 34.3517 109.849 34.3517C109.278 34.3517 108.77 34.3517 108.198 34.2247V37.717L108.452 37.6535ZM108.452 33.0182C109.468 33.2087 110.357 33.2087 111.246 33.0817C112.072 32.9547 112.834 32.6373 113.405 32.1928C113.977 31.7483 114.485 31.1133 114.802 30.3514C115.119 29.5894 115.31 28.637 115.31 27.494C115.31 26.3511 115.246 26.0336 115.056 25.3986C114.865 24.7637 114.612 24.2557 114.294 23.8112C113.977 23.3668 113.532 23.0493 112.961 22.7953C112.453 22.5413 111.818 22.4143 111.119 22.4143C110.421 22.4143 110.294 22.4143 109.976 22.4143C109.659 22.4143 109.341 22.4778 109.151 22.5413C108.897 22.5413 108.643 22.6683 108.516 22.7318V32.9547L108.452 33.0182Z" fill="black"/>
<path d="M134.041 21.2079C135.756 21.2079 137.343 21.4619 138.804 22.0333C140.264 22.6048 141.534 23.3668 142.613 24.3827C143.693 25.3987 144.518 26.6051 145.09 28.0655C145.661 29.4624 145.979 31.0499 145.979 32.7643C145.979 34.4787 145.852 34.7327 145.661 35.6851C145.407 36.6376 145.09 37.5265 144.645 38.352C144.201 39.1774 143.693 40.0029 143.058 40.7014C142.423 41.3998 141.661 42.0348 140.899 42.5428C140.074 43.0507 139.185 43.4952 138.169 43.7492C137.153 44.0667 136.137 44.1937 134.994 44.1937C133.279 44.1937 131.692 43.9397 130.232 43.3682C128.771 42.7967 127.501 42.0348 126.422 41.0188C125.342 40.0029 124.517 38.7965 123.945 37.3995C123.374 36.0026 123.057 34.4152 123.057 32.7008C123.057 30.9864 123.184 30.7324 123.374 29.7799C123.628 28.8275 123.945 27.9385 124.39 27.0496C124.834 26.2241 125.342 25.3987 125.977 24.7002C126.612 24.0017 127.311 23.3668 128.136 22.8588C128.962 22.3508 129.851 21.9063 130.867 21.6524C131.883 21.3349 132.962 21.2079 134.105 21.2079H134.041ZM134.93 42.7967C136.073 42.7967 137.089 42.6063 138.042 42.1618C138.994 41.7808 139.82 41.1458 140.518 40.3839C141.217 39.6219 141.725 38.6695 142.106 37.5265C142.486 36.3836 142.677 35.1136 142.677 33.6532C142.677 32.1928 142.486 30.6054 142.106 29.2085C141.725 27.875 141.217 26.6686 140.455 25.6527C139.756 24.6367 138.804 23.8747 137.788 23.3033C136.708 22.7318 135.438 22.4778 134.041 22.4778C132.645 22.4778 131.883 22.6683 130.93 23.1128C129.978 23.4938 129.152 24.1287 128.454 24.8907C127.755 25.6526 127.247 26.6051 126.866 27.748C126.485 28.891 126.295 30.1609 126.295 31.5578C126.295 32.9548 126.485 34.6057 126.866 36.0026C127.247 37.3995 127.755 38.5425 128.517 39.5584C129.216 40.5744 130.168 41.3363 131.248 41.9078C132.327 42.4793 133.597 42.7967 134.994 42.7967H134.93Z" fill="black"/>
<path d="M158.678 25.0811H158.361C158.297 24.8272 158.17 24.5732 157.98 24.2557C157.789 23.9382 157.535 23.6842 157.281 23.4302C156.964 23.1762 156.646 22.9223 156.202 22.7953C155.757 22.6048 155.313 22.5413 154.741 22.5413C154.17 22.5413 153.789 22.6048 153.408 22.7953C153.027 22.9858 152.709 23.1762 152.455 23.4302C152.201 23.6842 152.011 24.0652 151.884 24.4462C151.757 24.8272 151.693 25.2716 151.693 25.7161C151.693 26.4781 151.884 27.1765 152.328 27.8115C152.773 28.51 153.281 29.1449 153.916 29.8434C154.551 30.4784 155.249 31.1768 155.948 31.8118C156.71 32.4468 157.345 33.1452 157.98 33.8437C158.615 34.5421 159.123 35.3041 159.567 36.0661C160.012 36.828 160.202 37.6535 160.202 38.6059C160.202 39.5584 160.075 39.9394 159.885 40.6378C159.631 41.3363 159.313 41.9078 158.805 42.4792C158.297 42.9872 157.726 43.4317 156.964 43.8126C156.202 44.1301 155.313 44.3206 154.233 44.3206C153.154 44.3206 153.09 44.3206 152.582 44.1301C152.074 44.0031 151.566 43.8761 151.122 43.7492C150.678 43.5587 150.297 43.4317 149.916 43.2412C149.535 43.0507 149.281 42.8602 149.027 42.7332L149.408 39.3044H149.789C149.916 39.8124 150.106 40.2568 150.36 40.7013C150.614 41.1458 150.932 41.5268 151.312 41.8443C151.693 42.1617 152.138 42.4157 152.582 42.6697C153.09 42.8602 153.598 42.9872 154.17 42.9872C154.741 42.9872 155.186 42.9237 155.567 42.7332C156.011 42.5427 156.329 42.3522 156.646 42.0982C156.964 41.8443 157.154 41.4633 157.345 41.0823C157.535 40.7013 157.599 40.2568 157.599 39.8124C157.599 39.3679 157.472 38.5424 157.218 38.0345C156.964 37.463 156.646 36.955 156.265 36.447C155.884 35.9391 155.44 35.4946 154.932 34.9866C154.424 34.5421 153.916 34.0342 153.408 33.5897C152.9 33.1452 152.392 32.6372 151.884 32.1293C151.376 31.6213 150.932 31.1133 150.551 30.5419C150.17 29.9704 149.852 29.3989 149.598 28.7639C149.344 28.129 149.217 27.4305 149.217 26.6686C149.217 25.9066 149.344 25.1446 149.662 24.4462C149.979 23.8112 150.424 23.2397 150.932 22.7953C151.439 22.3508 152.011 21.9698 152.709 21.7158C153.344 21.4618 154.043 21.3348 154.741 21.3348C155.44 21.3348 155.757 21.3348 156.138 21.4618C156.583 21.5253 156.964 21.6523 157.281 21.7793C157.599 21.9063 157.916 22.0333 158.17 22.0968C158.424 22.2238 158.615 22.2873 158.805 22.3508L158.678 25.2716V25.0811Z" fill="black"/>
<path d="M181.791 24.9541H181.664C180.839 24.2557 179.886 23.6842 178.743 23.2397C177.6 22.7953 176.394 22.6048 174.997 22.6048C173.6 22.6048 172.52 22.7953 171.441 23.2397C170.362 23.6207 169.409 24.2557 168.647 25.0176C167.885 25.7796 167.25 26.7321 166.806 27.875C166.361 29.0179 166.171 30.2879 166.171 31.6848C166.171 33.0817 166.361 34.7326 166.806 36.1296C167.187 37.5265 167.822 38.6694 168.647 39.6854C169.473 40.7013 170.489 41.4633 171.695 42.0347C172.901 42.6062 174.362 42.9237 175.949 42.9237C177.537 42.9237 177.156 42.9237 177.727 42.7332C178.299 42.6062 178.87 42.4157 179.442 42.1617C180.013 41.9078 180.521 41.6538 180.966 41.2728C181.473 40.9553 181.854 40.5108 182.299 40.0663L182.489 40.1933L181.283 43.3682C180.521 43.6857 179.632 43.8761 178.743 44.0666C177.791 44.2571 176.838 44.3206 175.949 44.3206C174.044 44.3206 172.33 44.0666 170.743 43.4952C169.155 42.9237 167.822 42.1617 166.679 41.1458C165.536 40.1298 164.647 38.9234 164.012 37.5265C163.377 36.1296 163.059 34.5421 163.059 32.8277C163.059 31.1133 163.186 30.8593 163.44 29.9069C163.694 28.9544 164.075 28.0655 164.52 27.1765C165.028 26.3511 165.599 25.5256 166.298 24.8272C166.996 24.1287 167.822 23.4937 168.711 22.9858C169.6 22.4778 170.616 22.0333 171.695 21.7793C172.774 21.4618 173.981 21.3348 175.251 21.3348C177.219 21.3348 179.061 21.6523 180.775 22.2238L181.854 25.0811L181.791 24.9541Z" fill="black"/>
<path d="M195.379 21.2079C197.094 21.2079 198.681 21.4619 200.141 22.0333C201.602 22.6048 202.872 23.3668 203.951 24.3827C205.031 25.3987 205.856 26.6051 206.428 28.0655C206.999 29.4624 207.317 31.0499 207.317 32.7643C207.317 34.4787 207.19 34.7327 206.999 35.6851C206.745 36.6376 206.428 37.5265 205.983 38.352C205.539 39.1774 205.031 40.0029 204.396 40.7014C203.761 41.3998 202.999 42.0348 202.237 42.5428C201.411 43.0507 200.522 43.4952 199.506 43.7492C198.49 44.0667 197.475 44.1937 196.332 44.1937C194.617 44.1937 193.03 43.9397 191.569 43.3682C190.109 42.7967 188.839 42.0348 187.76 41.0188C186.68 40.0029 185.855 38.7965 185.283 37.3995C184.712 36.0026 184.394 34.4152 184.394 32.7008C184.394 30.9864 184.521 30.7324 184.712 29.7799C184.966 28.8275 185.283 27.9385 185.728 27.0496C186.172 26.2241 186.68 25.3987 187.315 24.7002C187.95 24.0017 188.649 23.3668 189.474 22.8588C190.299 22.3508 191.188 21.9063 192.204 21.6524C193.22 21.3349 194.3 21.2079 195.443 21.2079H195.379ZM196.268 42.7967C197.411 42.7967 198.427 42.6063 199.379 42.1618C200.332 41.7808 201.157 41.1458 201.856 40.3839C202.554 39.6219 203.062 38.6695 203.443 37.5265C203.824 36.3836 204.015 35.1136 204.015 33.6532C204.015 32.1928 203.824 30.6054 203.443 29.2085C203.062 27.875 202.554 26.6686 201.792 25.6527C201.094 24.6367 200.141 23.8747 199.125 23.3033C198.046 22.7318 196.776 22.4778 195.379 22.4778C193.982 22.4778 193.22 22.6683 192.268 23.1128C191.315 23.4938 190.49 24.1287 189.791 24.8907C189.093 25.6526 188.585 26.6051 188.204 27.748C187.823 28.891 187.633 30.1609 187.633 31.5578C187.633 32.9548 187.823 34.6057 188.204 36.0026C188.585 37.3995 189.093 38.5425 189.855 39.5584C190.553 40.5744 191.506 41.3363 192.585 41.9078C193.665 42.4793 194.935 42.7967 196.332 42.7967H196.268Z" fill="black"/>
<path d="M210.809 21.5253C210.999 21.5253 211.253 21.5253 211.444 21.5253C211.634 21.5253 211.888 21.5253 212.079 21.5253C212.333 21.5253 212.587 21.5253 212.841 21.5253C213.222 21.5253 213.793 21.5253 214.492 21.3984C215.19 21.2714 216.079 21.2714 217.095 21.2714C218.111 21.2714 219 21.3984 219.825 21.7158C220.651 22.0333 221.413 22.4143 221.984 22.9858C222.619 23.5572 223.064 24.1922 223.445 25.0177C223.826 25.8431 223.953 26.7321 223.953 27.748C223.953 28.764 223.699 30.2879 223.127 31.3038C222.556 32.3198 221.857 33.0817 220.905 33.7167C220.016 34.3517 218.936 34.7326 217.73 34.9866C216.524 35.1771 215.254 35.2406 213.984 34.9866V37.5265C213.984 38.4155 213.984 39.1774 213.984 39.8124C213.984 40.4473 213.984 41.0188 214.047 41.5268C214.047 41.9713 214.111 42.4157 214.174 42.7332C214.174 43.0507 214.301 43.3047 214.365 43.5587H210.682C210.682 43.3047 210.809 42.9872 210.872 42.6697C210.872 42.3522 210.999 41.9713 210.999 41.4633C210.999 41.0188 211.063 40.4473 211.063 39.7489C211.063 39.0504 211.063 38.352 211.063 37.463V27.4305C211.063 26.5416 211.063 25.7796 211.063 25.1447C211.063 24.5097 211.063 23.9382 210.999 23.4302C210.999 22.9223 210.936 22.5413 210.872 22.2238C210.809 21.9063 210.745 21.6523 210.682 21.3984L210.809 21.5253ZM214.047 33.9072C215.063 34.0977 215.952 34.0977 216.841 33.9072C217.667 33.7802 218.428 33.4627 219 32.9547C219.571 32.4468 220.079 31.8118 220.397 30.9863C220.714 30.1609 220.905 29.1449 220.905 27.9385C220.905 26.7321 220.841 26.3511 220.651 25.6526C220.46 24.9542 220.206 24.3827 219.889 23.8747C219.571 23.3668 219.127 23.0493 218.555 22.7318C218.048 22.4778 217.413 22.3508 216.714 22.3508C216.016 22.3508 215.889 22.3508 215.571 22.3508C215.254 22.3508 214.936 22.4143 214.746 22.4778C214.492 22.4778 214.238 22.6048 214.111 22.6683V33.8437L214.047 33.9072Z" fill="black"/>
<path d="M230.874 21.5253C232.144 21.5253 233.287 21.5253 234.366 21.5253C235.446 21.5253 236.335 21.5253 237.097 21.4618C237.858 21.4618 238.366 21.3983 238.62 21.3348L237.858 23.3667C237.541 23.3032 237.097 23.1762 236.652 23.1127C236.271 23.1127 235.763 22.9858 235.192 22.9223C234.62 22.9223 233.985 22.8588 233.223 22.8588C232.461 22.8588 232.652 22.8588 232.334 22.8588C232.017 22.8588 231.636 22.8588 231.318 22.8588C230.937 22.8588 230.556 22.8588 230.175 22.8588V31.3038C231.255 31.3038 232.207 31.3038 233.033 31.2403C233.858 31.2403 234.62 31.1133 235.192 31.1133C235.89 31.1133 236.525 30.9863 237.033 30.9228L236.525 33.1452C235.827 33.0817 235.065 32.9547 234.366 32.8912C233.731 32.8277 233.033 32.7642 232.271 32.7007C231.509 32.7007 230.81 32.6372 230.112 32.6372V42.3522C231.318 42.3522 232.461 42.3522 233.477 42.2252C234.493 42.0982 235.382 42.0347 236.144 41.8443C237.033 41.7173 237.858 41.5268 238.557 41.3363L238.112 43.8127C237.985 43.8127 237.795 43.8127 237.541 43.8127C237.287 43.8127 237.033 43.8127 236.716 43.8127C236.398 43.8127 236.081 43.8127 235.763 43.8127C235.446 43.8127 235.128 43.8127 234.811 43.8127C234.493 43.8127 234.239 43.8127 233.985 43.8127C233.731 43.8127 233.604 43.8127 233.477 43.8127H226.81C226.81 43.5587 226.937 43.2412 227.001 42.9237C227.001 42.6062 227.128 42.2252 227.128 41.7173C227.128 41.2728 227.191 40.7013 227.191 40.0029C227.191 39.3044 227.191 38.6059 227.191 37.717V27.6845C227.191 26.7956 227.191 26.0336 227.191 25.3986C227.191 24.7637 227.191 24.1922 227.128 23.6842C227.128 23.1762 227.064 22.7953 227.001 22.4778C226.937 22.1603 226.874 21.9063 226.81 21.6523C228.08 21.6523 229.35 21.5888 230.683 21.5888L230.874 21.5253Z" fill="black"/>
<path d="M247.446 5.27022C247.002 4.82574 246.43 4.88924 245.859 5.52421C245.415 6.03218 245.351 6.54015 245.732 6.98463L245.922 7.23862L245.288 8.76254C245.288 8.82603 245.288 8.95303 245.161 9.01652C244.97 9.461 244.78 9.90548 244.526 10.4769C244.272 10.9849 244.081 11.4929 243.891 11.8739C243.637 12.3818 243.383 13.0168 243.129 13.5883C243.002 13.7153 242.875 13.9058 242.875 14.2232C242.748 14.5407 242.621 14.8582 242.494 15.1757C242.24 15.4297 241.859 15.8107 241.351 16.2551C239.827 17.4616 238.747 18.0965 238.112 18.0965C237.477 18.0965 237.795 18.033 237.668 17.8426C237.477 17.6521 237.414 17.3346 237.414 17.0171C237.414 16.5091 237.541 15.8107 237.795 14.9852C237.922 14.6042 238.049 14.2867 238.239 14.0963C238.43 13.9058 238.493 13.5883 238.493 13.1438C238.493 12.6993 238.493 12.8898 238.43 12.8263C238.112 12.3183 237.604 12.0644 236.969 12.0644C235.954 12.0644 234.938 12.6358 233.985 13.7153C233.604 14.1597 233.414 14.6042 233.287 15.0487C233.096 15.3027 232.906 15.4932 232.652 15.6837C232.207 16.0012 231.763 16.1916 231.318 16.1916C230.874 16.1916 231.064 16.1916 230.937 16.1916C230.81 16.1916 230.683 16.1916 230.62 16.1916C230.556 16.1916 230.493 16.1916 230.366 16.3186C230.239 16.3186 230.239 16.4456 230.175 16.5726C229.921 16.8901 229.54 17.2711 229.159 17.6521C228.715 18.033 228.334 18.3505 227.953 18.541C227.572 18.795 227.318 18.922 227.128 18.922C226.937 18.922 227.001 18.795 227.001 18.541C227.001 18.287 227.001 17.8426 227.128 17.3346C227.254 16.4456 227.445 15.6837 227.635 15.2392V15.1122C227.635 14.9852 227.635 14.9217 227.508 14.8582C227.381 14.7947 227.254 14.7312 227.128 14.7312C226.556 14.7947 225.985 15.2392 225.286 16.1281C224.651 16.9536 224.016 17.8426 223.445 18.7315C222.619 20.0649 222.048 20.7634 221.794 20.8269V20.4459C221.794 19.811 221.857 19.176 222.048 18.414C222.429 16.8266 222.937 15.8742 223.445 15.5567C223.953 15.1757 224.207 14.8582 224.207 14.5407C224.207 14.2232 224.016 13.8423 223.572 13.8423C223.191 13.8423 222.81 14.2232 222.429 14.9217C222.048 15.6202 221.667 16.4456 221.413 17.3981C221.159 18.3505 220.968 19.049 220.968 19.4935C220.968 19.9379 220.968 20.1919 220.968 20.1919C220.968 20.8904 221.159 21.3984 221.476 21.6524C221.54 21.6524 221.603 21.6524 221.73 21.6524C222.048 21.6524 222.365 21.3984 222.81 20.8904C223.318 20.2554 223.889 19.4935 224.461 18.668C225.413 17.1441 226.175 16.1916 226.683 15.8107C226.62 16.0012 226.493 16.3821 226.429 16.9536C226.302 17.5251 226.239 18.16 226.239 18.7315C226.239 19.303 226.366 19.684 226.62 19.811H226.81C227.381 19.811 228.016 19.557 228.715 19.049C229.54 18.4775 230.175 17.8426 230.747 17.1441C230.81 17.1441 230.937 17.1441 231.001 17.1441C231.318 17.1441 231.699 17.0806 232.207 16.8901C232.525 16.7631 232.906 16.6361 233.16 16.4456C233.287 16.7631 233.541 16.8901 233.858 16.8901C234.43 16.8901 235.255 16.3821 236.335 15.4297C236.779 14.9852 237.033 14.7947 237.096 14.7947C236.842 15.7472 236.715 16.5091 236.715 17.0806C236.715 17.6521 236.969 18.414 237.541 18.7315C237.668 18.795 237.858 18.8585 238.112 18.8585C238.366 18.8585 238.62 18.8585 238.811 18.7315C239.192 18.6045 239.763 18.287 240.525 17.7791C240.97 17.4616 241.414 17.1441 241.922 16.7631C241.224 18.541 240.589 20.2554 240.017 21.9698C239.446 23.7477 239.128 25.2082 239.128 26.2876C239.128 27.1766 239.382 27.6845 239.89 27.9385C240.208 28.0655 240.462 28.002 240.652 27.875C240.843 27.748 240.97 27.494 240.97 27.1766C240.97 26.8591 240.97 26.9226 240.906 26.8591C240.906 26.7956 240.779 26.6686 240.652 26.4781L240.271 26.0971L240.398 25.2082C240.589 23.4938 241.033 21.5889 241.795 19.4935C242.24 18.2235 242.748 16.9536 243.256 15.7472C243.51 15.4932 243.7 15.3662 243.827 15.3027C244.081 15.1757 244.208 14.8582 244.208 14.4772C244.208 14.0963 244.208 14.2232 244.145 14.0328C244.145 14.0328 244.145 13.9693 244.081 13.9058C244.208 13.6518 244.272 13.4613 244.399 13.2073C245.351 11.1119 246.176 9.334 247.002 7.74659C247.256 7.23862 247.446 6.79414 247.573 6.54015C247.7 6.28617 247.764 6.03218 247.764 5.84169C247.764 5.7147 247.7 5.52421 247.573 5.46071L247.446 5.27022ZM236.588 13.7788C236.462 14.0328 236.081 14.4772 235.446 15.0487C234.684 15.6837 234.176 16.0646 233.922 16.0646C233.668 16.0646 233.795 16.0646 233.731 15.9377C233.795 15.8742 233.858 15.8107 233.985 15.7472C234.493 15.2392 234.747 14.9852 234.747 14.9217C234.874 14.7947 234.938 14.6677 234.938 14.4772C234.938 14.2867 234.874 14.1598 234.747 14.0328C234.938 13.8423 235.192 13.6518 235.509 13.4613C235.89 13.2073 236.144 13.1438 236.335 13.1438C236.525 13.1438 236.652 13.2708 236.652 13.4613C236.652 13.6518 236.652 13.7788 236.652 13.8423L236.588 13.7788Z" fill="#EF6800"/>
<path d="M245.288 19.0489C245.161 19.0489 245.034 19.0489 244.843 19.0489C243.954 18.9219 243.446 18.4139 243.319 17.652V17.525C243.319 16.6995 243.764 15.7471 244.589 14.6676C245.415 13.6517 246.304 12.9532 247.256 12.6992H247.383C247.51 12.6992 247.637 12.6992 247.764 12.8262C248.208 13.0802 248.399 13.5247 248.399 14.1596C248.399 14.7946 248.272 14.9851 248.018 15.4931C247.764 16.001 247.383 16.4455 246.939 16.8265C246.748 16.9535 246.558 17.0805 246.367 17.0805C246.177 17.0805 245.923 16.9535 245.796 16.6995C245.796 16.636 245.732 16.5725 245.732 16.509C245.732 16.4455 245.732 16.3185 245.732 16.1915C245.732 16.0645 245.732 15.8741 245.732 15.6836V15.3661C245.732 14.9216 245.732 14.7311 245.605 14.7311C245.478 14.7311 245.478 14.7311 245.415 14.8581C244.97 15.3026 244.589 15.8106 244.335 16.4455C244.145 16.89 244.018 17.271 244.018 17.525C244.018 18.0329 244.462 18.2869 245.415 18.2869C246.367 18.2869 247.51 17.8424 248.97 17.017C249.923 16.4455 250.812 15.8741 251.574 15.1756C252.272 14.5406 252.717 14.0961 252.78 13.7787C252.78 13.6517 252.907 13.5247 252.971 13.4612C253.098 13.2707 253.288 13.1437 253.542 13.1437C253.796 13.1437 253.923 13.2072 254.177 13.3342C254.495 13.4612 254.622 13.7152 254.622 14.0326C254.622 14.3501 254.368 14.6041 253.923 14.8581C253.733 14.9851 253.161 15.3026 252.272 15.8741C249.669 17.652 247.7 18.6044 246.431 18.8584C245.923 18.9854 245.542 19.0489 245.224 19.0489H245.288ZM246.812 15.7471C247.32 15.0486 247.637 14.4771 247.637 13.9692C247.637 13.4612 247.573 13.5247 247.446 13.5247C247.32 13.5247 247.319 13.5882 247.319 13.7787V14.2231C247.319 14.4136 247.319 14.6041 247.192 14.7946C247.066 15.0486 247.002 15.2391 246.939 15.4296V15.6836L246.812 15.7471Z" fill="#EF6800"/>
<path d="M70.7353 50.0353H69.2749V51.4322H70.9258V51.8767H68.7669V48.0669H70.7988V48.5114H69.2114V49.7178H70.6718V50.0988L70.7353 50.0353Z" fill="#58595B"/>
<path d="M76.0056 50.1623C76.0056 49.6543 76.0056 49.0193 76.0056 48.5114C75.8786 48.9559 75.6881 49.4638 75.4976 49.9718L74.7991 51.8132H74.4181L73.7832 49.9718C73.5927 49.4638 73.4657 48.9559 73.3387 48.5114C73.3387 48.9559 73.3387 49.6543 73.2752 50.2258L73.1482 51.8767H72.7037L72.9577 48.0669H73.5927L74.2277 49.9083C74.3546 50.3528 74.5451 50.7973 74.6086 51.1782C74.7356 50.7973 74.8626 50.3528 74.9896 49.9083L75.6881 48.0669H76.323L76.577 51.8767H76.0691L75.9421 50.2258L76.0056 50.1623Z" fill="#58595B"/>
<path d="M78.5454 48.0669C78.7994 48.0669 79.1169 48.0034 79.4979 48.0034C79.8788 48.0034 80.3233 48.1304 80.5773 48.3209C80.7678 48.5114 80.8948 48.7654 80.8948 49.1464C80.8948 49.5273 80.7678 49.7813 80.5773 49.9718C80.3233 50.2258 79.8788 50.4163 79.4344 50.4163C78.9899 50.4163 79.1804 50.4163 79.0534 50.4163V51.9402H78.5454V48.1939V48.0669ZM79.0534 49.9083C79.1804 49.9083 79.3074 49.9083 79.4344 49.9083C80.0058 49.9083 80.3868 49.5908 80.3868 49.0829C80.3868 48.5749 80.0058 48.3209 79.4979 48.3209C78.9899 48.3209 79.1169 48.3209 79.0534 48.3209V49.7813V49.9083Z" fill="#58595B"/>
<path d="M86.1015 49.8449C86.1015 51.1783 85.276 51.8767 84.3236 51.8767C83.3711 51.8767 82.6092 51.1148 82.6092 49.9084C82.6092 48.7019 83.3711 47.8765 84.3871 47.8765C85.403 47.8765 86.1015 48.7019 86.1015 49.7814V49.8449ZM83.1172 49.9084C83.1172 50.7338 83.5616 51.4323 84.3236 51.4323C85.0856 51.4323 85.53 50.7338 85.53 49.8449C85.53 48.9559 85.1491 48.3209 84.3236 48.3209C83.4981 48.3209 83.1172 49.0829 83.1172 49.9084Z" fill="#58595B"/>
<path d="M88.5779 51.8132L87.6254 48.0034H88.1334L88.5779 49.9083C88.7049 50.3528 88.7684 50.8608 88.8319 51.2417C88.8319 50.8608 89.0223 50.4163 89.1493 49.9083L89.6573 48.0034H90.1653L90.6098 49.9718C90.7368 50.4163 90.8003 50.8608 90.8638 51.3052C90.9273 50.8608 91.0542 50.4798 91.1812 49.9718L91.6892 48.0669H92.1972L91.1177 51.8767H90.6098L90.1018 49.9083C89.9748 49.4003 89.9113 49.0194 89.8478 48.6384C89.7843 49.0194 89.7208 49.4003 89.5303 49.9083L88.9589 51.8767H88.4509L88.5779 51.8132Z" fill="#58595B"/>
<path d="M96.007 50.0353H94.5465V51.4322H96.1975V51.8767H94.0386V48.0669H96.0705V48.5114H94.483V49.7178H95.9435V50.0988L96.007 50.0353Z" fill="#58595B"/>
<path d="M98.0389 48.0669C98.2929 48.0669 98.6738 48.0034 98.9913 48.0034C99.4993 48.0034 99.8803 48.1304 100.071 48.3209C100.261 48.5114 100.388 48.7654 100.388 49.0194C100.388 49.5273 100.071 49.8448 99.6898 49.9718C100.007 50.0988 100.134 50.3528 100.261 50.7338C100.388 51.2417 100.452 51.6227 100.579 51.8132H100.071C100.071 51.6862 99.9438 51.3687 99.8168 50.9243C99.6898 50.4163 99.4993 50.2258 99.0548 50.1623H98.6104V51.8132H98.1024V48.0669H98.0389ZM98.5469 49.7813H99.0548C99.5628 49.7813 99.9438 49.4638 99.9438 49.0829C99.9438 48.7019 99.5628 48.3844 99.0548 48.3844C98.8008 48.3844 98.6738 48.3844 98.5469 48.3844V49.7813Z" fill="#58595B"/>
<path d="M102.801 48.0034V51.8132H102.293V48.0034H102.801Z" fill="#58595B"/>
<path d="M104.96 51.8132V48.0034H105.468L106.674 49.9083C106.928 50.3528 107.182 50.7338 107.373 51.1782C107.373 50.6703 107.373 50.2258 107.373 49.5908V48.0034H107.817V51.8132H107.309L106.103 49.8448C105.849 49.4003 105.595 48.9559 105.404 48.5749C105.404 49.0829 105.404 49.5273 105.404 50.1623V51.8132H104.96Z" fill="#58595B"/>
<path d="M112.834 51.6227C112.643 51.6862 112.199 51.8132 111.691 51.8132C111.183 51.8132 110.611 51.6862 110.294 51.3053C109.976 50.9878 109.786 50.4798 109.786 49.9083C109.786 48.7654 110.548 47.9399 111.881 47.9399C113.215 47.9399 112.643 48.0669 112.834 48.1304L112.707 48.5114C112.516 48.4479 112.262 48.3209 111.881 48.3209C110.929 48.3209 110.357 48.8924 110.357 49.8448C110.357 50.7973 110.929 51.3688 111.818 51.3688C112.707 51.3688 112.389 51.3688 112.453 51.2418V50.0988H111.691V49.7178H112.961V51.5592L112.834 51.6227Z" fill="#58595B"/>
<path d="M117.723 51.8132V50.1623L116.516 47.9399H117.088L117.596 49.0194C117.723 49.3369 117.85 49.5274 117.977 49.7813C118.104 49.5274 118.231 49.2734 118.358 49.0194L118.929 47.9399H119.501L118.231 50.1623V51.8132H117.723Z" fill="#58595B"/>
<path d="M124.263 49.8449C124.263 51.1783 123.437 51.8767 122.485 51.8767C121.533 51.8767 120.771 51.1148 120.771 49.9084C120.771 48.7019 121.533 47.8765 122.549 47.8765C123.564 47.8765 124.263 48.7019 124.263 49.7814V49.8449ZM121.279 49.9084C121.279 50.7338 121.723 51.4323 122.485 51.4323C123.247 51.4323 123.691 50.7338 123.691 49.8449C123.691 48.9559 123.31 48.3209 122.485 48.3209C121.66 48.3209 121.279 49.0829 121.279 49.9084Z" fill="#58595B"/>
<path d="M126.612 48.0034V50.2893C126.612 51.1148 126.993 51.4957 127.501 51.4957C128.009 51.4957 128.454 51.1148 128.454 50.2893V48.0034H128.962V50.2258C128.962 51.3687 128.327 51.8767 127.501 51.8767C126.676 51.8767 126.104 51.4322 126.104 50.2258V48.0034H126.612Z" fill="#58595B"/>
<path d="M133.787 51.8132L132.835 48.0034H133.343L133.787 49.9083C133.914 50.3528 133.978 50.8608 134.041 51.2417C134.041 50.8608 134.232 50.4163 134.359 49.9083L134.867 48.0034H135.375L135.819 49.9718C135.946 50.4163 136.01 50.8608 136.073 51.3052C136.137 50.8608 136.264 50.4798 136.391 49.9718L136.899 48.0669H137.407L136.327 51.8767H135.819L135.311 49.9083C135.184 49.4003 135.121 49.0194 135.057 48.6384C134.994 49.0194 134.93 49.4003 134.74 49.9083L134.168 51.8767H133.66L133.787 51.8132Z" fill="#58595B"/>
<path d="M139.693 48.0034V51.8132H139.185V48.0034H139.693Z" fill="#58595B"/>
<path d="M142.55 48.4479H141.407V48.0034H144.264V48.4479H143.122V51.8767H142.614V48.4479H142.55Z" fill="#58595B"/>
<path d="M146.36 48.0034V49.5908H148.201V48.0034H148.709V51.8132H148.201V50.0353H146.36V51.8132H145.852V48.0034H146.36Z" fill="#58595B"/>
<path d="M153.789 50.6068L153.408 51.8132H152.9L154.17 48.0034H154.741L156.075 51.8132H155.567L155.186 50.6068H153.852H153.789ZM154.995 50.2258L154.614 49.1464C154.551 48.8924 154.487 48.7019 154.424 48.4479C154.424 48.7019 154.297 48.8924 154.233 49.1464L153.852 50.2258H154.995Z" fill="#58595B"/>
<path d="M157.789 51.2417C157.98 51.3687 158.361 51.4957 158.678 51.4957C159.186 51.4957 159.504 51.2417 159.504 50.8608C159.504 50.4798 159.313 50.2893 158.805 50.0988C158.17 49.9083 157.789 49.5273 157.789 49.0194C157.789 48.5114 158.297 48.0034 158.996 48.0034C159.694 48.0034 159.694 48.0669 159.821 48.1939L159.694 48.5749C159.567 48.5114 159.313 48.3844 158.996 48.3844C158.488 48.3844 158.297 48.7019 158.297 48.9559C158.297 49.2099 158.551 49.4638 159.059 49.7178C159.694 49.9718 160.012 50.2893 160.012 50.8608C160.012 51.4322 159.567 51.9402 158.678 51.9402C157.789 51.9402 157.916 51.8132 157.726 51.6862L157.853 51.2417H157.789Z" fill="#58595B"/>
<path d="M162.615 48.4479H161.472V48.0034H164.329V48.4479H163.186V51.8767H162.678V48.4479H162.615Z" fill="#58595B"/>
<path d="M165.98 48.0669C166.234 48.0669 166.615 48.0034 166.933 48.0034C167.441 48.0034 167.822 48.1304 168.012 48.3209C168.203 48.5114 168.33 48.7654 168.33 49.0194C168.33 49.5273 168.012 49.8448 167.631 49.9718C167.949 50.0988 168.076 50.3528 168.203 50.7338C168.33 51.2417 168.393 51.6227 168.52 51.8132H168.012C168.012 51.6862 167.885 51.3687 167.758 50.9243C167.631 50.4163 167.441 50.2258 166.996 50.1623H166.552V51.8132H166.044V48.0669H165.98ZM166.425 49.7813H166.933C167.441 49.7813 167.822 49.4638 167.822 49.0829C167.822 48.7019 167.441 48.3844 166.933 48.3844C166.679 48.3844 166.552 48.3844 166.425 48.3844V49.7813Z" fill="#58595B"/>
<path d="M173.536 49.8449C173.536 51.1783 172.711 51.8767 171.758 51.8767C170.806 51.8767 170.044 51.1148 170.044 49.9084C170.044 48.7019 170.806 47.8765 171.822 47.8765C172.838 47.8765 173.536 48.7019 173.536 49.7814V49.8449ZM170.552 49.9084C170.552 50.7338 170.997 51.4323 171.758 51.4323C172.52 51.4323 172.965 50.7338 172.965 49.8449C172.965 48.9559 172.584 48.3209 171.758 48.3209C170.933 48.3209 170.552 49.0829 170.552 49.9084Z" fill="#58595B"/>
<path d="M175.441 48.0034H175.949V51.4322H177.6V51.8767H175.505V48.0669L175.441 48.0034Z" fill="#58595B"/>
<path d="M182.362 49.8449C182.362 51.1783 181.537 51.8767 180.584 51.8767C179.632 51.8767 178.87 51.1148 178.87 49.9084C178.87 48.7019 179.632 47.8765 180.648 47.8765C181.664 47.8765 182.362 48.7019 182.362 49.7814V49.8449ZM179.442 49.9084C179.442 50.7338 179.886 51.4323 180.648 51.4323C181.41 51.4323 181.854 50.7338 181.854 49.8449C181.854 48.9559 181.473 48.3209 180.648 48.3209C179.822 48.3209 179.442 49.0829 179.442 49.9084Z" fill="#58595B"/>
<path d="M187.188 51.6227C186.998 51.6862 186.553 51.8132 186.045 51.8132C185.537 51.8132 184.966 51.6862 184.648 51.3053C184.331 50.9878 184.14 50.4798 184.14 49.9083C184.14 48.7654 184.902 47.9399 186.236 47.9399C187.569 47.9399 186.998 48.0669 187.188 48.1304L187.061 48.5114C186.871 48.4479 186.617 48.3209 186.236 48.3209C185.283 48.3209 184.712 48.8924 184.712 49.8448C184.712 50.7973 185.283 51.3688 186.172 51.3688C187.061 51.3688 186.744 51.3688 186.807 51.2418V50.0988H186.045V49.7178H187.315V51.5592L187.188 51.6227Z" fill="#58595B"/>
<path d="M190.046 51.8132V50.1623L188.839 47.9399H189.411L189.919 49.0194C190.046 49.3369 190.173 49.5274 190.3 49.7813C190.427 49.5274 190.554 49.2734 190.681 49.0194L191.252 47.9399H191.823L190.554 50.1623V51.8132H190.046Z" fill="#58595B"/>
<path d="M194.109 47.9399C193.982 48.3844 193.728 49.0194 193.601 49.2734H193.284C193.411 48.9559 193.538 48.3844 193.601 48.0034H194.109V47.9399Z" fill="#58595B"/>
<path d="M195.76 51.2417C195.951 51.3687 196.332 51.4957 196.649 51.4957C197.157 51.4957 197.475 51.2417 197.475 50.8608C197.475 50.4798 197.284 50.2893 196.776 50.0988C196.141 49.9083 195.76 49.5273 195.76 49.0194C195.76 48.5114 196.268 48.0034 196.967 48.0034C197.665 48.0034 197.665 48.0669 197.792 48.1939L197.665 48.5749C197.538 48.5114 197.284 48.3844 196.967 48.3844C196.459 48.3844 196.268 48.7019 196.268 48.9559C196.268 49.2099 196.522 49.4638 197.03 49.7178C197.665 49.9718 197.983 50.2893 197.983 50.8608C197.983 51.4322 197.538 51.9402 196.649 51.9402C195.76 51.9402 195.887 51.8132 195.697 51.6862L195.824 51.2417H195.76Z" fill="#58595B"/>
<path d="M202.618 51.8132L201.665 48.0034H202.173L202.618 49.9083C202.745 50.3528 202.808 50.8608 202.872 51.2417C202.872 50.8608 203.062 50.4163 203.189 49.9083L203.697 48.0034H204.205L204.65 49.9718C204.777 50.4163 204.84 50.8608 204.904 51.3052C204.967 50.8608 205.094 50.4798 205.221 49.9718L205.729 48.0669H206.237L205.158 51.8767H204.65L204.142 49.9083C204.015 49.4003 203.951 49.0194 203.888 48.6384C203.824 49.0194 203.761 49.4003 203.57 49.9083L202.999 51.8767H202.491L202.618 51.8132Z" fill="#58595B"/>
<path d="M208.523 48.0034V51.8132H208.015V48.0034H208.523Z" fill="#58595B"/>
<path d="M210.555 51.2417C210.745 51.3687 211.126 51.4957 211.444 51.4957C211.952 51.4957 212.269 51.2417 212.269 50.8608C212.269 50.4798 212.079 50.2893 211.571 50.0988C210.936 49.9083 210.555 49.5273 210.555 49.0194C210.555 48.5114 211.063 48.0034 211.761 48.0034C212.46 48.0034 212.46 48.0669 212.587 48.1939L212.46 48.5749C212.333 48.5114 212.079 48.3844 211.761 48.3844C211.253 48.3844 211.063 48.7019 211.063 48.9559C211.063 49.2099 211.317 49.4638 211.825 49.7178C212.46 49.9718 212.777 50.2893 212.777 50.8608C212.777 51.4322 212.333 51.9402 211.444 51.9402C210.555 51.9402 210.682 51.8132 210.491 51.6862L210.618 51.2417H210.555Z" fill="#58595B"/>
<path d="M214.682 48.0669C215 48.0669 215.317 48.0034 215.762 48.0034C216.46 48.0034 216.968 48.1939 217.286 48.4479C217.603 48.7654 217.794 49.2099 217.794 49.8448C217.794 50.4798 217.603 50.9878 217.222 51.3052C216.841 51.6862 216.27 51.8767 215.508 51.8767C214.746 51.8767 214.873 51.8767 214.619 51.8767V48.1304L214.682 48.0669ZM215.19 51.4322C215.317 51.4322 215.508 51.4322 215.698 51.4322C216.778 51.4322 217.349 50.8608 217.349 49.7813C217.349 48.8924 216.841 48.3209 215.825 48.3209C214.809 48.3209 215.381 48.3209 215.254 48.3209V51.3052L215.19 51.4322Z" fill="#58595B"/>
<path d="M222.937 49.8449C222.937 51.1783 222.111 51.8767 221.159 51.8767C220.206 51.8767 219.444 51.1148 219.444 49.9084C219.444 48.7019 220.206 47.8765 221.222 47.8765C222.238 47.8765 222.937 48.7019 222.937 49.7814V49.8449ZM220.016 49.9084C220.016 50.7338 220.46 51.4323 221.222 51.4323C221.984 51.4323 222.429 50.7338 222.429 49.8449C222.429 48.9559 222.048 48.3209 221.222 48.3209C220.397 48.3209 220.016 49.0829 220.016 49.9084Z" fill="#58595B"/>
<path d="M228.08 50.1623C228.08 49.6543 228.08 49.0193 228.08 48.5114C227.953 48.9559 227.762 49.4638 227.572 49.9718L226.874 51.8132H226.493L225.858 49.9718C225.667 49.4638 225.54 48.9559 225.413 48.5114C225.413 48.9559 225.413 49.6543 225.35 50.2258L225.223 51.8767H224.778L225.032 48.0669H225.667L226.302 49.9083C226.429 50.3528 226.62 50.7973 226.683 51.1782C226.81 50.7973 226.937 50.3528 227.064 49.9083L227.762 48.0669H228.397L228.651 51.8767H228.143L228.016 50.2258L228.08 50.1623Z" fill="#58595B"/>
<path d="M89.8478 30.4149C89.8478 30.4149 89.8478 30.4149 89.9113 30.4784C89.9113 30.4784 89.9113 30.4149 89.9113 30.3514C89.9113 30.3514 89.9113 30.3514 89.7843 30.4149H89.8478ZM95.6895 32.3833C95.8165 32.3833 95.9434 32.2563 96.0069 32.2563C96.0069 32.1928 96.0069 32.1293 96.0069 32.0658C95.8799 32.0658 95.753 32.0658 95.626 32.1293C95.626 32.2563 95.626 32.3198 95.626 32.4468L95.6895 32.3833ZM95.753 31.4308C95.626 31.4308 95.499 31.4943 95.4355 31.6213C95.4355 31.6848 95.372 31.8118 95.4355 31.8753C95.4355 31.9388 95.5625 32.0023 95.6895 31.9388C95.8165 31.9388 95.9434 31.9388 96.0069 31.8118C96.1339 31.8118 96.1339 31.6848 96.1339 31.5578C96.1339 31.4308 95.9435 31.3673 95.753 31.3673V31.4308ZM91.3082 31.7483C91.3082 31.7483 91.3082 31.7483 91.3082 31.6848C91.3082 31.6213 91.3082 31.5578 91.3082 31.4943C91.3082 31.4308 91.3082 31.3673 91.2447 31.3038C91.0542 31.1133 90.8002 30.9863 90.6097 30.8593C90.4827 30.8593 90.4192 30.7324 90.3557 30.6689C90.2288 30.5419 90.1018 30.3514 90.0383 30.2244C90.0383 30.3514 90.0383 30.4784 90.0383 30.6054C90.1653 31.1133 90.4827 31.4943 90.9907 31.6213C91.1177 31.6213 91.2447 31.6848 91.3717 31.7483H91.3082ZM93.0226 30.1609C92.9591 30.1609 92.8956 30.1609 92.8956 30.2244C92.8956 30.4149 92.7051 30.5419 92.5781 30.7324C92.4511 30.8593 92.3241 30.9863 92.1337 31.0498C92.0067 31.0498 91.8797 31.1133 91.7527 31.1768C91.6257 31.1768 91.4987 31.3038 91.4352 31.4308C91.4352 31.4943 91.4352 31.5578 91.4352 31.6213C91.4352 31.7483 91.4352 31.7483 91.5622 31.7483C91.8797 31.7483 92.1971 31.6213 92.5146 31.4308C92.7051 31.3038 92.8321 31.1133 92.8956 30.9228C92.8956 30.7959 92.9591 30.6689 93.0861 30.6689C92.8321 30.4784 92.7686 30.3514 93.0861 30.1609H93.0226ZM88.5143 25.3351C88.5143 25.3986 88.3874 25.5256 88.3239 25.5891C88.1334 25.9066 88.0699 26.2241 88.1334 26.6051C88.1969 26.9226 88.3239 27.1765 88.6413 27.367H88.7048C88.7683 27.24 88.8318 27.113 88.8953 26.9861C88.8953 26.9226 88.8953 26.7956 88.8953 26.7321C88.7048 26.4146 88.6413 26.0971 88.5143 25.7161C88.5143 25.5891 88.5143 25.4621 88.5143 25.2716V25.3351ZM93.9116 27.3035C94.0385 27.24 94.102 27.0495 94.102 26.8591C94.0385 26.6051 93.9116 26.4146 93.7211 26.2241C93.4036 25.9066 92.9591 25.7161 92.5146 25.5891C92.5146 25.5891 92.4511 25.5891 92.3876 25.5891C92.3241 25.6526 92.1972 25.7161 92.1337 25.7796C92.1337 25.7796 92.1337 25.7796 92.0702 25.7796C92.8956 26.0336 93.5941 26.4146 93.9751 27.24L93.9116 27.3035ZM92.5146 25.4621C92.8956 25.5256 93.2131 25.7161 93.5306 25.9701C93.7846 26.1606 93.9751 26.3511 94.102 26.6686C94.102 26.7956 94.1655 26.7956 94.2925 26.6686C94.2925 26.6686 94.2925 26.6686 94.356 26.6051C94.4195 26.5416 94.483 26.4146 94.483 26.2876C94.483 26.0336 94.483 25.7161 94.2925 25.5256C94.1655 25.2716 93.9116 25.1446 93.7211 24.9542C93.5306 24.8272 93.4036 24.8272 93.2131 24.9542C92.9591 25.0812 92.7686 25.2716 92.5146 25.4621ZM92.4511 24.3192C92.3876 24.2557 92.2606 24.1922 92.1971 24.1287C92.1336 24.1287 92.0067 24.0652 91.8797 24.0017C91.6257 24.0017 91.3717 24.0652 91.1177 24.1922C90.8002 24.3827 90.4827 24.6367 90.2288 24.8907C89.8478 25.2081 89.5303 25.5891 89.2763 26.0336C89.1493 26.2876 89.0858 26.5416 88.9588 26.7321C88.9588 26.7321 88.9588 26.7321 88.9588 26.8591C89.1493 26.6686 89.3398 26.4781 89.5303 26.2876C90.0383 25.8431 90.6097 25.4621 91.1177 25.0177C91.4987 24.7637 91.8797 24.5097 92.2606 24.3827L92.4511 24.3192ZM96.3879 32.8277C96.2609 32.7642 96.1339 32.8277 96.0069 32.8277C96.0069 32.8277 95.88 32.8912 95.88 32.9547C95.8165 32.9547 95.753 33.0182 95.6895 33.0817C95.626 33.0817 95.5625 33.2087 95.499 33.2722V33.3992C95.499 33.3992 95.5625 33.3992 95.626 33.3992C95.753 33.3992 95.8799 33.3992 96.0069 33.2722C96.0069 33.2722 96.1339 33.2722 96.1974 33.2087C96.3244 33.2087 96.4514 33.2087 96.5784 33.2087C96.5784 33.2087 96.7054 33.2087 96.7054 33.3357C96.7054 33.3357 96.7054 33.3357 96.6419 33.3357C96.5149 33.3357 96.3879 33.3357 96.1974 33.3357C96.1974 33.3357 96.0704 33.3357 96.0704 33.3992C96.0069 33.3992 95.8799 33.4627 95.8165 33.5262C95.8165 33.5262 95.753 33.5262 95.753 33.5897C95.753 33.6532 95.753 33.7167 95.88 33.7167C96.0069 33.7167 96.1339 33.7167 96.2609 33.7167C96.3879 33.7167 96.5149 33.7167 96.6419 33.7167C96.6419 33.7167 96.6419 33.7167 96.5784 33.7167C96.3879 33.7167 96.1339 33.7802 95.9435 33.8437H95.88C95.88 33.8437 95.8165 33.9072 95.8165 33.9707C95.8165 34.0342 95.8165 34.1612 95.88 34.1612H96.0069C96.0704 34.1612 96.1974 34.0977 96.2609 34.0977C96.3244 34.0977 96.4514 34.0977 96.5149 34.0977C96.5149 34.1612 96.5149 34.2247 96.5149 34.2882C96.5149 34.6691 96.5149 35.0501 96.5149 35.3676C96.5149 35.3676 96.5784 35.2406 96.5784 35.1771C96.5784 34.9866 96.5784 34.7961 96.7054 34.6691C96.7054 34.6691 96.7689 34.5422 96.8324 34.4787C96.8959 34.2882 97.0229 34.0342 97.0864 33.8437C97.0864 33.6532 97.0864 33.4627 96.9594 33.2722C96.8324 33.0817 96.7689 32.9547 96.8324 32.7642V32.6373C96.8324 32.5103 96.7689 32.3833 96.6419 32.3198C96.5784 32.3198 96.5149 32.3198 96.4514 32.3198C96.1339 32.3198 95.88 32.5738 95.753 32.8912C95.753 33.0182 95.753 33.0182 95.88 32.9547C96.0069 32.9547 96.0704 32.8277 96.1974 32.7642C96.3244 32.7007 96.4514 32.7007 96.5784 32.7642C96.5784 32.7642 96.6419 32.7642 96.7054 32.8277H96.3879ZM91.0542 24.2557C90.7367 24.1922 90.4827 24.1287 90.1653 24.1922C89.6573 24.1922 89.2128 24.4462 88.8953 24.8907C88.7683 25.0177 88.7048 25.2081 88.7048 25.4621C88.7048 25.9066 88.8318 26.2876 89.0223 26.6686C89.0223 26.6686 89.0223 26.6686 89.0223 26.7321V26.6686C89.0858 26.4146 89.2128 26.1606 89.3398 25.9701C89.7843 25.3351 90.2922 24.8272 90.9272 24.3827C90.9272 24.3827 90.9272 24.3827 90.9907 24.3827L91.0542 24.2557ZM96.5149 35.1136C96.5149 35.1771 96.5149 35.3041 96.3879 35.3676C96.3879 35.3676 96.3879 35.4946 96.3879 35.5581C96.3879 36.0026 96.3879 36.447 96.3879 36.8915C96.3879 37.844 96.3879 38.7964 96.4514 39.7489C96.4514 39.9394 96.4514 40.1299 96.4514 40.3838C96.4514 40.3838 96.4514 40.4473 96.5149 40.3838C96.5784 40.3838 96.6419 40.3838 96.7054 40.3203C96.9594 40.1299 97.1499 39.9394 97.2769 39.6219C97.4039 39.2409 97.4674 38.9234 97.4039 38.5424C97.4039 38.0345 97.2769 37.5265 97.0864 37.0185C96.8959 36.5105 96.7689 36.0026 96.5784 35.4311C96.5784 35.3041 96.5149 35.1771 96.4514 35.0501L96.5149 35.1136ZM93.5941 24.8272C93.4671 24.5732 93.2766 24.3827 92.9591 24.3192C92.7686 24.3192 92.5781 24.3192 92.3876 24.4462C92.0067 24.5732 91.6892 24.8272 91.3717 25.0177C91.0542 25.2716 90.7367 25.5256 90.4827 25.7161C89.9748 26.0971 89.5303 26.4781 89.1493 26.9226C88.8953 27.1765 88.8953 27.494 89.0223 27.8115C89.0858 28.002 89.2128 28.129 89.3398 28.1925C89.4033 28.1925 89.4033 28.1925 89.4668 28.1925C89.4668 28.1925 89.4668 28.129 89.4668 28.0655C89.6573 27.6845 89.9748 27.3035 90.3557 27.0495C90.6732 26.7956 91.0542 26.5416 91.3717 26.2876C91.6892 26.0336 92.0702 25.7161 92.3876 25.4621C92.6416 25.2716 92.8321 25.0812 93.0861 24.9542C93.2766 24.8272 93.4671 24.7637 93.6576 24.8272H93.5941ZM90.9907 36.955C90.9907 36.955 90.9907 36.8915 91.1177 36.828C91.1812 36.7645 91.2447 36.701 91.3717 36.6375C91.3717 36.6375 91.4352 36.5105 91.4352 36.4471C91.4352 36.3836 91.3717 36.3201 91.3082 36.3836C91.2447 36.4471 91.1177 36.5105 90.9907 36.574C90.9907 36.574 90.9907 36.574 90.9272 36.574C91.0542 36.5105 91.1812 36.3836 91.3082 36.3201V36.1931C91.3082 36.1296 91.3082 36.0661 91.1812 36.0661C91.1812 36.0661 91.1177 36.0661 91.0542 36.0661C90.9272 36.1931 90.8002 36.1931 90.6097 36.2566C90.6097 36.2566 90.6097 36.2566 90.5462 36.2566C90.5462 36.2566 90.6732 36.2566 90.7367 36.2566C90.8637 36.2566 90.9907 36.1296 91.1177 36.0661C91.1177 36.0661 91.1812 35.9391 91.1812 35.8756C91.1812 35.8756 91.1812 35.8121 91.1177 35.8121C90.9907 35.8121 90.8637 35.8756 90.7367 35.8756C90.5462 35.8756 90.3557 35.8756 90.1018 35.8756C90.2287 35.8756 90.3557 35.8756 90.4827 35.8756C90.4827 35.7486 90.4192 35.7486 90.2922 35.7486C90.2922 35.7486 90.2923 35.7486 90.2288 35.7486C90.0383 35.7486 89.8478 35.7486 89.6573 35.8121C89.3398 36.0026 89.0223 36.1931 88.7683 36.3836C88.6413 36.4471 88.5778 36.574 88.5778 36.7645C88.5778 37.209 88.5778 37.59 88.8953 37.971C89.0223 38.1615 89.2128 38.1615 89.4033 38.1615C89.3398 38.1615 89.2763 38.1615 89.1493 38.0345C89.1493 38.0345 89.1493 38.0345 89.2128 38.0345C89.3398 38.0345 89.4033 38.0345 89.5303 38.098C89.9113 38.1615 90.3557 38.098 90.7367 37.971C91.1177 37.7805 91.3082 37.463 91.4352 37.0185C91.4352 37.0185 91.4352 37.0185 91.4352 36.955C91.3717 37.1455 91.1812 37.2725 91.0542 37.336L90.9907 36.955ZM91.4352 31.3038C91.5622 31.1768 91.7527 31.1133 91.9432 31.0498H92.0702C92.3876 30.9228 92.6416 30.6054 92.7686 30.2879C92.7686 30.1609 92.7686 30.0339 92.7686 29.9069C92.7686 29.9704 92.6416 30.0339 92.5146 30.0339C92.6416 30.0339 92.7686 29.9704 92.8321 29.8434C93.0226 29.5894 93.0861 29.3354 93.0861 29.0179C93.0861 29.0179 93.0861 28.891 93.0861 28.8275C93.2131 28.8275 93.2766 28.8275 93.2766 28.7005C93.2766 28.637 93.2766 28.51 93.2766 28.4465C93.2766 28.4465 93.2766 28.4465 93.2766 28.383C93.2766 28.383 93.4036 28.383 93.4036 28.3195C93.6576 28.0655 93.7211 27.748 93.6576 27.4305C93.6576 27.1765 93.4671 26.9861 93.3401 26.7956C92.9591 26.3511 92.4511 26.0971 91.9432 25.9066C91.8797 25.9066 91.8162 25.9066 91.7527 25.9066C91.5622 26.0336 91.3717 26.2241 91.1812 26.3511C91.3717 26.4146 91.5622 26.4781 91.7527 26.5416C92.0702 26.6686 92.3876 26.8591 92.6416 27.1765C92.7686 27.3035 92.8321 27.4305 92.9591 27.5575C93.0226 27.6845 93.1496 27.8115 93.1496 28.002C93.1496 28.002 93.1496 28.002 93.1496 28.0655C93.1496 28.0655 93.1496 28.0655 93.1496 28.002C93.1496 27.9385 93.1496 27.875 93.0861 27.8115C92.8321 27.4305 92.5146 27.0495 92.1337 26.7956C91.8797 26.6051 91.5622 26.5416 91.2447 26.4146C91.1812 26.4146 91.1177 26.4146 91.0542 26.4146C91.0542 26.4146 90.9907 26.4146 90.9272 26.4781C90.6732 26.6686 90.4192 26.8591 90.1653 27.0495C90.0383 27.1765 89.9113 27.24 89.8478 27.367C89.6573 27.621 89.4668 27.875 89.3398 28.129C89.3398 28.1925 89.2763 28.256 89.3398 28.383C89.3398 28.4465 89.3398 28.51 89.3398 28.5735C89.3398 28.7005 89.4668 28.764 89.5938 28.764C89.5938 28.764 89.6573 28.764 89.6573 28.8275C89.6573 28.8275 89.6573 28.8909 89.6573 28.9544C89.6573 29.0814 89.6573 29.2719 89.7208 29.3989C89.7843 29.7164 90.0383 29.9069 90.3557 29.9704C90.1653 29.9704 90.1018 29.9069 89.9113 29.8434C89.9113 29.8434 89.9113 29.9704 89.9748 29.9704C89.9748 30.0339 89.9748 30.0974 90.0383 30.1609C90.0383 30.3514 90.1653 30.4784 90.3557 30.6054C90.4827 30.6689 90.6732 30.7324 90.8002 30.8593C90.9272 30.9228 91.0542 31.0498 91.2447 31.1768L91.4352 31.3038ZM88.6413 36.0026C88.5778 36.0026 88.5143 36.0026 88.4508 36.0026C88.1969 36.0026 87.9429 36.0661 87.7524 36.1931C87.2444 36.3836 86.6729 36.574 86.292 36.955C86.3555 36.8915 86.4825 36.7645 86.5459 36.701C86.9269 36.4471 87.3714 36.2566 87.8159 36.1296C87.8159 36.1296 87.8794 36.1296 87.9429 36.1296C87.5619 36.1296 87.1809 36.1296 86.8634 36.2566C86.8634 36.2566 86.9269 36.2566 86.9904 36.1931C87.3079 36.0661 87.6254 36.0661 88.0064 36.1296H88.1334C88.1969 36.1296 88.3239 36.1296 88.3873 36.1296C88.3873 36.1296 88.4508 36.1296 88.3873 36.0661C88.3873 35.9391 88.3873 35.8121 88.3873 35.6851C88.3873 35.3676 88.3873 35.1136 88.2604 34.7961C88.2604 34.6691 88.2604 34.5422 88.1969 34.4152C88.1969 34.4787 88.2604 34.6056 88.2604 34.6691C88.3873 35.1136 88.4508 35.5581 88.4508 36.0026C88.4508 36.0026 88.4508 36.0661 88.5143 36.0661C88.5778 36.0661 88.6413 36.0661 88.7048 36.0661H88.7683C88.8953 36.0026 89.0223 35.8756 89.2128 35.7486C89.4668 35.5581 89.7208 35.3676 90.0383 35.3676C89.9113 35.3676 89.9113 35.2406 89.9113 35.1136C89.9113 34.9866 89.9113 34.9231 90.0383 34.8596C89.9113 34.8596 89.8478 34.7326 89.8478 34.6056C89.8478 34.4787 89.8478 34.4152 89.9748 34.3517C89.8478 34.3517 89.8478 34.2247 89.7843 34.1612C89.7843 34.1612 89.7843 34.0977 89.7208 34.0977C89.5938 33.9707 89.4668 33.8437 89.4033 33.6532C89.2128 33.3357 89.0858 33.0817 89.0858 32.7007C89.0858 32.2563 89.0858 31.8118 89.1493 31.4308C89.1493 31.2403 89.2763 30.9863 89.4033 30.7958C89.2763 31.0498 89.1493 31.3038 89.0858 31.6213C89.0858 31.8753 89.0858 32.1293 89.0858 32.3833C89.0858 32.9547 89.2763 33.4627 89.5938 33.9072C89.5938 33.9707 89.7208 34.0342 89.7843 34.0977C89.7843 34.0977 89.8478 33.9707 89.9113 33.9707C89.7843 33.9072 89.7208 33.7802 89.7843 33.6532C89.7843 33.5897 89.7843 33.5262 89.9113 33.5262C89.9748 33.5262 90.0383 33.5262 90.1018 33.5262C90.1653 33.6532 90.1653 33.7802 90.1018 33.8437C90.2287 33.8437 90.2923 33.9707 90.2288 34.0342C90.2288 34.1612 90.2287 34.2247 90.1018 34.2882C90.2287 34.2882 90.2922 34.4152 90.2922 34.4787C90.2922 34.6056 90.2922 34.7326 90.1653 34.7961L90.2922 34.9231C90.2922 34.9231 90.2922 35.0501 90.2922 35.1136C90.2922 35.1771 90.2922 35.2406 90.1653 35.2406C90.1653 35.2406 90.2287 35.2406 90.2922 35.2406C90.2922 35.2406 90.3557 35.2406 90.4192 35.2406C90.5462 35.2406 90.5462 35.2406 90.5462 35.3676C90.5462 35.3676 90.5462 35.4311 90.6097 35.3676C90.6732 35.3676 90.7367 35.3676 90.8002 35.3676C90.9272 35.3676 90.9907 35.3676 91.1177 35.3041C91.2447 35.3041 91.3082 35.3041 91.3082 35.4946C91.3082 35.4946 91.3082 35.6216 91.3082 35.6851C91.3082 35.6851 91.3082 35.6851 91.3082 35.7486C91.4352 35.7486 91.4352 35.8121 91.4987 35.9391C91.4987 36.0026 91.4987 36.1296 91.4352 36.1931C91.4352 36.1931 91.4987 36.2566 91.5622 36.3201C91.5622 36.3201 91.5622 36.2566 91.5622 36.1931C91.5622 35.8121 91.5622 35.3676 91.5622 34.9866C91.5622 34.9866 91.5622 34.9231 91.4987 34.9231C91.2447 34.9231 91.0542 34.8596 90.8637 34.7326C90.6732 34.6056 90.5462 34.4787 90.4192 34.2882C90.4827 34.2882 90.5462 34.4152 90.6097 34.4787C90.7367 34.6691 90.9272 34.7961 91.1177 34.8596C91.4352 34.9866 91.7527 34.9866 92.0067 34.8596C92.1971 34.7326 92.3876 34.6056 92.5781 34.4787C92.7051 34.4152 92.7686 34.2882 92.8956 34.2247C92.8956 34.2247 92.8956 34.1612 92.8956 34.0977C92.8956 33.9707 92.8956 33.8437 92.9591 33.7802C93.0861 33.6532 93.1496 33.6532 93.2766 33.7802C93.2766 33.7802 93.2766 33.7802 93.2766 33.8437C93.6576 33.4627 93.9116 32.9547 93.9751 32.3833C93.9751 32.0658 93.9751 31.8118 93.9751 31.4943C93.9751 31.3038 93.975 31.1133 93.9116 30.9863C93.9116 30.8593 93.7846 30.6689 93.6576 30.6054C93.5306 30.5419 93.4036 30.5419 93.2766 30.4784C93.2766 30.4784 93.2131 30.5419 93.1496 30.6054C93.4671 30.7959 93.7211 31.1133 93.7211 31.3038C93.5941 31.0498 93.4671 30.8593 93.3401 30.7958C93.3401 30.8593 93.3401 30.9228 93.2766 30.9863C93.2131 31.1133 93.0226 31.1133 92.9591 30.9863C92.6416 31.5578 92.1336 31.7483 91.5622 31.7483C91.3717 31.7483 91.3717 31.7483 91.3717 31.9388C91.3717 31.9388 91.3717 31.9388 91.3717 32.0023C91.3717 32.3833 91.3717 32.7642 91.3717 33.1452C91.3717 33.5262 91.3717 33.9072 91.3717 34.2882C91.3717 34.3517 91.3717 34.3517 91.4352 34.3517C91.6257 34.3517 91.8162 34.3517 92.0067 34.2247C92.3241 34.0342 92.5781 33.8437 92.8321 33.5897C92.8321 33.5897 92.8956 33.5262 92.9591 33.4627C92.8956 33.5262 92.8321 33.5897 92.7051 33.7167C92.4511 33.9072 92.2606 34.0977 91.9432 34.2247C91.7527 34.3517 91.4987 34.3517 91.3082 34.3517C91.1177 34.3517 90.8637 34.2247 90.7367 34.0977C90.7367 34.0977 90.7367 34.0977 90.6732 34.0977C90.6732 34.0977 90.6732 34.0977 90.6097 34.0342C90.6097 34.0342 90.6097 34.0342 90.6097 33.9707C90.8002 34.1612 90.9907 34.2882 91.2447 34.3517C91.2447 34.3517 91.2447 34.3517 91.2447 34.2882C91.2447 33.9707 91.2447 33.6532 91.2447 33.3357C91.2447 32.8277 91.2447 32.3198 91.3082 31.8118C91.3082 31.7483 91.3082 31.7483 91.2447 31.6848C91.0542 31.6848 90.8637 31.6213 90.6732 31.4943C90.3557 31.3038 90.1653 30.9863 90.0383 30.6689C90.0383 30.6689 90.0383 30.6689 90.0383 30.6054C90.0383 30.6054 89.9748 30.6689 89.9113 30.7324C90.0383 30.7324 90.1018 30.9228 90.0383 31.0498C90.0383 31.1768 89.9748 31.2403 89.8478 31.2403C89.7843 31.2403 89.6573 31.2403 89.6573 31.1133C89.6573 30.9863 89.6573 30.7959 89.7843 30.7324C89.7843 30.7324 89.6573 30.6054 89.6573 30.5419C89.6573 30.4784 89.6573 30.4784 89.5303 30.5419C89.2128 30.6689 88.9588 30.7324 88.6413 30.8593C88.2604 30.9863 87.9429 31.1768 87.6254 31.4308C87.2444 31.7483 86.9269 32.0658 86.7364 32.5738C86.6729 32.8277 86.5459 33.1452 86.4824 33.3992C86.3555 33.9072 86.292 34.4152 86.165 34.8596C86.038 35.3676 85.911 35.8756 85.7205 36.3201C85.5935 36.6375 85.4665 36.955 85.4665 37.2725C85.403 37.717 85.4665 38.098 85.5935 38.5424C85.7205 38.9234 85.9745 39.1139 86.3555 39.1139C86.5459 39.1139 86.7364 39.1139 86.8634 39.1139C87.2444 39.1139 87.6254 38.9234 88.0064 38.7964C88.3874 38.6694 88.7048 38.5424 89.0223 38.2885C89.2128 38.1615 89.3398 38.0345 89.4033 37.844C89.4033 37.844 89.4033 37.844 89.4033 37.7805C89.1493 37.7805 89.0223 37.7805 88.8953 37.5265C88.7683 37.336 88.6413 37.082 88.6413 36.828C88.6413 36.6375 88.6413 36.4471 88.6413 36.3201C88.6413 36.1931 88.7048 36.1296 88.7683 36.0026H88.6413ZM96.1974 34.0977C96.1974 34.0977 96.1339 34.0977 96.0704 34.0977C96.0069 34.0977 95.9434 34.0977 95.88 34.1612C95.88 34.1612 95.88 34.1612 95.88 34.2247C95.88 34.4787 95.88 34.7326 95.88 35.0501C95.88 35.4311 95.88 35.8756 95.88 36.2566C95.88 37.336 95.9434 38.3519 96.0069 39.4314C96.0069 40.1299 96.0069 40.7648 96.0704 41.4633C96.0704 41.4633 96.0704 41.5268 96.0704 41.5903C96.0704 41.5903 96.0069 41.5903 96.0069 41.5268C96.0069 41.3998 96.0069 41.2093 96.0069 41.0823C96.0069 40.8918 96.0069 40.7013 96.0069 40.5108V40.4473C95.8799 40.4473 95.8165 40.3203 95.6895 40.2568C95.6895 40.2568 95.6895 40.2568 95.626 40.1934C95.753 40.5743 95.8165 41.0188 95.88 41.3998C95.753 40.7648 95.5625 40.1299 95.3085 39.4949C95.3085 39.4949 95.3085 39.4949 95.3085 39.5584C95.3085 39.6219 95.4355 39.7489 95.4355 39.8124C95.5625 40.0029 95.6895 40.1934 95.88 40.2568C95.88 40.2568 95.88 40.2568 95.9435 40.2568V40.1299C95.9435 39.4314 95.9435 38.7964 95.9435 38.098C95.9435 37.336 95.9434 36.574 95.88 35.8121C95.88 35.6851 95.88 35.6851 95.753 35.6851C95.499 35.6851 95.3085 35.6851 95.118 35.4946C94.991 35.3676 94.991 35.2406 94.991 35.1136C94.991 35.1136 94.991 35.0501 94.991 34.9866C94.9275 34.9866 94.9275 34.9866 94.9275 35.1136C94.9275 35.2406 94.864 35.3676 94.8005 35.4946C94.8005 35.4946 94.8005 35.4946 94.8005 35.5581C94.8005 35.5581 94.8005 35.5581 94.8005 35.4946C94.8005 35.3041 94.8005 35.0501 94.991 34.9231C94.991 34.9231 94.991 34.9231 94.991 34.8596C94.991 34.8596 94.991 34.7326 94.9275 34.6691C94.8005 34.4152 94.737 34.0977 94.8005 33.8437C94.8005 33.4627 94.9275 33.0817 95.0545 32.7642C95.0545 32.8912 94.991 33.0182 94.9275 33.0817C94.864 33.3992 94.8005 33.7167 94.8005 34.0342C94.8005 34.2882 94.864 34.5422 94.991 34.7961C94.991 34.9231 95.0545 35.0501 95.0545 35.1771C95.0545 35.4311 95.245 35.6851 95.499 35.7486C95.626 35.7486 95.6895 35.7486 95.8165 35.7486C95.8165 35.7486 95.88 35.7486 95.88 35.6851C95.88 35.4311 95.88 35.1136 95.88 34.8596C95.88 34.7326 95.88 34.5422 95.88 34.4152C95.88 34.4152 95.8799 34.3517 95.8165 34.3517C95.626 34.3517 95.5625 34.2247 95.626 34.0342C95.626 34.0342 95.626 33.9072 95.6895 33.9072C95.5625 33.9072 95.499 33.7802 95.5625 33.6532C95.4355 33.5897 95.372 33.4627 95.499 33.3357C95.499 33.3357 95.499 33.3357 95.499 33.2722C95.499 33.2087 95.499 33.0817 95.499 33.0182C95.499 32.9547 95.5625 32.8277 95.626 32.7642C95.626 32.7007 95.6895 32.6373 95.626 32.5103C95.626 32.5103 95.626 32.4468 95.626 32.3833C95.626 32.3198 95.626 32.1928 95.499 32.1928C95.372 32.1928 95.372 32.0023 95.4355 31.9388C95.4355 31.8753 95.4355 31.8118 95.4355 31.7483C95.1815 31.4943 94.864 31.3038 94.483 31.1133C94.2925 31.0498 94.102 30.9863 93.8481 30.9228C94.0386 31.1133 94.102 31.3038 94.102 31.5578C94.102 32.0023 94.102 32.3833 94.102 32.8277C94.0385 33.2722 93.8481 33.6532 93.5941 33.9707C93.5941 33.9707 93.5306 34.0342 93.4671 34.0977C93.4671 34.0977 93.4036 34.2247 93.3401 34.2247C93.3401 34.2247 93.2131 34.3517 93.1496 34.3517C93.1496 34.3517 93.0226 34.3517 92.9591 34.3517C92.9591 34.3517 92.9591 34.3517 92.8956 34.3517C92.7051 34.5422 92.4511 34.7326 92.1971 34.9231C92.0702 34.9231 92.0067 35.0501 91.8797 35.1136C91.8162 35.1136 91.7527 35.1136 91.6257 35.1771C91.6257 35.1771 91.5622 35.1771 91.5622 35.2406C91.5622 35.6216 91.5622 35.9391 91.5622 36.3201C91.5622 37.082 91.4987 37.9075 91.4352 38.6694C91.4352 38.7329 91.4352 38.8599 91.4352 38.9234C91.4352 38.9234 91.4352 38.9234 91.4352 38.9869C91.4352 38.352 91.4987 37.7805 91.4352 37.1455C91.4352 37.2725 91.3082 37.336 91.2447 37.463C91.1812 37.59 91.0542 37.717 90.8637 37.7805C90.4827 37.971 90.1018 38.098 89.7208 38.0345C89.7208 38.0345 89.5938 38.0345 89.5303 38.0345C89.5303 38.225 89.4033 38.3519 89.2763 38.4154C89.0223 38.6694 88.7048 38.7964 88.3873 38.9869C88.1969 39.0504 88.0064 39.1139 87.8159 39.1774C87.8159 39.1774 87.8159 39.1774 87.7524 39.2409C87.6254 39.8759 87.5619 40.4473 87.4349 41.0823C87.4349 41.1458 87.4349 41.2728 87.4349 41.3363C87.4349 41.3363 87.4349 41.3363 87.4349 41.2728C87.4349 40.9553 87.4984 40.7013 87.5619 40.3838C87.5619 40.0029 87.6889 39.6854 87.7524 39.3044C87.7524 39.3044 87.7524 39.2409 87.7524 39.1774C87.6254 39.1774 87.4984 39.2409 87.3714 39.2409C87.1174 39.2409 86.9269 39.3044 86.6729 39.3679C86.038 39.4314 85.7205 39.1139 85.53 38.6059C85.403 38.098 85.403 37.6535 85.53 37.1455C85.657 36.7645 85.784 36.4471 85.911 36.0661C86.038 35.7486 86.1015 35.4311 86.165 35.1136C86.292 34.6056 86.3555 34.1612 86.4824 33.6532C86.5459 33.2722 86.6729 32.8912 86.7999 32.5103C86.9904 32.0658 87.3079 31.7483 87.6889 31.4308C88.1334 31.1133 88.6413 30.9228 89.1493 30.7324C89.3398 30.7324 89.4668 30.6054 89.6573 30.6054C89.6573 30.4784 89.7843 30.4784 89.8478 30.4149C89.8478 30.4149 89.8478 30.2879 89.8478 30.2244C89.8478 30.0974 89.9748 30.0339 90.1653 30.0339C90.1653 30.1609 90.1653 30.2244 90.2922 30.3514C90.2922 30.2244 90.2922 30.0339 90.1653 29.9704C89.9113 29.6529 89.8478 29.3354 89.8478 28.9544C89.8478 28.9544 89.8478 28.891 89.7843 28.891C89.6573 28.891 89.5303 28.8275 89.5303 28.7005C89.5303 28.5735 89.5303 28.51 89.4668 28.383C89.2763 28.256 89.1493 28.129 89.0223 27.9385C89.0223 27.8115 89.0223 27.6845 88.9588 27.621C88.9588 27.621 88.9588 27.621 88.9588 27.5575C88.7048 27.4305 88.5143 27.1765 88.3873 26.9226C88.2604 26.5416 88.1969 26.1606 88.3873 25.7796C88.4508 25.6526 88.5778 25.5256 88.6413 25.3986C88.6413 25.3986 88.7048 25.2716 88.7683 25.2081C88.8953 24.8272 89.2128 24.5732 89.5303 24.3827C90.0383 24.1287 90.5462 24.1287 91.0542 24.2557C91.1812 24.2557 91.3082 24.2557 91.4352 24.2557C91.5622 24.1922 91.6892 24.1287 91.8797 24.1287H92.0067C92.1336 24.1287 92.2606 24.1287 92.3876 24.2557C92.4511 24.2557 92.5146 24.3827 92.6416 24.4462C92.6416 24.4462 92.6416 24.4462 92.7686 24.4462C92.9591 24.4462 93.0861 24.3827 93.2766 24.4462C93.5941 24.5097 93.7211 24.7002 93.8481 24.9542C93.8481 25.0177 93.9116 25.0812 94.0386 25.1446C94.356 25.3986 94.61 25.6526 94.737 26.0971C94.737 26.2876 94.737 26.4781 94.737 26.6686C94.737 26.7956 94.61 26.9226 94.4195 26.9861C94.4195 27.0495 94.4195 27.1765 94.4195 27.24C94.4195 27.367 94.356 27.4305 94.229 27.4305C94.229 27.4305 94.229 27.4305 94.229 27.494C94.229 27.8115 94.229 28.129 93.9751 28.3195C93.9751 28.3195 93.8481 28.383 93.7846 28.4465C93.7846 28.4465 93.7846 28.4465 93.7846 28.51C93.7846 28.637 93.7846 28.764 93.6576 28.8275C93.6576 28.8275 93.5941 28.8275 93.5306 28.8275C93.5306 28.8275 93.5306 28.8275 93.4671 28.891C93.4671 29.0814 93.4671 29.2084 93.4671 29.3989C93.4671 29.5259 93.3401 29.5894 93.3401 29.7164C93.4036 29.7164 93.4671 29.8434 93.5306 29.8434C93.5306 29.9069 93.5306 29.9704 93.5306 30.0974C93.6576 30.0974 93.7211 30.2244 93.7211 30.3514C94.229 30.4784 94.737 30.6689 95.1815 30.9228C95.4355 31.0498 95.626 31.1768 95.753 31.3673C95.753 31.3673 95.753 31.3673 95.88 31.3673C96.0704 31.1768 96.3244 31.1768 96.5149 31.3673C96.6419 31.4943 96.6419 31.6213 96.5149 31.7483C96.5149 31.7483 96.5149 31.7483 96.5149 31.8118V31.9388C96.5784 31.9388 96.7054 31.9388 96.7689 32.0023C96.8959 32.0023 96.9594 32.1293 96.9594 32.2563C96.9594 32.3198 96.9594 32.4468 96.9594 32.5103C96.9594 32.6373 96.9594 32.8277 97.0864 32.9547C97.0864 33.0182 97.1499 33.0817 97.2134 33.1452C97.3404 33.3992 97.3404 33.5897 97.2134 33.8437C97.1499 34.0342 97.0229 34.2882 96.8959 34.4787C96.8959 34.4787 96.8959 34.4787 96.8959 34.5422C96.8959 34.6056 96.8959 34.6691 96.8959 34.7326C97.0229 34.9866 97.0864 35.2406 97.1499 35.4946C97.2769 35.9391 97.4674 36.3836 97.5944 36.828C97.7848 37.336 97.8484 37.844 97.8484 38.4154C97.8484 38.8599 97.7849 39.3044 97.5309 39.6854C97.4039 39.9394 97.2134 40.1299 96.8959 40.1934C96.8959 40.1934 96.8959 40.1934 96.8324 40.1934C96.8324 40.1934 96.8324 40.1934 96.8324 40.2568C96.8324 40.5743 96.8324 40.9553 96.8324 41.2728C96.8324 41.2728 96.8324 41.3363 96.8324 41.3998C96.7689 38.8599 96.7054 36.3836 96.5784 33.8437L96.1974 34.0977Z" fill="#EF6800"/>
<path d="M90.8002 39.8124C90.6732 39.8124 90.6097 39.8124 90.5462 39.8124C90.4827 39.7489 90.4192 39.5584 90.5462 39.4949C90.5462 39.4314 90.6732 39.3679 90.7367 39.3679C90.8002 39.3679 90.9272 39.3679 90.9272 39.4949C90.9272 39.4949 90.9272 39.6219 90.9272 39.6854C90.9272 39.6854 90.9272 39.6854 90.9272 39.7489C91.1177 39.7489 91.2447 39.7489 91.3082 39.9394C91.5622 39.8124 91.6257 39.8759 91.7527 40.0029C91.8161 39.9394 91.8796 39.8759 92.0066 39.8759C92.0066 39.7489 92.2606 39.6854 92.3241 39.6854C92.4511 39.6854 92.4511 39.8124 92.4511 39.9394C92.4511 40.0664 92.2606 40.1934 92.1336 40.1299C92.0066 40.3204 91.8796 40.3204 91.7527 40.1299C91.7527 40.2569 91.6257 40.2569 91.4987 40.2569C91.3717 40.2569 91.3082 40.1934 91.3082 40.0664C91.1812 40.0664 91.1177 40.1299 90.9907 40.0664C90.9272 40.0029 90.8637 39.9394 90.8637 39.8124H90.8002Z" fill="#EF6800"/>
<path d="M92.7686 38.1615C92.6416 38.1615 92.6416 38.0345 92.6416 37.9076C92.6416 37.7806 92.6416 37.7171 92.7686 37.6536C92.8321 37.6536 92.9591 37.6536 93.0226 37.7171C93.0861 37.8441 93.0226 37.971 93.0226 38.098C93.0226 38.098 92.9591 38.098 92.8956 38.1615C93.0226 38.1615 93.0226 38.2885 93.0226 38.4155C93.0226 38.5425 92.8956 38.6695 92.7686 38.6695C92.6416 38.6695 92.5781 38.6695 92.5781 38.479C92.5781 38.352 92.5781 38.225 92.7686 38.098V38.1615Z" fill="#EF6800"/>
<path d="M92.8956 36.3837C92.8321 36.3837 92.7686 36.3837 92.7051 36.2567C92.7051 36.1297 92.7051 36.0662 92.7051 35.9392C92.7051 35.8122 92.8956 35.7487 93.0226 35.8757C93.1496 35.9392 93.2131 36.1297 93.1496 36.2567C93.1496 36.3202 93.0226 36.3837 92.9591 36.3837H92.8956Z" fill="#EF6800"/>
<path d="M90.2288 39.114C90.2288 38.987 90.2288 38.9235 90.4192 38.86C90.4827 38.86 90.6097 38.86 90.6732 38.987C90.6732 39.114 90.6732 39.1775 90.6732 39.3045C90.6732 39.368 90.5462 39.4315 90.4827 39.368C90.3557 39.368 90.3557 39.3045 90.2923 39.1775C90.2923 39.1775 90.2923 39.1775 90.2923 39.114H90.2288Z" fill="#EF6800"/>
<path d="M92.6416 36.7646C92.6416 36.6376 92.7051 36.5106 92.8321 36.5106C92.9591 36.5106 93.0861 36.5106 93.0861 36.7011C93.0861 36.8281 93.0861 36.8916 93.0226 36.9551C92.9591 37.0186 92.8321 37.0186 92.7686 36.9551C92.7686 36.9551 92.7686 36.8281 92.7051 36.7646H92.6416Z" fill="#EF6800"/>
<path d="M92.2607 39.4949C92.2607 39.3044 92.4511 39.1774 92.5781 39.2409C92.6416 39.3679 92.5781 39.5584 92.4512 39.6854C92.3242 39.7489 92.1972 39.6854 92.1337 39.5584C92.1337 39.5584 92.1337 39.5584 92.1337 39.4949H92.2607Z" fill="#EF6800"/>
<path d="M92.5781 37.336C92.5781 37.209 92.6416 37.082 92.7686 37.082C92.8321 37.082 92.9591 37.082 92.9591 37.1455C92.9591 37.2725 92.9591 37.3995 92.9591 37.463C92.9591 37.463 92.8321 37.59 92.7686 37.5265C92.7051 37.5265 92.5781 37.3995 92.5781 37.336Z" fill="#EF6800"/>
<path d="M92.7051 35.4947C92.7051 35.4312 92.7051 35.3677 92.8321 35.3042C92.8956 35.3042 93.0226 35.3042 93.0861 35.3042C93.1496 35.3042 93.2131 35.4947 93.1496 35.5582C93.1496 35.6217 93.0861 35.6852 93.0226 35.7487C93.0226 35.7487 92.8956 35.7487 92.8321 35.7487C92.8321 35.7487 92.7686 35.6217 92.7686 35.5582L92.7051 35.4947Z" fill="#EF6800"/>
<path d="M92.7051 34.4787C92.7051 34.2882 92.8321 34.2247 92.9591 34.2247C92.9591 34.2247 93.0226 34.2247 93.0861 34.2247C93.2131 34.3517 93.1496 34.6057 93.0861 34.6692C92.9591 34.7327 92.7686 34.6692 92.7686 34.4787H92.7051Z" fill="#EF6800"/>
<path d="M90.0382 38.0345C90.0382 37.9075 90.2287 37.7805 90.3557 37.844C90.4192 37.9075 90.4192 38.098 90.3557 38.225C90.3557 38.2885 90.2287 38.352 90.1652 38.352C90.1017 38.352 90.0382 38.352 89.9747 38.225C89.9747 38.225 89.9747 38.1615 89.9747 38.098L90.0382 38.0345Z" fill="#EF6800"/>
<path d="M92.7051 34.9866C92.7051 34.9231 92.7051 34.7961 92.8321 34.7961C92.8956 34.7961 93.0226 34.7961 93.0861 34.7961C93.2131 34.9231 93.2131 35.0501 93.0861 35.1771C92.9591 35.3041 92.8321 35.2406 92.7686 35.1771C92.7686 35.1771 92.7686 35.1136 92.7686 35.0501L92.7051 34.9866Z" fill="#EF6800"/>
<path d="M90.2923 38.3521C90.4828 38.3521 90.5463 38.479 90.4828 38.6695C90.4828 38.6695 90.4828 38.6695 90.4828 38.733C90.4193 38.86 90.2288 38.86 90.1653 38.733C90.1653 38.6695 90.1018 38.5425 90.1653 38.479C90.1653 38.4155 90.2923 38.3521 90.3558 38.3521H90.2923Z" fill="#EF6800"/>
<path d="M92.5146 38.987C92.5146 38.86 92.5781 38.733 92.7051 38.733C92.7686 38.733 92.8321 38.733 92.8956 38.733C92.8956 38.7965 92.8956 38.86 92.8956 38.987C92.8956 38.987 92.8956 38.987 92.8956 39.0505C92.8321 39.114 92.7686 39.1775 92.6416 39.114C92.5781 39.114 92.5146 38.987 92.5146 38.9235V38.987Z" fill="#EF6800"/>
<path d="M94.5466 36.5106C94.5466 37.0821 94.6735 37.6536 94.737 38.225C94.6101 37.9075 94.4831 36.7646 94.5466 36.5106Z" fill="#EF6800"/>
<path d="M95.753 31.4308C95.9435 31.4308 96.0704 31.4943 96.1339 31.6213C96.1339 31.7483 96.1339 31.8118 96.007 31.8753C95.88 31.8753 95.753 31.9388 95.6895 32.0023C95.626 32.0023 95.499 32.0023 95.4355 31.9388C95.4355 31.8753 95.4355 31.7483 95.4355 31.6848C95.499 31.5578 95.626 31.4943 95.753 31.4943V31.4308Z" fill="#EF6800"/>
<path d="M95.6895 32.3833C95.6895 32.2563 95.6895 32.1928 95.6895 32.0658C95.8164 32.0658 95.9434 32.0658 96.0704 32.0023C96.0704 32.0658 96.0704 32.1293 96.0704 32.1928C95.9434 32.1928 95.8799 32.3198 95.753 32.3198L95.6895 32.3833Z" fill="#EF6800"/>
<path d="M89.8478 30.4145C89.8478 30.4145 89.9108 30.4145 89.9738 30.3514C89.9738 30.3514 89.9738 30.4145 89.9738 30.4775C89.9738 30.4775 89.9738 30.4775 89.9108 30.4145H89.8478Z" fill="#EF6800"/>
<path d="M92.8321 31.4945C92.8321 31.4945 92.8321 31.431 92.8321 31.3675C92.8321 31.2405 93.0226 31.177 93.0861 31.2405C93.2131 31.2405 93.2766 31.431 93.2766 31.558C93.2766 31.685 93.2131 31.7485 93.0861 31.812C93.0226 31.812 92.9591 31.812 92.8956 31.812C92.8321 31.812 92.8321 31.685 92.7686 31.558L92.8321 31.4945Z" fill="#EF6800"/>
<path d="M93.2766 32.7009C93.2766 32.8279 93.1496 32.9549 93.0861 32.9549H92.9591C92.8321 32.9549 92.8321 32.8279 92.8321 32.7009C92.8321 32.5739 92.8321 32.5104 92.9591 32.4469C93.0226 32.4469 93.1496 32.4469 93.2131 32.5104C93.2131 32.5104 93.2131 32.6374 93.2766 32.7009Z" fill="#EF6800"/>
<path d="M92.8321 33.3359C92.8321 33.3359 92.8321 33.2089 92.8956 33.1454C92.8956 33.1454 93.0226 33.0184 93.0861 33.0819C93.1496 33.0819 93.2131 33.1454 93.2766 33.2089C93.2766 33.3359 93.2766 33.5263 93.0861 33.5898C93.0226 33.5898 92.8956 33.5898 92.8321 33.5263C92.8321 33.5263 92.8321 33.4628 92.8321 33.3359Z" fill="#EF6800"/>
<path d="M93.3401 32.0658C93.3401 32.1927 93.3401 32.2562 93.2131 32.3197C93.2131 32.3197 93.0861 32.3197 93.0226 32.3197C92.8956 32.3197 92.8956 32.1927 92.8956 32.0658C92.8956 31.9388 92.9591 31.8753 93.0861 31.8118C93.1496 31.8118 93.2131 31.8118 93.2766 31.8753V32.0023L93.3401 32.0658Z" fill="#EF6800"/>
<path d="M89.5938 32.1294C89.5938 32.0024 89.5938 31.9389 89.7208 31.8754C89.8478 31.8754 89.9113 31.8754 89.9747 32.0024C89.9747 32.1294 89.9747 32.2563 89.8478 32.3198C89.8478 32.3198 89.6573 32.3198 89.5938 32.3198C89.5938 32.3198 89.5303 32.1928 89.5303 32.1294H89.5938Z" fill="#EF6800"/>
<path d="M89.9748 31.6213C89.9748 31.7483 89.9113 31.8753 89.7843 31.8753C89.7208 31.8753 89.6573 31.8753 89.5938 31.8118C89.5938 31.7483 89.5303 31.6213 89.5938 31.4943C89.5938 31.3673 89.7843 31.3038 89.9113 31.4308C89.9113 31.4308 89.9748 31.5578 89.9748 31.6213Z" fill="#EF6800"/>
<path d="M89.6573 32.6372C89.6573 32.4468 89.7843 32.3198 89.9748 32.4467C90.0383 32.4467 90.1018 32.5737 90.1018 32.7007C90.1018 32.8277 89.9748 32.8912 89.9113 32.8912C89.9113 32.8912 89.7843 32.8912 89.7208 32.7642C89.7208 32.7642 89.7208 32.6372 89.7208 32.5737L89.6573 32.6372Z" fill="#EF6800"/>
<path d="M89.7208 33.1452C89.7208 33.0182 89.7843 32.9547 89.9113 32.9547C90.0382 32.9547 90.1017 32.9547 90.1017 33.1452C90.1017 33.2087 90.1017 33.2722 90.1017 33.3357C90.0382 33.4627 89.8478 33.4627 89.7843 33.3357V33.2087L89.7208 33.1452Z" fill="#EF6800"/>
<path d="M90.9272 29.399C90.9907 29.399 91.1177 29.272 91.2447 29.272H91.3082C91.3717 29.272 91.4987 29.272 91.5622 29.272C91.6256 29.272 91.7526 29.272 91.8161 29.272C91.8161 29.272 91.8161 29.272 91.8161 29.3355C91.8161 29.3355 91.6891 29.3355 91.6257 29.3355C91.4987 29.3355 91.3717 29.3355 91.2447 29.3355C91.2447 29.3355 91.2447 29.3355 91.1812 29.3355C91.1177 29.3355 91.0542 29.3355 90.9907 29.3355L90.9272 29.399Z" fill="#EF6800"/>
<path d="M91.0542 28.3829C90.9272 28.5099 90.8637 28.5734 90.9272 28.7004C90.9272 28.7004 90.9272 28.7639 91.0542 28.7639C91.0542 28.7639 91.0542 28.7004 91.0542 28.6369C91.0542 28.6369 91.1177 28.6369 91.1812 28.6369C91.1812 28.6369 91.3082 28.6369 91.3082 28.7004C91.3717 28.7004 91.4987 28.7004 91.5622 28.7004C91.5622 28.7004 91.5622 28.7004 91.6257 28.7004C91.6892 28.7004 91.8162 28.7004 91.8797 28.7004C91.8797 28.6369 91.8797 28.5099 91.8162 28.4464C91.8162 28.4464 91.8162 28.4464 91.7527 28.4464C91.7527 28.4464 91.8797 28.4464 91.9432 28.5099C92.0067 28.5734 91.9432 28.7004 91.9432 28.8274C91.9432 28.8274 91.8162 28.8909 91.6892 28.8274C91.6892 28.8274 91.6257 28.8274 91.5622 28.8274C91.4352 28.8274 91.3082 28.8274 91.2447 28.8274C91.2447 28.8274 91.2447 28.8274 91.1812 28.8274C91.0542 28.8909 90.9907 28.8909 90.9272 28.8274C90.8637 28.7639 90.9272 28.5734 90.9272 28.5099C90.9272 28.5099 90.9907 28.4464 91.1177 28.5099L91.0542 28.3829Z" fill="#EF6800"/>
<path d="M92.4511 30.0974C92.4511 30.0974 92.4511 30.1609 92.4511 30.2244C92.3241 30.4784 92.0066 30.6054 91.7526 30.5419C91.6257 30.5419 91.4987 30.5419 91.3717 30.5419C91.2447 30.5419 91.1177 30.5419 90.9907 30.5419C90.8637 30.5419 90.8002 30.4149 90.7367 30.2879C90.8637 30.5419 91.0542 30.6054 91.3717 30.5419C91.4987 30.5419 91.6257 30.5419 91.7526 30.5419C92.0701 30.5419 92.2606 30.5419 92.4511 30.2244V30.0974Z" fill="#EF6800"/>
<path d="M92.0702 28.002C91.9432 28.002 91.8162 28.002 91.7527 27.875V27.8115C91.7527 27.8115 91.8162 27.8115 91.8797 27.8115C92.0067 27.8115 92.0702 27.8115 92.1972 27.8115C92.1972 27.8115 92.2607 27.8115 92.3242 27.8115C92.3242 27.8115 92.3242 27.8115 92.3242 27.875C92.2607 27.9385 92.1337 28.002 92.0702 28.002Z" fill="#EF6800"/>
<path d="M90.2922 27.875C90.2922 27.875 90.4192 27.8115 90.4827 27.875C90.6097 27.875 90.7367 27.875 90.8637 27.875C90.8637 27.875 90.8637 27.875 90.9272 27.875C90.9272 27.875 90.9272 27.875 90.9907 27.875C90.8002 28.0655 90.6732 28.0655 90.4827 27.9385C90.4827 27.9385 90.4192 27.9385 90.3557 27.875H90.2922Z" fill="#EF6800"/>
<path d="M90.2922 27.3671C90.2922 27.3671 90.2922 27.3671 90.3557 27.3671C90.4827 27.3671 90.6732 27.3036 90.8637 27.3671C90.8637 27.3671 90.8637 27.3671 90.9272 27.3671V27.4306C90.9272 27.4306 90.9272 27.4306 90.8637 27.4306C90.8637 27.4306 90.8002 27.4306 90.7367 27.4306C90.6097 27.4306 90.4827 27.4306 90.3557 27.4306L90.2922 27.3671Z" fill="#EF6800"/>
<path d="M92.1972 27.24C92.0702 27.24 92.0067 27.3035 91.8797 27.367H91.7527C91.7527 27.3035 91.7527 27.24 91.8162 27.24C91.9432 27.24 92.0067 27.24 92.1337 27.24C92.1337 27.24 92.1972 27.24 92.2607 27.24H92.1972Z" fill="#EF6800"/>
<path d="M21.7794 29.0813C21.7794 29.2083 21.7794 29.2718 21.8429 29.3988C21.2714 29.5893 20.6364 29.7798 20.065 29.9703C20.065 29.9068 20.065 29.8433 20.065 29.7163C20.065 29.5893 20.065 29.4623 20.192 29.3353C20.2554 29.2083 20.3824 29.0179 20.5094 28.8274C20.7634 28.5099 20.8904 28.2559 20.9539 28.0654C21.0174 27.8749 21.0174 27.7479 21.0174 27.6209C21.0174 27.4939 20.8904 27.4304 20.8269 27.3669C20.6999 27.3669 20.5729 27.3034 20.4459 27.3669C20.3189 27.3669 20.192 27.4939 20.1285 27.6209C20.065 27.7479 20.065 27.8749 20.1285 28.0654C20.0015 28.0654 19.8745 28.0654 19.811 28.0654C19.811 27.8114 19.811 27.6209 19.938 27.4304C20.065 27.2399 20.2554 27.113 20.5094 27.0495C20.7634 26.986 21.0174 26.986 21.1444 27.0495C21.3349 27.113 21.4619 27.3034 21.4619 27.4939C21.4619 27.6209 21.4619 27.6844 21.4619 27.8114C21.4619 27.9384 21.3984 28.0654 21.3349 28.1924C21.2714 28.3194 21.1444 28.5734 20.9539 28.8274C20.7634 29.0813 20.6999 29.2083 20.6364 29.2718C20.6364 29.3353 20.5729 29.3988 20.5094 29.4623C20.9539 29.3353 21.3984 29.2083 21.8429 29.0179L21.7794 29.0813Z" fill="#603913"/>
<path d="M37.9075 20.6364C37.7805 20.6364 37.717 20.7634 37.59 20.8269C37.463 20.1919 37.2725 19.557 37.1455 18.8585C37.1455 18.9855 37.0185 19.1125 36.8915 19.2395C36.7645 19.3665 36.701 19.4935 36.5741 19.6205C36.5741 19.4935 36.5741 19.43 36.5106 19.303C36.701 19.1125 36.828 18.922 36.955 18.7315C37.082 18.541 37.1455 18.3505 37.1455 18.2236C37.209 18.2236 37.2725 18.1601 37.336 18.0966C37.5265 18.922 37.717 19.7475 37.9075 20.5729V20.6364Z" fill="#603913"/>
<path d="M40.3839 18.9855C40.3839 19.1125 40.3839 19.176 40.4474 19.303C39.8759 19.557 39.2409 19.8745 38.6695 20.1919C38.6695 20.1285 38.6695 20.065 38.6695 19.938C38.6695 19.811 38.6695 19.684 38.7964 19.4935C38.8599 19.303 38.9869 19.1125 39.1139 18.922C39.3679 18.541 39.4949 18.2871 39.5584 18.0966C39.6219 17.9061 39.6219 17.7791 39.6219 17.6521C39.6219 17.5251 39.4949 17.4616 39.4314 17.3981C39.3044 17.3981 39.1774 17.3981 39.0504 17.3981C38.8599 17.4616 38.7964 17.5886 38.7329 17.7156C38.6695 17.8426 38.6695 18.0331 38.7329 18.1601C38.606 18.1601 38.479 18.287 38.4155 18.287C38.4155 18.0331 38.4155 17.8426 38.5425 17.5886C38.6695 17.3981 38.8599 17.2076 39.1139 17.0806C39.3679 16.9536 39.6219 16.8901 39.7489 16.9536C39.9394 16.9536 40.0664 17.1441 40.0664 17.3346C40.0664 17.4616 40.0664 17.5251 40.0664 17.6521C40.0664 17.7791 40.0029 17.9061 39.9394 18.0966C39.8759 18.2236 39.7489 18.4775 39.5584 18.795C39.3679 19.049 39.3044 19.2395 39.2409 19.303C39.2409 19.3665 39.1774 19.4935 39.1139 19.557C39.5584 19.303 40.0029 19.1125 40.4474 18.922L40.3839 18.9855Z" fill="#603913"/>
<path d="M15.1757 34.9231C15.3027 34.9231 15.3662 34.9231 15.4932 34.9231C15.5567 35.1136 15.6837 35.2406 15.7472 35.3676C15.8742 35.4311 16.0012 35.4946 16.1282 35.4946C16.2552 35.4946 16.3822 35.4946 16.5092 35.3041C16.5727 35.1771 16.6362 35.0501 16.5727 34.8597C16.5727 34.7327 16.4457 34.6057 16.3187 34.4787C16.1917 34.3517 16.0647 34.3517 15.9377 34.3517C15.9377 34.3517 15.8107 34.3517 15.6837 34.3517C15.6837 34.2247 15.6837 34.1612 15.6837 34.0342C15.8107 34.0342 15.9377 34.0342 16.0647 33.9072C16.1917 33.8437 16.1917 33.7167 16.1282 33.5262C16.1282 33.3992 16.0647 33.2722 15.9377 33.2087C15.8107 33.1452 15.7472 33.0817 15.6202 33.0817C15.4932 33.0817 15.3662 33.0817 15.3027 33.2087C15.2392 33.2722 15.2392 33.3992 15.2392 33.5897C15.1122 33.5897 14.9852 33.5897 14.9218 33.5262C14.9218 33.2722 14.9218 33.1452 15.1122 33.0182C15.2392 32.8913 15.3662 32.8278 15.6202 32.8278C15.7472 32.8278 15.9377 32.8278 16.0647 32.9548C16.1917 33.0182 16.3187 33.0817 16.3822 33.2087C16.4457 33.3357 16.5092 33.4627 16.5727 33.5897C16.5727 33.7167 16.5727 33.8437 16.5727 33.9072C16.5727 34.0342 16.4457 34.0977 16.3187 34.1612C16.5092 34.1612 16.6362 34.2882 16.7632 34.4152C16.8901 34.5422 16.9536 34.6692 17.0171 34.8597C17.0171 35.1136 17.0171 35.3041 16.8901 35.4946C16.7632 35.6851 16.5727 35.7486 16.3187 35.7486C16.0647 35.7486 15.8742 35.6851 15.6837 35.4946C15.4932 35.3676 15.3662 35.1136 15.3027 34.9231H15.1757Z" fill="#603913"/>
<path d="M24.0018 41.7807C24.0018 41.5902 23.8748 41.3997 23.8748 41.1457C23.4938 41.3362 23.1128 41.4632 22.7318 41.6537C22.7318 41.5267 22.7318 41.4632 22.6683 41.3362C22.9223 40.6377 23.2398 39.8757 23.4938 39.1773C23.5573 39.1773 23.6843 39.1138 23.7478 39.0503C23.8748 39.6218 24.0018 40.1297 24.1288 40.7012C24.2558 40.7012 24.3827 40.5742 24.5097 40.5107C24.5097 40.5742 24.5097 40.7012 24.5732 40.7647C24.4462 40.7647 24.3192 40.8917 24.1923 40.9552C24.1923 41.1457 24.3192 41.3362 24.3192 41.5902C24.1923 41.5902 24.1288 41.7171 24.0018 41.7171V41.7807ZM23.8113 40.8917C23.7478 40.5107 23.6208 40.1297 23.5573 39.7488C23.3668 40.2567 23.1763 40.7647 22.9858 41.2727C23.2398 41.1457 23.5573 41.0187 23.8113 40.8917Z" fill="#603913"/>
<path d="M27.0496 51.4322C26.9226 51.4957 26.8591 51.5592 26.7321 51.6227C26.7321 51.4957 26.6051 51.4322 26.5417 51.4322C26.4147 51.4322 26.2877 51.4322 26.1607 51.4322C26.0337 51.4322 25.9702 51.5592 25.9067 51.6862C25.8432 51.8132 25.7797 51.9402 25.7162 52.1307C25.7162 52.3212 25.7162 52.5117 25.7162 52.7657C25.7162 52.6387 25.8432 52.4482 25.9702 52.3847C26.0972 52.2577 26.1607 52.1942 26.2877 52.1307C26.4782 52.0037 26.7321 52.0037 26.9226 52.0672C27.1131 52.1307 27.2401 52.2577 27.3036 52.5117C27.3036 52.6387 27.3036 52.8292 27.3036 53.0197C27.3036 53.2102 27.1766 53.3371 27.0496 53.4641C26.9226 53.5911 26.7956 53.7181 26.6686 53.7816C26.4147 53.9086 26.1607 53.9721 25.9067 53.8451C25.7162 53.7181 25.5257 53.4641 25.3987 53.0197C25.2717 52.5117 25.2717 52.1307 25.3987 51.8132C25.5257 51.5592 25.7162 51.3053 26.0337 51.1783C26.2242 51.0513 26.4147 51.0513 26.6051 51.0513C26.7956 51.0513 26.8591 51.1783 26.9861 51.3688L27.0496 51.4322ZM25.9702 53.2102C25.9702 53.3371 26.0337 53.4006 26.0972 53.4641C26.1607 53.5276 26.2242 53.5911 26.3512 53.5911C26.4782 53.5911 26.5417 53.5911 26.6686 53.5276C26.7956 53.4641 26.9226 53.3371 26.9861 53.2102C27.0496 53.0832 27.0496 52.8927 26.9861 52.7022C26.9861 52.5117 26.8591 52.4482 26.7321 52.3847C26.6051 52.3847 26.4782 52.3847 26.3512 52.3847C26.2242 52.4482 26.0972 52.5752 26.0337 52.7022C25.9702 52.8292 25.9067 53.0197 26.0337 53.1467L25.9702 53.2102Z" fill="#603913"/>
<path d="M43.5587 43.1141C43.4317 43.1141 43.3047 43.1141 43.1777 42.9871C43.1142 42.9236 43.0507 42.7966 42.9872 42.6696C42.9872 42.4791 42.9872 42.2887 43.1142 42.0982C43.2412 41.9077 43.3682 41.7807 43.6222 41.7172C43.8762 41.6537 44.0667 41.6537 44.2572 41.7172C44.4477 41.7807 44.5112 41.9712 44.5747 42.1617C44.5747 42.2887 44.5747 42.4156 44.5747 42.4791C44.5747 42.6061 44.4477 42.6696 44.3207 42.7966C44.5112 42.7966 44.6382 42.7966 44.7652 42.9236C44.8921 42.9871 44.9556 43.1776 45.0191 43.3046C45.0191 43.5586 45.0191 43.7491 44.8921 43.9396C44.7651 44.1301 44.5747 44.257 44.3207 44.3205C44.0667 44.384 43.8127 44.384 43.6222 44.3205C43.4317 44.1936 43.3047 44.0666 43.2412 43.8126C43.2412 43.6221 43.2412 43.4951 43.2412 43.3681C43.2412 43.2411 43.4317 43.1141 43.5587 42.9871V43.1141ZM43.4952 43.8126C43.4952 43.8761 43.5587 44.0031 43.6222 44.0666C43.6222 44.1301 43.7492 44.1935 43.8762 44.1935C44.0032 44.1935 44.0667 44.1935 44.1937 44.1935C44.3207 44.1935 44.4477 44.0666 44.5747 43.9396C44.6382 43.8126 44.7017 43.6856 44.6382 43.4951C44.6382 43.3681 44.5112 43.2411 44.3842 43.1776C44.2572 43.1141 44.1302 43.1141 43.9397 43.1776C43.8127 43.1776 43.6857 43.3046 43.5587 43.4316C43.4952 43.5586 43.4317 43.6856 43.4952 43.8761V43.8126ZM43.3682 42.6061C43.3682 42.7331 43.4317 42.7966 43.5587 42.8601C43.6857 42.8601 43.7492 42.8601 43.8762 42.8601C44.0032 42.8601 44.1302 42.7331 44.1302 42.6696C44.1302 42.5426 44.1937 42.4791 44.1302 42.3521C44.1302 42.2252 44.0667 42.1617 43.9397 42.0982C43.8127 42.0982 43.7492 42.0982 43.6222 42.0982C43.4952 42.0982 43.4317 42.2252 43.3682 42.3521C43.3047 42.4791 43.3047 42.5426 43.3682 42.6696V42.6061Z" fill="#603913"/>
<path d="M40.7013 32.4467C40.5743 32.4467 40.5108 32.5737 40.3838 32.5737C40.2568 31.9388 40.0663 31.2403 39.9393 30.6053C39.9393 30.7323 39.8124 30.8593 39.6854 30.9863C39.5584 31.1133 39.4949 31.2403 39.3679 31.3038C39.3679 31.1768 39.3679 31.1133 39.3044 30.9863C39.4949 30.7958 39.6219 30.6053 39.6854 30.4784C39.8124 30.2879 39.8759 30.1609 39.8759 29.9704C39.9393 29.9704 40.0028 29.9069 40.0663 29.8434C40.2568 30.6688 40.4473 31.5578 40.6378 32.3832L40.7013 32.4467Z" fill="#603913"/>
<path d="M41.2728 30.8593C41.2093 30.5418 41.1458 30.2879 41.2093 30.0974C41.2093 29.9069 41.2728 29.7164 41.3998 29.5259C41.5268 29.3989 41.6538 29.2719 41.8443 29.1449C41.9712 29.1449 42.0982 29.0814 42.2252 29.0814C42.3522 29.0814 42.4792 29.0814 42.5427 29.2084C42.6697 29.2719 42.7332 29.3989 42.7967 29.5259C42.8602 29.6529 42.9237 29.8434 42.9872 30.0974C43.0507 30.4149 43.0507 30.6688 43.0507 30.8593C43.0507 31.0498 42.9872 31.2403 42.8602 31.3673C42.7332 31.4943 42.6062 31.6213 42.4157 31.6848C42.1617 31.8118 41.9077 31.7483 41.7173 31.6848C41.4633 31.5578 41.3363 31.2403 41.2093 30.7323L41.2728 30.8593ZM41.5903 30.6688C41.7173 31.1133 41.7808 31.3673 41.9712 31.4308C42.0982 31.5578 42.2252 31.5578 42.4157 31.4308C42.5427 31.4308 42.6697 31.2403 42.7332 31.0498C42.7967 30.8593 42.7332 30.5418 42.7332 30.1609C42.6062 29.7164 42.5427 29.4624 42.3522 29.3989C42.2252 29.2719 42.0982 29.2719 41.9077 29.3989C41.7808 29.3989 41.6538 29.5894 41.5903 29.7164C41.5268 29.9069 41.5268 30.2244 41.5903 30.6688Z" fill="#603913"/>
<path d="M31.3674 29.6529C31.2404 29.7164 31.1769 29.7799 31.0499 29.8434C30.9229 29.2084 30.7324 28.5734 30.6054 27.9385C30.6054 28.0655 30.4784 28.1925 30.3514 28.3195C30.2244 28.4464 30.1609 28.5734 30.034 28.7004C30.034 28.5734 30.034 28.5099 29.9705 28.383C30.1609 28.1925 30.2879 28.002 30.3514 27.8115C30.4784 27.621 30.5419 27.4305 30.5419 27.3035C30.6054 27.3035 30.6689 27.24 30.7324 27.1765C30.9229 28.002 31.1134 28.8274 31.3039 29.6529H31.3674Z" fill="#603913"/>
<path d="M33.0818 42.2888C33.0818 42.1618 33.0818 42.0983 33.0183 41.9713C33.5898 41.5903 34.1613 41.2728 34.7327 40.8918C34.7327 40.9553 34.7327 41.0188 34.7327 41.1458C34.6057 41.3998 34.4787 41.7173 34.4152 42.0983C34.2882 42.4793 34.2247 42.8602 34.2247 43.1777C34.2247 43.4317 34.2247 43.6857 34.2247 43.9397C34.0978 44.0032 33.9708 44.0667 33.9073 44.1302C33.9073 43.9397 33.9073 43.6857 33.9073 43.3682C33.9073 43.0507 33.9073 42.7332 34.0343 42.3523C34.0978 42.0348 34.2247 41.7173 34.3517 41.3998C33.9073 41.6538 33.4628 41.9078 33.0183 42.2253L33.0818 42.2888Z" fill="#603913"/>
<path d="M48.3209 37.717C48.3844 37.717 48.5114 37.717 48.5749 37.717C48.5749 37.8439 48.7019 37.9074 48.7654 37.9709C48.8289 37.9709 48.9559 38.0344 49.0194 38.0344C49.0829 38.0344 49.2099 38.0344 49.2734 38.0344C49.2734 38.0344 49.4003 37.9709 49.4003 37.9074C49.4003 37.8439 49.4003 37.7804 49.4003 37.6535C49.4003 37.5265 49.4003 37.3995 49.4003 37.336C49.4003 37.3995 49.2734 37.463 49.2099 37.5265C49.1464 37.5265 49.0194 37.59 48.8924 37.59C48.7019 37.59 48.5114 37.59 48.3209 37.3995C48.1304 37.2725 48.0669 37.082 48.0034 36.8915C48.0034 36.6375 48.0034 36.5105 48.1304 36.32C48.2574 36.193 48.3844 36.066 48.6384 36.066C48.7654 36.066 48.9559 36.066 49.0829 36.193C49.2099 36.2565 49.3368 36.3835 49.4638 36.5105C49.5908 36.6375 49.6543 36.8915 49.7178 37.1455C49.7178 37.463 49.7813 37.6535 49.7178 37.8439C49.7178 38.0344 49.5908 38.1614 49.5273 38.2249C49.4003 38.2884 49.2734 38.3519 49.0829 38.3519C48.8924 38.3519 48.7019 38.3519 48.5749 38.2249C48.4479 38.1614 48.3209 37.9709 48.2574 37.8439L48.3209 37.717ZM49.3368 36.701C49.3368 36.5105 49.2099 36.3835 49.1464 36.32C49.0194 36.2565 48.8924 36.193 48.7654 36.193C48.6384 36.193 48.5114 36.193 48.4479 36.3835C48.3844 36.5105 48.3209 36.6375 48.4479 36.7645C48.4479 36.8915 48.5749 37.0185 48.6384 37.082C48.7654 37.1455 48.8924 37.209 49.0194 37.209C49.1464 37.209 49.2733 37.209 49.3368 37.082C49.4003 37.0185 49.4003 36.8915 49.3368 36.701Z" fill="#603913"/>
<path d="M18.668 50.7338C18.795 50.7338 18.8585 50.7338 18.9855 50.6703C18.9855 50.7973 19.1125 50.8607 19.2395 50.9242C19.3665 50.9242 19.4299 50.9242 19.5569 50.9242C19.6839 50.9242 19.8109 50.7973 19.8744 50.6703C19.9379 50.5433 20.0014 50.4163 19.8744 50.2258C19.8744 50.0988 19.7474 49.9718 19.6204 49.9083C19.4934 49.9083 19.3665 49.8448 19.2395 49.9083C19.1125 49.9083 19.049 49.9083 18.9855 50.0353C18.922 50.0353 18.8585 50.1623 18.8585 50.2258C18.795 50.2258 18.668 50.2258 18.6045 50.2258C18.6045 49.8448 18.6045 49.4638 18.6045 49.0828C18.9855 49.0193 19.4299 48.9559 19.8109 48.8289C19.8109 48.8924 19.8109 49.0193 19.8109 49.0828C19.4934 49.1463 19.176 49.2098 18.8585 49.2733C18.8585 49.4638 18.8585 49.6543 18.8585 49.9083C18.9855 49.7813 19.1125 49.7178 19.303 49.6543C19.4934 49.6543 19.6839 49.6543 19.8744 49.7178C20.0649 49.7813 20.1284 49.9718 20.1919 50.1623C20.1919 50.3528 20.1919 50.5433 20.1284 50.7338C20.0014 50.9242 19.8109 51.1147 19.5569 51.1782C19.3665 51.1782 19.176 51.1782 18.9855 51.1782C18.795 51.1147 18.7315 50.9877 18.668 50.7973V50.7338Z" fill="#603913"/>
<path d="M45.2097 22.7318C45.0827 22.7318 45.0192 22.7318 44.8922 22.7953C44.7652 22.0968 44.5747 21.3984 44.4477 20.6999C44.4477 20.8269 44.3207 20.8904 44.1937 21.0174C44.0667 21.1444 44.0032 21.2079 43.8762 21.2714C43.8762 21.1444 43.8762 21.0809 43.8127 20.9539C44.0032 20.8269 44.1302 20.6364 44.1937 20.5094C44.3207 20.3189 44.3842 20.1919 44.3842 20.0649C44.4477 20.0649 44.5112 20.0649 44.5747 20.0649C44.7652 20.9539 44.9557 21.8428 45.1462 22.7318H45.2097Z" fill="#603913"/>
<path d="M47.051 22.4143C46.924 22.4143 46.8605 22.4143 46.7336 22.4143C46.6066 21.7159 46.4161 21.0174 46.2891 20.3189C46.2891 20.3824 46.1621 20.5094 46.0351 20.6364C45.9081 20.7634 45.8446 20.8269 45.7176 20.8904C45.7176 20.7634 45.7176 20.6999 45.6541 20.5729C45.8446 20.4459 45.9716 20.3189 46.0986 20.1284C46.2256 20.0014 46.2891 19.811 46.2891 19.684C46.3526 19.684 46.4161 19.684 46.4796 19.684C46.6701 20.5729 46.8605 21.5254 47.051 22.4143Z" fill="#603913"/>
<path d="M17.2076 59.8138C14.7312 48.4479 12.2549 36.3835 9.7785 23.4302C22.4143 30.3514 35.1137 12.7628 47.7495 11.6833C50.2259 23.0492 52.7022 35.1136 55.1786 48.0669C42.5428 41.1458 29.8434 58.7344 17.2076 59.8138ZM17.5886 59.2423C29.9069 57.8454 42.2888 41.2093 54.6071 47.2415C52.1943 34.7961 49.7814 23.2397 47.3685 12.1913C35.0502 13.5882 22.6683 30.2244 10.35 24.1922C12.7628 36.6375 15.1757 48.1939 17.5886 59.2423Z" fill="#EF6800"/>
<path d="M13.9058 42.2252C18.8585 37.3995 23.8112 29.4624 28.764 20.9539C36.1931 22.2873 43.5587 22.2873 50.9878 29.1449C45.9716 33.9707 41.0188 41.9712 36.0026 50.5433C28.637 49.1464 21.2714 49.0829 13.9058 42.2252ZM14.6677 42.3522C21.7158 48.5114 28.764 48.6384 35.8121 49.9718C40.5743 41.7808 45.4001 34.0342 50.1623 29.0814C43.0507 22.9857 35.9391 22.8588 28.8275 21.5888C24.0652 29.7799 19.303 37.3995 14.6042 42.3522H14.6677Z" fill="#EF6800"/>
<path d="M17.2076 59.8138C17.2076 59.6868 17.2076 59.6233 17.1441 59.4963C27.3036 47.1779 37.3995 24.1922 47.559 11.7468C47.559 11.7468 47.686 11.7468 47.7495 11.7468C47.7495 11.9373 47.813 12.0643 47.8765 12.2548C37.7805 24.5096 27.6845 47.2414 17.5886 59.8138C17.4616 59.8138 17.3346 59.8138 17.2076 59.8138Z" fill="#EF6800"/>
<path d="M54.8611 47.94C39.8759 28.764 24.8907 43.4317 9.842 23.9383C9.842 23.7478 9.842 23.6208 9.7785 23.4303C9.842 23.4303 9.96899 23.4938 10.0325 23.5573C25.0812 42.8603 40.0664 28.0656 55.1151 47.6225C55.1151 47.7495 55.1151 47.94 55.1786 48.067C55.0516 48.067 54.9881 47.94 54.8611 47.8765V47.94Z" fill="#EF6800"/>
<path d="M101.976 28.002C101.404 26.6051 100.579 25.3352 99.4993 24.3192C99.1818 24.0018 98.8643 23.7478 98.4834 23.4938C97.6579 22.8588 96.7055 22.3508 95.6895 21.9699C94.2291 21.3984 92.6417 21.1444 90.9273 21.1444C89.2128 21.1444 88.7049 21.2714 87.6889 21.5889C86.673 21.9064 85.784 22.2874 84.9586 22.7953C84.8316 22.9223 84.6411 22.9858 84.5141 23.1128C83.8791 23.5573 83.3077 24.0653 82.7997 24.6367C82.1647 25.3352 81.6568 26.1606 81.2123 26.9861C80.7678 27.8116 80.4503 28.764 80.1963 29.7165C79.9423 30.6689 79.8788 31.6214 79.8788 32.6373C79.8788 34.3517 80.1963 35.9391 80.7678 37.3361C81.3393 38.733 82.1647 39.9394 83.2442 40.9554C84.3236 41.9713 85.5935 42.7333 86.9905 43.3047C88.4509 43.8762 90.0383 44.1302 91.7527 44.1302C93.4671 44.1302 93.9751 44.0032 94.9275 43.6857C95.9435 43.3682 96.8324 42.9873 97.6579 42.4793C98.4834 41.9713 99.1818 41.3363 99.8803 40.6379C100.515 39.9394 101.087 39.114 101.468 38.2885C101.912 37.463 102.23 36.5741 102.484 35.6216C102.738 34.6692 102.801 33.7167 102.801 32.7008C102.801 30.9864 102.484 29.399 101.912 28.002H101.976ZM85.3396 24.8907C86.038 24.1288 86.8635 23.5573 87.8159 23.1128C88.7684 22.7318 89.7843 22.4778 90.9273 22.4778C92.0702 22.4778 93.5941 22.7318 94.6736 23.3033C95.753 23.8748 96.642 24.6367 97.4039 25.6527C98.1024 26.6686 98.6738 27.8116 99.0548 29.2085C99.4358 30.5419 99.6263 32.0658 99.6263 33.5898C99.6263 35.1137 99.4358 36.3201 99.0548 37.3995C98.6738 38.5425 98.1659 39.4949 97.4674 40.2569C96.7689 41.0189 95.9435 41.6538 94.991 42.0348C94.0386 42.4158 93.0226 42.6698 91.8797 42.6698C90.7368 42.6698 89.2129 42.4158 88.1334 41.8443C87.054 41.2728 86.165 40.5109 85.4031 39.4949C84.7046 38.479 84.1331 37.3361 83.7521 35.9391C83.3712 34.6057 83.1807 33.0818 83.1807 31.5579C83.1807 30.0339 83.3712 28.8275 83.7521 27.7481C84.1331 26.6051 84.6411 25.6527 85.3396 24.8907Z" fill="black"/>
</svg>
