<svg width="111" height="111" viewBox="0 0 111 111" fill="none" xmlns="http://www.w3.org/2000/svg">
<path d="M111 55.5279C111 86.0871 86.2271 110.861 55.6677 110.861C25.1072 110.861 0.334473 86.0871 0.334473 55.5279C0.334473 24.9686 25.1072 0.194664 55.6677 0.194664C86.2271 0.194664 111 24.9686 111 55.5279Z" fill="#FFE4CF"/>
<path d="M73.053 28.4055C73.1541 28.3695 65.0074 18.8612 60.8334 19.5658C56.8153 20.2564 60.3858 22.7015 52.8936 24.9582C45.441 27.3603 48.207 31.1389 48.1802 31.1122C56.4235 29.6879 64.7307 28.7845 73.053 28.4055Z" fill="#CF4D2A"/>
<path d="M71.4427 28.354C70.5952 27.5355 69.7348 26.7274 68.8512 25.938C67.9675 25.1474 67.0676 24.3684 66.1189 23.6336C65.1911 22.879 64.2099 22.171 63.1821 21.5106C62.1543 20.8572 61.0811 20.234 59.8719 19.8027C61.1416 20.1235 62.2717 20.7095 63.3413 21.3327C64.4121 21.9617 65.3993 22.6791 66.3503 23.422C67.2851 24.1801 68.1919 24.9614 69.0383 25.7869C69.8859 26.6112 70.6998 27.4599 71.4427 28.354Z" fill="#E75F2C"/>
<path d="M68.443 28.3579C66.8955 27.0185 65.3828 25.6478 63.7807 24.3491C62.9959 23.6852 62.1808 23.0469 61.3426 22.4318C60.9287 22.1179 60.4974 21.8226 60.0497 21.5447C59.8242 21.411 59.6079 21.2576 59.3603 21.1506C59.2393 21.0948 59.1219 21.0273 58.9952 20.9808C58.8626 20.9425 58.7278 20.9053 58.5952 20.8681C58.7347 20.8913 58.8754 20.9169 59.0149 20.9401C59.1521 20.9762 59.2742 21.0355 59.4044 21.0831C59.6718 21.1727 59.9021 21.3099 60.1474 21.4273C60.6206 21.6854 61.0752 21.9656 61.5135 22.2598C62.3936 22.8457 63.2098 23.491 64.0155 24.1409C65.5956 25.471 67.0978 26.8581 68.443 28.3579Z" fill="#E75F2C"/>
<path d="M65.119 28.4951C63.8552 27.5069 62.6472 26.4686 61.388 25.4734C60.773 24.9618 60.1405 24.4665 59.4999 23.9794C59.1837 23.7329 58.8604 23.491 58.5244 23.262C58.1965 23.0237 57.8547 22.8039 57.4722 22.626C58.2988 22.8876 58.9871 23.362 59.6708 23.8084C60.3509 24.2665 60.9846 24.7653 61.6206 25.2629C62.8553 26.2872 64.0517 27.3406 65.119 28.4951Z" fill="#E75F2C"/>
<path d="M61.5195 28.7891C60.4487 27.9961 59.4244 27.1648 58.3385 26.3905C57.8118 25.9871 57.2595 25.6103 56.7015 25.2406C56.1411 24.8721 55.5725 24.5128 54.9447 24.2152C55.6365 24.4047 56.2585 24.7256 56.8573 25.0593C57.4549 25.3976 58.0106 25.7813 58.5583 26.1696C59.6256 26.9765 60.6429 27.8275 61.5195 28.7891Z" fill="#E75F2C"/>
<path d="M57.9954 29.2158C57.0025 28.5694 56.077 27.8613 55.119 27.1835C54.6481 26.8393 54.1738 26.4952 53.6971 26.1522C53.2169 25.815 52.7472 25.4674 52.2135 25.186C52.8169 25.3616 53.3436 25.6744 53.8598 25.9743C54.3737 26.2824 54.8528 26.6266 55.3376 26.9626C56.2735 27.6695 57.1897 28.3938 57.9954 29.2158Z" fill="#E75F2C"/>
<path d="M54.2424 29.9785C53.3773 29.4762 52.5833 28.9019 51.7682 28.3496C51.3706 28.0636 50.9718 27.7776 50.573 27.4939C50.173 27.2079 49.7836 26.9149 49.3604 26.6487C49.858 26.8114 50.2986 27.0672 50.7323 27.316C51.1648 27.5683 51.5705 27.8509 51.9833 28.1252C52.7751 28.7066 53.5587 29.2949 54.2424 29.9785Z" fill="#E75F2C"/>
<path d="M50.9428 30.4448C50.3929 30.1111 49.9302 29.7077 49.4477 29.3205C49.2186 29.1171 48.9884 28.9136 48.7582 28.7101C48.528 28.5067 48.3199 28.2869 48.0594 28.1079C48.3978 28.1846 48.6664 28.3741 48.9338 28.5427C49.1989 28.7183 49.4372 28.9183 49.6825 29.1113C50.1406 29.5263 50.5917 29.9437 50.9428 30.4448Z" fill="#E75F2C"/>
<path d="M99.2139 43.7516C99.1721 43.8086 96.8747 36.9535 86.6794 31.2693C76.3631 24.7154 43.3866 30.624 38.0837 34.5422C38.0732 34.5387 35.4933 37.2849 35.8514 38.7685C36.2083 40.2357 38.465 41.0577 39.3463 41.3972C39.3695 41.4065 39.5312 41.217 39.9974 41.0287C41.1368 40.5671 44.0911 40.1067 51.2741 42.5157C61.3741 45.6154 81.9624 46.8129 89.2058 46.9966C96.4631 46.8524 99.1407 45.1526 99.1454 45.1235C98.5338 44.6596 97.9164 44.1969 97.2967 43.74C97.2967 43.7388 97.5118 43.747 97.8013 43.7563C98.3001 43.7714 99.0174 43.7865 99.2139 43.7516Z" fill="#E75F2C"/>
<path d="M89.5034 46.1432C82.224 45.9455 61.5403 44.7224 51.4066 41.6158C46.1118 39.7858 43.2738 39.7102 41.8635 39.9567C40.0521 40.2834 38.1814 39.9776 36.8001 38.9405C36.3502 38.601 36.0153 38.2348 35.9293 37.8592L35.9246 37.8325C35.8223 38.172 35.7875 38.4929 35.8514 38.7685C36.2083 40.2357 39.0964 41.5216 39.0847 41.5356C39.0324 41.6007 41.1462 39.1184 51.2741 42.5157C61.3741 45.6154 81.9625 46.8129 89.2059 46.9966C96.4632 46.8524 99.1407 45.1526 99.1454 45.1235C98.9663 44.9875 98.7873 44.8526 98.6082 44.7166C97.3002 45.2514 94.4785 46.0374 89.5034 46.1432Z" fill="#CF4D2A"/>
<path d="M93.4681 39.5089C93.4565 40.1077 92.9252 40.5832 92.2823 40.5751C91.6393 40.567 91.1207 40.0798 91.1231 39.481C91.1254 38.8823 91.6555 38.3998 92.3078 38.4067C92.96 38.4149 93.4798 38.909 93.4681 39.5089Z" fill="white"/>
<path d="M92.9218 39.4926C92.9159 39.8123 92.6334 40.0669 92.2893 40.0634C91.944 40.06 91.6672 39.7984 91.6696 39.4786C91.6719 39.1589 91.9544 38.9031 92.302 38.9066C92.6485 38.9101 92.9252 39.174 92.9218 39.4926Z" fill="#3B3E3A"/>
<path d="M92.2707 39.3588C92.2358 39.4321 92.0788 39.4367 91.9207 39.3728C91.7626 39.3065 91.6638 39.1949 91.6987 39.1228C91.7335 39.0484 91.8905 39.0437 92.0498 39.1088C92.2067 39.174 92.3056 39.2867 92.2707 39.3588Z" fill="white"/>
<path d="M87.8874 31.9618C86.8247 32.9234 85.9644 34.0244 85.2656 35.1905C84.5797 36.3625 84.0193 37.5903 83.6647 38.8715C83.5623 39.1889 83.5065 39.5168 83.4251 39.8377C83.3868 39.9993 83.3495 40.1621 83.3123 40.3225C83.2879 40.4865 83.2659 40.6504 83.2426 40.8143C83.1938 41.1422 83.1461 41.4701 83.0984 41.7991C83.0845 42.1293 83.0624 42.4607 83.0368 42.792C83.024 42.9583 83.0124 43.1234 82.9996 43.2896C83.0031 43.457 83.0054 43.6221 83.0089 43.7884C83.0159 44.1221 83.0229 44.4558 83.031 44.7894C83.0484 45.4568 83.1484 46.1207 83.1775 46.7974C83.0171 46.1439 82.8589 45.4836 82.7403 44.815C82.7043 44.479 82.6683 44.1419 82.6322 43.8047C82.6148 43.6361 82.5985 43.4663 82.5811 43.2978C82.5788 43.128 82.5764 42.9583 82.5741 42.7874C82.5009 41.4247 82.7357 40.0621 83.0717 38.7308C83.4496 37.4054 84.046 36.13 84.8517 34.9731C85.2494 34.3918 85.7121 33.8477 86.2016 33.3291C86.7236 32.8338 87.2584 32.3455 87.8874 31.9618Z" fill="#CF4D2A"/>
<path d="M70.5312 44.8397C70.5358 44.8386 67.728 46.7604 65.1771 49.9484C62.6076 53.0899 56.42 55.1572 56.4223 55.1851C56.4142 55.1839 57.628 51.9331 58.0291 50.7495C58.0256 50.7495 55.6538 51.2878 52.9529 51.2216C50.244 51.1646 53.2157 48.6893 54.4737 46.5825C55.7166 44.4305 62.1833 44.2223 62.1751 44.2537C64.976 44.3851 67.7629 44.5804 70.5312 44.8397Z" fill="#CF4D2A"/>
<path d="M68.7394 44.6804C67.8058 45.685 66.8501 46.6639 65.8805 47.6231C64.912 48.5846 63.9191 49.5136 62.9285 50.4379C61.9228 51.3483 60.902 52.2354 59.8404 53.0667C58.7801 53.8922 57.6686 54.6851 56.4222 55.1851C56.7141 55.0211 57.014 54.8723 57.2977 54.6979C57.5721 54.5096 57.8477 54.3224 58.1244 54.1352C58.6604 53.7364 59.1917 53.3329 59.7021 52.8993C60.7276 52.0377 61.7449 51.1564 62.7308 50.2333C63.7342 49.3276 64.7225 48.3975 65.7212 47.4708C66.7164 46.5395 67.7279 45.6141 68.7394 44.6804Z" fill="#E75F2C"/>
<path d="M65.448 44.4364C64.3795 45.7432 63.1843 46.9396 61.9542 48.0871C61.3218 48.644 60.68 49.1928 59.9928 49.6846C59.3069 50.1659 58.5674 50.6322 57.7361 50.8101C57.9291 50.7217 58.128 50.6577 58.3105 50.5589C58.4895 50.452 58.6755 50.3601 58.8465 50.2415C59.0185 50.1253 59.1906 50.009 59.3627 49.8939C59.5278 49.766 59.6917 49.6393 59.8568 49.5125C60.5056 48.9917 61.1415 48.4522 61.7531 47.8825C62.9995 46.7652 64.197 45.5874 65.448 44.4364Z" fill="#E75F2C"/>
<path d="M62.4239 44.008C60.6799 45.0405 58.9836 46.1183 57.3931 47.3135C56.5862 47.8972 55.8246 48.5296 55.0759 49.1726C54.3306 49.8202 53.633 50.5108 52.9529 51.2212C53.5389 50.4364 54.2039 49.7027 54.9212 49.0156C55.6444 48.3343 56.4141 47.696 57.214 47.0914C58.8359 45.9125 60.5613 44.837 62.4239 44.008Z" fill="#E75F2C"/>
<path d="M39.2742 34.0725C39.2765 34.0946 38.7103 32.5227 32.7319 33.8097C26.7954 34.9259 12.1424 36.9187 12.1215 37.0617C12.1319 37.0605 16.9605 40.4183 21.41 41.0856C25.8769 41.7588 26.8942 41.853 26.4943 44.1237C26.0257 46.4094 24.3654 54.9887 25.2235 56.792C25.0898 56.778 31.2263 45.6456 34.9061 44.0946C38.4115 42.5134 40.4125 40.9066 40.4125 40.9008C40.4252 40.8903 36.6873 39.2963 37.4977 37.3884C38.3231 35.4712 39.2742 34.0725 39.2742 34.0725Z" fill="#CF4D2A"/>
<path d="M39.587 40.0241C38.0883 40.6926 36.6396 41.4472 35.227 42.2471C33.8155 43.0505 32.4459 43.9144 31.167 44.8794C29.8718 45.8234 28.6545 46.8617 27.6127 48.0325C26.5745 49.1963 25.6583 50.4811 25.1932 51.9355C25.549 50.4578 26.4105 49.1021 27.4325 47.8988C28.4545 46.6826 29.6892 45.6304 30.9821 44.6608C32.2889 43.7039 33.6679 42.8296 35.1119 42.0611C36.5536 41.2891 38.0453 40.5984 39.587 40.0241Z" fill="#E75F2C"/>
<path d="M37.4209 38.273C35.513 39.1311 33.6039 39.9717 31.7495 40.9065C30.817 41.3622 29.9032 41.8529 29.0056 42.3621C28.1185 42.8853 27.2314 43.419 26.4943 44.1235C27.1372 43.3411 28.015 42.7446 28.8812 42.1807C29.7625 41.6273 30.6845 41.1355 31.6123 40.6577C33.4935 39.7473 35.42 38.9148 37.4209 38.273Z" fill="#E75F2C"/>
<path d="M38.1383 36.0312C35.5502 36.9067 32.947 37.7322 30.3613 38.6193C27.7662 39.4762 25.1932 40.3958 22.604 41.2632C25.1212 40.1703 27.693 39.2378 30.2787 38.3496C32.8726 37.4938 35.4816 36.6823 38.1383 36.0312Z" fill="#E75F2C"/>
<path d="M38.8475 34.7534C36.8989 35.0987 34.9526 35.4591 33.0051 35.8312C31.0588 36.1951 29.1114 36.5904 27.1674 37.0148C26.1931 37.2171 25.22 37.4275 24.2468 37.6449C23.2725 37.8693 22.2959 38.0949 21.3134 38.2739C19.3474 38.6367 17.3569 38.9425 15.3781 38.9634C16.3698 38.9111 17.3581 38.7692 18.3417 38.6088C19.3264 38.4518 20.3054 38.2658 21.2809 38.0588C23.2283 37.6403 25.163 37.1473 27.1151 36.7357C29.0672 36.3334 31.0205 35.9591 32.9749 35.6161C34.9305 35.2812 36.8884 34.9952 38.8475 34.7534Z" fill="#E75F2C"/>
<path d="M38.2813 82.6503C38.1813 82.6876 46.3269 92.1945 50.5009 91.4911C54.5202 90.7993 50.9497 88.3556 58.4418 86.0974C65.8945 83.6967 63.1285 79.918 63.1553 79.9435C54.9108 81.3691 46.6036 82.2711 38.2813 82.6503Z" fill="#CF4D2A"/>
<path d="M39.8916 82.7016C40.7392 83.5205 41.5996 84.3294 42.4843 85.1192C43.3668 85.9085 44.2667 86.6874 45.2154 87.4236C46.1432 88.1766 47.1245 88.8859 48.1523 89.5454C49.1813 90.1999 50.2532 90.823 51.4624 91.2544C50.1951 90.9325 49.0638 90.3475 47.9942 89.7231C46.9222 89.0939 45.9351 88.3768 44.9852 87.6353C44.0492 86.8758 43.1424 86.0943 42.2971 85.269C41.4496 84.4447 40.6345 83.5972 39.8916 82.7016Z" fill="#E75F2C"/>
<path d="M42.8912 82.6981C44.4387 84.0383 45.9525 85.4094 47.5546 86.7078C48.3394 87.3718 49.1533 88.0099 49.9916 88.6253C50.4055 88.9391 50.8368 89.2343 51.2845 89.5123C51.5112 89.6458 51.7263 89.7994 51.9739 89.9066C52.0949 89.9624 52.2122 90.0296 52.339 90.075C52.4727 90.1132 52.6064 90.1518 52.7401 90.189C52.5994 90.1644 52.4599 90.1399 52.3192 90.1158C52.1832 90.0796 52.0599 90.0205 51.9297 89.9728C51.6623 89.8833 51.4321 89.7472 51.1868 89.6286C50.7148 89.3715 50.259 89.0913 49.8218 88.7975C48.9405 88.2112 48.1243 87.5662 47.3198 86.9149C45.7397 85.586 44.2376 84.1977 42.8912 82.6981Z" fill="#E75F2C"/>
<path d="M46.2153 82.5611C47.4803 83.5503 48.6872 84.5876 49.9463 85.584C50.5614 86.094 51.195 86.5895 51.8345 87.0778C52.1519 87.3244 52.4751 87.5664 52.8111 87.794C53.139 88.0324 53.4808 88.2531 53.8633 88.4302C53.0367 88.1695 52.3472 87.694 51.6635 87.2489C50.9834 86.7907 50.3498 86.2907 49.7138 85.7943C48.4802 84.7701 47.2827 83.7156 46.2153 82.5611Z" fill="#E75F2C"/>
<path d="M49.8148 82.2666C50.8868 83.0609 51.9099 83.892 52.997 84.6663C53.5237 85.0697 54.0748 85.4466 54.6341 85.8163C55.1933 86.1847 55.7642 86.5439 56.3897 86.8418C55.6979 86.6519 55.077 86.33 54.4782 85.9962C53.8795 85.6579 53.3237 85.2745 52.7761 84.8862C51.7088 84.0805 50.6915 83.2294 49.8148 82.2666Z" fill="#E75F2C"/>
<path d="M53.3413 81.8399C54.3319 82.4875 55.2586 83.1947 56.2154 83.8722C56.6875 84.2179 57.1618 84.5617 57.6374 84.905C58.1187 85.2421 58.5873 85.5895 59.1221 85.8711C58.5175 85.6953 57.992 85.3828 57.4757 85.0818C56.9607 84.7747 56.4828 84.4304 55.9968 84.0943C55.0609 83.3864 54.1447 82.6619 53.3413 81.8399Z" fill="#E75F2C"/>
<path d="M57.0931 81.0791C57.957 81.5814 58.7511 82.1555 59.5661 82.7069C59.9637 82.9925 60.3625 83.2787 60.7625 83.5634C61.1625 83.8495 61.5519 84.1425 61.974 84.4077C61.4764 84.246 61.0369 83.9903 60.6021 83.7414C60.1696 83.488 59.7638 83.2069 59.3522 82.9321C58.5593 82.3507 57.7768 81.7627 57.0931 81.0791Z" fill="#E75F2C"/>
<path d="M60.3928 80.612C60.9428 80.9458 61.4055 81.3482 61.888 81.7351C62.1159 81.94 62.3461 82.1434 62.5763 82.3469C62.8065 82.5504 63.0158 82.7702 63.2763 82.9478C62.9368 82.8724 62.6682 82.6826 62.4019 82.5132C62.1368 82.3388 61.8973 82.1384 61.6532 81.9454C61.1951 81.5308 60.7428 81.112 60.3928 80.612Z" fill="#E75F2C"/>
<path d="M12.1215 67.3044C12.1645 67.2474 14.4596 74.1035 24.6549 79.7878C34.9712 86.3405 67.9477 80.4318 73.2518 76.5137C73.2611 76.5183 75.841 73.7724 75.4841 72.2878C75.126 70.8212 72.8693 69.9992 71.9891 69.66C71.9659 69.6509 71.8042 69.8389 71.3368 70.0283C70.1986 70.4888 67.2431 70.9508 60.0602 68.5414C49.9614 65.4418 29.3718 64.2431 22.1285 64.0594C14.8712 64.2036 12.1947 65.9034 12.1901 65.9336C12.8005 66.3975 13.4178 66.8591 14.0387 67.3172C14.0387 67.3184 13.8224 67.3091 13.5329 67.3009C13.0342 67.2847 12.3179 67.2695 12.1215 67.3044Z" fill="#E75F2C"/>
<path d="M21.832 64.9139C29.1114 65.1116 49.7951 66.3335 59.9289 69.44C65.2225 71.2704 68.0616 71.3471 69.4708 71.1005C71.2822 70.7735 73.1541 71.0782 74.5341 72.1165C74.9841 72.4562 75.319 72.8213 75.405 73.1979L75.4097 73.2246C75.512 72.8849 75.548 72.5642 75.4841 72.2877C75.126 70.8212 72.2391 69.5341 72.2495 69.5205C72.3018 69.4564 70.1893 71.9389 60.0602 68.5413C49.9614 65.4418 29.3718 64.2431 22.1285 64.0594C14.8712 64.2035 12.1947 65.9033 12.1901 65.9336C12.368 66.0696 12.5481 66.2045 12.7272 66.3393C14.0352 65.8045 16.8558 65.0186 21.832 64.9139Z" fill="#CF4D2A"/>
<path d="M17.8674 71.548C17.879 70.9495 18.4092 70.4739 19.0522 70.4821C19.6963 70.4889 20.2148 70.9762 20.2125 71.5761C20.2102 72.1748 19.6788 72.6575 19.0277 72.6503C18.3743 72.6421 17.8558 72.1471 17.8674 71.548Z" fill="white"/>
<path d="M18.4151 71.5635C18.4186 71.2447 18.7023 70.989 19.0464 70.9936C19.3906 70.9972 19.6685 71.2588 19.6662 71.5785C19.6638 71.8968 19.3801 72.1539 19.0336 72.1494C18.686 72.1458 18.4093 71.8832 18.4151 71.5635Z" fill="#3B3E3A"/>
<path d="M19.0638 71.6984C19.0999 71.6248 19.2557 71.6195 19.4138 71.6843C19.5719 71.7493 19.6719 71.8611 19.6359 71.9342C19.601 72.0077 19.444 72.0131 19.2871 71.9469C19.129 71.8833 19.0289 71.7701 19.0638 71.6984Z" fill="white"/>
<path d="M23.4481 79.0952C24.5096 78.1338 25.3712 77.0315 26.0711 75.8666C26.7559 74.6949 27.3163 73.4668 27.6697 72.1847C27.7732 71.8681 27.829 71.5407 27.9104 71.2182C27.9476 71.058 27.986 70.8953 28.0232 70.7336C28.0464 70.5706 28.0686 70.4057 28.093 70.2432C28.1406 69.9139 28.1883 69.5859 28.236 69.2581C28.2511 68.9279 28.2732 68.5969 28.2988 68.2639C28.3104 68.099 28.3232 67.9329 28.3348 67.7675C28.3325 67.6003 28.329 67.4351 28.3255 67.2689C28.3185 66.9352 28.3115 66.6015 28.3046 66.2678C28.2859 65.5993 28.186 64.9366 28.1569 64.2599C28.3173 64.9133 28.4766 65.5737 28.5941 66.2411C28.6313 66.5771 28.6673 66.9143 28.7022 67.2514C28.7208 67.4212 28.7371 67.5899 28.7545 67.7593C28.7568 67.9283 28.7592 68.099 28.7615 68.2689C28.8336 69.6314 28.5999 70.9952 28.2639 72.3264C27.8848 73.6507 27.2896 74.9274 26.4838 76.0842C26.085 76.6655 25.6223 77.2096 25.1328 77.7283C24.6119 78.2232 24.076 78.712 23.4481 79.0952Z" fill="#CF4D2A"/>
<path d="M40.8031 66.2175C40.7996 66.2186 43.6074 64.2956 46.1583 61.1076C48.7266 57.9672 54.9154 55.9 54.912 55.871C54.9201 55.8721 53.7063 59.1241 53.3064 60.3077C53.3087 60.3077 55.6805 59.7694 58.3825 59.8345C61.0927 59.8914 58.1198 62.3667 56.8606 64.4746C55.6189 66.6256 49.151 66.8348 49.1591 66.8034C46.3595 66.6709 43.5726 66.4756 40.8031 66.2175Z" fill="#CF4D2A"/>
<path d="M42.5959 66.3755C43.5296 65.371 44.4853 64.392 45.4549 63.4328C46.4222 62.4724 47.4163 61.5423 48.4058 60.618C49.4126 59.7088 50.4334 58.8205 51.4938 57.9892C52.5553 57.1649 53.6656 56.372 54.912 55.8709C54.6201 56.036 54.3214 56.1848 54.0377 56.358C53.7633 56.5464 53.4877 56.7335 53.211 56.9219C52.6739 57.3195 52.1425 57.7241 51.6333 58.1578C50.6067 59.0182 49.5905 59.9006 48.6034 60.8238C47.6 61.7283 46.6118 62.6596 45.613 63.5863C44.6178 64.5176 43.6075 65.443 42.5959 66.3755Z" fill="#E75F2C"/>
<path d="M45.8875 66.6196C46.9548 65.3128 48.15 64.1176 49.3801 62.9689C50.0126 62.412 50.6555 61.8644 51.3415 61.3725C52.0286 60.8912 52.7669 60.4238 53.5982 60.2471C53.4064 60.3355 53.2076 60.3994 53.0239 60.4982C52.846 60.6052 52.66 60.6971 52.4879 60.8145C52.317 60.9319 52.1437 61.047 51.9728 61.1633C51.8077 61.29 51.6438 61.4179 51.4776 61.5435C50.8288 62.0643 50.1939 62.6038 49.5812 63.1735C48.3349 64.2908 47.1373 65.4698 45.8875 66.6196Z" fill="#E75F2C"/>
<path d="M48.9104 67.0488C50.6544 66.0164 52.3507 64.9386 53.9413 63.7434C54.7493 63.1597 55.5108 62.5272 56.2584 61.8831C57.0037 61.2355 57.7036 60.5461 58.3826 59.8345C57.7978 60.6193 57.1316 61.3541 56.413 62.0413C55.691 62.7226 54.9202 63.3609 54.1203 63.9643C52.4996 65.1444 50.7753 66.2199 48.9104 67.0488Z" fill="#E75F2C"/>
<path d="M72.0612 76.9837C72.0588 76.9629 72.6251 78.5337 78.6023 77.2481C84.54 76.1317 99.193 74.1375 99.2139 73.9958C99.2023 73.9972 94.3749 70.6381 89.9243 69.9705C85.4573 69.2989 84.44 69.2043 84.8412 66.9339C85.3097 64.6481 86.9688 56.0677 86.1108 54.2644C86.2445 54.2795 80.1079 65.4108 76.4281 66.9618C72.9239 68.5439 70.9218 70.1499 70.9218 70.1559C70.909 70.1663 74.6481 71.76 73.8377 73.6692C73.0123 75.5854 72.06 76.9837 72.0612 76.9837Z" fill="#CF4D2A"/>
<path d="M71.7473 71.0317C73.246 70.3641 74.6958 69.6097 76.1084 68.8086C77.5187 68.0065 78.8896 67.1425 80.1685 66.1764C81.4637 65.2334 82.6798 64.194 83.7215 63.0244C84.7598 61.8606 85.6771 60.5747 86.141 59.1202C85.7864 60.5991 84.9249 61.9547 83.9018 63.1581C82.8809 64.3742 81.6462 65.4264 80.3533 66.3961C79.0465 67.3518 77.6664 68.2259 76.2224 68.9948C74.7818 69.7664 73.289 70.4585 71.7473 71.0317Z" fill="#E75F2C"/>
<path d="M73.9146 72.7827C75.8225 71.9257 77.7304 71.0842 79.5848 70.1495C80.5185 69.6949 81.4311 69.2039 82.3287 68.6948C83.2158 68.1707 84.1053 67.6371 84.8412 66.9335C84.1971 67.7161 83.3193 68.311 82.4531 68.8765C81.5718 69.4288 80.6498 69.9201 79.722 70.3984C77.842 71.3099 75.9143 72.141 73.9146 72.7827Z" fill="#E75F2C"/>
<path d="M73.196 75.0254C75.7841 74.1503 78.3897 73.3247 80.9731 72.4363C83.5681 71.5807 86.1423 70.6609 88.7315 69.7934C86.2132 70.8853 83.6425 71.819 81.0568 72.7074C78.4617 73.563 75.8527 74.3733 73.196 75.0254Z" fill="#E75F2C"/>
<path d="M72.488 76.3022C74.4355 75.958 76.3818 75.5978 78.3292 75.2258C80.2778 74.8607 82.2229 74.4651 84.1669 74.041C85.1412 73.8388 86.1144 73.6295 87.0875 73.4106C88.063 73.1876 89.0385 72.961 90.0221 72.7821C91.987 72.42 93.9774 72.1143 95.9575 72.0921C94.9657 72.1448 93.9763 72.2865 92.9927 72.4481C92.0079 72.6049 91.0289 72.7911 90.0546 72.9982C88.1072 73.4165 86.1714 73.9097 84.2193 74.3198C82.2672 74.7236 80.3151 75.0969 78.3595 75.4398C76.4039 75.7745 74.446 76.0606 72.488 76.3022Z" fill="#E75F2C"/>
<path d="M66.3723 39.2705C60.0207 39.2705 55.0584 37.5079 54.9154 35.0419C54.7562 32.3155 60.5497 29.7611 67.8535 29.3368C68.5511 29.2961 69.2371 29.2763 69.908 29.2763C76.2596 29.2763 81.2217 31.0389 81.3647 33.5049C81.524 36.2313 75.7305 38.7857 68.4267 39.21C67.7291 39.2507 67.0431 39.2705 66.3723 39.2705Z" fill="#E96936"/>
<path d="M40.8275 80.0229C34.4771 80.0229 29.5148 78.2616 29.3707 75.7947C29.2137 73.0679 35.0049 70.5137 42.3087 70.0894C43.0052 70.0486 43.6911 70.0286 44.3597 70.0286C50.7136 70.0286 55.6782 71.7903 55.8212 74.2573C55.9793 76.9836 50.1869 79.5384 42.8831 79.9625C42.1855 80.0034 41.4984 80.0229 40.8275 80.0229Z" fill="#E96936"/>
</svg>
