<svg width="165" height="56" viewBox="0 0 165 56" fill="none" xmlns="http://www.w3.org/2000/svg">
<path d="M32.9406 33.2558C36.6361 31.1904 39.462 29.6167 39.7035 29.4938C40.4764 29.0758 41.2735 27.9693 39.7035 27.1087C39.1963 26.8382 36.467 25.3138 32.9406 23.3467L28.0859 28.3135L32.9406 33.2558Z" fill="#FFD400"/>
<path d="M28.0859 28.3135L12.5797 44.2222C12.9419 44.2713 13.3525 44.173 13.8356 43.9025C14.85 43.337 25.6223 37.3374 32.9407 33.2557L28.0859 28.3135Z" fill="#FF3333"/>
<path d="M28.0859 28.3132L32.9407 23.3464C32.9407 23.3464 14.9225 13.3389 13.8356 12.7488C13.425 12.5029 12.9661 12.4291 12.5555 12.5029L28.0859 28.3132Z" fill="#48FF48"/>
<path d="M28.0859 28.3133L12.5555 12.5029C11.9275 12.6505 11.3961 13.216 11.3961 14.3716C11.3961 16.2158 11.3961 40.8042 11.3961 42.3533C11.3961 43.4106 11.8067 44.1728 12.5796 44.2466L28.0859 28.3133Z" fill="#3BCCFF"/>
<path d="M52.7022 19.9035C51.9883 19.9035 51.3792 19.7793 50.8748 19.531C50.3782 19.2827 49.9903 18.9258 49.7109 18.4603C49.4393 17.9869 49.2919 17.4244 49.2686 16.7726C49.2609 16.4389 49.257 16.082 49.257 15.7018C49.257 15.3138 49.2609 14.9491 49.2686 14.6077C49.2919 13.9637 49.4393 13.4128 49.7109 12.955C49.9903 12.4972 50.3821 12.1441 50.8865 11.8958C51.3986 11.6475 52.0038 11.5234 52.7022 11.5234C53.2686 11.5234 53.7652 11.6009 54.192 11.7561C54.6187 11.9036 54.9718 12.0975 55.2511 12.3381C55.5382 12.5709 55.7516 12.8231 55.8913 13.0946C56.0387 13.3662 56.1163 13.6184 56.1241 13.8512C56.1318 13.921 56.1124 13.9792 56.0659 14.0258C56.0193 14.0723 55.9572 14.0956 55.8796 14.0956H54.6808C54.6032 14.0956 54.545 14.0801 54.5062 14.049C54.4674 14.018 54.4325 13.9714 54.4015 13.9094C54.3394 13.7464 54.2424 13.5874 54.1105 13.4322C53.9786 13.2692 53.8001 13.1334 53.5751 13.0248C53.3501 12.9162 53.0591 12.8618 52.7022 12.8618C52.1745 12.8618 51.7516 13.0015 51.4335 13.2809C51.1231 13.5602 50.9563 14.0219 50.933 14.6659C50.9097 15.341 50.9097 16.0238 50.933 16.7144C50.9563 17.3739 51.127 17.8473 51.4451 18.1344C51.771 18.4215 52.1978 18.565 52.7254 18.565C53.0746 18.565 53.385 18.5029 53.6566 18.3788C53.9359 18.2546 54.1532 18.0606 54.3084 17.7968C54.4713 17.533 54.5528 17.1955 54.5528 16.7842V16.4234H53.1328C53.0552 16.4234 52.9893 16.3963 52.9349 16.3419C52.8806 16.2876 52.8535 16.2178 52.8535 16.1324V15.5156C52.8535 15.4302 52.8806 15.3604 52.9349 15.3061C52.9893 15.2517 53.0552 15.2246 53.1328 15.2246H55.9146C55.9999 15.2246 56.0659 15.2517 56.1124 15.3061C56.1667 15.3604 56.1939 15.4302 56.1939 15.5156V16.7377C56.1939 17.3895 56.0503 17.952 55.7632 18.4253C55.4839 18.8987 55.0804 19.2634 54.5528 19.5194C54.0329 19.7755 53.416 19.9035 52.7022 19.9035ZM60.1535 19.9035C59.2922 19.9035 58.6093 19.6552 58.105 19.1586C57.6006 18.662 57.329 17.9559 57.2902 17.0403C57.2825 16.9627 57.2786 16.8657 57.2786 16.7493C57.2786 16.6252 57.2825 16.5282 57.2902 16.4583C57.3213 15.8764 57.4532 15.372 57.686 14.9452C57.9265 14.5185 58.2563 14.1926 58.6753 13.9676C59.0943 13.7348 59.587 13.6184 60.1535 13.6184C60.782 13.6184 61.3096 13.7503 61.7364 14.0141C62.1631 14.2702 62.4852 14.631 62.7024 15.0966C62.9197 15.5544 63.0283 16.0859 63.0283 16.6911V16.9355C63.0283 17.0131 63.0012 17.0791 62.9468 17.1334C62.8925 17.1877 62.8227 17.2149 62.7373 17.2149H58.8732C58.8732 17.2149 58.8732 17.2265 58.8732 17.2498C58.8732 17.2731 58.8732 17.2925 58.8732 17.308C58.8809 17.5796 58.9314 17.8317 59.0245 18.0645C59.1253 18.2895 59.2689 18.4719 59.4551 18.6116C59.6491 18.7512 59.878 18.8211 60.1418 18.8211C60.3591 18.8211 60.5414 18.79 60.6889 18.728C60.8363 18.6581 60.9566 18.5805 61.0497 18.4952C61.1428 18.4098 61.2087 18.34 61.2475 18.2857C61.3174 18.1926 61.3717 18.1382 61.4105 18.1227C61.457 18.0994 61.523 18.0878 61.6083 18.0878H62.6093C62.6869 18.0878 62.749 18.1111 62.7955 18.1576C62.8498 18.2042 62.8731 18.2624 62.8654 18.3322C62.8576 18.4564 62.7917 18.6077 62.6675 18.7861C62.5511 18.9646 62.3804 19.1392 62.1554 19.3099C61.9304 19.4806 61.6471 19.6242 61.3057 19.7406C60.9721 19.8492 60.588 19.9035 60.1535 19.9035ZM58.8732 16.2372H61.4454V16.2023C61.4454 15.8997 61.395 15.6358 61.2941 15.4108C61.1932 15.1858 61.0458 15.0073 60.8518 14.8754C60.6578 14.7435 60.425 14.6775 60.1535 14.6775C59.8819 14.6775 59.6491 14.7435 59.4551 14.8754C59.2611 15.0073 59.1137 15.1858 59.0128 15.4108C58.9197 15.6358 58.8732 15.8997 58.8732 16.2023V16.2372ZM66.9762 19.7871C66.5107 19.7871 66.1188 19.7056 65.8007 19.5427C65.4826 19.3797 65.2459 19.1392 65.0907 18.8211C64.9355 18.4952 64.8579 18.0917 64.8579 17.6106V14.9685H63.9384C63.8608 14.9685 63.7949 14.9414 63.7406 14.8871C63.6863 14.8327 63.6591 14.7668 63.6591 14.6892V14.0141C63.6591 13.9365 63.6863 13.8706 63.7406 13.8163C63.7949 13.7619 63.8608 13.7348 63.9384 13.7348H64.8579V11.8027C64.8579 11.7251 64.8812 11.6591 64.9278 11.6048C64.9821 11.5505 65.0519 11.5234 65.1373 11.5234H66.08C66.1576 11.5234 66.2236 11.5505 66.2779 11.6048C66.3322 11.6591 66.3594 11.7251 66.3594 11.8027V13.7348H67.8143C67.8918 13.7348 67.9578 13.7619 68.0121 13.8163C68.0664 13.8706 68.0936 13.9365 68.0936 14.0141V14.6892C68.0936 14.7668 68.0664 14.8327 68.0121 14.8871C67.9578 14.9414 67.8918 14.9685 67.8143 14.9685H66.3594V17.4942C66.3594 17.8123 66.4137 18.0606 66.5223 18.2391C66.6387 18.4176 66.8366 18.5068 67.1159 18.5068H67.919C67.9966 18.5068 68.0626 18.534 68.1169 18.5883C68.1712 18.6426 68.1983 18.7086 68.1983 18.7861V19.5078C68.1983 19.5854 68.1712 19.6513 68.1169 19.7056C68.0626 19.76 67.9966 19.7871 67.919 19.7871H66.9762ZM72.1699 19.7871C72.0923 19.7871 72.0264 19.76 71.972 19.7056C71.9177 19.6513 71.8906 19.5854 71.8906 19.5078V14.0141C71.8906 13.9365 71.9177 13.8706 71.972 13.8163C72.0264 13.7619 72.0923 13.7348 72.1699 13.7348H73.136C73.2213 13.7348 73.2873 13.7619 73.3338 13.8163C73.3881 13.8706 73.4153 13.9365 73.4153 14.0141V19.5078C73.4153 19.5854 73.3881 19.6513 73.3338 19.7056C73.2873 19.76 73.2213 19.7871 73.136 19.7871H72.1699ZM72.1234 12.7338C72.038 12.7338 71.9682 12.7105 71.9139 12.664C71.8673 12.6097 71.844 12.5398 71.844 12.4545V11.6165C71.844 11.5389 71.8673 11.4729 71.9139 11.4186C71.9682 11.3643 72.038 11.3371 72.1234 11.3371H73.1825C73.2679 11.3371 73.3377 11.3643 73.392 11.4186C73.4463 11.4729 73.4735 11.5389 73.4735 11.6165V12.4545C73.4735 12.5398 73.4463 12.6097 73.392 12.664C73.3377 12.7105 73.2679 12.7338 73.1825 12.7338H72.1234ZM77.6947 19.7871C77.2291 19.7871 76.8372 19.7056 76.5191 19.5427C76.201 19.3797 75.9643 19.1392 75.8091 18.8211C75.6539 18.4952 75.5763 18.0917 75.5763 17.6106V14.9685H74.6569C74.5793 14.9685 74.5133 14.9414 74.459 14.8871C74.4047 14.8327 74.3775 14.7668 74.3775 14.6892V14.0141C74.3775 13.9365 74.4047 13.8706 74.459 13.8163C74.5133 13.7619 74.5793 13.7348 74.6569 13.7348H75.5763V11.8027C75.5763 11.7251 75.5996 11.6591 75.6462 11.6048C75.7005 11.5505 75.7703 11.5234 75.8557 11.5234H76.7985C76.876 11.5234 76.942 11.5505 76.9963 11.6048C77.0506 11.6591 77.0778 11.7251 77.0778 11.8027V13.7348H78.5327C78.6103 13.7348 78.6762 13.7619 78.7305 13.8163C78.7849 13.8706 78.812 13.9365 78.812 14.0141V14.6892C78.812 14.7668 78.7849 14.8327 78.7305 14.8871C78.6762 14.9414 78.6103 14.9685 78.5327 14.9685H77.0778V17.4942C77.0778 17.8123 77.1321 18.0606 77.2407 18.2391C77.3571 18.4176 77.555 18.5068 77.8343 18.5068H78.6374C78.715 18.5068 78.781 18.534 78.8353 18.5883C78.8896 18.6426 78.9168 18.7086 78.9168 18.7861V19.5078C78.9168 19.5854 78.8896 19.6513 78.8353 19.7056C78.781 19.76 78.715 19.7871 78.6374 19.7871H77.6947ZM85.286 19.9035C84.6652 19.9035 84.1415 19.7949 83.7147 19.5776C83.2957 19.3603 82.9737 19.0538 82.7487 18.6581C82.5314 18.2624 82.4073 17.8007 82.3762 17.2731C82.3685 17.1334 82.3646 16.9627 82.3646 16.7609C82.3646 16.5592 82.3685 16.3885 82.3762 16.2488C82.4073 15.7134 82.5353 15.2517 82.7603 14.8638C82.9931 14.468 83.319 14.1615 83.738 13.9443C84.1648 13.727 84.6808 13.6184 85.286 13.6184C85.8912 13.6184 86.4033 13.727 86.8223 13.9443C87.2491 14.1615 87.575 14.468 87.8 14.8638C88.0328 15.2517 88.1647 15.7134 88.1958 16.2488C88.2035 16.3885 88.2074 16.5592 88.2074 16.7609C88.2074 16.9627 88.2035 17.1334 88.1958 17.2731C88.1647 17.8007 88.0367 18.2624 87.8117 18.6581C87.5944 19.0538 87.2724 19.3603 86.8456 19.5776C86.4266 19.7949 85.9067 19.9035 85.286 19.9035ZM85.286 18.7512C85.6972 18.7512 86.0154 18.6232 86.2404 18.3671C86.4654 18.1033 86.5896 17.7192 86.6128 17.2149C86.6206 17.0985 86.6245 16.9472 86.6245 16.7609C86.6245 16.5747 86.6206 16.4234 86.6128 16.307C86.5896 15.8104 86.4654 15.4302 86.2404 15.1664C86.0154 14.9026 85.6972 14.7707 85.286 14.7707C84.8747 14.7707 84.5566 14.9026 84.3316 15.1664C84.1066 15.4302 83.9824 15.8104 83.9591 16.307C83.9514 16.4234 83.9475 16.5747 83.9475 16.7609C83.9475 16.9472 83.9514 17.0985 83.9591 17.2149C83.9824 17.7192 84.1066 18.1033 84.3316 18.3671C84.5566 18.6232 84.8747 18.7512 85.286 18.7512ZM89.7763 19.7871C89.6987 19.7871 89.6328 19.76 89.5785 19.7056C89.5241 19.6513 89.497 19.5854 89.497 19.5078V14.0141C89.497 13.9365 89.5241 13.8706 89.5785 13.8163C89.6328 13.7619 89.6987 13.7348 89.7763 13.7348H90.7307C90.8083 13.7348 90.8743 13.7619 90.9286 13.8163C90.9829 13.8706 91.0101 13.9365 91.0101 14.0141V14.4913C91.2118 14.243 91.4679 14.0374 91.7782 13.8744C92.0964 13.7037 92.4882 13.6184 92.9538 13.6184C93.4271 13.6184 93.8384 13.727 94.1875 13.9443C94.5367 14.1538 94.8044 14.4525 94.9906 14.8405C95.1846 15.2285 95.2816 15.694 95.2816 16.2372V19.5078C95.2816 19.5854 95.2545 19.6513 95.2001 19.7056C95.1458 19.76 95.0799 19.7871 95.0023 19.7871H93.978C93.9004 19.7871 93.8345 19.76 93.7802 19.7056C93.7258 19.6513 93.6987 19.5854 93.6987 19.5078V16.307C93.6987 15.857 93.5862 15.5039 93.3612 15.2479C93.1439 14.9918 92.8258 14.8638 92.4068 14.8638C92.0033 14.8638 91.6812 14.9918 91.4407 15.2479C91.2002 15.5039 91.0799 15.857 91.0799 16.307V19.5078C91.0799 19.5854 91.0527 19.6513 90.9984 19.7056C90.9441 19.76 90.8782 19.7871 90.8006 19.7871H89.7763Z" fill="black"/>
<path d="M51.1446 41.7344C50.9802 41.7344 50.8404 41.6768 50.7253 41.5617C50.6102 41.4466 50.5526 41.3068 50.5526 41.1423V25.0833C50.5526 24.9024 50.6102 24.7544 50.7253 24.6393C50.8404 24.5242 50.9802 24.4666 51.1446 24.4666H57.7557C59.0385 24.4666 60.1568 24.6722 61.1106 25.0833C62.0644 25.478 62.8045 26.0865 63.3307 26.9088C63.857 27.7146 64.1201 28.726 64.1201 29.943C64.1201 31.1764 63.857 32.196 63.3307 33.0018C62.8045 33.7912 62.0644 34.3832 61.1106 34.7779C60.1568 35.1726 59.0385 35.37 57.7557 35.37H54.0802V41.1423C54.0802 41.3068 54.0226 41.4466 53.9075 41.5617C53.8088 41.6768 53.669 41.7344 53.4881 41.7344H51.1446ZM54.0308 32.6318H57.6324C58.5862 32.6318 59.318 32.4098 59.8279 31.9658C60.3377 31.5053 60.5926 30.831 60.5926 29.943C60.5926 29.1207 60.3541 28.4629 59.8772 27.9695C59.4003 27.4597 58.652 27.2048 57.6324 27.2048H54.0308V32.6318ZM65.4073 41.7344C65.2429 41.7344 65.1031 41.6768 64.988 41.5617C64.8728 41.4466 64.8153 41.3068 64.8153 41.1423V24.812C64.8153 24.6475 64.8728 24.5077 64.988 24.3926C65.1031 24.2775 65.2429 24.2199 65.4073 24.2199H67.4548C67.6192 24.2199 67.759 24.2775 67.8741 24.3926C67.9893 24.5077 68.0468 24.6475 68.0468 24.812V41.1423C68.0468 41.3068 67.9893 41.4466 67.8741 41.5617C67.759 41.6768 67.6192 41.7344 67.4548 41.7344H65.4073ZM73.3171 41.9811C72.462 41.9811 71.689 41.8166 70.9983 41.4877C70.3076 41.1423 69.7567 40.6901 69.3456 40.1309C68.9509 39.5553 68.7535 38.914 68.7535 38.2068C68.7535 37.0556 69.214 36.1429 70.1349 35.4686C71.0723 34.7779 72.3057 34.3175 73.8352 34.0872L77.2147 33.5939V33.0758C77.2147 32.3851 77.0421 31.8506 76.6967 31.4724C76.3513 31.0941 75.7593 30.905 74.9206 30.905C74.3285 30.905 73.8434 31.0284 73.4652 31.275C73.1034 31.5053 72.832 31.8177 72.6511 32.2124C72.5195 32.4262 72.3304 32.5331 72.0837 32.5331H70.1349C69.954 32.5331 69.8143 32.4838 69.7156 32.3851C69.6334 32.2864 69.5922 32.1549 69.5922 31.9904C69.6087 31.7273 69.7156 31.4066 69.9129 31.0284C70.1103 30.6501 70.4227 30.2883 70.8503 29.943C71.2779 29.5812 71.8288 29.2769 72.5031 29.0302C73.1774 28.7835 73.9914 28.6602 74.9452 28.6602C75.9813 28.6602 76.8529 28.7918 77.5601 29.0549C78.2837 29.3016 78.8593 29.6387 79.2869 30.0663C79.7144 30.4939 80.0269 30.9955 80.2243 31.5711C80.4216 32.1467 80.5203 32.7551 80.5203 33.3965V41.1423C80.5203 41.3068 80.4627 41.4466 80.3476 41.5617C80.2325 41.6768 80.0927 41.7344 79.9282 41.7344H77.9301C77.7492 41.7344 77.6012 41.6768 77.4861 41.5617C77.3874 41.4466 77.3381 41.3068 77.3381 41.1423V40.1803C77.1243 40.4927 76.8365 40.7888 76.4747 41.0683C76.1129 41.3315 75.6689 41.5535 75.1426 41.7344C74.6328 41.8988 74.0243 41.9811 73.3171 41.9811ZM74.1559 39.6376C74.7315 39.6376 75.2495 39.5142 75.71 39.2676C76.1869 39.0209 76.5569 38.6426 76.82 38.1328C77.0996 37.6066 77.2394 36.9487 77.2394 36.1594V35.6413L74.7726 36.036C73.8023 36.184 73.0787 36.4225 72.6018 36.7514C72.1248 37.0803 71.8864 37.4832 71.8864 37.9601C71.8864 38.3219 71.9933 38.6344 72.2071 38.8975C72.4373 39.1442 72.7251 39.3333 73.0705 39.4649C73.4158 39.58 73.7776 39.6376 74.1559 39.6376ZM83.9397 46.4213C83.8081 46.4213 83.693 46.372 83.5944 46.2733C83.4957 46.1747 83.4463 46.0595 83.4463 45.928C83.4463 45.8622 83.4463 45.7964 83.4463 45.7306C83.4628 45.6813 83.4957 45.6155 83.545 45.5333L85.4691 40.9697L80.7328 29.7949C80.6671 29.6305 80.6342 29.5154 80.6342 29.4496C80.6506 29.3016 80.7082 29.1782 80.8068 29.0796C80.9055 28.9644 81.0289 28.9069 81.1769 28.9069H83.175C83.3723 28.9069 83.5204 28.9562 83.619 29.0549C83.7177 29.1536 83.7917 29.2605 83.841 29.3756L87.1219 37.4421L90.5015 29.3756C90.5508 29.244 90.6248 29.1371 90.7235 29.0549C90.8222 28.9562 90.9702 28.9069 91.1675 28.9069H93.141C93.2725 28.9069 93.3876 28.9562 93.4863 29.0549C93.6014 29.1536 93.659 29.2687 93.659 29.4003C93.659 29.4989 93.6261 29.6305 93.5603 29.7949L86.5792 45.9526C86.5134 46.0842 86.4312 46.1911 86.3325 46.2733C86.2339 46.372 86.0858 46.4213 85.8885 46.4213H83.9397ZM103.609 41.9811C102.08 41.9811 100.797 41.759 99.7611 41.315C98.7415 40.8545 97.9603 40.2625 97.4176 39.5389C96.8914 38.7989 96.6118 38.0259 96.5789 37.2201C96.5789 37.0721 96.6282 36.9487 96.7269 36.8501C96.8256 36.7514 96.9489 36.7021 97.0969 36.7021H99.2924C99.5062 36.7021 99.6624 36.7514 99.7611 36.8501C99.8762 36.9323 99.9749 37.0392 100.057 37.1708C100.156 37.4832 100.345 37.7957 100.624 38.1081C100.904 38.4042 101.282 38.6508 101.759 38.8482C102.253 39.0455 102.869 39.1442 103.609 39.1442C104.793 39.1442 105.673 38.9469 106.249 38.5522C106.841 38.1575 107.137 37.623 107.137 36.9487C107.137 36.4718 106.981 36.0936 106.668 35.814C106.356 35.518 105.871 35.2549 105.213 35.0246C104.571 34.7779 103.716 34.523 102.647 34.2599C101.414 33.9639 100.378 33.6103 99.5391 33.1992C98.7168 32.7716 98.0919 32.2371 97.6643 31.5957C97.2532 30.9544 97.0476 30.1403 97.0476 29.1536C97.0476 28.1997 97.3025 27.3528 97.8123 26.6127C98.3386 25.8727 99.0786 25.2889 100.032 24.8613C101.003 24.4337 102.154 24.2199 103.486 24.2199C104.555 24.2199 105.501 24.3679 106.323 24.664C107.145 24.9435 107.828 25.3218 108.37 25.7987C108.913 26.2592 109.324 26.7608 109.604 27.3035C109.9 27.8297 110.056 28.3477 110.072 28.8576C110.072 28.9891 110.023 29.1125 109.924 29.2276C109.842 29.3263 109.719 29.3756 109.554 29.3756H107.26C107.129 29.3756 106.997 29.3427 106.866 29.2769C106.734 29.2111 106.627 29.0878 106.545 28.9069C106.446 28.3971 106.126 27.9613 105.583 27.5995C105.04 27.2377 104.341 27.0568 103.486 27.0568C102.598 27.0568 101.883 27.2212 101.34 27.5501C100.797 27.879 100.526 28.3889 100.526 29.0796C100.526 29.54 100.657 29.9265 100.921 30.239C101.2 30.535 101.636 30.7981 102.228 31.0284C102.836 31.2586 103.634 31.5053 104.621 31.7684C106.019 32.0809 107.162 32.4427 108.05 32.8538C108.938 33.2649 109.587 33.7912 109.998 34.4326C110.41 35.0575 110.615 35.8551 110.615 36.8254C110.615 37.9108 110.319 38.84 109.727 39.6129C109.151 40.3694 108.337 40.9532 107.285 41.3644C106.232 41.7755 105.007 41.9811 103.609 41.9811ZM117.216 41.7344C116.23 41.7344 115.399 41.5617 114.725 41.2163C114.051 40.871 113.549 40.3612 113.22 39.6869C112.891 38.9962 112.727 38.141 112.727 37.1214V31.5217H110.778C110.614 31.5217 110.474 31.4642 110.359 31.349C110.244 31.2339 110.186 31.0941 110.186 30.9297V29.4989C110.186 29.3345 110.244 29.1947 110.359 29.0796C110.474 28.9644 110.614 28.9069 110.778 28.9069H112.727V24.812C112.727 24.6475 112.776 24.5077 112.875 24.3926C112.99 24.2775 113.138 24.2199 113.319 24.2199H115.317C115.481 24.2199 115.621 24.2775 115.736 24.3926C115.851 24.5077 115.909 24.6475 115.909 24.812V28.9069H118.993C119.157 28.9069 119.297 28.9644 119.412 29.0796C119.527 29.1947 119.585 29.3345 119.585 29.4989V30.9297C119.585 31.0941 119.527 31.2339 119.412 31.349C119.297 31.4642 119.157 31.5217 118.993 31.5217H115.909V36.8747C115.909 37.549 116.024 38.0753 116.254 38.4535C116.501 38.8317 116.92 39.0209 117.512 39.0209H119.215C119.379 39.0209 119.519 39.0784 119.634 39.1935C119.749 39.3087 119.807 39.4485 119.807 39.6129V41.1423C119.807 41.3068 119.749 41.4466 119.634 41.5617C119.519 41.6768 119.379 41.7344 119.215 41.7344H117.216ZM125.942 41.9811C124.626 41.9811 123.516 41.7508 122.612 41.2903C121.724 40.8299 121.041 40.1803 120.564 39.3416C120.104 38.5028 119.841 37.5243 119.775 36.406C119.758 36.11 119.75 35.7482 119.75 35.3206C119.75 34.8931 119.758 34.5312 119.775 34.2352C119.841 33.1005 120.112 32.122 120.589 31.2997C121.082 30.461 121.773 29.8114 122.661 29.3509C123.565 28.8904 124.659 28.6602 125.942 28.6602C127.225 28.6602 128.31 28.8904 129.198 29.3509C130.103 29.8114 130.793 30.461 131.27 31.2997C131.764 32.122 132.043 33.1005 132.109 34.2352C132.125 34.5312 132.134 34.8931 132.134 35.3206C132.134 35.7482 132.125 36.11 132.109 36.406C132.043 37.5243 131.772 38.5028 131.295 39.3416C130.834 40.1803 130.152 40.8299 129.247 41.2903C128.359 41.7508 127.257 41.9811 125.942 41.9811ZM125.942 39.5389C126.813 39.5389 127.488 39.2676 127.965 38.7248C128.442 38.1657 128.705 37.3517 128.754 36.2827C128.77 36.036 128.779 35.7153 128.779 35.3206C128.779 34.9259 128.77 34.6053 128.754 34.3586C128.705 33.3061 128.442 32.5002 127.965 31.9411C127.488 31.3819 126.813 31.1024 125.942 31.1024C125.07 31.1024 124.396 31.3819 123.919 31.9411C123.442 32.5002 123.179 33.3061 123.13 34.3586C123.113 34.6053 123.105 34.9259 123.105 35.3206C123.105 35.7153 123.113 36.036 123.13 36.2827C123.179 37.3517 123.442 38.1657 123.919 38.7248C124.396 39.2676 125.07 39.5389 125.942 39.5389ZM133.732 41.7344C133.568 41.7344 133.428 41.6768 133.313 41.5617C133.197 41.4466 133.14 41.3068 133.14 41.1423V29.5236C133.14 29.3427 133.197 29.1947 133.313 29.0796C133.428 28.9644 133.568 28.9069 133.732 28.9069H135.73C135.895 28.9069 136.034 28.9644 136.149 29.0796C136.281 29.1947 136.347 29.3427 136.347 29.5236V30.535C136.725 30.0087 137.21 29.6058 137.802 29.3263C138.411 29.0467 139.11 28.9069 139.899 28.9069H140.91C141.091 28.9069 141.231 28.9644 141.33 29.0796C141.445 29.1947 141.502 29.3345 141.502 29.4989V31.275C141.502 31.4395 141.445 31.5793 141.33 31.6944C141.231 31.8095 141.091 31.8671 140.91 31.8671H138.986C138.197 31.8671 137.58 32.0891 137.136 32.5331C136.709 32.9772 136.495 33.5856 136.495 34.3586V41.1423C136.495 41.3068 136.437 41.4466 136.322 41.5617C136.207 41.6768 136.059 41.7344 135.878 41.7344H133.732ZM147.057 41.9811C145.231 41.9811 143.784 41.4548 142.715 40.4023C141.646 39.3498 141.071 37.8532 140.988 35.9127C140.972 35.7482 140.964 35.5426 140.964 35.296C140.964 35.0328 140.972 34.8273 140.988 34.6793C141.054 33.4458 141.334 32.3769 141.827 31.4724C142.337 30.5679 143.036 29.8772 143.924 29.4003C144.812 28.9069 145.856 28.6602 147.057 28.6602C148.389 28.6602 149.507 28.9398 150.412 29.4989C151.316 30.0416 151.999 30.8063 152.459 31.7931C152.919 32.7634 153.15 33.8899 153.15 35.1726V35.6907C153.15 35.8551 153.092 35.9949 152.977 36.11C152.862 36.2251 152.714 36.2827 152.533 36.2827H144.343C144.343 36.2827 144.343 36.3074 144.343 36.3567C144.343 36.406 144.343 36.4471 144.343 36.48C144.36 37.0556 144.467 37.5901 144.664 38.0835C144.878 38.5604 145.182 38.9469 145.577 39.2429C145.988 39.5389 146.473 39.6869 147.032 39.6869C147.492 39.6869 147.879 39.6211 148.191 39.4896C148.504 39.3416 148.759 39.1771 148.956 38.9962C149.153 38.8153 149.293 38.6673 149.375 38.5522C149.523 38.3548 149.639 38.2397 149.721 38.2068C149.82 38.1575 149.959 38.1328 150.14 38.1328H152.262C152.426 38.1328 152.558 38.1821 152.656 38.2808C152.771 38.3795 152.821 38.5028 152.804 38.6508C152.788 38.914 152.648 39.2347 152.385 39.6129C152.138 39.9912 151.777 40.3612 151.3 40.723C150.823 41.0848 150.222 41.389 149.499 41.6357C148.792 41.8659 147.978 41.9811 147.057 41.9811ZM144.343 34.2106H149.795V34.1366C149.795 33.4952 149.688 32.936 149.474 32.4591C149.26 31.9822 148.948 31.604 148.537 31.3244C148.126 31.0448 147.632 30.905 147.057 30.905C146.481 30.905 145.988 31.0448 145.577 31.3244C145.165 31.604 144.853 31.9822 144.639 32.4591C144.442 32.936 144.343 33.4952 144.343 34.1366V34.2106Z" fill="black"/>
</svg>
