<svg width="112" height="111" viewBox="0 0 112 111" fill="none" xmlns="http://www.w3.org/2000/svg">
<path d="M111.4 55.5274C111.4 86.0869 86.6271 110.861 56.0661 110.861C25.5064 110.861 0.73291 86.0869 0.73291 55.5274C0.73291 24.9677 25.5064 0.194672 56.0661 0.194672C86.6271 0.194672 111.4 24.9677 111.4 55.5274Z" fill="#FFE4CF"/>
<path d="M10.0707 66.0981L55.9589 86.7529H56.1747L102.063 66.0981C102.195 66.0388 102.253 65.883 102.194 65.7504C102.135 65.6179 101.979 65.5586 101.847 65.619L56.0666 86.2238L10.2869 65.619C10.1542 65.5586 9.99851 65.6179 9.93899 65.7504C9.87899 65.883 9.93806 66.0388 10.0707 66.0981Z" fill="#3B3E3A"/>
<path d="M55.8035 19.4229V98.0011C55.8035 98.1465 55.9211 98.2637 56.0665 98.2637C56.2118 98.2637 56.3299 98.1465 56.3299 98.0011V19.4229C56.3299 19.2776 56.2118 19.159 56.0665 19.159C55.9211 19.159 55.8035 19.2776 55.8035 19.4229Z" fill="#3B3E3A"/>
<path d="M63.7961 28.1255L56.062 22.9423L48.3375 28.1255L56.062 10.718L63.7961 28.1255Z" fill="#E75F2C"/>
<path d="M56.0665 76.3704C56.0665 76.3704 53.9701 83.5907 50.0306 84.8733C50.0306 84.8733 50.0306 88.5425 50.0306 95.8628C50.0306 95.8628 52.6984 91.5318 56.0665 90.4959V76.3704Z" fill="#F4BC8A"/>
<path d="M56.0665 76.3704C56.0665 76.3704 58.1626 83.5907 62.102 84.8733C62.102 84.8733 62.102 88.5425 62.102 95.8628C62.102 95.8628 59.4347 91.5318 56.0665 90.4959V76.3704Z" fill="#CB8E63"/>
<path d="M57.4072 98.9961C57.4072 99.7368 56.8068 100.336 56.0665 100.336C55.3267 100.336 54.7258 99.7368 54.7258 98.9961C54.7258 98.2554 55.3267 97.6554 56.0665 97.6554C56.8068 97.6554 57.4072 98.2554 57.4072 98.9961Z" fill="#E75F2C"/>
<path d="M57.4072 71.1666C57.4072 71.9069 56.8068 72.5068 56.0665 72.5068C55.3267 72.5068 54.7258 71.9069 54.7258 71.1666C54.7258 70.4273 55.3267 69.826 56.0665 69.826C56.8068 69.826 57.4072 70.4273 57.4072 71.1666Z" fill="#E75F2C"/>
<path d="M57.4072 67.142C57.4072 67.8815 56.8068 68.4824 56.0665 68.4824C55.3267 68.4824 54.7258 67.8815 54.7258 67.142C54.7258 66.4014 55.3267 65.8014 56.0665 65.8014C56.8068 65.8014 57.4072 66.4014 57.4072 67.142Z" fill="#E75F2C"/>
<path d="M57.4072 95.2468C57.4072 95.9875 56.8068 96.5884 56.0665 96.5884C55.3267 96.5884 54.7258 95.9875 54.7258 95.2468C54.7258 94.5074 55.3267 93.9075 56.0665 93.9075C56.8068 93.9075 57.4072 94.5074 57.4072 95.2468Z" fill="#E75F2C"/>
<path d="M104.958 67.29C104.8 66.9075 92.2091 57.8015 81.1882 48.9721C73.2146 42.4182 68.509 38.879 61.756 36.885C58.0998 35.8781 54.0264 35.877 50.3699 36.8827C43.6242 38.8743 38.9231 42.41 30.9452 48.9721C19.9243 57.8026 7.33295 66.9075 7.17529 67.29C7.48375 66.9982 17.9586 54.9669 31.3531 40.3579C39.2891 31.596 48.8077 29.5602 54.3108 29.5974C55.5271 29.5939 56.7396 29.5892 57.9554 29.6009C63.4805 29.5985 72.9181 31.6762 80.7801 40.3579C94.1752 54.9669 104.65 66.9982 104.958 67.29Z" fill="#CB8E63"/>
<path d="M31.3531 41.5205C39.2891 32.7586 48.8077 30.7228 54.3108 30.76C55.5271 30.7565 56.7396 30.7518 57.9554 30.7634C63.48 30.7611 72.9181 32.8388 80.7801 41.5205C89.7408 51.2939 97.3888 59.907 101.567 64.6286C103.354 65.9796 104.543 66.89 104.865 67.1899C103.787 66.0087 93.6299 54.3738 80.7801 40.3578C72.9181 31.6761 63.48 29.5984 57.9554 29.6008C56.7396 29.5891 55.5271 29.5938 54.3108 29.5973C48.8077 29.5601 39.2891 31.5959 31.3531 40.3578C18.5032 54.3726 8.34623 66.0087 7.26843 67.1888C7.59049 66.89 8.77851 65.9796 10.5666 64.6286C14.7445 59.907 22.3922 51.2939 31.3531 41.5205Z" fill="#F4BC8A"/>
<path d="M81.1882 46.6467C73.2146 40.0927 68.509 36.5535 61.7555 34.5596C58.0998 33.5527 54.0264 33.5515 50.3704 34.5572C43.6242 36.5489 38.9231 40.0846 30.9452 46.6467C24.8838 51.5032 18.351 56.4399 13.6691 59.9663C10.0802 64.0054 7.75489 66.6574 7.26843 67.1888C8.40297 66.1319 20.3903 57.4293 30.9452 48.972C38.9231 42.4099 43.6242 38.8742 50.3704 36.8826C54.0264 35.8769 58.0998 35.878 61.7555 36.8849C68.509 38.8789 73.2146 42.4181 81.1882 48.972C91.7429 57.4281 103.731 66.1331 104.865 67.1899C104.379 66.6574 102.053 64.0054 98.4643 59.9663C93.7822 56.4399 87.2504 51.5032 81.1882 46.6467Z" fill="#E75F2C"/>
<path d="M107.202 65.8584C107.202 67.3082 106.027 68.4824 104.578 68.4824C103.129 68.4824 101.955 67.3082 101.955 65.8584C101.955 64.4097 103.129 63.2354 104.578 63.2354C106.027 63.2354 107.202 64.4097 107.202 65.8584Z" fill="#E75F2C"/>
<path d="M10.1786 65.8584C10.1786 67.3082 9.00423 68.4824 7.55542 68.4824C6.10662 68.4824 4.93127 67.3082 4.93127 65.8584C4.93127 64.4097 6.10662 63.2354 7.55542 63.2354C9.00423 63.2354 10.1786 64.4097 10.1786 65.8584Z" fill="#E75F2C"/>
<path d="M56.062 22.9423V10.718L63.7961 28.1255L56.062 22.9423Z" fill="#CF4D2A"/>
</svg>
