<svg width="112" height="111" viewBox="0 0 112 111" fill="none" xmlns="http://www.w3.org/2000/svg">
<path d="M111.533 55.528C111.533 86.0885 86.7597 110.861 56.2004 110.861C25.6398 110.861 0.867065 86.0885 0.867065 55.528C0.867065 24.9687 25.6398 0.194664 56.2004 0.194664C86.7597 0.194664 111.533 24.9687 111.533 55.528Z" fill="#FFE4CF"/>
<path d="M54.9053 82.2553C54.9053 82.2553 63.981 101.732 83.287 95.9747C102.594 90.2184 93.0196 72.4657 93.0196 72.4657C93.0196 72.4657 97.59 70.4322 93.8916 62.7645C90.192 55.0967 78.348 61.3309 78.348 61.3309C78.348 61.3309 84.1671 60.302 84.7159 63.9992C85.2658 67.6965 84.9205 71.1112 90.2466 73.3912C90.2466 73.3912 95.9181 86.6257 84.0055 90.9427C72.0929 95.2597 63.588 77.75 63.588 77.75L54.9053 82.2553Z" fill="#4C554C"/>
<path d="M84.8368 91.023C96.7506 86.7061 91.0791 73.4703 91.0791 73.4703C85.7541 71.1904 86.0971 67.7768 85.5495 64.0796C85.2286 61.9275 83.1266 61.3798 81.4233 61.2961C82.9161 61.5159 84.4473 62.1902 84.7159 63.9993C85.2658 67.6966 84.9205 71.1113 90.2466 73.3913C90.2466 73.3913 95.9181 86.6258 84.0055 90.9428C82.4464 91.5067 80.9489 91.6904 79.5176 91.5962C81.1954 91.8392 82.9742 91.6974 84.8368 91.023Z" fill="#3B3E3A"/>
<path d="M61.9545 90.6674C58.0979 87.0015 59.0722 80.6057 63.795 78.1548C63.6601 77.8967 63.588 77.7502 63.588 77.7502L54.9053 82.2567C54.9053 82.2567 61.3825 96.1516 75.0309 96.998C69.4304 96.4214 65.089 93.6496 61.9545 90.6674Z" fill="#3B3E3A"/>
<path d="M88.6898 59.0418C83.9798 58.3674 78.3479 61.3311 78.3479 61.3311C78.3479 61.3311 78.8583 61.2439 79.585 61.2113C80.8523 60.6067 84.9332 58.829 88.6898 59.0418Z" fill="#3B3E3A"/>
<path d="M57.0492 50.8623C57.0492 50.8623 64.1275 39.6473 64.2507 38.1521C64.3763 36.6581 60.6639 38.9427 57.3864 41.5878C54.1088 44.2328 54.1088 50.0147 54.1088 50.0147L57.0492 50.8623Z" fill="#3B3E3A"/>
<path d="M64.2507 38.1521C64.2507 38.1521 67.2911 32.0225 66.2202 29.7053C65.1494 27.387 62.7567 28.6334 62.0835 30.203C61.4103 31.7737 60.8616 39.0741 61.8835 39.0996C62.9055 39.1241 64.2507 38.1521 64.2507 38.1521Z" fill="#3B3E3A"/>
<path d="M64.7157 28.4044C64.7157 28.4044 60.9661 20.8145 60.508 21.4772C60.0488 22.1388 60.2766 27.6289 62.745 30.3472L64.7157 28.4044Z" fill="#3B3E3A"/>
<path d="M58.4768 25.097C57.0747 24.3587 55.3284 22.6136 54.2785 18.5245L59.6895 22.7159C59.6895 22.7159 58.4699 12.3577 52.2625 7.34202C52.2625 7.34202 61.4684 7.67686 64.6994 16.9561C67.9316 26.2341 62.0497 29.1431 62.0497 29.1431C61.3672 27.4165 60.1197 25.962 58.4768 25.097Z" fill="#3B3E3A"/>
<path d="M43.0437 55.5352C43.0437 55.5352 30.6497 50.8171 29.6533 49.6963C28.6557 48.5754 32.996 48.1743 37.2048 48.3208C41.4148 48.4685 44.8865 53.0912 44.8865 53.0912L43.0437 55.5352Z" fill="#3B3E3A"/>
<path d="M29.6534 49.6963C29.6534 49.6963 23.5424 46.6199 23.0065 44.1237C22.4716 41.6263 25.133 41.1868 26.613 42.0379C28.0943 42.8889 32.917 48.3988 32.1147 49.0324C31.3125 49.6661 29.6534 49.6963 29.6534 49.6963Z" fill="#3B3E3A"/>
<path d="M23.4285 42.1794C23.4285 42.1794 21.8694 33.8594 22.6333 34.1129C23.3983 34.3663 26.5119 38.8949 26.1701 42.5503L23.4285 42.1794Z" fill="#3B3E3A"/>
<path d="M26.4317 35.7882C27.1083 34.3558 27.4583 31.9118 25.8422 28.0123L24.0331 34.6115C24.0331 34.6115 18.7883 25.5963 20.7404 17.8588C20.7404 17.8588 13.5796 23.6546 16.5665 33.0152C19.5534 42.3758 26.0038 41.1701 26.0038 41.1701C25.5132 39.3796 25.6376 37.4659 26.4317 35.7882Z" fill="#3B3E3A"/>
<path d="M43.6088 59.8239C43.6088 59.8239 35.1492 62.6201 34.1552 62.4597C33.1588 62.2969 35.2504 60.2483 37.5071 58.5392C39.765 56.8324 43.5344 57.7695 43.5344 57.7695L43.6088 59.8239Z" fill="#3B3E3A"/>
<path d="M34.1552 62.4599C34.1552 62.4599 29.6639 63.447 28.3268 62.3715C26.9897 61.2984 28.1896 59.9404 29.322 59.7555C30.4556 59.5718 35.3051 60.3985 35.1563 61.0693C35.0063 61.739 34.1552 62.4599 34.1552 62.4599Z" fill="#3B3E3A"/>
<path d="M27.8152 61.7192C27.8152 61.7192 22.1682 61.0472 22.4844 60.6077C22.8007 60.1694 26.3293 59.0823 28.6035 60.0357L27.8152 61.7192Z" fill="#3B3E3A"/>
<path d="M46.3201 62.5986C46.3201 62.5986 39.2 67.9572 38.2071 68.1223C37.213 68.2886 38.5373 65.6773 40.1278 63.3357C41.7183 60.9952 45.5911 60.6755 45.5911 60.6755L46.3201 62.5986Z" fill="#3B3E3A"/>
<path d="M38.2071 68.1217C38.2071 68.1217 34.2691 70.4959 32.6589 69.9064C31.0474 69.317 31.7485 67.6462 32.7635 67.1091C33.7773 66.5719 38.6373 65.8023 38.7105 66.4836C38.7838 67.1672 38.2071 68.1217 38.2071 68.1217Z" fill="#3B3E3A"/>
<path d="M31.966 69.4513C31.966 69.4513 26.4003 70.6244 26.5584 70.107C26.7177 69.5896 29.7127 67.4294 32.1729 67.6038L31.966 69.4513Z" fill="#3B3E3A"/>
<path d="M48.5803 67.1486C48.5803 67.1486 42.0287 72.0795 41.1137 72.2318C40.1987 72.3853 41.4183 69.982 42.8809 67.8276C44.3459 65.6732 47.9094 65.3802 47.9094 65.3802L48.5803 67.1486Z" fill="#3B3E3A"/>
<path d="M41.1137 72.2321C41.1137 72.2321 37.4908 74.4167 36.0073 73.8737C34.5249 73.3319 35.1725 71.7949 36.1049 71.2996C37.0385 70.8055 41.5101 70.0974 41.5764 70.7253C41.6439 71.3542 41.1137 72.2321 41.1137 72.2321Z" fill="#3B3E3A"/>
<path d="M35.3714 73.4563C35.3714 73.4563 30.2487 74.5341 30.3952 74.0585C30.5417 73.583 33.2972 71.5949 35.562 71.7553L35.3714 73.4563Z" fill="#3B3E3A"/>
<path d="M50.0872 69.2499C50.0872 69.2499 45.6423 76.1399 44.8366 76.6003C44.0309 77.0584 44.3448 74.3819 44.9738 71.8555C45.604 69.3278 48.8455 67.821 48.8455 67.821L50.0872 69.2499Z" fill="#3B3E3A"/>
<path d="M44.8365 76.6007C44.8365 76.6007 42.1914 79.9015 40.6114 79.9038C39.0336 79.9073 39.1081 78.2424 39.8138 77.4552C40.5184 76.6693 44.4714 74.4591 44.7505 75.0253C45.0307 75.5927 44.8365 76.6007 44.8365 76.6007Z" fill="#3B3E3A"/>
<path d="M39.8696 79.7315C39.8696 79.7315 35.4364 82.5137 35.4097 82.0161C35.3818 81.5196 37.2816 78.7014 39.4615 78.07L39.8696 79.7315Z" fill="#3B3E3A"/>
<path d="M59.156 54.6387C59.156 54.6387 67.5991 51.7936 68.2991 51.067C68.9967 50.3403 66.0935 49.9578 63.2648 49.9474C60.4337 49.9357 57.9828 52.9493 57.9828 52.9493L59.156 54.6387Z" fill="#3B3E3A"/>
<path d="M68.2991 51.0669C68.2991 51.0669 72.4813 49.1601 72.9068 47.4975C73.3312 45.8361 71.5557 45.471 70.5396 46.0035C69.5234 46.5372 66.1412 50.11 66.6633 50.5565C67.1853 51.003 68.2991 51.0669 68.2991 51.0669Z" fill="#3B3E3A"/>
<path d="M72.923 46.6699C72.923 46.6699 77.0354 42.7413 76.5191 42.5797C76.0029 42.4192 72.5289 43.6679 71.2814 45.7968L72.923 46.6699Z" fill="#3B3E3A"/>
<path d="M58.6537 58.4839C58.6537 58.4839 67.5632 58.4932 68.4596 58.0293C69.3537 57.5654 66.7248 56.2725 64.0484 55.3552C61.3696 54.439 58.0828 56.5085 58.0828 56.5085L58.6537 58.4839Z" fill="#3B3E3A"/>
<path d="M68.4596 58.0288C68.4596 58.0288 73.0323 57.5626 73.9671 56.1232C74.9019 54.685 73.337 53.7711 72.2022 53.9502C71.0698 54.1304 66.7203 56.4313 67.0725 57.0219C67.4237 57.6114 68.4596 58.0288 68.4596 58.0288Z" fill="#3B3E3A"/>
<path d="M74.2471 55.3442C74.2471 55.3442 79.4024 52.9399 78.9652 52.6225C78.5269 52.3039 74.8354 52.3748 72.9717 53.9909L74.2471 55.3442Z" fill="#3B3E3A"/>
<path d="M59.5792 63.4795C59.5792 63.4795 67.7783 63.4888 68.6026 63.0609C69.4258 62.6331 67.0062 61.4448 64.5426 60.6007C62.0789 59.7566 59.0536 61.6623 59.0536 61.6623L59.5792 63.4795Z" fill="#3B3E3A"/>
<path d="M68.6026 63.0605C68.6026 63.0605 72.8102 62.6315 73.6706 61.3072C74.5298 59.9841 73.0904 59.1424 72.0463 59.3075C71.0034 59.4726 67.0027 61.5909 67.326 62.1339C67.6492 62.6768 68.6026 63.0605 68.6026 63.0605Z" fill="#3B3E3A"/>
<path d="M73.9287 60.5913C73.9287 60.5913 78.6723 58.3776 78.2688 58.0858C77.8665 57.7928 74.4693 57.859 72.7555 59.3461L73.9287 60.5913Z" fill="#3B3E3A"/>
<path d="M59.6361 66.0642C59.6361 66.0642 67.3271 68.9058 68.2468 68.7895C69.1676 68.6721 67.3085 66.7211 65.2878 65.0783C63.2671 63.4343 59.771 64.1772 59.771 64.1772L59.6361 66.0642Z" fill="#3B3E3A"/>
<path d="M68.2468 68.7895C68.2468 68.7895 72.344 69.8393 73.609 68.8952C74.8728 67.95 73.8124 66.6629 72.7765 66.4572C71.7406 66.2514 67.2539 66.8571 67.3701 67.478C67.4864 68.1 68.2468 68.7895 68.2468 68.7895Z" fill="#3B3E3A"/>
<path d="M74.0996 68.3115C74.0996 68.3115 79.3142 67.8732 79.0386 67.4593C78.7619 67.0454 75.5506 65.9339 73.4288 66.7373L74.0996 68.3115Z" fill="#3B3E3A"/>
<path d="M55.1784 83.7786C54.8738 83.7402 54.5657 83.6821 54.2588 83.6042C48.5013 82.1462 46.7538 74.6587 45.1377 69.8162C40.1348 54.8225 31.6404 36.2014 42.2508 31.7484C49.3477 28.7708 55.018 41.581 57.177 46.1561C59.2803 50.6149 61.0557 55.226 62.6811 59.8766C64.0588 63.8215 66.39 68.7349 66.1807 72.9426C65.9168 78.2036 60.9673 84.5041 55.1784 83.7786Z" fill="#3B3E3A"/>
<path d="M55.704 83.6029C55.4285 83.5541 55.1529 83.4878 54.8739 83.3995C49.664 81.7578 47.8374 74.297 46.2225 69.4545C41.2196 54.4609 32.9612 35.7606 42.316 31.7262C48.5734 29.0288 54.0984 41.8878 56.1923 46.485C58.2316 50.9647 59.9814 55.584 61.5987 60.2381C62.9718 64.1853 65.2297 69.122 65.1878 73.2738C65.1343 78.464 60.9162 84.5203 55.704 83.6029Z" fill="#4C554C"/>
<path d="M55.1784 83.7788C57.0224 84.159 58.9222 83.8265 60.4476 82.8556C61.2254 82.3859 61.8858 81.7476 62.5008 81.0651C62.8101 80.7233 63.0717 80.3396 63.3635 79.9757C63.6251 79.5909 63.8704 79.1932 64.1495 78.8084C63.9785 79.2467 63.7751 79.6734 63.5844 80.1117C63.3298 80.5117 63.1008 80.9326 62.8182 81.3186C62.2439 82.0859 61.5393 82.7638 60.7266 83.3032C59.886 83.7904 58.9524 84.1427 57.985 84.2241C57.0223 84.3113 56.0376 84.1822 55.1784 83.7788Z" fill="#191A18"/>
<path d="M64.6029 93.3994C65.3877 93.3087 66.1446 93.1204 66.848 92.8215C67.5444 92.5193 68.2176 92.1507 68.7617 91.6252C69.3256 91.1275 69.821 90.5439 70.2035 89.88C70.6162 89.2301 70.9034 88.5092 71.2173 87.7779C71.1592 88.1674 71.0836 88.5592 70.9929 88.9499C70.8488 89.3208 70.7569 89.7184 70.5604 90.0742C70.2325 90.8159 69.6954 91.4519 69.1105 92.0205C67.8711 93.0878 66.1818 93.647 64.6029 93.3994Z" fill="#191A18"/>
<path d="M81.8871 96.3506C82.4452 95.6251 82.7382 94.8159 82.7056 93.9823C82.7137 93.1428 82.4161 92.3208 82.1324 91.4465C82.2928 91.6128 82.4254 91.7988 82.5754 91.9802C82.6893 92.1801 82.8079 92.3813 82.9125 92.5917C83.0974 93.0231 83.2125 93.4916 83.2346 93.9764C83.2148 94.4589 83.1253 94.9531 82.8858 95.374C82.6509 95.7937 82.3126 96.1553 81.8871 96.3506Z" fill="#191A18"/>
<path d="M94.5183 87.0015C94.0009 86.3829 93.5451 85.7842 92.965 85.3203C92.6999 85.0563 92.3813 84.8726 92.0616 84.6855C91.7418 84.489 91.3814 84.3797 91.0012 84.2285C91.3977 84.1599 91.8244 84.1739 92.2208 84.3111C92.6173 84.439 92.9835 84.6576 93.3079 84.918C93.9125 85.4807 94.3939 86.1888 94.5183 87.0015Z" fill="#191A18"/>
<path d="M93.0195 72.4656C92.587 72.7807 92.1266 72.9121 91.6767 73.083C91.207 73.2016 90.7721 73.3388 90.2466 73.3911C90.5652 72.9481 91.0605 72.7551 91.5197 72.5796C92.0045 72.4621 92.4929 72.3529 93.0195 72.4656Z" fill="#191A18"/>
<path d="M38.9407 34.2909C38.9407 34.2909 33.6657 32.1539 35.8166 27.2056C35.8166 27.2056 36.3724 28.8752 37.656 30.4425C38.9419 32.0109 40.8614 32.4795 40.8614 32.4795C40.8614 32.4795 39.9557 34.8431 38.9407 34.2909Z" fill="#4C554C"/>
<path d="M46.3527 31.818C46.3527 31.818 49.2872 26.9419 44.5959 24.277C44.5959 24.277 45.1552 25.9443 45.068 27.9697C44.9831 29.995 43.7297 31.5227 43.7297 31.5227C43.7297 31.5227 45.8725 32.8691 46.3527 31.818Z" fill="#4C554C"/>
<path d="M54.961 56.0547C58.6908 66.5663 59.2233 75.9722 56.1516 77.0617C53.0786 78.1534 47.563 70.5147 43.8332 60.0031C40.1034 49.4915 39.5709 40.0856 42.6426 38.9962C45.7167 37.9056 51.2312 45.5431 54.961 56.0547Z" fill="#5B655C"/>
<path d="M40.1196 55.2877C41.7706 55.4923 43.4332 55.3842 45.0609 55.147C46.6887 54.8982 48.2908 54.4982 49.8441 53.9518C51.4068 53.4286 52.91 52.7449 54.3808 51.9915C55.8562 51.2416 57.2607 50.3627 58.6757 49.4825C58.0269 50.0022 57.3654 50.5091 56.6934 51.0079C55.9888 51.4532 55.3063 51.9404 54.5762 52.3485C53.1263 53.1867 51.5939 53.8785 50.015 54.4506C48.4199 54.9656 46.7829 55.3819 45.1098 55.5493C43.4449 55.7062 41.7381 55.7086 40.1196 55.2877Z" fill="#191A18"/>
<path d="M45.3492 70.4612C47.0607 70.9879 48.8407 71.2426 50.6103 71.2309C52.3752 71.2147 54.1494 70.9693 55.8016 70.3531C57.4526 69.7648 59.057 68.9696 60.4336 67.8522C61.1858 67.3732 61.7742 66.6954 62.4508 66.1164C63.0891 65.4967 63.6449 64.7956 64.2716 64.1492C63.7414 64.8677 63.2217 65.6083 62.6392 66.2943C61.9916 66.9198 61.4242 67.6395 60.6859 68.172C60.3336 68.4568 59.9836 68.7463 59.6174 69.0137L58.4513 69.7195C58.0723 69.9729 57.6502 70.1462 57.2351 70.3345C56.8189 70.517 56.4143 70.7345 55.9725 70.8519C52.5252 72.0332 48.6419 71.8971 45.3492 70.4612Z" fill="#191A18"/>
<path d="M93.8892 64.7445C94.8612 66.9791 94.9949 69.0754 94.1881 69.4265C93.3812 69.7788 91.9394 68.2511 90.9675 66.0153C89.9943 63.7806 89.8606 61.6844 90.6675 61.3332C91.4732 60.9833 92.9161 62.5099 93.8892 64.7445Z" fill="#5B655C"/>
<path d="M56.9713 9.6228C58.956 10.6494 60.736 12.1016 62.1393 13.9119C62.8474 14.8036 63.5089 15.7942 63.8298 16.9197C64.1798 18.0323 64.2042 19.2403 63.967 20.3588L63.8519 20.3623C63.4461 19.281 63.1904 18.2684 62.7346 17.308C62.2951 16.3616 61.9672 15.3466 61.3766 14.4443C60.808 13.5351 60.136 12.6806 59.3803 11.8958C58.6339 11.1017 57.8142 10.3576 56.9143 9.72513L56.9713 9.6228Z" fill="#5B655C"/>
<path d="M18.4069 22.7562C18.0616 23.9503 17.8627 25.1862 17.7616 26.414C17.6453 27.6406 17.6511 28.8718 17.793 30.0752C17.9337 31.2867 18.3557 32.4098 18.6941 33.5364C19.0463 34.6793 19.6091 35.7118 20.1753 36.8721L20.0904 36.9512C19.0382 36.214 18.1534 35.1735 17.6139 33.9678C17.0605 32.7644 16.9094 31.4309 16.8664 30.1473C16.7966 27.565 17.3198 25.0351 18.2976 22.7144L18.4069 22.7562Z" fill="#5B655C"/>
</svg>
