<svg width="112" height="112" viewBox="0 0 112 112" fill="none" xmlns="http://www.w3.org/2000/svg">
<path d="M111.533 55.8635C111.533 86.4232 86.7587 111.196 56.1993 111.196C25.6399 111.196 0.865967 86.4232 0.865967 55.8635C0.865967 25.3027 25.6399 0.529625 56.1993 0.529625C86.7587 0.529625 111.533 25.3027 111.533 55.8635Z" fill="#FFE4CF"/>
<path d="M72.3149 52.0361C72.3149 52.0361 96.7808 50.4584 104.146 43.8812C111.513 37.304 86.2575 15.4693 86.2575 15.4693C86.2575 15.4693 97.0435 33.0952 93.8869 37.568C91.9929 40.2503 83.0904 39.5248 75.1925 38.7981C69.9268 38.3144 65.1064 37.8307 63.1078 38.3563L72.3149 52.0361Z" fill="#F4BC8A"/>
<path d="M79.5885 39.1759C81.8975 39.9793 83.9926 41.3849 85.7099 43.1696C86.5447 44.087 87.2725 45.1136 87.7992 46.2449C88.3143 47.3843 88.5526 48.633 88.5363 49.8491C88.2433 48.6586 87.8201 47.5552 87.247 46.5251C86.64 45.5159 85.9343 44.5753 85.1309 43.7103C84.3252 42.8464 83.4334 42.0605 82.508 41.3059C81.5708 40.5676 80.6093 39.8421 79.5885 39.1759Z" fill="#CB8E63"/>
<path d="M93.887 37.5665C94.902 37.1782 96.0588 37.1421 97.1459 37.3968C98.2411 37.6386 99.2561 38.1943 100.118 38.9047C100.992 39.6151 101.642 40.5336 102.206 41.4719C102.464 41.9544 102.684 42.4578 102.901 42.9531C103.058 43.4775 103.237 43.9878 103.367 44.5122C103.07 44.053 102.822 43.5821 102.551 43.1252L101.681 41.8032C101.042 40.9789 100.414 40.1453 99.6072 39.5116C98.0586 38.1943 96.0472 37.4235 93.887 37.5665Z" fill="#CB8E63"/>
<path d="M92.7639 28.3628C93.6754 27.4292 95.1159 27.1025 96.4227 27.3025C97.0762 27.4292 97.7133 27.6419 98.2644 27.9989C98.5516 28.1524 98.7923 28.3814 99.0445 28.5768C99.2689 28.8116 99.4945 29.0383 99.6886 29.293C99.0992 29.029 98.5492 28.7662 97.99 28.5535C97.4331 28.3349 96.8669 28.1861 96.2972 28.0849C95.1519 27.9047 93.9812 27.9885 92.7639 28.3628Z" fill="#CB8E63"/>
<path d="M39.4884 52.0361C6.59445 48.919 -7.03308 43.9893 25.5458 15.4693C10.2115 41.3699 18.3536 40.1282 35.6365 38.8853C39.5722 38.6028 43.981 38.319 48.6956 38.3563L39.4884 52.0361Z" fill="#F4BC8A"/>
<path d="M32.2136 39.1759C31.194 39.8421 30.2324 40.5676 29.2953 41.3059C28.3699 42.0605 27.4781 42.8464 26.6724 43.7103C25.869 44.5753 25.1621 45.5159 24.5552 46.5251C23.9831 47.5552 23.5599 48.6586 23.2669 49.8491C23.2495 48.633 23.489 47.3843 24.0041 46.2449C24.5308 45.1136 25.2586 44.087 26.0934 43.1696C27.8106 41.3849 29.9057 39.9793 32.2136 39.1759Z" fill="#CB8E63"/>
<path d="M18.4199 37.4223C17.3642 37.3549 16.3503 37.5793 15.4225 37.9385C14.4935 38.3117 13.6576 38.871 12.924 39.5488C12.1589 40.1999 11.566 41.0324 10.9498 41.8486L10.115 43.1531C9.85104 43.6019 9.60921 44.0634 9.31738 44.5122C9.44062 43.9971 9.61502 43.4984 9.765 42.9845C9.96382 42.4939 10.1859 42.0079 10.4207 41.5265C10.9567 40.6011 11.5648 39.6883 12.3903 38.9628C13.1995 38.2338 14.1622 37.6374 15.2272 37.3525C16.2794 37.0584 17.4223 37.0503 18.4199 37.4223Z" fill="#CB8E63"/>
<path d="M18.7048 28.1733C17.4794 27.8501 16.3155 27.8303 15.1808 28.0419C14.6157 28.1605 14.0565 28.3256 13.5031 28.5477C12.9496 28.7674 12.402 29.0302 11.816 29.293C12.0079 29.0395 12.2323 28.8139 12.4532 28.5779C12.702 28.3814 12.9403 28.1558 13.2205 27.9966C13.7623 27.6385 14.3867 27.4106 15.0296 27.263C16.3155 27.0293 17.7607 27.2769 18.7048 28.1733Z" fill="#CB8E63"/>
<path d="M72.5685 51.5087C72.5685 51.5087 74.3252 48.402 84.5892 48.402C94.8543 48.402 97.5564 50.8332 97.5564 50.8332C97.5564 50.8332 85.3054 62.5389 78.6678 62.1564C72.029 61.7727 72.5685 51.5087 72.5685 51.5087Z" fill="#4C554C"/>
<path d="M77.7492 53.0733C77.7492 53.0733 78.777 51.2561 84.7833 51.2561C90.7907 51.2561 92.3708 52.6792 92.3708 52.6792C92.3708 52.6792 85.203 59.5284 81.3185 59.3052C77.4329 59.0808 77.7492 53.0733 77.7492 53.0733Z" fill="#3B3E3A"/>
<path d="M39.8302 51.5087C39.8302 51.5087 38.0746 48.402 27.8094 48.402C17.5443 48.402 14.8423 50.8332 14.8423 50.8332C14.8423 50.8332 27.0932 62.5389 33.732 62.1564C40.3708 61.7727 39.8302 51.5087 39.8302 51.5087Z" fill="#4C554C"/>
<path d="M34.6493 53.0733C34.6493 53.0733 33.6215 51.2561 27.6152 51.2561C21.6089 51.2561 20.0277 52.6792 20.0277 52.6792C20.0277 52.6792 27.1955 59.5284 31.0811 59.3052C34.9656 59.0808 34.6493 53.0733 34.6493 53.0733Z" fill="#3B3E3A"/>
<path d="M70.5094 92.3909C70.5094 98.4321 64.0973 103.332 56.1936 103.332C53.6869 103.332 51.3383 102.834 49.285 101.977C46.4179 100.76 44.1542 98.8239 42.9265 96.4858C42.2498 95.2162 41.8789 93.8291 41.8789 92.3909C41.8789 92.2002 41.8894 92.0212 41.8998 91.841C41.8998 91.841 45.9633 85.6835 49.7408 85.1429C51.6871 84.8685 53.3369 85.5452 54.4798 86.2753C55.5274 86.952 56.8609 86.952 57.919 86.2753C59.0619 85.5452 60.7117 84.8685 62.6487 85.1429C66.4355 85.6835 70.4885 91.841 70.4885 91.841C70.4989 92.0212 70.5094 92.2002 70.5094 92.3909Z" fill="#3B3E3A"/>
<path d="M81.3325 64.5536C81.3325 65.7174 81.2697 66.8603 81.1418 67.9811C80.3814 74.8688 77.3341 80.9845 72.8788 85.3654C71.1546 87.0676 70.3291 89.4278 70.4884 91.8403C70.4884 91.8403 66.4353 85.6828 62.6485 85.1422C60.7116 84.8678 59.0617 85.5445 57.9188 86.2746C56.8608 86.9513 55.5273 86.9513 54.4797 86.2746C53.3368 85.5445 51.687 84.8678 49.7407 85.1422C45.9632 85.6828 41.8997 91.8403 41.8997 91.8403C41.995 90.4114 41.7416 89.0046 41.1707 87.7454C40.7684 86.8676 40.2185 86.063 39.5093 85.3654C35.0435 80.974 32.0078 74.8479 31.2451 67.9393C31.1288 66.8278 31.066 65.6965 31.066 64.5536C31.066 62.7968 31.2137 61.0714 31.4997 59.4111C32.5368 53.1896 35.4562 47.7088 39.5511 43.6894C43.9948 39.3503 49.8139 36.7157 56.1935 36.7157C62.5741 36.7157 68.4037 39.3503 72.8369 43.6894C76.9318 47.6983 79.8408 53.1687 80.8883 59.3681L80.8988 59.3902C81.1325 60.7761 81.2802 62.2154 81.3116 63.6641C81.322 63.9606 81.3325 64.2571 81.3325 64.5536Z" fill="#4C554C"/>
<path d="M78.0143 64.5245C78.0143 65.5685 77.9585 66.5928 77.8434 67.5986C77.1609 73.7747 74.4286 79.259 70.4337 83.1865C69.7605 83.8516 69.2408 84.6282 68.8792 85.4723C68.3642 86.6757 66.7493 86.9048 65.847 85.9572C64.5414 84.5852 62.8741 83.2168 61.2592 82.9877C59.5233 82.7412 58.0432 83.3481 57.0189 84.0027C56.0702 84.6096 54.875 84.6096 53.9356 84.0027C52.9113 83.3481 51.4312 82.7412 49.6849 82.9877C48.0746 83.2179 46.4062 84.5864 45.0993 85.9595C44.1588 86.9466 42.5729 86.6001 42.016 85.3549L41.9997 85.3212C41.6393 84.5341 41.1463 83.8132 40.5103 83.1865C36.5073 79.2497 33.7843 73.7561 33.1007 67.5614C32.9961 66.565 32.9391 65.5499 32.9391 64.5245C32.9391 62.9502 33.0728 61.4027 33.3286 59.9133C34.2587 54.3348 36.877 49.4202 40.5487 45.8147C44.5331 41.9256 49.7512 39.563 55.4726 39.563C61.1941 39.563 66.4214 41.9256 70.3965 45.8147C74.0682 49.4109 76.6772 54.3162 77.6166 59.8761L77.6259 59.8947C77.8341 61.1376 77.9666 62.4282 77.9957 63.728C78.005 63.9931 78.0143 64.2594 78.0143 64.5245Z" fill="#5B655C"/>
<path d="M45.3063 66.5656C45.3063 66.5656 41.3789 60.6034 35.2586 65.6203C35.2586 65.6203 39.9651 70.1791 45.3063 66.5656Z" fill="white"/>
<path d="M42.0196 65.1687C42.1614 66.0303 41.5778 66.843 40.7174 66.9836C39.8571 67.1255 39.0444 66.5418 38.9025 65.6803C38.7618 64.8199 39.3455 64.0072 40.2059 63.8665C41.0662 63.7259 41.8789 64.3084 42.0196 65.1687Z" fill="#191A18"/>
<path d="M40.0245 65.3017C40.0698 65.5749 39.821 65.8435 39.4687 65.9004C39.1164 65.9586 38.7955 65.7842 38.7502 65.5098C38.706 65.2377 38.9548 64.9692 39.3071 64.911C39.6582 64.8529 39.9803 65.0284 40.0245 65.3017Z" fill="white"/>
<path d="M34.4157 65.7396C35.3296 65.0246 36.2993 64.3677 37.355 63.8468C38.406 63.3526 39.5489 62.819 40.8813 62.9841C42.137 63.1341 43.2962 63.7236 44.2333 64.5049C45.1704 65.3048 45.9447 66.2163 46.5586 67.3045L46.5632 67.315L46.6086 67.4336C47.0515 69.5729 47.2073 71.6901 47.2469 73.8306C47.2724 75.964 47.1411 78.101 46.7876 80.2043C46.1121 84.4096 44.5018 88.4894 41.9428 91.8704L41.8696 91.8809L41.8568 91.8076C43.0438 90.0671 44.0216 88.1882 44.7169 86.2094C45.4285 84.2375 45.8947 82.1843 46.1714 80.1124C46.4516 78.0406 46.5121 75.9419 46.4191 73.8561C46.3144 71.7773 46.0377 69.6752 45.5715 67.6894L45.6203 67.8173C45.0646 66.9185 44.3484 66.0279 43.5426 65.3187C42.7253 64.6153 41.7928 64.041 40.7511 63.8619C39.771 63.6759 38.6409 64.0096 37.591 64.3863C36.5341 64.792 35.4935 65.2838 34.4739 65.828L34.4018 65.8059L34.4157 65.7396Z" fill="#3B3E3A"/>
<path d="M67.1539 66.5656C67.1539 66.5656 71.0813 60.6034 77.2016 65.6203C77.2016 65.6203 72.4951 70.1791 67.1539 66.5656Z" fill="white"/>
<path d="M70.4395 65.1687C70.2988 66.0303 70.8825 66.843 71.7428 66.9836C72.6044 67.1255 73.4159 66.5418 73.5566 65.6803C73.6984 64.8199 73.1159 64.0072 72.2544 63.8665C71.394 63.7259 70.5813 64.3084 70.4395 65.1687Z" fill="#191A18"/>
<path d="M72.4359 65.3017C72.3905 65.5749 72.6393 65.8435 72.9916 65.9004C73.3428 65.9586 73.6648 65.7842 73.709 65.5098C73.7543 65.2377 73.5055 64.9692 73.1532 64.911C72.8021 64.8529 72.4801 65.0284 72.4359 65.3017Z" fill="white"/>
<path d="M77.9864 65.8292C76.9668 65.2839 75.9262 64.7933 74.8693 64.3875C73.8206 64.0108 72.6882 63.6772 71.7092 63.8632C70.6675 64.0422 69.7338 64.6166 68.9177 65.32C68.1108 66.0292 67.3957 66.9198 66.8388 67.8186L66.8888 67.6907C66.4226 69.6765 66.1459 71.7786 66.0412 73.8574C65.9482 75.9432 66.0075 78.0418 66.2889 80.1137C66.5656 82.1856 67.0307 84.2388 67.7434 86.2107C68.4387 88.1895 69.4164 90.0684 70.6023 91.8089L70.5896 91.8833L70.5175 91.8717C67.9585 88.4906 66.3482 84.4109 65.6727 80.2055C65.3192 78.1023 65.1878 75.9653 65.2134 73.8318C65.2529 71.6914 65.4087 69.5742 65.8517 67.4349L65.8959 67.3174L65.9017 67.3058C66.5156 66.2176 67.2888 65.3061 68.227 64.5061C69.1641 63.7248 70.3233 63.1354 71.579 62.9854C72.9114 62.8203 74.0543 63.3539 75.1053 63.8481C76.161 64.3689 77.1307 65.0258 78.0434 65.7409L78.0527 65.8153L77.9864 65.8292Z" fill="#3B3E3A"/>
<path d="M60.5197 93.8945C62.2265 93.8235 63.3392 93.1434 63.9403 92.2691C64.5437 91.3994 64.6611 90.4204 64.6634 89.7251C64.6623 89.1578 64.5809 88.766 64.5762 88.7415C64.5193 88.4706 64.2646 88.2904 63.9903 88.3253C63.3147 88.4125 62.7369 88.616 62.2556 88.945C61.5301 89.4403 61.0638 90.1798 60.6953 91.0715C60.3244 91.9691 60.0337 93.0445 59.6791 94.3165C59.3943 95.321 58.9466 95.8442 58.4851 96.1523C58.0235 96.4593 57.5096 96.55 57.0899 96.5558C56.7934 96.5593 56.4957 96.5616 56.1993 96.5616C55.9028 96.5616 55.6063 96.5593 55.3098 96.5558C54.889 96.55 54.3762 96.4593 53.9135 96.1523C53.4519 95.8442 53.0043 95.321 52.7206 94.3165C52.2451 92.6202 51.8939 91.2738 51.2963 90.2344C50.9975 89.7159 50.6255 89.2729 50.143 88.945C49.6628 88.616 49.0838 88.4125 48.4083 88.3253C48.135 88.2904 47.8804 88.4706 47.8235 88.7415C47.8177 88.766 47.7363 89.1578 47.7363 89.7251C47.7374 90.4216 47.8549 91.3994 48.4583 92.2691C49.0605 93.1434 50.172 93.8235 51.88 93.8945C52.1718 93.9084 52.4195 93.6828 52.4334 93.391C52.4474 93.0992 52.2218 92.8515 51.93 92.8376C50.4569 92.7585 49.7488 92.254 49.3256 91.6622C48.9047 91.0669 48.792 90.2995 48.7943 89.7251C48.7943 89.4938 48.8117 89.295 48.828 89.1589L48.8501 89.0031L48.8582 88.9601L48.3408 88.8508L48.2734 89.3752C48.8222 89.4461 49.221 89.5973 49.5477 89.8193C50.0325 90.1495 50.3941 90.675 50.7266 91.4773C51.058 92.2749 51.3463 93.3247 51.7009 94.6002C52.0335 95.8024 52.6439 96.586 53.331 97.036C54.0158 97.4871 54.7401 97.6057 55.2947 97.6138C55.5959 97.6173 55.8981 97.6196 56.1993 97.6196C56.5016 97.6196 56.8027 97.6173 57.105 97.6138C57.6596 97.6057 58.3839 97.4871 59.0687 97.036C59.7547 96.586 60.3662 95.8024 60.6976 94.6002C61.1696 92.8992 61.5289 91.6005 62.0184 90.7646C62.2625 90.3437 62.5265 90.0414 62.852 89.8193C63.1776 89.5973 63.5775 89.4461 64.1263 89.3752L64.0589 88.8508L63.5403 88.9601L63.5415 88.9659C63.5519 89.0182 63.6054 89.3194 63.6054 89.7251C63.6066 90.2995 63.495 91.0657 63.0729 91.6622C62.6497 92.254 61.9417 92.7585 60.4697 92.8376C60.1779 92.8515 59.9523 93.0992 59.9663 93.391C59.9802 93.6828 60.2279 93.9084 60.5197 93.8945Z" fill="#191A18"/>
<path d="M51.6673 92.9705C51.6673 92.9705 51.6336 89.3512 48.341 88.85C48.341 88.85 48.0887 93.1344 51.6673 92.9705Z" fill="#191A18"/>
<path d="M60.8035 92.9705C60.8035 92.9705 60.8383 89.3512 64.1298 88.85C64.1298 88.85 64.3833 93.1344 60.8035 92.9705Z" fill="#191A18"/>
<path d="M45.6981 99.9023C46.5131 98.7757 47.6944 97.9549 48.971 97.405C50.2488 96.8585 51.6963 96.6283 53.0554 96.8922C51.7091 97.198 50.4546 97.5305 49.2477 98.0618C48.0316 98.5653 46.8817 99.2013 45.6981 99.9023Z" fill="#191A18"/>
<path d="M66.3318 100.23C65.1482 99.5289 63.9972 98.8917 62.7822 98.3895C61.5742 97.8581 60.3208 97.5256 58.9745 97.2187C60.3336 96.9559 61.7823 97.1861 63.0589 97.7326C64.3355 98.2814 65.5168 99.1034 66.3318 100.23Z" fill="#191A18"/>
<path d="M86.0228 43.5239C85.9205 43.4042 85.8158 43.2855 85.71 43.1693C85.0973 42.5321 84.4369 41.9439 83.7358 41.4137C84.4369 41.3451 85.1368 41.2765 85.8356 41.2033L90.4548 40.7533C91.9558 40.5894 93.5173 40.3382 94.6974 39.7394C94.9752 39.5871 95.2275 39.415 95.3659 39.2406C95.445 39.1744 95.5019 39.0489 95.5508 38.907C95.5996 38.771 95.6787 38.657 95.7205 38.5024C95.7775 38.2443 95.8205 37.9711 95.8484 37.6885C96.4007 37.7932 96.9332 37.9582 97.4424 38.1722C97.4261 38.4047 97.4005 38.6408 97.3633 38.8803C97.3203 39.1116 97.2168 39.3569 97.1378 39.5941C97.0622 39.8336 96.9669 40.072 96.7809 40.3092C96.4483 40.7777 96.0437 41.08 95.6484 41.3381C94.0463 42.3043 92.4244 42.6542 90.8153 43.0263C89.2201 43.3472 87.6179 43.4983 86.0228 43.5239ZM84.9519 43.5216C82.0674 43.4844 79.2014 43.2065 76.3785 42.5113L76.3913 42.2787C78.5306 41.9392 80.6524 41.7183 82.7568 41.5102C83.5254 42.1461 84.2683 42.8077 84.9519 43.5216ZM97.4645 37.4781C97.3587 37.4479 97.2529 37.4211 97.1459 37.3979C96.7297 37.3002 96.3042 37.2467 95.8809 37.2374C95.8926 36.9595 95.8903 36.6747 95.874 36.3863C95.8042 34.8853 95.4973 33.3413 95.1218 31.8252C94.8264 30.5637 94.4776 29.3115 94.0916 28.0663C94.3707 28.028 94.6474 28.0047 94.9229 27.9966C95.3938 29.1499 95.8344 30.3196 96.2402 31.5067C96.7378 33.0367 97.1762 34.5958 97.3808 36.2584C97.4296 36.6561 97.461 37.0619 97.4645 37.4781ZM93.9393 27.5792C93.4277 25.9724 92.8592 24.3784 92.2651 22.7972L92.4767 22.6995C93.2615 24.2226 93.9893 25.7736 94.6567 27.356C94.4102 27.4094 94.1695 27.4838 93.9393 27.5792Z" fill="#F7D6B2"/>
<path d="M85.6403 43.5249C85.4113 43.5249 85.181 43.5238 84.952 43.5214C84.2683 42.8076 83.5254 42.146 82.7569 41.51C83.0836 41.4774 83.4091 41.4461 83.7358 41.4135C84.4369 41.9437 85.0973 42.532 85.71 43.1691C85.8158 43.2854 85.9205 43.404 86.0228 43.5238C86.0042 43.5238 85.9856 43.5249 85.9659 43.5249C85.8577 43.5249 85.7484 43.5249 85.6403 43.5249Z" fill="#E0B897"/>
<path d="M97.4425 38.1724C96.9332 37.9584 96.4007 37.7934 95.8484 37.6887C95.8636 37.5399 95.874 37.3899 95.881 37.2376C96.3042 37.2469 96.7297 37.3004 97.146 37.3981C97.2529 37.4213 97.3587 37.4481 97.4645 37.4783C97.4657 37.7062 97.4599 37.9375 97.4425 38.1724Z" fill="#E0B897"/>
<path d="M94.0916 28.0664C94.0417 27.9036 93.9905 27.742 93.9393 27.5793C94.1695 27.4839 94.4102 27.4095 94.6567 27.356C94.7462 27.5688 94.8346 27.7827 94.9229 27.9966C94.6474 28.0048 94.3707 28.028 94.0916 28.0664Z" fill="#E0B897"/>
<path d="M26.2841 42.9746C26.1818 42.9746 26.0795 42.9746 25.9772 42.9734C24.3634 42.9502 22.7415 42.8002 21.1289 42.4746C19.5197 42.1026 17.8978 41.7538 16.2957 40.7876C15.9004 40.5295 15.4958 40.2261 15.1633 39.7575C14.9761 39.5215 14.8819 39.282 14.8052 39.0436C14.7273 38.81 14.6261 38.5681 14.5819 38.3414C14.8528 38.1903 15.133 38.0565 15.4225 37.9403C15.6655 37.8449 15.9155 37.7601 16.1701 37.688C16.1864 37.7775 16.2038 37.8659 16.2224 37.9519C16.2643 38.1065 16.3434 38.2205 16.3922 38.3565C16.441 38.4972 16.4992 38.6239 16.5782 38.6902C16.7166 38.8646 16.9677 39.0367 17.2468 39.189C18.4257 39.7878 19.9883 40.0389 21.4893 40.2017L26.1086 40.6516C26.9899 40.7446 27.8746 40.8307 28.7629 40.9179C27.8746 41.5178 27.0445 42.2096 26.2841 42.9746ZM27.4084 42.963C28.0083 42.384 28.6432 41.8375 29.2954 41.3062C29.4221 41.2062 29.5489 41.1074 29.6768 41.0074C31.6207 41.2016 33.5786 41.4143 35.5528 41.7282L35.5645 41.9596C32.8787 42.6223 30.1523 42.906 27.4084 42.963ZM14.4994 37.602C14.4552 36.9462 14.4866 36.3172 14.5633 35.708C14.7668 34.0442 15.2063 32.4851 15.7039 30.955C16.0562 29.9261 16.4329 28.9099 16.8352 27.9065C17.1235 27.9123 17.4165 27.9356 17.7118 27.9751C17.3816 29.0692 17.0817 30.1679 16.8212 31.2736C16.4468 32.7909 16.1399 34.3337 16.069 35.8347C16.0434 36.2974 16.0539 36.7508 16.0992 37.1799C15.8051 37.2159 15.5121 37.274 15.2272 37.3543C14.9784 37.4205 14.7354 37.5043 14.4994 37.602Z" fill="#F7D6B2"/>
<path d="M26.312 42.9746C26.3027 42.9746 26.2934 42.9746 26.2841 42.9746C27.0445 42.2096 27.8746 41.5178 28.7629 40.9179C29.0675 40.9469 29.3721 40.9772 29.6768 41.0074C29.5489 41.1074 29.4221 41.2062 29.2954 41.3062C28.6432 41.8375 28.0083 42.384 27.4084 42.963C27.0433 42.9711 26.6783 42.9746 26.312 42.9746Z" fill="#E0B897"/>
<path d="M14.5819 38.3413C14.5819 38.3367 14.5807 38.3332 14.5795 38.3285C14.5423 38.0832 14.5156 37.8402 14.4993 37.6019C14.7353 37.5042 14.9783 37.4205 15.2272 37.3542C15.512 37.274 15.805 37.2158 16.0992 37.1798C16.1166 37.353 16.141 37.5228 16.1701 37.6879C15.9154 37.76 15.6655 37.8448 15.4225 37.9402C15.133 38.0564 14.8528 38.1902 14.5819 38.3413Z" fill="#E0B897"/>
<path d="M17.8315 27.5806C17.5908 27.4666 17.3373 27.3782 17.0746 27.3131C17.7989 25.5552 18.5977 23.8345 19.4662 22.1486L19.6778 22.2451C19.0162 24.0077 18.3849 25.7866 17.8315 27.5806Z" fill="#F7D6B2"/>
<path d="M17.7118 27.9741C17.4165 27.9346 17.1235 27.9114 16.8351 27.9055C16.9142 27.7067 16.9944 27.5091 17.0746 27.3126C17.3374 27.3777 17.5909 27.4661 17.8315 27.58C17.7908 27.7114 17.7513 27.8427 17.7118 27.9741Z" fill="#E0B897"/>
<path d="M38.5942 56.4034C40.322 58.4148 44.9028 57.315 48.8257 53.9456C52.7496 50.5762 54.5297 46.2139 52.8019 44.2025C51.0754 42.1911 46.4934 43.2909 42.5705 46.6603C38.6466 50.0285 36.8665 54.3909 38.5942 56.4034Z" fill="#6B746C"/>
</svg>
