<svg width="111" height="112" viewBox="0 0 111 112" fill="none" xmlns="http://www.w3.org/2000/svg">
<mask id="mask0_29_15891" style="mask-type:luminance" maskUnits="userSpaceOnUse" x="0" y="0" width="111" height="112">
<path d="M111 55.8633C111 86.4247 86.2252 111.198 55.6649 111.198C25.1047 111.198 0.329956 86.4247 0.329956 55.8633C0.329956 25.303 25.1047 0.528236 55.6649 0.528236C86.2252 0.528236 111 25.303 111 55.8633Z" fill="white"/>
</mask>
<g mask="url(#mask0_29_15891)">
<path d="M111 55.8633C111 86.4247 86.2252 111.198 55.6649 111.198C25.1047 111.198 0.329956 86.4247 0.329956 55.8633C0.329956 25.303 25.1047 0.528236 55.6649 0.528236C86.2252 0.528236 111 25.303 111 55.8633Z" fill="#F2E5D4"/>
<path d="M70.7951 111.168C71.2741 104.313 71.4892 96.9122 81.8279 92.9962C99.116 86.4491 94.1025 79.2985 92.6654 67.153C91.2829 55.483 109.671 38.0751 78.1968 20.5777C74.6715 18.6163 70.3939 18.2558 66.6989 19.8755C63.7084 21.187 61.0889 23.6914 61.7284 28.4689C63.105 38.7588 70.0137 44.9885 63.1189 52.0124C56.2253 59.0362 61.9156 62.3278 57.1985 69.4609C52.4815 76.5952 32.8505 76.6196 30.3821 92.9381C29.1659 100.98 28.9915 106.66 29.9519 111.168H70.7951Z" fill="#3B3E3A"/>
<path d="M64.7701 83.4414C64.5131 79.9556 64.8805 76.2083 64.8805 76.2083C49.8585 72.5818 49.1737 59.2236 49.1737 59.2236L48.7621 61.5362C50.6817 71.2936 55.8662 80.2556 64.7701 83.4414Z" fill="#CB8E63"/>
<path d="M48.762 61.5361L45.6204 79.1904C52.6535 88.456 64.8804 84.6109 64.8804 84.6109C64.8339 84.2284 64.799 83.8354 64.77 83.4413C55.866 80.2555 50.6816 71.2934 48.762 61.5361Z" fill="#F4BC8A"/>
<path d="M77.9759 27.2329C77.9759 27.2329 82.1883 34.1777 80.7082 40.2109C80.4582 41.2306 80.2768 42.1491 80.1466 42.9723C79.6118 46.3732 80.535 49.8067 82.6487 52.5239C83.4882 53.604 84.4486 54.6481 85.3764 55.2388C87.8809 56.8328 82.4162 59.2233 82.4162 59.6791C82.4162 60.1337 82.0186 62.8893 82.872 63.7776C84.2382 65.1996 81.2779 66.1681 81.2779 66.1681C81.2779 66.1681 82.3534 66.4088 82.1592 67.7621C81.9604 69.1562 80.3664 68.9004 80.3664 69.8108C80.3664 70.7224 81.9604 75.7313 76.8376 76.301C71.7147 76.8696 58.3949 77.4381 53.0442 70.6073C47.6935 63.7776 49.1736 59.2233 49.1736 59.2233C49.1736 59.2233 44.6193 58.5141 45.4158 51.9251C45.6006 50.4066 46.1145 48.5719 47.2354 47.4685C48.8283 45.9 50.6188 47.3231 51.9733 48.4824C53.1872 49.5206 54.2987 50.3078 55.8905 50.6857C60.2157 51.71 60.8994 38.618 66.1361 34.6323C71.3729 30.6489 77.9759 27.2329 77.9759 27.2329Z" fill="#F4BC8A"/>
<path d="M80.0456 57.0609C80.1444 57.4504 80.3211 57.8178 80.5595 58.0794C80.6839 58.2131 80.8443 58.2713 80.9618 58.384C81.0769 58.5166 81.2292 58.5921 81.4013 58.7782L81.3943 58.8294C81.1711 58.9398 80.9211 58.9235 80.6944 58.834C80.4688 58.7387 80.3177 58.5236 80.2165 58.3201C79.9967 57.9166 79.9433 57.476 79.9933 57.0621L80.0456 57.0609Z" fill="#CB8E63"/>
<path d="M80.6223 69.2933C78.7108 69.6793 77.4075 65.1995 77.4075 65.1995C77.4075 65.1995 78.6318 64.9309 80.1398 63.9856C81.535 63.1112 82.8721 63.7775 82.8721 63.7775C82.8721 63.7775 84.5418 65.5262 81.7385 66.4145C81.7385 66.4145 84.0837 68.5969 80.6223 69.2933Z" fill="#E75F2C"/>
<path d="M81.742 66.4464C81.3665 66.6591 80.9583 66.68 80.5584 66.687C80.1572 66.6754 79.7782 66.5254 79.412 66.3824C78.6725 66.1057 77.99 65.7092 77.39 65.2267L77.4237 65.1732C78.1155 65.4976 78.8306 65.7418 79.5526 65.8964C79.9177 65.9673 80.2863 65.972 80.6397 66.0603C80.9944 66.1638 81.3513 66.2336 81.735 66.3836L81.742 66.4464Z" fill="#CF4D2A"/>
<path d="M78.0981 45.7061C76.7331 45.2259 75.3878 44.8538 74.0252 44.7817C73.345 44.7294 72.673 44.8143 72.0056 44.9468C71.3277 45.0735 70.7138 45.3956 70.0522 45.7061C70.5348 45.1712 71.1359 44.6934 71.8474 44.4399C72.5462 44.1667 73.3124 44.0527 74.0612 44.0934C74.8077 44.1457 75.5425 44.3027 76.2227 44.5852C76.9028 44.8643 77.5528 45.2166 78.0981 45.7061Z" fill="#3B3E3A"/>
<path d="M77.7248 48.7706C77.7248 48.7706 74.7936 44.3198 70.2266 48.066C70.2266 48.066 73.7391 51.468 77.7248 48.7706Z" fill="white"/>
<path d="M75.2726 47.7304C75.3784 48.3722 74.9424 48.978 74.3006 49.0838C73.6576 49.1896 73.0506 48.7536 72.946 48.1118C72.8402 47.4688 73.2762 46.8619 73.9192 46.7572C74.561 46.6514 75.1667 47.0875 75.2726 47.7304Z" fill="#3B3E3A"/>
<path d="M73.7833 47.829C73.817 48.0325 73.631 48.2325 73.3682 48.2755C73.1054 48.3185 72.8659 48.1883 72.8322 47.9848C72.7985 47.7802 72.9845 47.5802 73.2473 47.5372C73.5101 47.4941 73.7496 47.6244 73.7833 47.829Z" fill="white"/>
<path d="M78.291 49.5274C77.7945 48.8821 77.1887 48.3275 76.5365 47.8647C75.8807 47.3996 75.1296 47.1113 74.3738 46.9671C73.6239 46.773 72.824 46.9625 72.0636 47.1997C71.3032 47.4566 70.5649 47.8066 69.8521 48.2065L69.8219 48.1984L69.8265 48.1693C70.4834 47.6787 71.1881 47.238 71.9589 46.9194C72.7205 46.595 73.5809 46.3927 74.4506 46.5218C75.3156 46.6404 76.0598 47.1264 76.7109 47.6333C77.3573 48.1635 77.898 48.803 78.3293 49.503L78.3223 49.5332L78.291 49.5274Z" fill="#3B3E3A"/>
<path d="M64.8805 84.611L75.289 112.753H33.325C31.5577 99.2331 34.4086 86.8446 46.0786 76.6163C46.0786 76.6163 55.3441 85.4075 64.8805 84.611Z" fill="#E75F2C"/>
<path d="M76.4981 18.6047C80.2106 20.1836 83.1231 23.338 84.1138 27.2482C84.916 30.413 84.5486 34.0185 80.3861 36.4486C71.4206 41.6819 62.2609 40.0564 60.9517 49.8103C59.6437 59.5653 53.5511 57.0969 50.8176 65.1997C48.0853 73.3049 60.1239 88.8117 48.762 100.782C37.399 112.753 31.0751 115.393 21.4794 114.085C11.8836 112.777 2.9425 102.628 2.9425 90.9104C2.9425 79.1916 22.57 77.8835 17.1181 60.2187C11.6662 42.555 20.3887 42.119 30.8565 35.794C40.915 29.7177 43.359 4.51515 76.4981 18.6047Z" fill="#3B3E3A"/>
<path d="M75.3436 24.659C76.0412 26.4925 75.847 28.7052 74.689 30.4004C73.4879 32.0595 71.6555 33.1304 69.7777 33.7478C68.8476 34.1175 67.8512 34.2489 66.9082 34.4989C65.9804 34.7093 65.0502 34.9058 64.1654 35.2302C62.3923 35.8395 60.6913 36.6789 59.3833 37.9916C58.0252 39.2543 57.1381 40.9623 56.4393 42.7424C55.7277 44.5236 55.1941 46.406 54.4197 48.2035C53.6802 50.065 52.1885 51.4951 50.6386 52.652C49.0736 53.8136 47.461 54.8984 46.1215 56.2459C44.7728 57.5842 43.7938 59.2236 43.2741 61.013C42.7637 62.8082 42.6242 64.6964 42.7207 66.602C42.9055 70.4134 43.6706 74.2177 44.2019 78.0639C44.7705 81.9008 45.2495 85.8237 44.853 89.7699C44.6472 91.7302 44.1519 93.7056 43.1869 95.4508C42.2474 97.217 40.7232 98.6052 39.021 99.54L38.9617 99.4401C40.5755 98.3739 41.8742 96.8984 42.6649 95.1811C43.488 93.4777 43.8148 91.5779 43.9473 89.6909C44.1845 85.8865 43.5694 82.0601 43.016 78.2441C42.416 74.4258 41.7324 70.5831 41.6277 66.6369C41.5556 64.6743 41.7719 62.6396 42.3951 60.7339C43.0067 58.812 44.2112 57.104 45.6809 55.7855C47.1366 54.4321 48.8481 53.4683 50.3944 52.3242C51.1816 51.7672 51.9106 51.1463 52.5675 50.4557C53.2093 49.7488 53.6965 48.9384 54.0488 48.0466C54.7918 46.2723 55.2266 44.3864 55.8312 42.5226C56.4405 40.6751 57.2602 38.7799 58.6973 37.3149C60.1216 35.8604 61.947 34.8488 63.8457 34.2605C64.7921 33.9384 65.7653 33.7547 66.7338 33.5594C67.6675 33.3327 68.6151 33.2315 69.4999 32.9002C71.2881 32.3514 73.0298 31.4956 74.1948 30.0423C75.3238 28.5831 75.7086 26.5635 75.2343 24.6997L75.3436 24.659Z" fill="#4C554C"/>
<path d="M20.5656 89.9073C21.6969 89.3085 22.7375 88.5586 23.692 87.7307C24.1897 87.3401 24.6094 86.8634 25.0605 86.4273C25.4489 85.932 25.9023 85.4937 26.2442 84.967C27.7324 82.9521 28.6998 80.6151 29.1951 78.1653C29.7043 75.7259 29.8369 73.1273 29.3672 70.61C29.1893 69.3485 28.8928 68.0847 28.623 66.822C28.4207 65.5477 28.1056 64.2861 27.9754 62.9932C27.615 60.4283 27.4882 57.7716 28.0708 55.1567C28.3219 53.8451 28.8532 52.572 29.566 51.3988C30.2903 50.2222 31.3961 49.2676 32.6285 48.6374C33.8505 48.0014 35.3155 47.7747 36.5363 47.6573C37.7223 47.5143 38.8838 47.0643 39.9558 46.4423C42.108 45.1935 43.9776 43.3809 45.5705 41.3787L45.6693 41.4415C44.3717 43.682 42.6405 45.7109 40.4337 47.2154C39.3222 47.9456 38.0676 48.5235 36.7049 48.7642L35.7445 48.9293C35.4434 48.9676 35.1446 49.0188 34.8574 49.1083C34.2726 49.2444 33.7122 49.4641 33.1936 49.742C31.0449 50.7931 29.7171 53.0173 29.1346 55.4101C28.5277 57.8181 28.473 60.3888 28.6091 62.9328C28.6288 63.5723 28.6916 64.2083 28.7719 64.8442C28.8463 65.4802 28.9021 66.1197 29.0265 66.7487L29.7381 70.5449C30.2962 73.0692 30.5171 75.7155 30.1473 78.3373C29.7636 80.9534 28.6358 83.4776 26.9546 85.5216C26.1244 86.5552 25.1326 87.4447 24.0688 88.2109C23.006 88.9771 21.8445 89.6062 20.6063 90.0166L20.5656 89.9073Z" fill="#4C554C"/>
<path d="M61.9435 20.7043C59.574 21.0321 57.3509 21.6519 55.1627 22.4379C54.0605 22.8029 52.9222 23.1727 51.9083 23.7831C50.8805 24.3691 49.9771 25.1539 49.1795 26.0166C48.3796 26.8805 47.6796 27.82 46.9576 28.7362C46.2553 29.6733 45.6205 30.6651 44.9159 31.6289C44.1973 32.5812 43.4672 33.5707 42.4928 34.3846C41.5417 35.1996 40.2105 35.7472 38.9896 35.4996L38.9931 35.3833C40.1907 35.2182 41.1278 34.5706 41.8603 33.723C42.6021 32.8777 43.2369 31.8929 43.9055 30.9116C45.267 28.9757 46.7901 27.0026 48.7516 25.5469C49.7155 24.8063 50.7108 24.1354 51.7072 23.4633C52.6897 22.7727 53.7 22.0844 54.7988 21.5414C57.0161 20.5392 59.5542 20.1055 61.9529 20.5892L61.9435 20.7043Z" fill="#4C554C"/>
<path d="M88.6704 37.1883C90.0272 37.3278 91.0783 38.4382 91.6736 39.6091C92.2747 40.8113 92.5305 42.1356 92.6468 43.4401C92.8595 46.0632 92.4979 48.6723 91.9503 51.1849C91.3818 53.6916 90.6504 56.1589 89.9633 58.6284C89.3331 61.0957 88.4867 63.5862 88.6134 66.0871C88.6645 67.3393 88.968 68.5497 89.2471 69.7996C89.5319 71.0495 89.8168 72.311 89.983 73.6121C90.1505 74.9085 90.2284 76.2584 89.9656 77.6211C89.718 78.9791 89.0006 80.3057 87.9611 81.2464C86.9252 82.1881 85.6497 82.7706 84.4347 83.216C83.2592 83.6206 82.1395 84.1775 81.0756 84.8263C78.9549 86.125 77.0353 87.8551 75.6424 89.9863L75.5377 89.9363C76.6167 87.5749 78.4456 85.5902 80.5757 84.067C81.6558 83.3229 82.8092 82.6683 84.0301 82.1719C85.1834 81.6672 86.2729 81.1568 87.117 80.3371C88.882 78.7686 89.1796 76.2002 88.8971 73.7365C88.7657 72.4936 88.5564 71.2402 88.3413 69.981C88.1134 68.7253 87.9332 67.4068 87.9762 66.0929C88.0588 63.4327 89.0389 61.0224 89.5982 58.5343C90.2005 56.0472 90.5993 53.5195 91.0004 50.9988C91.4097 48.4909 91.8224 45.9957 91.7468 43.4959C91.6934 42.2588 91.5864 40.9985 91.1178 39.8602C90.6656 38.7521 89.8842 37.6546 88.6599 37.3046L88.6704 37.1883Z" fill="#4C554C"/>
</g>
</svg>
